  0
SECTION
  2
HEADER
  9
$ACADVER
  1
AC1014
  9
$ACADMAINTVER
 70
     9
  9
$DWGCODEPAGE
  3
ANSI_1252
  9
$INSBASE
 10
0.0
 20
0.0
 30
0.0
  9
$EXTMIN
 10
1.000000000000000E+20
 20
1.000000000000000E+20
 30
1.000000000000000E+20
  9
$EXTMAX
 10
-1.000000000000000E+20
 20
-1.000000000000000E+20
 30
-1.000000000000000E+20
  9
$LIMMIN
 10
0.0
 20
0.0
  9
$LIMMAX
 10
12.0
 20
9.0
  9
$ORTHOMODE
 70
     0
  9
$REGENMODE
 70
     1
  9
$FILLMODE
 70
     1
  9
$QTEXTMODE
 70
     0
  9
$MIRRTEXT
 70
     1
  9
$DRAGMODE
 70
     2
  9
$LTSCALE
 40
1.0
  9
$OSMODE
 70
    37
  9
$ATTMODE
 70
     1
  9
$TEXTSIZE
 40
0.2
  9
$TRACEWID
 40
0.05
  9
$TEXTSTYLE
  7
STANDARD
  9
$CLAYER
  8
0
  9
$CELTYPE
  6
BYLAYER
  9
$CECOLOR
 62
   256
  9
$CELTSCALE
 40
1.0
  9
$DELOBJ
 70
     1
  9
$DISPSILH
 70
     0
  9
$DIMSCALE
 40
1.0
  9
$DIMASZ
 40
0.18
  9
$DIMEXO
 40
0.0625
  9
$DIMDLI
 40
0.38
  9
$DIMRND
 40
0.0
  9
$DIMDLE
 40
0.0
  9
$DIMEXE
 40
0.18
  9
$DIMTP
 40
0.0
  9
$DIMTM
 40
0.0
  9
$DIMTXT
 40
0.18
  9
$DIMCEN
 40
0.09
  9
$DIMTSZ
 40
0.0
  9
$DIMTOL
 70
     0
  9
$DIMLIM
 70
     0
  9
$DIMTIH
 70
     1
  9
$DIMTOH
 70
     1
  9
$DIMSE1
 70
     0
  9
$DIMSE2
 70
     0
  9
$DIMTAD
 70
     0
  9
$DIMZIN
 70
     0
  9
$DIMBLK
  1

  9
$DIMASO
 70
     1
  9
$DIMSHO
 70
     1
  9
$DIMPOST
  1

  9
$DIMAPOST
  1

  9
$DIMALT
 70
     0
  9
$DIMALTD
 70
     2
  9
$DIMALTF
 40
25.4
  9
$DIMLFAC
 40
1.0
  9
$DIMTOFL
 70
     0
  9
$DIMTVP
 40
0.0
  9
$DIMTIX
 70
     0
  9
$DIMSOXD
 70
     0
  9
$DIMSAH
 70
     0
  9
$DIMBLK1
  1

  9
$DIMBLK2
  1

  9
$DIMSTYLE
  2
STANDARD
  9
$DIMCLRD
 70
     0
  9
$DIMCLRE
 70
     0
  9
$DIMCLRT
 70
     0
  9
$DIMTFAC
 40
1.0
  9
$DIMGAP
 40
0.09
  9
$DIMJUST
 70
     0
  9
$DIMSD1
 70
     0
  9
$DIMSD2
 70
     0
  9
$DIMTOLJ
 70
     1
  9
$DIMTZIN
 70
     0
  9
$DIMALTZ
 70
     0
  9
$DIMALTTZ
 70
     0
  9
$DIMFIT
 70
     3
  9
$DIMUPT
 70
     0
  9
$DIMUNIT
 70
     2
  9
$DIMDEC
 70
     4
  9
$DIMTDEC
 70
     4
  9
$DIMALTU
 70
     2
  9
$DIMALTTD
 70
     2
  9
$DIMTXSTY
  7
STANDARD
  9
$DIMAUNIT
 70
     0
  9
$LUNITS
 70
     2
  9
$LUPREC
 70
     4
  9
$SKETCHINC
 40
0.1
  9
$FILLETRAD
 40
0.5
  9
$AUNITS
 70
     0
  9
$AUPREC
 70
     0
  9
$MENU
  1
.
  9
$ELEVATION
 40
0.0
  9
$PELEVATION
 40
0.0
  9
$THICKNESS
 40
0.0
  9
$LIMCHECK
 70
     0
  9
$CHAMFERA
 40
0.0
  9
$CHAMFERB
 40
0.0
  9
$CHAMFERC
 40
0.0
  9
$CHAMFERD
 40
0.0
  9
$SKPOLY
 70
     0
  9
$TDCREATE
 40
2458359.619003634
  9
$TDUPDATE
 40
2458359.619003669
  9
$TDINDWG
 40
0.0000000116
  9
$TDUSRTIMER
 40
0.0000000116
  9
$USRTIMER
 70
     1
  9
$ANGBASE
 50
0.0
  9
$ANGDIR
 70
     0
  9
$PDMODE
 70
     0
  9
$PDSIZE
 40
0.0
  9
$PLINEWID
 40
0.0
  9
$COORDS
 70
     1
  9
$SPLFRAME
 70
     0
  9
$SPLINETYPE
 70
     6
  9
$SPLINESEGS
 70
     8
  9
$ATTDIA
 70
     0
  9
$ATTREQ
 70
     1
  9
$HANDLING
 70
     1
  9
$HANDSEED
  5
100000F0
  9
$SURFTAB1
 70
     6
  9
$SURFTAB2
 70
     6
  9
$SURFTYPE
 70
     6
  9
$SURFU
 70
     6
  9
$SURFV
 70
     6
  9
$UCSNAME
  2

  9
$UCSORG
 10
0.0
 20
0.0
 30
0.0
  9
$UCSXDIR
 10
1.0
 20
0.0
 30
0.0
  9
$UCSYDIR
 10
0.0
 20
1.0
 30
0.0
  9
$PUCSNAME
  2

  9
$PUCSORG
 10
0.0
 20
0.0
 30
0.0
  9
$PUCSXDIR
 10
1.0
 20
0.0
 30
0.0
  9
$PUCSYDIR
 10
0.0
 20
1.0
 30
0.0
  9
$USERI1
 70
     0
  9
$USERI2
 70
     0
  9
$USERI3
 70
     0
  9
$USERI4
 70
     0
  9
$USERI5
 70
     0
  9
$USERR1
 40
0.0
  9
$USERR2
 40
0.0
  9
$USERR3
 40
0.0
  9
$USERR4
 40
0.0
  9
$USERR5
 40
0.0
  9
$WORLDVIEW
 70
     1
  9
$SHADEDGE
 70
     3
  9
$SHADEDIF
 70
    70
  9
$TILEMODE
 70
     1
  9
$MAXACTVP
 70
    64
  9
$PINSBASE
 10
0.0
 20
0.0
 30
0.0
  9
$PLIMCHECK
 70
     0
  9
$PEXTMIN
 10
1.000000000000000E+20
 20
1.000000000000000E+20
 30
1.000000000000000E+20
  9
$PEXTMAX
 10
-1.000000000000000E+20
 20
-1.000000000000000E+20
 30
-1.000000000000000E+20
  9
$PLIMMIN
 10
0.0
 20
0.0
  9
$PLIMMAX
 10
12.0
 20
9.0
  9
$UNITMODE
 70
     0
  9
$VISRETAIN
 70
     1
  9
$PLINEGEN
 70
     0
  9
$PSLTSCALE
 70
     1
  9
$TREEDEPTH
 70
  3020
  9
$PICKSTYLE
 70
     1
  9
$CMLSTYLE
  2
STANDARD
  9
$CMLJUST
 70
     0
  9
$CMLSCALE
 40
1.0
  9
$PROXYGRAPHICS
 70
     1
  9
$MEASUREMENT
 70
     0
  0
ENDSEC
  0
SECTION
  2
CLASSES
  0
CLASS
  1
ACDBDICTIONARYWDFLT
  2
AcDbDictionaryWithDefault
  3
ObjectDBX Classes
 90
        0
280
     0
281
     0
  0
CLASS
  1
VISUALSTYLE
  2
AcDbVisualStyle
  3
ObjectDBX Classes
 90
     4095
280
     0
281
     0
  0
CLASS
  1
MATERIAL
  2
AcDbMaterial
  3
ObjectDBX Classes
 90
     1153
280
     0
281
     0
  0
CLASS
  1
SCALE
  2
AcDbScale
  3
ObjectDBX Classes
 90
     1153
280
     0
281
     0
  0
CLASS
  1
TABLESTYLE
  2
AcDbTableStyle
  3
ObjectDBX Classes
 90
     4095
280
     0
281
     0
  0
CLASS
  1
MLEADERSTYLE
  2
AcDbMLeaderStyle
  3
ACDB_MLEADERSTYLE_CLASS
 90
     4095
280
     0
281
     0
  0
CLASS
  1
SUN
  2
AcDbSun
  3
SCENEOE
 90
     1153
280
     0
281
     0
  0
CLASS
  1
SORTENTSTABLE
  2
AcDbSortentsTable
  3
ObjectDBX Classes
 90
        0
280
     0
281
     0
  0
CLASS
  1
DICTIONARYVAR
  2
AcDbDictionaryVar
  3
ObjectDBX Classes
 90
        0
280
     0
281
     0
  0
CLASS
  1
XRECORD
  2
AcDbXrecord
  3
ObjectDBX Classes
 90
        0
280
     0
281
     0
  0
CLASS
  1
LWPOLYLINE
  2
AcDbPolyline
  3
ObjectDBX Classes
 90
        0
280
     0
281
     1
  0
CLASS
  1
HATCH
  2
AcDbHatch
  3
ObjectDBX Classes
 90
        0
280
     0
281
     1
  0
CLASS
  1
ACDBPLACEHOLDER
  2
AcDbPlaceHolder
  3
ObjectDBX Classes
 90
        0
280
     0
281
     0
  0
CLASS
  1
LAYOUT
  2
AcDbLayout
  3
ObjectDBX Classes
 90
        0
280
     0
281
     0
  0
ENDSEC
  0
SECTION
  2
TABLES
  0
TABLE
  2
VPORT
  5
8
102
{ACAD_XDICTIONARY
360
100000E5
102
}
330
0
100
AcDbSymbolTable
 70
     1
  0
VPORT
  5
29
330
8
100
AcDbSymbolTableRecord
100
AcDbViewportTableRecord
  2
*ACTIVE
 70
     0
 10
0.0
 20
0.0
 11
1.0
 21
1.0
 12
10.42990654205607
 22
4.5
 13
0.0
 23
0.0
 14
0.5
 24
0.5
 15
0.5
 25
0.5
 16
0.0
 26
0.0
 36
1.0
 17
0.0
 27
0.0
 37
0.0
 40
9.0
 41
1.972972972850329
 42
50.0
 43
0.0
 44
0.0
 50
0.0
 51
0.0
 71
     0
 72
   100
 73
     1
 74
     3
 75
     0
 76
     0
 77
     0
 78
     0
  0
ENDTAB
  0
TABLE
  2
LTYPE
  5
5
330
0
100
AcDbSymbolTable
 70
     7
  0
LTYPE
  5
14
330
5
100
AcDbSymbolTableRecord
100
AcDbLinetypeTableRecord
  2
BYBLOCK
 70
     0
  3

 72
    65
 73
     0
 40
0.0
  0
LTYPE
  5
15
330
5
100
AcDbSymbolTableRecord
100
AcDbLinetypeTableRecord
  2
BYLAYER
 70
     0
  3

 72
    65
 73
     0
 40
0.0
  0
LTYPE
  5
16
330
5
100
AcDbSymbolTableRecord
100
AcDbLinetypeTableRecord
  2
CONTINUOUS
 70
     0
  3
Solid line
 72
    65
 73
     0
 40
0.0
  0
LTYPE
  5
10000024
330
5
100
AcDbSymbolTableRecord
100
AcDbLinetypeTableRecord
  2
ONS_PHANTOM
 70
     0
  3
Onshape Phantom line ______ __ __ ______
 72
    65
 73
     6
 40
0.4999999999999999
 49
0.25
 74
     0
 49
-0.05
 74
     0
 49
0.05
 74
     0
 49
-0.05
 74
     0
 49
0.05
 74
     0
 49
-0.05
 74
     0
  0
LTYPE
  5
10000025
330
5
100
AcDbSymbolTableRecord
100
AcDbLinetypeTableRecord
  2
CENTER
 70
     0
  3
Center line ____ _ ____ _ ____ _
 72
    65
 73
     4
 40
0.7199999999999999
 49
0.45
 74
     0
 49
-0.09
 74
     0
 49
0.09
 74
     0
 49
-0.09
 74
     0
  0
LTYPE
  5
10000026
330
5
100
AcDbSymbolTableRecord
100
AcDbLinetypeTableRecord
  2
DASHED
 70
     0
  3
Dashed line __ __ __ __ __
 72
    65
 73
     2
 40
0.75
 49
0.5
 74
     0
 49
-0.25
 74
     0
  0
LTYPE
  5
10000027
330
5
100
AcDbSymbolTableRecord
100
AcDbLinetypeTableRecord
  2
ONS_DASHDOT
 70
     0
  3
Onshape Dashed with Dot _ . ____ . ____
 72
    65
 73
     4
 40
0.71
 49
0.5
 74
     0
 49
-0.1
 74
     0
 49
0.01
 74
     0
 49
-0.1
 74
     0
  0
LTYPE
  5
10000028
330
5
100
AcDbSymbolTableRecord
100
AcDbLinetypeTableRecord
  2
ONS_DOTTED
 70
     0
  3
Onshape Dotted line . . . . . . .
 72
    65
 73
     2
 40
0.11
 49
0.01
 74
     0
 49
-0.1
 74
     0
  0
LTYPE
  5
10000029
330
5
100
AcDbSymbolTableRecord
100
AcDbLinetypeTableRecord
  2
HIDDEN
 70
     0
  3
Hidden line ____ ____ ____ ____ 
 72
    65
 73
     2
 40
0.15
 49
0.1
 74
     0
 49
-0.05
 74
     0
  0
ENDTAB
  0
TABLE
  2
LAYER
  5
2
330
0
100
AcDbSymbolTable
 70
    34
  0
LAYER
  5
10
330
2
100
AcDbSymbolTableRecord
100
AcDbLayerTableRecord
  2
0
 70
     0
 62
     7
  6
CONTINUOUS
  0
LAYER
  5
1000002A
330
2
100
AcDbSymbolTableRecord
100
AcDbLayerTableRecord
  2
SECTION_CUTTING_LINE
 70
     0
 62
     7
  6
ONS_PHANTOM
  0
LAYER
  5
1000002B
330
2
100
AcDbSymbolTableRecord
100
AcDbLayerTableRecord
  2
DETAIL_VIEW_BORDER
 70
     0
 62
     7
  6
CONTINUOUS
  0
LAYER
  5
1000002C
330
2
100
AcDbSymbolTableRecord
100
AcDbLayerTableRecord
  2
DETAIL_VIEW_PARENT_BORDER
 70
     0
 62
     7
  6
ONS_PHANTOM
  0
LAYER
  5
1000002D
330
2
100
AcDbSymbolTableRecord
100
AcDbLayerTableRecord
  2
TEXT
 70
     0
 62
     7
  6
CONTINUOUS
  0
LAYER
  5
1000002E
330
2
100
AcDbSymbolTableRecord
100
AcDbLayerTableRecord
  2
SKETCHED_GEOMETRY
 70
     0
 62
    -7
  6
CONTINUOUS
  0
LAYER
  5
1000002F
330
2
100
AcDbSymbolTableRecord
100
AcDbLayerTableRecord
  2
CENTERLINES
 70
     0
 62
    -7
  6
CENTER
  0
LAYER
  5
10000030
330
2
100
AcDbSymbolTableRecord
100
AcDbLayerTableRecord
  2
CENTERMARKS
 70
     0
 62
    -7
  6
CONTINUOUS
  0
LAYER
  5
10000031
330
2
100
AcDbSymbolTableRecord
100
AcDbLayerTableRecord
  2
TABLES
 70
     0
 62
     7
  6
CONTINUOUS
  0
LAYER
  5
10000032
330
2
100
AcDbSymbolTableRecord
100
AcDbLayerTableRecord
  2
IMAGES
 70
     0
 62
    -7
  6
CONTINUOUS
  0
LAYER
  5
10000033
330
2
100
AcDbSymbolTableRecord
100
AcDbLayerTableRecord
  2
ANNOTATION_LINES
 70
     0
 62
    -7
  6
CONTINUOUS
  0
LAYER
  5
10000034
330
2
100
AcDbSymbolTableRecord
100
AcDbLayerTableRecord
  2
ANNOTATION_TEXT
 70
     0
 62
    -7
  6
CONTINUOUS
  0
LAYER
  5
10000035
330
2
100
AcDbSymbolTableRecord
100
AcDbLayerTableRecord
  2
SIDE_THREAD_SYMBOLS
 70
     0
 62
     7
  6
HIDDEN
  0
LAYER
  5
10000036
330
2
100
AcDbSymbolTableRecord
100
AcDbLayerTableRecord
  2
SIDE_THREAD_SYMBOLS_HIDDEN
 70
     0
 62
    -7
  6
HIDDEN
  0
LAYER
  5
10000037
330
2
100
AcDbSymbolTableRecord
100
AcDbLayerTableRecord
  2
SURFACE_THREAD_SYMBOLS
 70
     0
 62
     7
  6
HIDDEN
  0
LAYER
  5
10000038
330
2
100
AcDbSymbolTableRecord
100
AcDbLayerTableRecord
  2
SURFACE_THREAD_SYMBOLS_ON_
 70
     0
 62
     7
  6
HIDDEN
  0
LAYER
  5
10000039
330
2
100
AcDbSymbolTableRecord
100
AcDbLayerTableRecord
  2
SURFACE_THREAD_SYMBOLS_HID
 70
     0
 62
    -7
  6
HIDDEN
  0
LAYER
  5
1000003A
330
2
100
AcDbSymbolTableRecord
100
AcDbLayerTableRecord
  2
BLIND_THREAD_SYMBOLS
 70
     0
 62
     7
  6
CONTINUOUS
  0
LAYER
  5
1000003B
330
2
100
AcDbSymbolTableRecord
100
AcDbLayerTableRecord
  2
BLIND_THREAD_SYMBOLS_HIDDE
 70
     0
 62
    -7
  6
HIDDEN
  0
LAYER
  5
1000003C
330
2
100
AcDbSymbolTableRecord
100
AcDbLayerTableRecord
  2
EXPLODE_LINES
 70
     0
 62
     7
  6
CONTINUOUS
  0
LAYER
  5
1000003D
330
2
100
AcDbSymbolTableRecord
100
AcDbLayerTableRecord
  2
BREAK_LINES
 70
     0
 62
    -7
  6
CONTINUOUS
  0
LAYER
  5
1000003E
330
2
100
AcDbSymbolTableRecord
100
AcDbLayerTableRecord
  2
SHEETMETAL_BEND_LINES_UP
 70
     0
 62
    -7
  6
CENTER
  0
LAYER
  5
1000003F
330
2
100
AcDbSymbolTableRecord
100
AcDbLayerTableRecord
  2
SHEETMETAL_BEND_LINES_DOWN
 70
     0
 62
    -7
  6
CENTER
  0
LAYER
  5
10000040
330
2
100
AcDbSymbolTableRecord
100
AcDbLayerTableRecord
  2
SHEETMETAL_BEND_TANGENT_LI
 70
     0
 62
    -7
  6
CONTINUOUS
  0
LAYER
  5
10000041
330
2
100
AcDbSymbolTableRecord
100
AcDbLayerTableRecord
  2
SHEETMETAL_CUT_LINES
 70
     0
 62
     7
  6
CONTINUOUS
  0
LAYER
  5
10000042
330
2
100
AcDbSymbolTableRecord
100
AcDbLayerTableRecord
  2
HIDDEN
 70
     0
 62
    -7
  6
HIDDEN
  0
LAYER
  5
10000043
330
2
100
AcDbSymbolTableRecord
100
AcDbLayerTableRecord
  2
VISIBLE
 70
     0
 62
     7
  6
CONTINUOUS
  0
LAYER
  5
10000044
330
2
100
AcDbSymbolTableRecord
100
AcDbLayerTableRecord
  2
MODELSKETCH_VISIBLE
 70
     0
 62
     7
  6
CONTINUOUS
  0
LAYER
  5
10000045
330
2
100
AcDbSymbolTableRecord
100
AcDbLayerTableRecord
  2
MODELSKETCH_CONSTRUCTION
 70
     0
 62
    -7
  6
CENTER
  0
LAYER
  5
10000046
330
2
100
AcDbSymbolTableRecord
100
AcDbLayerTableRecord
  2
TANGENT_LINES
 70
     0
 62
    -7
  6
CONTINUOUS
  0
LAYER
  5
10000047
330
2
100
AcDbSymbolTableRecord
100
AcDbLayerTableRecord
  2
TANGENT_HIDDEN
 70
     0
 62
    -7
  6
HIDDEN
  0
LAYER
  5
10000048
330
2
100
AcDbSymbolTableRecord
100
AcDbLayerTableRecord
  2
INVISIBLE_LINES
 70
     0
 62
    -7
  6
CONTINUOUS
  0
LAYER
  5
10000049
330
2
100
AcDbSymbolTableRecord
100
AcDbLayerTableRecord
  2
VIEW_HATCHES
 70
     0
 62
    -7
  6
CONTINUOUS
  0
LAYER
  5
1000004A
330
2
100
AcDbSymbolTableRecord
100
AcDbLayerTableRecord
  2
SECTION_JOG_LINES
 70
     0
 62
    -7
  6
CONTINUOUS
  0
ENDTAB
  0
TABLE
  2
STYLE
  5
3
330
0
100
AcDbSymbolTable
 70
     2
  0
STYLE
  5
11
330
3
100
AcDbSymbolTableRecord
100
AcDbTextStyleTableRecord
  2
STANDARD
 70
     0
 40
0.0
 41
1.0
 50
0.0
 71
     0
 42
0.2
  3
txt
  4

  0
STYLE
  5
10000004
330
3
100
AcDbSymbolTableRecord
100
AcDbTextStyleTableRecord
  2
TTFSTYLE
 70
     0
 40
0.0
 41
1.0
 50
0.0
 71
     0
 42
0.2
  3
Verdana.ttf
  4

1001
ACAD
1000
Verdana
1071
       34
  0
ENDTAB
  0
TABLE
  2
VIEW
  5
6
330
0
100
AcDbSymbolTable
 70
     0
  0
ENDTAB
  0
TABLE
  2
UCS
  5
7
330
0
100
AcDbSymbolTable
 70
     0
  0
ENDTAB
  0
TABLE
  2
APPID
  5
9
330
0
100
AcDbSymbolTable
 70
     2
  0
APPID
  5
12
330
9
100
AcDbSymbolTableRecord
100
AcDbRegAppTableRecord
  2
ACAD
 70
     0
  0
APPID
  5
100000EF
330
9
100
AcDbSymbolTableRecord
100
AcDbRegAppTableRecord
  2
ACAD_MLEADERVER
 70
     0
  0
ENDTAB
  0
TABLE
  2
DIMSTYLE
  5
A
330
0
100
AcDbSymbolTable
 70
     1
  0
DIMSTYLE
105
27
330
A
100
AcDbSymbolTableRecord
100
AcDbDimStyleTableRecord
  2
STANDARD
 70
     0
  3

  4

  5

  6

  7

 40
1.0
 41
0.18
 42
0.0625
 43
0.38
 44
0.18
 45
0.0
 46
0.0
 47
0.0
 48
0.0
140
0.18
141
0.09
142
0.0
143
25.4
144
1.0
145
0.0
146
1.0
147
0.09
 71
     0
 72
     0
 73
     1
 74
     1
 75
     0
 76
     0
 77
     0
 78
     0
170
     0
171
     2
172
     0
173
     0
174
     0
175
     0
176
     0
177
     0
178
     0
270
     2
271
     4
272
     4
273
     2
274
     2
340
11
275
     0
280
     0
281
     0
282
     0
283
     1
284
     0
285
     0
286
     0
287
     3
288
     0
  0
ENDTAB
  0
TABLE
  2
BLOCK_RECORD
  5
1
330
0
100
AcDbSymbolTable
 70
     0
  0
BLOCK_RECORD
  5
1F
102
{ACAD_XDICTIONARY
360
100000BA
102
}
330
1
100
AcDbSymbolTableRecord
100
AcDbBlockTableRecord
  2
*MODEL_SPACE
  0
BLOCK_RECORD
  5
1B
330
1
100
AcDbSymbolTableRecord
100
AcDbBlockTableRecord
  2
*PAPER_SPACE
  0
ENDTAB
  0
ENDSEC
  0
SECTION
  2
BLOCKS
  0
BLOCK
  5
20
330
1F
100
AcDbEntity
  8
0
100
AcDbBlockBegin
  2
*MODEL_SPACE
 70
     0
 10
0.0
 20
0.0
 30
0.0
  3
*MODEL_SPACE
  1

  0
ENDBLK
  5
21
330
1F
100
AcDbEntity
  8
0
100
AcDbBlockEnd
  0
BLOCK
  5
1C
330
1B
100
AcDbEntity
 67
     1
  8
0
100
AcDbBlockBegin
  2
*PAPER_SPACE
 70
     0
 10
0.0
 20
0.0
 30
0.0
  3
*PAPER_SPACE
  1

  0
ENDBLK
  5
1D
330
1B
100
AcDbEntity
 67
     1
  8
0
100
AcDbBlockEnd
  0
ENDSEC
  0
SECTION
  2
ENTITIES
  0
CIRCLE
  5
1000004B
102
{ACAD_XDICTIONARY
360
1000004C
102
}
330
1F
100
AcDbEntity
  8
VISIBLE
100
AcDbCircle
 10
50.0
 20
60.0
 30
0.0
 40
1.5
  0
ARC
  5
1000004E
102
{ACAD_XDICTIONARY
360
1000004F
102
}
330
1F
100
AcDbEntity
  8
VISIBLE
100
AcDbCircle
 10
50.0
 20
60.0
 30
0.0
 40
13.687325105903
100
AcDbArc
 50
179.0709112457613
 51
90.92908875423866
  0
ARC
  5
10000051
102
{ACAD_XDICTIONARY
360
10000052
102
}
330
1F
100
AcDbEntity
  8
VISIBLE
100
AcDbCircle
 10
49.77017745770185
 20
74.1716358937604
 30
0.0
 40
0.4861741905398634
100
AcDbArc
 50
182.8936886121764
 51
270.9290887542382
  0
SPLINE
  5
10000054
102
{ACAD_XDICTIONARY
360
10000055
102
}
330
1F
100
AcDbEntity
  8
VISIBLE
100
AcDbSpline
210
0.0
220
0.0
230
1.0
 70
     8
 71
     3
 72
    36
 73
    32
 74
     0
 42
0.000000001
 43
0.00000001
 40
0.052482946915407
 40
0.052482946915407
 40
0.052482946915407
 40
0.052482946915407
 40
0.0947191414680564
 40
0.1054354106067452
 40
0.1192700518431472
 40
0.1356394192173102
 40
0.1542005367408222
 40
0.1747206240132497
 40
0.1970283106018748
 40
0.2209906097611337
 40
0.2465004251578098
 40
0.2734691029618555
 40
0.3018216775129437
 40
0.3314936741602397
 40
0.3624288691093601
 40
0.3945776667253304
 40
0.4278958913156665
 40
0.4623438664611186
 40
0.4978856994674306
 40
0.5344887156726971
 40
0.5721230045225902
 40
0.6107610505288927
 40
0.6503774297319677
 40
0.6909485574358313
 40
0.7324524765903656
 40
0.7748686787686334
 40
0.8181779515550194
 40
0.8623622475362629
 40
0.9074045711157968
 40
0.9532888801499343
 40
0.985088787010763
 40
0.985088787010763
 40
0.985088787010763
 40
0.985088787010763
 10
49.28462317612401
 20
74.14709239791067
 30
0.0
 10
49.27941139116778
 20
74.25019932756982
 30
0.0
 10
49.27466787553283
 20
74.34175767619026
 30
0.0
 10
49.27379514894199
 20
74.34962180547296
 30
0.0
 10
49.27224037117537
 20
74.36586224502004
 30
0.0
 10
49.26986401798981
 20
74.38512183030014
 30
0.0
 10
49.26623096105081
 20
74.41093150423067
 30
0.0
 10
49.26118573240374
 20
74.44204142314817
 30
0.0
 10
49.25448122981679
 20
74.47878586027609
 30
0.0
 10
49.24590110959967
 20
74.52098991476785
 30
0.0
 10
49.23522162166581
 20
74.56862653815807
 30
0.0
 10
49.22222351611134
 20
74.62161571083564
 30
0.0
 10
49.20668871488131
 20
74.67988457070597
 30
0.0
 10
49.18840152591993
 20
74.74334969815297
 30
0.0
 10
49.16714851670933
 20
74.81192234415253
 30
0.0
 10
49.14271877592244
 20
74.88550698724596
 30
0.0
 10
49.11490406067581
 20
74.96400182687732
 30
0.0
 10
49.08349897442647
 20
75.04729872849484
 30
0.0
 10
49.04830113359297
 20
75.1352833315091
 30
0.0
 10
49.00911133593248
 20
75.22783511690561
 30
0.0
 10
48.96573372227006
 20
75.32482749224053
 30
0.0
 10
48.9179759517439
 20
75.4261278760807
 30
0.0
 10
48.86564931521185
 20
75.53159779243278
 30
0.0
 10
48.80856907750768
 20
75.64109295027623
 30
0.0
 10
48.74655392357748
 20
75.75446339950379
 30
0.0
 10
48.67942885364045
 20
75.87155341151295
 30
0.0
 10
48.60701476737253
 20
75.99220244052006
 30
0.0
 10
48.52916929164765
 20
76.11624194215834
 30
0.0
 10
48.44563052178548
 20
76.24350814264005
 30
0.0
 10
48.3662611698102
 20
76.35967886887792
 30
0.0
 10
48.31347582322157
 20
76.43349517351498
 30
0.0
 10
48.29173205983498
 20
76.46372683244854
 30
0.0
  0
ARC
  5
10000057
102
{ACAD_XDICTIONARY
360
10000058
102
}
330
1F
100
AcDbEntity
  8
VISIBLE
100
AcDbCircle
 10
50.0
 20
60.0
 30
0.0
 40
16.55211408155711
100
AcDbArc
 50
95.92378314589104
 51
99.07621685410889
  0
SPLINE
  5
1000005A
102
{ACAD_XDICTIONARY
360
1000005B
102
}
330
1F
100
AcDbEntity
  8
VISIBLE
100
AcDbSpline
210
0.0
220
0.0
230
1.0
 70
     8
 71
     3
 72
    36
 73
    32
 74
     0
 42
0.000000001
 43
0.00000001
 40
0.0524829469154057
 40
0.0524829469154057
 40
0.0524829469154057
 40
0.0524829469154057
 40
0.0947191414680564
 40
0.1054354106067452
 40
0.1192700518431472
 40
0.1356394192173102
 40
0.1542005367408222
 40
0.1747206240132497
 40
0.1970283106018748
 40
0.2209906097611337
 40
0.2465004251578098
 40
0.2734691029618555
 40
0.3018216775129437
 40
0.3314936741602397
 40
0.3624288691093601
 40
0.3945776667253304
 40
0.4278958913156665
 40
0.4623438664611186
 40
0.4978856994674306
 40
0.5344887156726971
 40
0.5721230045225902
 40
0.6107610505288927
 40
0.6503774297319677
 40
0.6909485574358313
 40
0.7324524765903656
 40
0.7748686787686334
 40
0.8181779515550194
 40
0.8623622475362629
 40
0.9074045711157968
 40
0.9532888801499343
 40
0.9850887870107621
 40
0.9850887870107621
 40
0.9850887870107621
 40
0.9850887870107621
 10
47.02946400430611
 20
73.8501950604837
 30
0.0
 10
47.00781216491858
 20
73.9511376159165
 30
0.0
 10
46.98869700481666
 20
74.04080390164843
 30
0.0
 10
46.98750460753853
 20
74.04862594548675
 30
0.0
 10
46.98480307248182
 20
74.06471541157246
 30
0.0
 10
46.98211370592487
 20
74.08393378786043
 30
0.0
 10
46.97894293428952
 20
74.1098043228058
 30
0.0
 10
46.97576441143182
 20
74.14115999820272
 30
0.0
 10
46.97273030350269
 20
74.17838765195448
 30
0.0
 10
46.97009485013006
 20
74.22137433668365
 30
0.0
 10
46.96808117795916
 20
74.2701518363627
 30
0.0
 10
46.96692177673386
 20
74.3246996040334
 30
0.0
 10
46.96684615177737
 20
74.38500370307078
 30
0.0
 10
46.96808423620227
 20
74.45103938152515
 30
0.0
 10
46.97086515992738
 20
74.52277615482255
 30
0.0
 10
46.97541737042333
 20
74.60017634418733
 30
0.0
 10
46.98196836279206
 20
74.6831955150576
 30
0.0
 10
46.99074452214049
 20
74.77178237801424
 30
0.0
 10
47.0019709346953
 20
74.8658788499357
 30
0.0
 10
47.01587120766375
 20
74.9654200757276
 30
0.0
 10
47.03266729101666
 20
75.07033446856367
 30
0.0
 10
47.05257928635984
 20
75.18054374609169
 30
0.0
 10
47.07582531295169
 20
75.29596299229337
 30
0.0
 10
47.10262115652449
 20
75.41650064572477
 30
0.0
 10
47.13318076391504
 20
75.54205879349375
 30
0.0
 10
47.16771347745942
 20
75.67253230659745
 30
0.0
 10
47.20643384709256
 20
75.80781246429196
 30
0.0
 10
47.24952301718597
 20
75.94777331409705
 30
0.0
 10
47.29727635600975
 20
76.09232444860079
 30
0.0
 10
47.34387406646476
 20
76.22507905322136
 30
0.0
 10
47.37575573050515
 20
76.31004198127097
 30
0.0
 10
47.38893406402395
 20
76.3448712214831
 30
0.0
  0
ARC
  5
1000005D
102
{ACAD_XDICTIONARY
360
1000005E
102
}
330
1F
100
AcDbEntity
  8
VISIBLE
100
AcDbCircle
 10
46.55410225950553
 20
73.74823156148896
 30
0.0
 40
0.4861741905398634
100
AcDbArc
 50
284.070911245762
 51
12.10631138782539
  0
ARC
  5
10000060
102
{ACAD_XDICTIONARY
360
10000061
102
}
330
1F
100
AcDbEntity
  8
VISIBLE
100
AcDbCircle
 10
50.0
 20
60.0
 30
0.0
 40
13.687325105903
100
AcDbArc
 50
104.0709112457613
 51
105.9290887542387
  0
ARC
  5
10000063
102
{ACAD_XDICTIONARY
360
10000064
102
}
330
1F
100
AcDbEntity
  8
VISIBLE
100
AcDbCircle
 10
46.11011920136712
 20
73.62926665960768
 30
0.0
 40
0.4861741905398634
100
AcDbArc
 50
197.8936886121749
 51
285.9290887542397
  0
SPLINE
  5
10000066
102
{ACAD_XDICTIONARY
360
10000067
102
}
330
1F
100
AcDbEntity
  8
VISIBLE
100
AcDbSpline
210
0.0
220
0.0
230
1.0
 70
     8
 71
     3
 72
    36
 73
    32
 74
     0
 42
0.000000001
 43
0.00000001
 40
0.0524829469154064
 40
0.0524829469154064
 40
0.0524829469154064
 40
0.0524829469154064
 40
0.0947191414680564
 40
0.1054354106067452
 40
0.1192700518431472
 40
0.1356394192173102
 40
0.1542005367408222
 40
0.1747206240132497
 40
0.1970283106018748
 40
0.2209906097611337
 40
0.2465004251578098
 40
0.2734691029618555
 40
0.3018216775129437
 40
0.3314936741602397
 40
0.3624288691093601
 40
0.3945776667253304
 40
0.4278958913156665
 40
0.4623438664611186
 40
0.4978856994674306
 40
0.5344887156726971
 40
0.5721230045225902
 40
0.6107610505288927
 40
0.6503774297319677
 40
0.6909485574358313
 40
0.7324524765903656
 40
0.7748686787686334
 40
0.8181779515550194
 40
0.8623622475362629
 40
0.9074045711157968
 40
0.9532888801499343
 40
0.9850887870107581
 40
0.9850887870107581
 40
0.9850887870107581
 40
0.9850887870107581
 10
45.64746210488518
 20
73.47988876759558
 30
0.0
 10
45.61574187011703
 20
73.57813350461707
 30
0.0
 10
45.58746294149674
 20
73.66534436597487
 30
0.0
 10
45.58458456591183
 20
73.67271465328744
 30
0.0
 10
45.57887943085731
 20
73.68799930717934
 30
0.0
 10
45.57159930247172
 20
73.7059875925427
 30
0.0
 10
45.56141000378485
 20
73.72997751883256
 30
0.0
 10
45.54848484762766
 20
73.75872159170795
 30
0.0
 10
45.53249863529624
 20
73.79247873954483
 30
0.0
 10
45.51328766250285
 20
73.83102402723108
 30
0.0
 10
45.49064280391821
 20
73.87427341717168
 30
0.0
 10
45.46437299099715
 20
73.92209287030688
 30
0.0
 10
45.43428643461194
 20
73.97435556450382
 30
0.0
 10
45.40019638282077
 20
74.03092509738902
 30
0.0
 10
45.36191964558012
 20
74.09166050358753
 30
0.0
 10
45.31927722096488
 20
74.15641492858718
 30
0.0
 10
45.27209430971842
 20
74.22503614337758
 30
0.0
 10
45.22020050129669
 20
74.2973665374654
 30
0.0
 10
45.16342990687014
 20
74.37324326627846
 30
0.0
 10
45.10162130446397
 20
74.45249836005387
 30
0.0
 10
45.03461827317822
 20
74.53495884779606
 30
0.0
 10
44.962269340607
 20
74.62044688419647
 30
0.0
 10
44.88442806794057
 20
74.70877987019685
 30
0.0
 10
44.80095335997499
 20
74.7997706183946
 30
0.0
 10
44.7117088897606
 20
74.89322736031939
 30
0.0
 10
44.61656592601771
 20
74.988954380416
 30
0.0
 10
44.51539302342423
 20
75.08675024879084
 30
0.0
 10
44.4080962825928
 20
75.18641531521061
 30
0.0
 10
44.294465110804
 20
75.28772360042483
 30
0.0
 10
44.1877330074815
 20
75.37939360526808
 30
0.0
 10
44.11764121248279
 20
75.43703282731876
 30
0.0
 10
44.0888138207699
 20
75.46060666737759
 30
0.0
  0
ARC
  5
10000069
102
{ACAD_XDICTIONARY
360
1000006A
102
}
330
1F
100
AcDbEntity
  8
VISIBLE
100
AcDbCircle
 10
50.0
 20
60.0
 30
0.0
 40
16.55211408155711
100
AcDbArc
 50
110.9237831458911
 51
114.0762168541089
  0
SPLINE
  5
1000006C
102
{ACAD_XDICTIONARY
360
1000006D
102
}
330
1F
100
AcDbEntity
  8
VISIBLE
100
AcDbSpline
210
0.0
220
0.0
230
1.0
 70
     8
 71
     3
 72
    36
 73
    32
 74
     0
 42
0.000000001
 43
0.00000001
 40
0.0524829469154049
 40
0.0524829469154049
 40
0.0524829469154049
 40
0.0524829469154049
 40
0.0947191414680564
 40
0.1054354106067452
 40
0.1192700518431472
 40
0.1356394192173102
 40
0.1542005367408222
 40
0.1747206240132497
 40
0.1970283106018748
 40
0.2209906097611337
 40
0.2465004251578098
 40
0.2734691029618555
 40
0.3018216775129437
 40
0.3314936741602397
 40
0.3624288691093601
 40
0.3945776667253304
 40
0.4278958913156665
 40
0.4623438664611186
 40
0.4978856994674306
 40
0.5344887156726971
 40
0.5721230045225902
 40
0.6107610505288927
 40
0.6503774297319677
 40
0.6909485574358313
 40
0.7324524765903656
 40
0.7748686787686334
 40
0.8181779515550194
 40
0.8623622475362629
 40
0.9074045711157968
 40
0.9532888801499343
 40
0.9850887870107605
 40
0.9850887870107605
 40
0.9850887870107605
 40
0.9850887870107605
 10
43.54598830379992
 20
72.60942981821432
 30
0.0
 10
43.49894837714152
 20
72.70132893108348
 30
0.0
 10
43.45727720787438
 20
72.78299254473481
 30
0.0
 10
43.45410094663127
 20
72.7902394437677
 30
0.0
 10
43.44732720390085
 20
72.8050814658674
 30
0.0
 10
43.43975539348787
 20
72.82294893257911
 30
0.0
 10
43.42999687612517
 20
72.84711729433585
 30
0.0
 10
43.41881121284268
 20
72.87658188875162
 30
0.0
 10
43.40624526383876
 20
72.91175575604562
 30
0.0
 10
43.39257383866843
 20
72.95259559948674
 30
0.0
 10
43.37800423482345
 20
72.99918986946012
 30
0.0
 10
43.3627663380959
 20
73.05157889190166
 30
0.0
 10
43.34708544066869
 20
73.10980860541395
 30
0.0
 10
43.33119004714956
 20
73.17391461251815
 30
0.0
 10
43.31530937003302
 20
73.24392677056377
 30
0.0
 10
43.29967382461562
 20
73.31986781120455
 30
0.0
 10
43.28451465480255
 20
73.4017536940146
 30
0.0
 10
43.27006380649377
 20
73.48959346999658
 30
0.0
 10
43.2565537293068
 20
73.58338929176557
 30
0.0
 10
43.2442171969517
 20
73.6831363879148
 30
0.0
 10
43.23328712467143
 20
73.78882305575945
 30
0.0
 10
43.22399637525512
 20
73.90043064684123
 30
0.0
 10
43.21657761361043
 20
74.01793359200317
 30
0.0
 10
43.21126297059457
 20
74.14129929913906
 30
0.0
 10
43.20828444470396
 20
74.27048856517368
 30
0.0
 10
43.20787145449565
 20
74.40545402507156
 30
0.0
 10
43.21025937829194
 20
74.54614619226761
 30
0.0
 10
43.21565578702024
 20
74.69249028962155
 30
0.0
 10
43.22436938368092
 20
74.84447543721294
 30
0.0
 10
43.23501989565448
 20
74.98476691329867
 30
0.0
 10
43.24382519442927
 20
75.07508638162216
 30
0.0
 10
43.24754001642917
 20
75.11213964795044
 30
0.0
  0
ARC
  5
1000006F
102
{ACAD_XDICTIONARY
360
10000070
102
}
330
1F
100
AcDbEntity
  8
VISIBLE
100
AcDbCircle
 10
43.11321421311234
 20
72.38790796832896
 30
0.0
 40
0.4861741905398634
100
AcDbArc
 50
299.0709112457611
 51
27.10631138782507
  0
ARC
  5
10000072
102
{ACAD_XDICTIONARY
360
10000073
102
}
330
1F
100
AcDbEntity
  8
VISIBLE
100
AcDbCircle
 10
50.0
 20
60.0
 30
0.0
 40
13.687325105903
100
AcDbArc
 50
119.0709112457613
 51
120.9290887542387
  0
ARC
  5
10000075
102
{ACAD_XDICTIONARY
360
10000076
102
}
330
1F
100
AcDbEntity
  8
VISIBLE
100
AcDbCircle
 10
42.71514989312728
 20
72.15808542603082
 30
0.0
 40
0.4861741905398634
100
AcDbArc
 50
212.8936886121759
 51
300.9290887542379
  0
SPLINE
  5
10000078
102
{ACAD_XDICTIONARY
360
10000079
102
}
330
1F
100
AcDbEntity
  8
VISIBLE
100
AcDbSpline
210
0.0
220
0.0
230
1.0
 70
     8
 71
     3
 72
    36
 73
    32
 74
     0
 42
0.000000001
 43
0.00000001
 40
0.0524829469154049
 40
0.0524829469154049
 40
0.0524829469154049
 40
0.0524829469154049
 40
0.0947191414680564
 40
0.1054354106067452
 40
0.1192700518431472
 40
0.1356394192173102
 40
0.1542005367408222
 40
0.1747206240132497
 40
0.1970283106018748
 40
0.2209906097611337
 40
0.2465004251578098
 40
0.2734691029618555
 40
0.3018216775129437
 40
0.3314936741602397
 40
0.3624288691093601
 40
0.3945776667253304
 40
0.4278958913156665
 40
0.4623438664611186
 40
0.4978856994674306
 40
0.5344887156726971
 40
0.5721230045225902
 40
0.6107610505288927
 40
0.6503774297319677
 40
0.6909485574358313
 40
0.7324524765903656
 40
0.7748686787686334
 40
0.8181779515550194
 40
0.8623622475362629
 40
0.9074045711157968
 40
0.9532888801499343
 40
0.9850887870107622
 40
0.9850887870107622
 40
0.9850887870107622
 40
0.9850887870107622
 10
42.30691929828945
 20
71.89405299433832
 30
0.0
 10
42.2508522952887
 20
71.98074032225124
 30
0.0
 10
42.20096511593538
 20
72.05766042026765
 30
0.0
 10
42.19627724789579
 20
72.06403459270969
 30
0.0
 10
42.18681055107913
 20
72.07732183704279
 30
0.0
 10
42.17512277621201
 20
72.09281295056893
 30
0.0
 10
42.15907161964417
 20
72.11334825538665
 30
0.0
 10
42.13914736400915
 20
72.13776762115535
 30
0.0
 10
42.11496887588518
 20
72.16623698586241
 30
0.0
 10
42.08643624656374
 20
72.19849670908643
 30
0.0
 10
42.05336922701849
 20
72.23441149112593
 30
0.0
 10
42.01561795106847
 20
72.273802408013
 30
0.0
 10
41.97302998862536
 20
72.31649732029524
 30
0.0
 10
41.92546025469749
 20
72.36231613843806
 30
0.0
 10
41.87276828581446
 20
72.41107528727309
 30
0.0
 10
41.81481918813843
 20
72.46258658712698
 30
0.0
 10
41.75148351832015
 20
72.5166577546904
 30
0.0
 10
41.68263746501141
 20
72.57309244442303
 30
0.0
 10
41.60816293918412
 20
72.63169042535854
 30
0.0
 10
41.52794768614271
 20
72.69224772384727
 30
0.0
 10
41.44188538308803
 20
72.75455677802951
 30
0.0
 10
41.34987574866419
 20
72.81840659858513
 30
0.0
 10
41.2518245939568
 20
72.88358290721503
 30
0.0
 10
41.14764407912921
 20
72.94986837664675
 30
0.0
 10
41.03725215579228
 20
73.01704248875116
 30
0.0
 10
40.92057513399142
 20
73.08488287871201
 30
0.0
 10
40.797538181188
 20
73.15316095964015
 30
0.0
 10
40.66810227082144
 20
73.2216595812692
 30
0.0
 10
40.53212247367903
 20
73.29010595899841
 30
0.0
 10
40.4053012354676
 20
73.35102808310886
 30
0.0
 10
40.32267963205576
 20
73.38856220484372
 30
0.0
 10
40.28873315112231
 20
73.40387170778543
 30
0.0
  0
ARC
  5
1000007B
102
{ACAD_XDICTIONARY
360
1000007C
102
}
330
1F
100
AcDbEntity
  8
VISIBLE
100
AcDbCircle
 10
50.0
 20
60.0
 30
0.0
 40
16.55211408155711
100
AcDbArc
 50
125.9237831458911
 51
129.0762168541089
  0
SPLINE
  5
1000007E
102
{ACAD_XDICTIONARY
360
1000007F
102
}
330
1F
100
AcDbEntity
  8
VISIBLE
100
AcDbSpline
210
0.0
220
0.0
230
1.0
 70
     8
 71
     3
 72
    36
 73
    32
 74
     0
 42
0.000000001
 43
0.00000001
 40
0.0524829469154072
 40
0.0524829469154072
 40
0.0524829469154072
 40
0.0524829469154072
 40
0.0947191414680564
 40
0.1054354106067452
 40
0.1192700518431472
 40
0.1356394192173102
 40
0.1542005367408222
 40
0.1747206240132497
 40
0.1970283106018748
 40
0.2209906097611337
 40
0.2465004251578098
 40
0.2734691029618555
 40
0.3018216775129437
 40
0.3314936741602397
 40
0.3624288691093601
 40
0.3945776667253304
 40
0.4278958913156665
 40
0.4623438664611186
 40
0.4978856994674306
 40
0.5344887156726971
 40
0.5721230045225902
 40
0.6107610505288927
 40
0.6503774297319677
 40
0.6909485574358313
 40
0.7324524765903656
 40
0.7748686787686334
 40
0.8181779515550194
 40
0.8623622475362629
 40
0.9074045711157968
 40
0.9532888801499343
 40
0.985088787010765
 40
0.985088787010765
 40
0.985088787010765
 40
0.985088787010765
 10
40.50234283463112
 20
70.50935277190167
 30
0.0
 10
40.43312051396647
 20
70.58594566953563
 30
0.0
 10
40.37173315685484
 20
70.65404137079152
 30
0.0
 10
40.36678948860143
 20
70.66021926082597
 30
0.0
 10
40.35640515757024
 20
70.67280237966116
 30
0.0
 10
40.34446690966785
 20
70.68810129846757
 30
0.0
 10
40.32878567340936
 20
70.70892045312208
 30
0.0
 10
40.31035515416961
 20
70.73448600313978
 30
0.0
 10
40.28911371274928
 20
70.76520904304752
 30
0.0
 10
40.26533800081351
 20
70.80111887736113
 30
0.0
 10
40.2392053597191
 20
70.84235459513083
 30
0.0
 10
40.21092740496946
 20
70.88901464704074
 30
0.0
 10
40.18070986231729
 20
70.9412017162812
 30
0.0
 10
40.14876423565408
 20
70.99900933359127
 30
0.0
 10
40.11530419959733
 20
71.0625256635149
 30
0.0
 10
40.0805464348478
 20
71.1318322990105
 30
0.0
 10
40.04471017522398
 20
71.20700450616965
 30
0.0
 10
40.00801712068907
 20
71.2881110596059
 30
0.0
 10
39.97069124319416
 20
71.37521420097376
 30
0.0
 10
39.93295861980843
 20
71.46836956771762
 30
0.0
 10
39.8950472582581
 20
71.56762613881273
 30
0.0
 10
39.85718691330131
 20
71.67302617055633
 30
0.0
 10
39.81960893976607
 20
71.78460518314854
 30
0.0
 10
39.78254599430025
 20
71.90239177491908
 30
0.0
 10
39.74623231674565
 20
72.02640812423442
 30
0.0
 10
39.71090176738485
 20
72.15666785787542
 30
0.0
 10
39.67679451228382
 20
72.29318409588339
 30
0.0
 10
39.64413040331016
 20
72.43593833239657
 30
0.0
 10
39.6132104405952
 20
72.58499995643459
 30
0.0
 10
39.58718793929715
 20
72.72326767173284
 30
0.0
 10
39.57231680624624
 20
72.81278855782395
 30
0.0
 10
39.56631495774699
 20
72.84954073140156
 30
0.0
  0
ARC
  5
10000081
102
{ACAD_XDICTIONARY
360
10000082
102
}
330
1F
100
AcDbEntity
  8
VISIBLE
100
AcDbCircle
 10
40.14164923714391
 20
70.1833689191132
 30
0.0
 40
0.4861741905398634
100
AcDbArc
 50
314.0709112457621
 51
42.10631138782465
  0
ARC
  5
10000084
102
{ACAD_XDICTIONARY
360
10000085
102
}
330
1F
100
AcDbEntity
  8
VISIBLE
100
AcDbCircle
 10
50.0
 20
60.0
 30
0.0
 40
13.687325105903
100
AcDbArc
 50
134.0709112457613
 51
135.9290887542387
  0
ARC
  5
10000087
102
{ACAD_XDICTIONARY
360
10000088
102
}
330
1F
100
AcDbEntity
  8
VISIBLE
100
AcDbCircle
 10
39.81663108088679
 20
69.85835076285609
 30
0.0
 40
0.4861741905398634
100
AcDbArc
 50
227.893688612176
 51
315.9290887542397
  0
SPLINE
  5
1000008A
102
{ACAD_XDICTIONARY
360
1000008B
102
}
330
1F
100
AcDbEntity
  8
VISIBLE
100
AcDbSpline
210
0.0
220
0.0
230
1.0
 70
     8
 71
     3
 72
    36
 73
    32
 74
     0
 42
0.000000001
 43
0.00000001
 40
0.0524829469154063
 40
0.0524829469154063
 40
0.0524829469154063
 40
0.0524829469154063
 40
0.0947191414680564
 40
0.1054354106067452
 40
0.1192700518431472
 40
0.1356394192173102
 40
0.1542005367408222
 40
0.1747206240132497
 40
0.1970283106018748
 40
0.2209906097611337
 40
0.2465004251578098
 40
0.2734691029618555
 40
0.3018216775129437
 40
0.3314936741602397
 40
0.3624288691093601
 40
0.3945776667253304
 40
0.4278958913156665
 40
0.4623438664611186
 40
0.4978856994674306
 40
0.5344887156726971
 40
0.5721230045225902
 40
0.6107610505288927
 40
0.6503774297319677
 40
0.6909485574358313
 40
0.7324524765903656
 40
0.7748686787686334
 40
0.8181779515550194
 40
0.8623622475362629
 40
0.9074045711157968
 40
0.9532888801499343
 40
0.9850887870107599
 40
0.9850887870107599
 40
0.9850887870107599
 40
0.9850887870107599
 10
39.49064722809833
 20
69.49765716536888
 30
0.0
 10
39.41405433046436
 20
69.56687948603354
 30
0.0
 10
39.34595862920848
 20
69.62826684314516
 30
0.0
 10
39.33978073917403
 20
69.63321051139857
 30
0.0
 10
39.32719762033884
 20
69.64359484242976
 30
0.0
 10
39.31189870153243
 20
69.65553309033216
 30
0.0
 10
39.29107954687793
 20
69.67121432659066
 30
0.0
 10
39.26551399686022
 20
69.6896448458304
 30
0.0
 10
39.23479095695248
 20
69.71088628725072
 30
0.0
 10
39.19888112263886
 20
69.73466199918649
 30
0.0
 10
39.15764540486917
 20
69.76079464028089
 30
0.0
 10
39.11098535295926
 20
69.78907259503055
 30
0.0
 10
39.0587982837188
 20
69.81929013768271
 30
0.0
 10
39.00099066640873
 20
69.85123576434592
 30
0.0
 10
38.93747433648509
 20
69.88469580040268
 30
0.0
 10
38.8681677009895
 20
69.9194535651522
 30
0.0
 10
38.79299549383035
 20
69.95528982477602
 30
0.0
 10
38.71188894039412
 20
69.99198287931094
 30
0.0
 10
38.62478579902624
 20
70.02930875680583
 30
0.0
 10
38.53163043228239
 20
70.06704138019157
 30
0.0
 10
38.43237386118727
 20
70.1049527417419
 30
0.0
 10
38.32697382944369
 20
70.1428130866987
 30
0.0
 10
38.21539481685147
 20
70.18039106023394
 30
0.0
 10
38.09760822508092
 20
70.21745400569976
 30
0.0
 10
37.97359187576557
 20
70.25376768325435
 30
0.0
 10
37.84333214212458
 20
70.28909823261515
 30
0.0
 10
37.7068159041166
 20
70.32320548771617
 30
0.0
 10
37.56406166760343
 20
70.35586959668986
 30
0.0
 10
37.41500004356543
 20
70.3867895594048
 30
0.0
 10
37.27673232826717
 20
70.41281206070286
 30
0.0
 10
37.18721144217608
 20
70.42768319375377
 30
0.0
 10
37.15045926859847
 20
70.43368504225302
 30
0.0
  0
ARC
  5
1000008D
102
{ACAD_XDICTIONARY
360
1000008E
102
}
330
1F
100
AcDbEntity
  8
VISIBLE
100
AcDbCircle
 10
50.0
 20
60.0
 30
0.0
 40
16.55211408155711
100
AcDbArc
 50
140.9237831458911
 51
144.0762168541089
  0
SPLINE
  5
10000090
102
{ACAD_XDICTIONARY
360
10000091
102
}
330
1F
100
AcDbEntity
  8
VISIBLE
100
AcDbSpline
210
0.0
220
0.0
230
1.0
 70
     8
 71
     3
 72
    36
 73
    32
 74
     0
 42
0.000000001
 43
0.00000001
 40
0.0524829469154058
 40
0.0524829469154058
 40
0.0524829469154058
 40
0.0524829469154058
 40
0.0947191414680564
 40
0.1054354106067452
 40
0.1192700518431472
 40
0.1356394192173102
 40
0.1542005367408222
 40
0.1747206240132497
 40
0.1970283106018748
 40
0.2209906097611337
 40
0.2465004251578098
 40
0.2734691029618555
 40
0.3018216775129437
 40
0.3314936741602397
 40
0.3624288691093601
 40
0.3945776667253304
 40
0.4278958913156665
 40
0.4623438664611186
 40
0.4978856994674306
 40
0.5344887156726971
 40
0.5721230045225902
 40
0.6107610505288927
 40
0.6503774297319677
 40
0.6909485574358313
 40
0.7324524765903656
 40
0.7748686787686334
 40
0.8181779515550194
 40
0.8623622475362629
 40
0.9074045711157968
 40
0.9532888801499343
 40
0.9850887870107579
 40
0.9850887870107579
 40
0.9850887870107579
 40
0.9850887870107579
 10
38.10594700566167
 20
67.69308070171056
 30
0.0
 10
38.01925967774874
 20
67.7491477047113
 30
0.0
 10
37.94233957973236
 20
67.79903488406464
 30
0.0
 10
37.93596540729031
 20
67.8037227521042
 30
0.0
 10
37.92267816295722
 20
67.81318944892088
 30
0.0
 10
37.90718704943109
 20
67.824877223788
 30
0.0
 10
37.88665174461335
 20
67.84092838035582
 30
0.0
 10
37.86223237884465
 20
67.86085263599084
 30
0.0
 10
37.83376301413759
 20
67.88503112411483
 30
0.0
 10
37.80150329091358
 20
67.91356375343626
 30
0.0
 10
37.76558850887407
 20
67.94663077298152
 30
0.0
 10
37.726197591987
 20
67.98438204893154
 30
0.0
 10
37.68350267970476
 20
68.02697001137464
 30
0.0
 10
37.63768386156194
 20
68.07453974530252
 30
0.0
 10
37.58892471272689
 20
68.12723171418554
 30
0.0
 10
37.53741341287302
 20
68.18518081186156
 30
0.0
 10
37.48334224530959
 20
68.24851648167986
 30
0.0
 10
37.42690755557696
 20
68.31736253498859
 30
0.0
 10
37.36830957464147
 20
68.39183706081589
 30
0.0
 10
37.30775227615273
 20
68.47205231385729
 30
0.0
 10
37.24544322197049
 20
68.55811461691196
 30
0.0
 10
37.18159340141487
 20
68.65012425133582
 30
0.0
 10
37.11641709278497
 20
68.74817540604319
 30
0.0
 10
37.05013162335326
 20
68.85235592087079
 30
0.0
 10
36.98295751124885
 20
68.96274784420773
 30
0.0
 10
36.91511712128799
 20
69.07942486600858
 30
0.0
 10
36.84683904035987
 20
69.202461818812
 30
0.0
 10
36.7783404187308
 20
69.33189772917856
 30
0.0
 10
36.70989404100158
 20
69.46787752632098
 30
0.0
 10
36.64897191689114
 20
69.59469876453241
 30
0.0
 10
36.61143779515627
 20
69.67732036794423
 30
0.0
 10
36.59612829221458
 20
69.71126684887768
 30
0.0
  0
ARC
  5
10000093
102
{ACAD_XDICTIONARY
360
10000094
102
}
330
1F
100
AcDbEntity
  8
VISIBLE
100
AcDbCircle
 10
37.8419145739692
 20
67.28485010687272
 30
0.0
 40
0.4861741905398634
100
AcDbArc
 50
329.0709112457608
 51
57.10631138782504
  0
ARC
  5
10000096
102
{ACAD_XDICTIONARY
360
10000097
102
}
330
1F
100
AcDbEntity
  8
VISIBLE
100
AcDbCircle
 10
50.0
 20
60.0
 30
0.0
 40
13.687325105903
100
AcDbArc
 50
149.0709112457613
 51
150.9290887542387
  0
ARC
  5
10000099
102
{ACAD_XDICTIONARY
360
1000009A
102
}
330
1F
100
AcDbEntity
  8
VISIBLE
100
AcDbCircle
 10
37.61209203167103
 20
66.88678578688767
 30
0.0
 40
0.4861741905398634
100
AcDbArc
 50
242.893688612176
 51
330.9290887542381
  0
SPLINE
  5
1000009C
102
{ACAD_XDICTIONARY
360
1000009D
102
}
330
1F
100
AcDbEntity
  8
VISIBLE
100
AcDbSpline
210
0.0
220
0.0
230
1.0
 70
     8
 71
     3
 72
    36
 73
    32
 74
     0
 42
0.000000001
 43
0.00000001
 40
0.0524829469154074
 40
0.0524829469154074
 40
0.0524829469154074
 40
0.0524829469154074
 40
0.0947191414680564
 40
0.1054354106067452
 40
0.1192700518431472
 40
0.1356394192173102
 40
0.1542005367408222
 40
0.1747206240132497
 40
0.1970283106018748
 40
0.2209906097611337
 40
0.2465004251578098
 40
0.2734691029618555
 40
0.3018216775129437
 40
0.3314936741602397
 40
0.3624288691093601
 40
0.3945776667253304
 40
0.4278958913156665
 40
0.4623438664611186
 40
0.4978856994674306
 40
0.5344887156726971
 40
0.5721230045225902
 40
0.6107610505288927
 40
0.6503774297319677
 40
0.6909485574358313
 40
0.7324524765903656
 40
0.7748686787686334
 40
0.8181779515550194
 40
0.8623622475362629
 40
0.9074045711157968
 40
0.9532888801499343
 40
0.9850887870107611
 40
0.9850887870107611
 40
0.9850887870107611
 40
0.9850887870107611
 10
37.39057018178568
 20
66.45401169620008
 30
0.0
 10
37.29867106891651
 20
66.5010516228585
 30
0.0
 10
37.21700745526519
 20
66.54272279212562
 30
0.0
 10
37.20976055623229
 20
66.54589905336873
 30
0.0
 10
37.19491853413259
 20
66.55267279609915
 30
0.0
 10
37.17705106742089
 20
66.56024460651214
 30
0.0
 10
37.15288270566415
 20
66.57000312387483
 30
0.0
 10
37.12341811124838
 20
66.58118878715733
 30
0.0
 10
37.08824424395438
 20
66.59375473616124
 30
0.0
 10
37.04740440051324
 20
66.60742616133159
 30
0.0
 10
37.00081013053988
 20
66.62199576517655
 30
0.0
 10
36.94842110809834
 20
66.6372336619041
 30
0.0
 10
36.89019139458607
 20
66.65291455933131
 30
0.0
 10
36.82608538748186
 20
66.66880995285045
 30
0.0
 10
36.75607322943621
 20
66.68469062996698
 30
0.0
 10
36.68013218879545
 20
66.70032617538438
 30
0.0
 10
36.59824630598541
 20
66.71548534519745
 30
0.0
 10
36.51040653000342
 20
66.72993619350625
 30
0.0
 10
36.41661070823444
 20
66.7434462706932
 30
0.0
 10
36.31686361208521
 20
66.7557828030483
 30
0.0
 10
36.21117694424054
 20
66.76671287532857
 30
0.0
 10
36.09956935315877
 20
66.77600362474489
 30
0.0
 10
35.98206640799683
 20
66.78342238638959
 30
0.0
 10
35.85870070086093
 20
66.78873702940543
 30
0.0
 10
35.72951143482632
 20
66.79171555529605
 30
0.0
 10
35.59454597492844
 20
66.79212854550435
 30
0.0
 10
35.45385380773239
 20
66.78974062170806
 30
0.0
 10
35.30750971037845
 20
66.78434421297978
 30
0.0
 10
35.15552456278706
 20
66.77563061631908
 30
0.0
 10
35.01523308670134
 20
66.76498010434553
 30
0.0
 10
34.92491361837785
 20
66.75617480557074
 30
0.0
 10
34.88786035204956
 20
66.75245998357082
 30
0.0
  0
ARC
  5
1000009F
102
{ACAD_XDICTIONARY
360
100000A0
102
}
330
1F
100
AcDbEntity
  8
VISIBLE
100
AcDbCircle
 10
50.0
 20
60.0
 30
0.0
 40
16.55211408155711
100
AcDbArc
 50
155.9237831458911
 51
159.0762168541089
  0
SPLINE
  5
100000A2
102
{ACAD_XDICTIONARY
360
100000A3
102
}
330
1F
100
AcDbEntity
  8
VISIBLE
100
AcDbSpline
210
0.0
220
0.0
230
1.0
 70
     8
 71
     3
 72
    36
 73
    32
 74
     0
 42
0.000000001
 43
0.00000001
 40
0.0524829469154054
 40
0.0524829469154054
 40
0.0524829469154054
 40
0.0524829469154054
 40
0.0947191414680564
 40
0.1054354106067452
 40
0.1192700518431472
 40
0.1356394192173102
 40
0.1542005367408222
 40
0.1747206240132497
 40
0.1970283106018748
 40
0.2209906097611337
 40
0.2465004251578098
 40
0.2734691029618555
 40
0.3018216775129437
 40
0.3314936741602397
 40
0.3624288691093601
 40
0.3945776667253304
 40
0.4278958913156665
 40
0.4623438664611186
 40
0.4978856994674306
 40
0.5344887156726971
 40
0.5721230045225902
 40
0.6107610505288927
 40
0.6503774297319677
 40
0.6909485574358313
 40
0.7324524765903656
 40
0.7748686787686334
 40
0.8181779515550194
 40
0.8623622475362629
 40
0.9074045711157968
 40
0.9532888801499343
 40
0.9850887870107617
 40
0.9850887870107617
 40
0.9850887870107617
 40
0.9850887870107617
 10
36.52011123240442
 20
64.35253789511482
 30
0.0
 10
36.42186649538293
 20
64.38425812988297
 30
0.0
 10
36.33465563402513
 20
64.41253705850326
 30
0.0
 10
36.32728534671256
 20
64.41541543408817
 30
0.0
 10
36.31200069282066
 20
64.4211205691427
 30
0.0
 10
36.2940124074573
 20
64.42840069752828
 30
0.0
 10
36.27002248116745
 20
64.43858999621516
 30
0.0
 10
36.24127840829204
 20
64.45151515237234
 30
0.0
 10
36.20752126045517
 20
64.46750136470376
 30
0.0
 10
36.16897597276893
 20
64.48671233749715
 30
0.0
 10
36.12572658282833
 20
64.5093571960818
 30
0.0
 10
36.07790712969312
 20
64.53562700900285
 30
0.0
 10
36.02564443549618
 20
64.56571356538807
 30
0.0
 10
35.96907490261099
 20
64.59980361717923
 30
0.0
 10
35.90833949641247
 20
64.63808035441988
 30
0.0
 10
35.84358507141283
 20
64.68072277903512
 30
0.0
 10
35.77496385662241
 20
64.72790569028159
 30
0.0
 10
35.70263346253461
 20
64.77979949870331
 30
0.0
 10
35.62675673372154
 20
64.83657009312986
 30
0.0
 10
35.54750163994613
 20
64.89837869553604
 30
0.0
 10
35.46504115220393
 20
64.96538172682178
 30
0.0
 10
35.37955311580352
 20
65.037730659393
 30
0.0
 10
35.29122012980315
 20
65.11557193205944
 30
0.0
 10
35.2002293816054
 20
65.19904664002502
 30
0.0
 10
35.10677263968061
 20
65.2882911102394
 30
0.0
 10
35.011045619584
 20
65.3834340739823
 30
0.0
 10
34.91324975120916
 20
65.48460697657576
 30
0.0
 10
34.81358468478939
 20
65.59190371740719
 30
0.0
 10
34.71227639957518
 20
65.705534889196
 30
0.0
 10
34.62060639473192
 20
65.8122669925185
 30
0.0
 10
34.56296717268123
 20
65.88235878751723
 30
0.0
 10
34.53939333262241
 20
65.91118617923011
 30
0.0
  0
ARC
  5
100000A5
102
{ACAD_XDICTIONARY
360
100000A6
102
}
330
1F
100
AcDbEntity
  8
VISIBLE
100
AcDbCircle
 10
36.37073334039232
 20
63.88988079863288
 30
0.0
 40
0.4861741905398634
100
AcDbArc
 50
344.0709112457612
 51
72.10631138782456
  0
ARC
  5
100000A8
102
{ACAD_XDICTIONARY
360
100000A9
102
}
330
1F
100
AcDbEntity
  8
VISIBLE
100
AcDbCircle
 10
50.0
 20
60.0
 30
0.0
 40
13.687325105903
100
AcDbArc
 50
164.0709112457613
 51
165.9290887542387
  0
ARC
  5
100000AB
102
{ACAD_XDICTIONARY
360
100000AC
102
}
330
1F
100
AcDbEntity
  8
VISIBLE
100
AcDbCircle
 10
36.25176843851103
 20
63.44589774049447
 30
0.0
 40
0.4861741905398634
100
AcDbArc
 50
257.8936886121762
 51
345.929088754239
  0
SPLINE
  5
100000AE
102
{ACAD_XDICTIONARY
360
100000AF
102
}
330
1F
100
AcDbEntity
  8
VISIBLE
100
AcDbSpline
210
0.0
220
0.0
230
1.0
 70
     8
 71
     3
 72
    36
 73
    32
 74
     0
 42
0.000000001
 43
0.00000001
 40
0.0524829469154076
 40
0.0524829469154076
 40
0.0524829469154076
 40
0.0524829469154076
 40
0.0947191414680564
 40
0.1054354106067452
 40
0.1192700518431472
 40
0.1356394192173102
 40
0.1542005367408222
 40
0.1747206240132497
 40
0.1970283106018748
 40
0.2209906097611337
 40
0.2465004251578098
 40
0.2734691029618555
 40
0.3018216775129437
 40
0.3314936741602397
 40
0.3624288691093601
 40
0.3945776667253304
 40
0.4278958913156665
 40
0.4623438664611186
 40
0.4978856994674306
 40
0.5344887156726971
 40
0.5721230045225902
 40
0.6107610505288927
 40
0.6503774297319677
 40
0.6909485574358313
 40
0.7324524765903656
 40
0.7748686787686334
 40
0.8181779515550194
 40
0.8623622475362629
 40
0.9074045711157968
 40
0.9532888801499343
 40
0.9850887870107602
 40
0.9850887870107602
 40
0.9850887870107602
 40
0.9850887870107602
 10
36.14980493951631
 20
62.97053599569389
 30
0.0
 10
36.0488623840835
 20
62.99218783508142
 30
0.0
 10
35.95919609835158
 20
63.01130299518334
 30
0.0
 10
35.95137405451326
 20
63.01249539246147
 30
0.0
 10
35.93528458842754
 20
63.01519692751818
 30
0.0
 10
35.91606621213957
 20
63.01788629407513
 30
0.0
 10
35.8901956771942
 20
63.02105706571049
 30
0.0
 10
35.85884000179728
 20
63.02423558856817
 30
0.0
 10
35.82161234804552
 20
63.02726969649731
 30
0.0
 10
35.77862566331635
 20
63.02990514986995
 30
0.0
 10
35.72984816363731
 20
63.03191882204084
 30
0.0
 10
35.67530039596661
 20
63.03307822326613
 30
0.0
 10
35.61499629692923
 20
63.03315384822263
 30
0.0
 10
35.54896061847484
 20
63.03191576379774
 30
0.0
 10
35.47722384517744
 20
63.02913484007262
 30
0.0
 10
35.39982365581267
 20
63.02458262957668
 30
0.0
 10
35.3168044849424
 20
63.01803163720794
 30
0.0
 10
35.22821762198576
 20
63.00925547785952
 30
0.0
 10
35.1341211500643
 20
62.99802906530471
 30
0.0
 10
35.0345799242724
 20
62.98412879233625
 30
0.0
 10
34.92966553143632
 20
62.96733270898334
 30
0.0
 10
34.81945625390831
 20
62.94742071364016
 30
0.0
 10
34.70403700770663
 20
62.92417468704831
 30
0.0
 10
34.58349935427524
 20
62.89737884347551
 30
0.0
 10
34.45794120650625
 20
62.86681923608496
 30
0.0
 10
34.32746769340256
 20
62.83228652254058
 30
0.0
 10
34.19218753570805
 20
62.79356615290745
 30
0.0
 10
34.05222668590295
 20
62.75047698281404
 30
0.0
 10
33.9076755513992
 20
62.70272364399025
 30
0.0
 10
33.77492094677864
 20
62.65612593353526
 30
0.0
 10
33.68995801872902
 20
62.62424426949485
 30
0.0
 10
33.6551287785169
 20
62.61106593597606
 30
0.0
  0
ARC
  5
100000B1
102
{ACAD_XDICTIONARY
360
100000B2
102
}
330
1F
100
AcDbEntity
  8
VISIBLE
100
AcDbCircle
 10
50.0
 20
60.0
 30
0.0
 40
16.55211408155711
100
AcDbArc
 50
170.9237831458911
 51
174.0762168541089
  0
SPLINE
  5
100000B4
102
{ACAD_XDICTIONARY
360
100000B5
102
}
330
1F
100
AcDbEntity
  8
VISIBLE
100
AcDbSpline
210
0.0
220
0.0
230
1.0
 70
     8
 71
     3
 72
    36
 73
    32
 74
     0
 42
0.000000001
 43
0.00000001
 40
0.0524829469154061
 40
0.0524829469154061
 40
0.0524829469154061
 40
0.0524829469154061
 40
0.0947191414680564
 40
0.1054354106067452
 40
0.1192700518431472
 40
0.1356394192173102
 40
0.1542005367408222
 40
0.1747206240132497
 40
0.1970283106018748
 40
0.2209906097611337
 40
0.2465004251578098
 40
0.2734691029618555
 40
0.3018216775129437
 40
0.3314936741602397
 40
0.3624288691093601
 40
0.3945776667253304
 40
0.4278958913156665
 40
0.4623438664611186
 40
0.4978856994674306
 40
0.5344887156726971
 40
0.5721230045225902
 40
0.6107610505288927
 40
0.6503774297319677
 40
0.6909485574358313
 40
0.7324524765903656
 40
0.7748686787686334
 40
0.8181779515550194
 40
0.8623622475362629
 40
0.9074045711157968
 40
0.9532888801499343
 40
0.9850887870107587
 40
0.9850887870107587
 40
0.9850887870107587
 40
0.9850887870107587
 10
35.85290760208936
 20
60.71537682387599
 30
0.0
 10
35.7498006724302
 20
60.72058860883224
 30
0.0
 10
35.65824232380976
 20
60.72533212446717
 30
0.0
 10
35.65037819452705
 20
60.72620485105802
 30
0.0
 10
35.63413775497997
 20
60.72775962882463
 30
0.0
 10
35.61487816969987
 20
60.7301359820102
 30
0.0
 10
35.58906849576933
 20
60.7337690389492
 30
0.0
 10
35.55795857685183
 20
60.73881426759627
 30
0.0
 10
35.52121413972392
 20
60.74551877018321
 30
0.0
 10
35.47901008523215
 20
60.75409889040033
 30
0.0
 10
35.43137346184194
 20
60.7647783783342
 30
0.0
 10
35.37838428916436
 20
60.77777648388866
 30
0.0
 10
35.32011542929403
 20
60.7933112851187
 30
0.0
 10
35.25665030184704
 20
60.81159847408009
 30
0.0
 10
35.18807765584747
 20
60.83285148329068
 30
0.0
 10
35.11449301275405
 20
60.85728122407757
 30
0.0
 10
35.03599817312269
 20
60.8850959393242
 30
0.0
 10
34.95270127150517
 20
60.91650102557354
 30
0.0
 10
34.86471666849091
 20
60.95169886640703
 30
0.0
 10
34.7721648830944
 20
60.99088866406753
 30
0.0
 10
34.67517250775946
 20
61.03426627772994
 30
0.0
 10
34.57387212391929
 20
61.0820240482561
 30
0.0
 10
34.46840220756722
 20
61.13435068478815
 30
0.0
 10
34.35890704972378
 20
61.19143092249232
 30
0.0
 10
34.24553660049622
 20
61.25344607642253
 30
0.0
 10
34.12844658848706
 20
61.32057114635955
 30
0.0
 10
34.00779755947994
 20
61.39298523262747
 30
0.0
 10
33.88375805784166
 20
61.47083070835235
 30
0.0
 10
33.75649185735994
 20
61.55436947821453
 30
0.0
 10
33.64032113112207
 20
61.63373883018981
 30
0.0
 10
33.56650482648502
 20
61.68652417677843
 30
0.0
 10
33.53627316755148
 20
61.70826794016503
 30
0.0
  0
ARC
  5
100000B7
102
{ACAD_XDICTIONARY
360
100000B8
102
}
330
1F
100
AcDbEntity
  8
VISIBLE
100
AcDbCircle
 10
35.82836410623961
 20
60.22982254229816
 30
0.0
 40
0.4861741905398634
100
AcDbArc
 50
359.0709112457618
 51
87.10631138782526
  0
ENDSEC
  0
SECTION
  2
OBJECTS
  0
DICTIONARY
  5
C
330
0
100
AcDbDictionary
  3
ACAD_GROUP
350
D
  3
ACAD_LAYOUT
350
1A
  3
ACAD_MATERIAL
350
43
  3
ACAD_MLEADERSTYLE
350
6B
  3
ACAD_MLINESTYLE
350
17
  3
ACAD_PLOTSETTINGS
350
19
  3
ACAD_SCALELIST
350
47
  3
ACAD_VISUALSTYLE
350
2A
  3
ACDBHEADERROUNDTRIPXREC
350
100000BC
  3
ACDBVARIABLEDICTIONARY
350
100000DD
  3
DWGPROPS
350
100000E4
  3
ONSHAPE_DATA
350
10000001
  0
DICTIONARY
  5
100000E5
330
8
100
AcDbDictionary
280
     1
  3
ACAD_XREC_ROUNDTRIP
360
100000E6
  0
DICTIONARY
  5
100000BA
330
1F
100
AcDbDictionary
280
     1
  3
ACAD_SORTENTS
360
100000BB
  0
DICTIONARY
  5
1000004C
330
1000004B
100
AcDbDictionary
280
     1
  3
BTDETID
360
1000004D
  0
DICTIONARY
  5
1000004F
330
1000004E
100
AcDbDictionary
280
     1
  3
BTDETID
360
10000050
  0
DICTIONARY
  5
10000052
330
10000051
100
AcDbDictionary
280
     1
  3
BTDETID
360
10000053
  0
DICTIONARY
  5
10000055
330
10000054
100
AcDbDictionary
280
     1
  3
BTDETID
360
10000056
  0
DICTIONARY
  5
10000058
330
10000057
100
AcDbDictionary
280
     1
  3
BTDETID
360
10000059
  0
DICTIONARY
  5
1000005B
330
1000005A
100
AcDbDictionary
280
     1
  3
BTDETID
360
1000005C
  0
DICTIONARY
  5
1000005E
330
1000005D
100
AcDbDictionary
280
     1
  3
BTDETID
360
1000005F
  0
DICTIONARY
  5
10000061
330
10000060
100
AcDbDictionary
280
     1
  3
BTDETID
360
10000062
  0
DICTIONARY
  5
10000064
330
10000063
100
AcDbDictionary
280
     1
  3
BTDETID
360
10000065
  0
DICTIONARY
  5
10000067
330
10000066
100
AcDbDictionary
280
     1
  3
BTDETID
360
10000068
  0
DICTIONARY
  5
1000006A
330
10000069
100
AcDbDictionary
280
     1
  3
BTDETID
360
1000006B
  0
DICTIONARY
  5
1000006D
330
1000006C
100
AcDbDictionary
280
     1
  3
BTDETID
360
1000006E
  0
DICTIONARY
  5
10000070
330
1000006F
100
AcDbDictionary
280
     1
  3
BTDETID
360
10000071
  0
DICTIONARY
  5
10000073
330
10000072
100
AcDbDictionary
280
     1
  3
BTDETID
360
10000074
  0
DICTIONARY
  5
10000076
330
10000075
100
AcDbDictionary
280
     1
  3
BTDETID
360
10000077
  0
DICTIONARY
  5
10000079
330
10000078
100
AcDbDictionary
280
     1
  3
BTDETID
360
1000007A
  0
DICTIONARY
  5
1000007C
330
1000007B
100
AcDbDictionary
280
     1
  3
BTDETID
360
1000007D
  0
DICTIONARY
  5
1000007F
330
1000007E
100
AcDbDictionary
280
     1
  3
BTDETID
360
10000080
  0
DICTIONARY
  5
10000082
330
10000081
100
AcDbDictionary
280
     1
  3
BTDETID
360
10000083
  0
DICTIONARY
  5
10000085
330
10000084
100
AcDbDictionary
280
     1
  3
BTDETID
360
10000086
  0
DICTIONARY
  5
10000088
330
10000087
100
AcDbDictionary
280
     1
  3
BTDETID
360
10000089
  0
DICTIONARY
  5
1000008B
330
1000008A
100
AcDbDictionary
280
     1
  3
BTDETID
360
1000008C
  0
DICTIONARY
  5
1000008E
330
1000008D
100
AcDbDictionary
280
     1
  3
BTDETID
360
1000008F
  0
DICTIONARY
  5
10000091
330
10000090
100
AcDbDictionary
280
     1
  3
BTDETID
360
10000092
  0
DICTIONARY
  5
10000094
330
10000093
100
AcDbDictionary
280
     1
  3
BTDETID
360
10000095
  0
DICTIONARY
  5
10000097
330
10000096
100
AcDbDictionary
280
     1
  3
BTDETID
360
10000098
  0
DICTIONARY
  5
1000009A
330
10000099
100
AcDbDictionary
280
     1
  3
BTDETID
360
1000009B
  0
DICTIONARY
  5
1000009D
330
1000009C
100
AcDbDictionary
280
     1
  3
BTDETID
360
1000009E
  0
DICTIONARY
  5
100000A0
330
1000009F
100
AcDbDictionary
280
     1
  3
BTDETID
360
100000A1
  0
DICTIONARY
  5
100000A3
330
100000A2
100
AcDbDictionary
280
     1
  3
BTDETID
360
100000A4
  0
DICTIONARY
  5
100000A6
330
100000A5
100
AcDbDictionary
280
     1
  3
BTDETID
360
100000A7
  0
DICTIONARY
  5
100000A9
330
100000A8
100
AcDbDictionary
280
     1
  3
BTDETID
360
100000AA
  0
DICTIONARY
  5
100000AC
330
100000AB
100
AcDbDictionary
280
     1
  3
BTDETID
360
100000AD
  0
DICTIONARY
  5
100000AF
330
100000AE
100
AcDbDictionary
280
     1
  3
BTDETID
360
100000B0
  0
DICTIONARY
  5
100000B2
330
100000B1
100
AcDbDictionary
280
     1
  3
BTDETID
360
100000B3
  0
DICTIONARY
  5
100000B5
330
100000B4
100
AcDbDictionary
280
     1
  3
BTDETID
360
100000B6
  0
DICTIONARY
  5
100000B8
330
100000B7
100
AcDbDictionary
280
     1
  3
BTDETID
360
100000B9
  0
DICTIONARY
  5
D
102
{ACAD_REACTORS
330
C
102
}
330
C
100
AcDbDictionary
  0
DICTIONARY
  5
1A
102
{ACAD_REACTORS
330
C
102
}
330
C
100
AcDbDictionary
  0
DICTIONARY
  5
43
102
{ACAD_REACTORS
330
C
102
}
330
C
100
AcDbDictionary
  3
BYBLOCK
350
45
  3
BYLAYER
350
44
  3
GLOBAL
350
46
  0
DICTIONARY
  5
6B
102
{ACAD_REACTORS
330
C
102
}
330
C
100
AcDbDictionary
  3
STANDARD
350
6C
  0
DICTIONARY
  5
17
102
{ACAD_REACTORS
330
C
102
}
330
C
100
AcDbDictionary
  3
STANDARD
350
18
  0
DICTIONARY
  5
19
102
{ACAD_REACTORS
330
C
102
}
330
C
100
AcDbDictionary
  0
DICTIONARY
  5
47
102
{ACAD_REACTORS
330
C
102
}
330
C
100
AcDbDictionary
  3
SCALE100_1
350
10000023
  3
SCALE10_1
350
1000001D
  3
SCALE12_1
350
1000001E
  3
SCALE16_1
350
1000001F
  3
SCALE1_1
350
10000006
  3
SCALE1_10
350
1000000D
  3
SCALE1_100
350
10000016
  3
SCALE1_12
350
1000000E
  3
SCALE1_16
350
1000000F
  3
SCALE1_2
350
10000007
  3
SCALE1_20
350
10000010
  3
SCALE1_25
350
10000011
  3
SCALE1_3
350
10000008
  3
SCALE1_32
350
10000012
  3
SCALE1_4
350
10000009
  3
SCALE1_40
350
10000013
  3
SCALE1_5
350
1000000A
  3
SCALE1_50
350
10000014
  3
SCALE1_6
350
1000000B
  3
SCALE1_8
350
1000000C
  3
SCALE1_80
350
10000015
  3
SCALE20_1
350
10000020
  3
SCALE2_1
350
10000017
  3
SCALE32_1
350
10000021
  3
SCALE3_1
350
10000018
  3
SCALE4_1
350
10000019
  3
SCALE50_1
350
10000022
  3
SCALE5_1
350
1000001A
  3
SCALE6_1
350
1000001B
  3
SCALE8_1
350
1000001C
  0
DICTIONARY
  5
2A
102
{ACAD_REACTORS
330
C
102
}
330
C
100
AcDbDictionary
  3
2DWIREFRAME
350
2F
  3
BASIC
350
32
  3
BRIGHTEN
350
36
  3
COLORCHANGE
350
3A
  3
CONCEPTUAL
350
34
  3
DIM
350
35
  3
EDGECOLOROFF
350
3D
  3
FACEPATTERN
350
39
  3
FLAT
350
2B
  3
FLATWITHEDGES
350
2C
  3
GOURAUD
350
2D
  3
GOURAUDWITHEDGES
350
2E
  3
HIDDEN
350
31
  3
JITTEROFF
350
3B
  3
LINEPATTERN
350
38
  3
OVERHANGOFF
350
3C
  3
REALISTIC
350
33
  3
SHADED
350
42
  3
SHADED_WITH_EDGES
350
41
  3
SHADES_OF_GRAY
350
3E
  3
SKETCHY
350
3F
  3
THICKEN
350
37
  3
WIREFRAME
350
30
  3
X-RAY
350
40
  0
DICTIONARY
  5
100000BC
102
{ACAD_REACTORS
330
C
102
}
330
C
100
AcDbDictionary
  3
CEPSNID
350
100000C6
  3
CEPSNTYPE
350
100000C5
  3
DIMSTYLEDATA
350
100000DC
  3
FINGERPRINTGUID
350
100000C7
  3
HYPERLINKBASE
350
100000BF
  3
INSUNITS
350
100000C4
  3
LAYOUTDICT
350
100000C1
  3
LWETCUNION
350
100000C3
  3
PLOTSETDICT
350
100000C2
  3
PSVPSCALE
350
100000C9
  3
PUCSBASE
350
100000CC
  3
PUCSORGBACK
350
100000D2
  3
PUCSORGBOTTOM
350
100000CE
  3
PUCSORGFRONT
350
100000D1
  3
PUCSORGLEFT
350
100000CF
  3
PUCSORGRIGHT
350
100000D0
  3
PUCSORGTOP
350
100000CD
  3
PUCSORTHOREF
350
100000CA
  3
PUCSORTHOVIEW
350
100000CB
  3
STYLESHEET
350
100000C0
  3
TSTACKALIGN
350
100000BD
  3
TSTACKSIZE
350
100000BE
  3
UCSBASE
350
100000D5
  3
UCSORGBACK
350
100000DB
  3
UCSORGBOTTOM
350
100000D7
  3
UCSORGFRONT
350
100000DA
  3
UCSORGLEFT
350
100000D8
  3
UCSORGRIGHT
350
100000D9
  3
UCSORGTOP
350
100000D6
  3
UCSORTHOREF
350
100000D3
  3
UCSORTHOVIEW
350
100000D4
  3
VERSIONGUID
350
100000C8
  0
DICTIONARY
  5
100000DD
102
{ACAD_REACTORS
330
C
102
}
330
C
100
AcDbDictionary
  3
CANNOSCALE
350
100000E7
  3
CMLEADERSTYLE
350
100000DF
  3
CTABLESTYLE
350
100000DE
  3
DIMASSOC
350
100000E2
  3
HIDETEXT
350
100000E3
  3
MSLTSCALE
350
100000E8
  0
XRECORD
  5
100000E4
102
{ACAD_REACTORS
330
C
102
}
330
C
100
AcDbXrecord
  1
DWGPROPS COOKIE
  2

  3

  4

  6
File was created by BTDwgCreate
  7

  8

  9

300
=
301
=
302
=
303
=
304
=
305
=
306
=
307
=
308
=
309
=
 40
0.0
 41
2458359.619003634
 42
2458359.619003669
  1

 90
        0
  0
DICTIONARY
  5
10000001
102
{ACAD_REACTORS
330
C
102
}
330
C
100
AcDbDictionary
280
     1
  3
DIM_UNITS
360
10000003
  3
DWGGEN_VERSION
360
10000002
  3
FIRST_ANGLE
360
10000005
  0
XRECORD
  5
100000E6
102
{ACAD_REACTORS
330
100000E5
102
}
330
100000E5
100
AcDbXrecord
102
VTR_0.000_0.000_1.000_1.000_VISUALSTYLE
340
2F
102
VTR_0.000_0.000_1.000_1.000_GRIDDISPLAY
 70
     3
102
VTR_0.000_0.000_1.000_1.000_GRIDMAJOR
 70
     5
102
VTR_0.000_0.000_1.000_1.000_DEFAULTLIGHTING
280
     1
102
VTR_0.000_0.000_1.000_1.000_DEFAULTLIGHTINGTYPE
 70
     1
102
VTR_0.000_0.000_1.000_1.000_BRIGHTNESS
141
0.0
102
VTR_0.000_0.000_1.000_1.000_CONTRAST
142
0.0
  0
SORTENTSTABLE
  5
100000BB
102
{ACAD_REACTORS
330
100000BA
102
}
330
100000BA
100
AcDbSortentsTable
330
1F
  0
XRECORD
  5
1000004D
102
{ACAD_REACTORS
330
1000004C
102
}
330
1000004C
100
AcDbXrecord
1000
RABF
  0
XRECORD
  5
10000050
102
{ACAD_REACTORS
330
1000004F
102
}
330
1000004F
100
AcDbXrecord
1000
SAB1G
  0
XRECORD
  5
10000053
102
{ACAD_REACTORS
330
10000052
102
}
330
10000052
100
AcDbXrecord
1000
RABV
  0
XRECORD
  5
10000056
102
{ACAD_REACTORS
330
10000055
102
}
330
10000055
100
AcDbXrecord
1000
RABh
  0
XRECORD
  5
10000059
102
{ACAD_REACTORS
330
10000058
102
}
330
10000058
100
AcDbXrecord
1000
SABZG
  0
XRECORD
  5
1000005C
102
{ACAD_REACTORS
330
1000005B
102
}
330
1000005B
100
AcDbXrecord
1000
SABZB
  0
XRECORD
  5
1000005F
102
{ACAD_REACTORS
330
1000005E
102
}
330
1000005E
100
AcDbXrecord
1000
SABBB
  0
XRECORD
  5
10000062
102
{ACAD_REACTORS
330
10000061
102
}
330
10000061
100
AcDbXrecord
1000
SABhB
  0
XRECORD
  5
10000065
102
{ACAD_REACTORS
330
10000064
102
}
330
10000064
100
AcDbXrecord
1000
RAB1
  0
XRECORD
  5
10000068
102
{ACAD_REACTORS
330
10000067
102
}
330
10000067
100
AcDbXrecord
1000
SABRB
  0
XRECORD
  5
1000006B
102
{ACAD_REACTORS
330
1000006A
102
}
330
1000006A
100
AcDbXrecord
1000
SABdG
  0
XRECORD
  5
1000006E
102
{ACAD_REACTORS
330
1000006D
102
}
330
1000006D
100
AcDbXrecord
1000
SABZC
  0
XRECORD
  5
10000071
102
{ACAD_REACTORS
330
10000070
102
}
330
10000070
100
AcDbXrecord
1000
SABBC
  0
XRECORD
  5
10000074
102
{ACAD_REACTORS
330
10000073
102
}
330
10000073
100
AcDbXrecord
1000
SABhC
  0
XRECORD
  5
10000077
102
{ACAD_REACTORS
330
10000076
102
}
330
10000076
100
AcDbXrecord
1000
SAB1B
  0
XRECORD
  5
1000007A
102
{ACAD_REACTORS
330
10000079
102
}
330
10000079
100
AcDbXrecord
1000
SABRC
  0
XRECORD
  5
1000007D
102
{ACAD_REACTORS
330
1000007C
102
}
330
1000007C
100
AcDbXrecord
1000
SABhG
  0
XRECORD
  5
10000080
102
{ACAD_REACTORS
330
1000007F
102
}
330
1000007F
100
AcDbXrecord
1000
SABZD
  0
XRECORD
  5
10000083
102
{ACAD_REACTORS
330
10000082
102
}
330
10000082
100
AcDbXrecord
1000
SABBD
  0
XRECORD
  5
10000086
102
{ACAD_REACTORS
330
10000085
102
}
330
10000085
100
AcDbXrecord
1000
SABhD
  0
XRECORD
  5
10000089
102
{ACAD_REACTORS
330
10000088
102
}
330
10000088
100
AcDbXrecord
1000
SAB1C
  0
XRECORD
  5
1000008C
102
{ACAD_REACTORS
330
1000008B
102
}
330
1000008B
100
AcDbXrecord
1000
SABRD
  0
XRECORD
  5
1000008F
102
{ACAD_REACTORS
330
1000008E
102
}
330
1000008E
100
AcDbXrecord
1000
SABlG
  0
XRECORD
  5
10000092
102
{ACAD_REACTORS
330
10000091
102
}
330
10000091
100
AcDbXrecord
1000
SABZE
  0
XRECORD
  5
10000095
102
{ACAD_REACTORS
330
10000094
102
}
330
10000094
100
AcDbXrecord
1000
SABBE
  0
XRECORD
  5
10000098
102
{ACAD_REACTORS
330
10000097
102
}
330
10000097
100
AcDbXrecord
1000
SABhE
  0
XRECORD
  5
1000009B
102
{ACAD_REACTORS
330
1000009A
102
}
330
1000009A
100
AcDbXrecord
1000
SAB1D
  0
XRECORD
  5
1000009E
102
{ACAD_REACTORS
330
1000009D
102
}
330
1000009D
100
AcDbXrecord
1000
SABRE
  0
XRECORD
  5
100000A1
102
{ACAD_REACTORS
330
100000A0
102
}
330
100000A0
100
AcDbXrecord
1000
SABpG
  0
XRECORD
  5
100000A4
102
{ACAD_REACTORS
330
100000A3
102
}
330
100000A3
100
AcDbXrecord
1000
SABZF
  0
XRECORD
  5
100000A7
102
{ACAD_REACTORS
330
100000A6
102
}
330
100000A6
100
AcDbXrecord
1000
SABBF
  0
XRECORD
  5
100000AA
102
{ACAD_REACTORS
330
100000A9
102
}
330
100000A9
100
AcDbXrecord
1000
SABhF
  0
XRECORD
  5
100000AD
102
{ACAD_REACTORS
330
100000AC
102
}
330
100000AC
100
AcDbXrecord
1000
SAB1E
  0
XRECORD
  5
100000B0
102
{ACAD_REACTORS
330
100000AF
102
}
330
100000AF
100
AcDbXrecord
1000
SABRF
  0
XRECORD
  5
100000B3
102
{ACAD_REACTORS
330
100000B2
102
}
330
100000B2
100
AcDbXrecord
1000
SABtG
  0
XRECORD
  5
100000B6
102
{ACAD_REACTORS
330
100000B5
102
}
330
100000B5
100
AcDbXrecord
1000
SAB9F
  0
XRECORD
  5
100000B9
102
{ACAD_REACTORS
330
100000B8
102
}
330
100000B8
100
AcDbXrecord
1000
SABtF
  0
MATERIAL
  5
45
102
{ACAD_REACTORS
330
43
102
}
102
{ACAD_XDICTIONARY
360
100000EB
102
}
330
43
100
AcDbMaterial
  1
BYBLOCK
  0
MATERIAL
  5
44
102
{ACAD_REACTORS
330
43
102
}
102
{ACAD_XDICTIONARY
360
100000E9
102
}
330
43
100
AcDbMaterial
  1
BYLAYER
  0
MATERIAL
  5
46
102
{ACAD_REACTORS
330
43
102
}
102
{ACAD_XDICTIONARY
360
100000ED
102
}
330
43
100
AcDbMaterial
  1
GLOBAL
  0
ACAD_PROXY_OBJECT
  5
6C
102
{ACAD_REACTORS
330
6B
102
}
330
6B
100
AcDbProxyObject
 90
      499
 91
      505
 93
      610
310
40901902A4063FBFFFFFE056BD1B81E855B9FC0AD7A3703D0AD73F4214DD185B99185C9900AD7A3703D0AC73F90141901A02B5E8DC0F42B1CFC02B5E8DC0F42B1CFE5764000000000000300FC0
340
14
340
0
340
11
340
0
 94
        0
1001
ACAD_MLEADERVER
1070
     2
  0
MLINESTYLE
  5
18
102
{ACAD_REACTORS
330
17
102
}
330
17
100
AcDbMlineStyle
  2
Standard
 70
     0
  3

 62
   256
 51
90.0
 52
90.0
 71
     2
 49
0.5
 62
   256
  6
BYLAYER
 49
-0.5
 62
   256
  6
BYLAYER
  0
ACAD_PROXY_OBJECT
  5
10000023
102
{ACAD_REACTORS
330
47
102
}
330
47
100
AcDbProxyObject
 90
      499
 91
      503
 93
      121
310
9053130303A310000000000001650100
  0
ACAD_PROXY_OBJECT
  5
1000001D
102
{ACAD_REACTORS
330
47
102
}
330
47
100
AcDbProxyObject
 90
      499
 91
      503
 93
      113
310
90431303A310000000000000910100
  0
ACAD_PROXY_OBJECT
  5
1000001E
102
{ACAD_REACTORS
330
47
102
}
330
47
100
AcDbProxyObject
 90
      499
 91
      503
 93
      113
310
90431323A310000000000000A10100
  0
ACAD_PROXY_OBJECT
  5
1000001F
102
{ACAD_REACTORS
330
47
102
}
330
47
100
AcDbProxyObject
 90
      499
 91
      503
 93
      113
310
90431363A310000000000000C10100
  0
ACAD_PROXY_OBJECT
  5
10000006
102
{ACAD_REACTORS
330
47
102
}
330
47
100
AcDbProxyObject
 90
      499
 91
      503
 93
       41
310
903313A31500
  0
ACAD_PROXY_OBJECT
  5
1000000D
102
{ACAD_REACTORS
330
47
102
}
330
47
100
AcDbProxyObject
 90
      499
 91
      503
 93
      113
310
904313A31304000000000000244000
  0
ACAD_PROXY_OBJECT
  5
10000016
102
{ACAD_REACTORS
330
47
102
}
330
47
100
AcDbProxyObject
 90
      499
 91
      503
 93
      121
310
905313A3130304000000000000594000
  0
ACAD_PROXY_OBJECT
  5
1000000E
102
{ACAD_REACTORS
330
47
102
}
330
47
100
AcDbProxyObject
 90
      499
 91
      503
 93
      113
310
904313A31324000000000000284000
  0
ACAD_PROXY_OBJECT
  5
1000000F
102
{ACAD_REACTORS
330
47
102
}
330
47
100
AcDbProxyObject
 90
      499
 91
      503
 93
      113
310
904313A31364000000000000304000
  0
ACAD_PROXY_OBJECT
  5
10000007
102
{ACAD_REACTORS
330
47
102
}
330
47
100
AcDbProxyObject
 90
      499
 91
      503
 93
      105
310
903313A324000000000000004000
  0
ACAD_PROXY_OBJECT
  5
10000010
102
{ACAD_REACTORS
330
47
102
}
330
47
100
AcDbProxyObject
 90
      499
 91
      503
 93
      113
310
904313A32304000000000000344000
  0
ACAD_PROXY_OBJECT
  5
10000011
102
{ACAD_REACTORS
330
47
102
}
330
47
100
AcDbProxyObject
 90
      499
 91
      503
 93
      113
310
904313A32354000000000000394000
  0
ACAD_PROXY_OBJECT
  5
10000008
102
{ACAD_REACTORS
330
47
102
}
330
47
100
AcDbProxyObject
 90
      499
 91
      503
 93
      105
310
903313A334000000000000084000
  0
ACAD_PROXY_OBJECT
  5
10000012
102
{ACAD_REACTORS
330
47
102
}
330
47
100
AcDbProxyObject
 90
      499
 91
      503
 93
      113
310
904313A33324000000000000404000
  0
ACAD_PROXY_OBJECT
  5
10000009
102
{ACAD_REACTORS
330
47
102
}
330
47
100
AcDbProxyObject
 90
      499
 91
      503
 93
      105
310
903313A344000000000000104000
  0
ACAD_PROXY_OBJECT
  5
10000013
102
{ACAD_REACTORS
330
47
102
}
330
47
100
AcDbProxyObject
 90
      499
 91
      503
 93
      113
310
904313A34304000000000000444000
  0
ACAD_PROXY_OBJECT
  5
1000000A
102
{ACAD_REACTORS
330
47
102
}
330
47
100
AcDbProxyObject
 90
      499
 91
      503
 93
      105
310
903313A354000000000000144000
  0
ACAD_PROXY_OBJECT
  5
10000014
102
{ACAD_REACTORS
330
47
102
}
330
47
100
AcDbProxyObject
 90
      499
 91
      503
 93
      113
310
904313A35304000000000000494000
  0
ACAD_PROXY_OBJECT
  5
1000000B
102
{ACAD_REACTORS
330
47
102
}
330
47
100
AcDbProxyObject
 90
      499
 91
      503
 93
      105
310
903313A364000000000000184000
  0
ACAD_PROXY_OBJECT
  5
1000000C
102
{ACAD_REACTORS
330
47
102
}
330
47
100
AcDbProxyObject
 90
      499
 91
      503
 93
      105
310
903313A384000000000000204000
  0
ACAD_PROXY_OBJECT
  5
10000015
102
{ACAD_REACTORS
330
47
102
}
330
47
100
AcDbProxyObject
 90
      499
 91
      503
 93
      113
310
904313A38304000000000000544000
  0
ACAD_PROXY_OBJECT
  5
10000020
102
{ACAD_REACTORS
330
47
102
}
330
47
100
AcDbProxyObject
 90
      499
 91
      503
 93
      113
310
90432303A310000000000000D10100
  0
ACAD_PROXY_OBJECT
  5
10000017
102
{ACAD_REACTORS
330
47
102
}
330
47
100
AcDbProxyObject
 90
      499
 91
      503
 93
      105
310
903323A310000000000000010100
  0
ACAD_PROXY_OBJECT
  5
10000021
102
{ACAD_REACTORS
330
47
102
}
330
47
100
AcDbProxyObject
 90
      499
 91
      503
 93
      113
310
90433323A310000000000001010100
  0
ACAD_PROXY_OBJECT
  5
10000018
102
{ACAD_REACTORS
330
47
102
}
330
47
100
AcDbProxyObject
 90
      499
 91
      503
 93
      105
310
903333A310000000000000210100
  0
ACAD_PROXY_OBJECT
  5
10000019
102
{ACAD_REACTORS
330
47
102
}
330
47
100
AcDbProxyObject
 90
      499
 91
      503
 93
      105
310
903343A310000000000000410100
  0
ACAD_PROXY_OBJECT
  5
10000022
102
{ACAD_REACTORS
330
47
102
}
330
47
100
AcDbProxyObject
 90
      499
 91
      503
 93
      113
310
90435303A310000000000001250100
  0
ACAD_PROXY_OBJECT
  5
1000001A
102
{ACAD_REACTORS
330
47
102
}
330
47
100
AcDbProxyObject
 90
      499
 91
      503
 93
      105
310
903353A310000000000000510100
  0
ACAD_PROXY_OBJECT
  5
1000001B
102
{ACAD_REACTORS
330
47
102
}
330
47
100
AcDbProxyObject
 90
      499
 91
      503
 93
      105
310
903363A310000000000000610100
  0
ACAD_PROXY_OBJECT
  5
1000001C
102
{ACAD_REACTORS
330
47
102
}
330
47
100
AcDbProxyObject
 90
      499
 91
      503
 93
      105
310
903383A310000000000000810100
  0
ACAD_PROXY_OBJECT
  5
2F
102
{ACAD_REACTORS
330
2A
102
}
330
2A
100
AcDbProxyObject
 90
      499
 91
      501
 93
      436
310
42CC9915DA5C99599C985B595049028333333333333E33F0000000000000F90107901411070040501600405405064090741402480A0340
1001
ACAD
1000
AcDbSavedByObjectVersion
1070
     0
  0
ACAD_PROXY_OBJECT
  5
32
102
{ACAD_REACTORS
330
2A
102
}
330
2A
100
AcDbProxyObject
 90
      499
 91
      501
 93
      388
310
4150985CDA58D07406404333333333333E33F0000000000000F90107A41107004050150841D405064090741402480A0350
1001
ACAD
1000
AcDbSavedByObjectVersion
1070
     0
  0
ACAD_PROXY_OBJECT
  5
36
102
{ACAD_REACTORS
330
2A
102
}
330
2A
100
AcDbProxyObject
 90
      499
 91
      501
 93
      428
310
42109C9A59DA1D195B90C409028333333333333E33F0000000000000F9010790141107004050150841D405064090741402480A029950
1001
ACAD
1000
AcDbSavedByObjectVersion
1070
     0
  0
ACAD_PROXY_OBJECT
  5
3A
102
{ACAD_REACTORS
330
2A
102
}
330
2A
100
AcDbProxyObject
 90
      499
 91
      501
 93
      452
310
42D0DBDB1BDC90DA185B99D95104090240C333333333333E33F0000000000000F90108901411070040501508421405064090741402480A0350
1001
ACAD
1000
AcDbSavedByObjectVersion
1070
     0
  0
ACAD_PROXY_OBJECT
  5
34
102
{ACAD_REACTORS
330
2A
102
}
330
2A
100
AcDbProxyObject
 90
      499
 91
      501
 93
      500
310
4290DBDB98D95C1D1D585B10940D028333333333333E33F0000000000000F90107902409070040501000000000018199010841D405064090740C02480A0340
1001
ACAD
1000
AcDbSavedByObjectVersion
1070
     0
  0
ACAD_PROXY_OBJECT
  5
35
102
{ACAD_REACTORS
330
2A
102
}
330
2A
100
AcDbProxyObject
 90
      499
 91
      501
 93
      412
310
40D11A5B50B409028333333333333E33F0000000000000F9010790141107004050150841D405064090741402480A02677FFFFFD0
1001
ACAD
1000
AcDbSavedByObjectVersion
1070
     0
  0
ACAD_PROXY_OBJECT
  5
3D
102
{ACAD_REACTORS
330
2A
102
}
330
2A
100
AcDbProxyObject
 90
      499
 91
      501
 93
      452
310
43115919D950DBDB1BDC93D999916409028333333333333E33F0000000000000F9010790141107004050150841D405064090741402480A0350
1001
ACAD
1000
AcDbSavedByObjectVersion
1070
     0
  0
ACAD_PROXY_OBJECT
  5
39
102
{ACAD_REACTORS
330
2A
102
}
330
2A
100
AcDbProxyObject
 90
      499
 91
      501
 93
      444
310
42D19858D95C185D1D195C9B90F409028333333333333E33F0000000000000F9010790141107004050150841D405064090741402480A0350
1001
ACAD
1000
AcDbSavedByObjectVersion
1070
     0
  0
ACAD_PROXY_OBJECT
  5
2B
102
{ACAD_REACTORS
330
2A
102
}
330
2A
100
AcDbProxyObject
 90
      499
 91
      501
 93
      380
310
41119B185D240901404333333333333E33F0000000000000F9010740A907004050150841D405064090741402480A1B50
1001
ACAD
1000
AcDbSavedByObjectVersion
1070
     0
  0
ACAD_PROXY_OBJECT
  5
2C
102
{ACAD_REACTORS
330
2A
102
}
330
2A
100
AcDbProxyObject
 90
      499
 91
      501
 93
      468
310
43519B185D15DA5D1A115919D95CD0140901404333333333333E33F0000000000000F90107409019070040501600405405064090741402480A1B50
1001
ACAD
1000
AcDbSavedByObjectVersion
1070
     0
  0
ACAD_PROXY_OBJECT
  5
2D
102
{ACAD_REACTORS
330
2A
102
}
330
2A
100
AcDbProxyObject
 90
      499
 91
      501
 93
      404
310
41D1DBDD5C985D5910240902404333333333333E33F0000000000000F9010740A9070040501641D405064090741402480A1B50
1001
ACAD
1000
AcDbSavedByObjectVersion
1070
     0
  0
ACAD_PROXY_OBJECT
  5
2E
102
{ACAD_REACTORS
330
2A
102
}
330
2A
100
AcDbProxyObject
 90
      499
 91
      501
 93
      492
310
4411DBDD5C985D5915DA5D1A115919D95CD0340902404333333333333E33F0000000000000F90107409019070040501600405405064090741402480A1B50
1001
ACAD
1000
AcDbSavedByObjectVersion
1070
     0
  0
ACAD_PROXY_OBJECT
  5
31
102
{ACAD_REACTORS
330
2A
102
}
330
2A
100
AcDbProxyObject
 90
      499
 91
      501
 93
      476
310
41921A5919195B90640502408333333333333E33F0000000000000F901079024090700405020000000000001110200405405064090740C02480A0340
1001
ACAD
1000
AcDbSavedByObjectVersion
1070
     0
  0
ACAD_PROXY_OBJECT
  5
3B
102
{ACAD_REACTORS
330
2A
102
}
330
2A
100
AcDbProxyObject
 90
      499
 91
      501
 93
      428
310
42529A5D1D195C93D999914409028333333333333E33F0000000000000F9010790141107004050150A41D405064090741402480A0350
1001
ACAD
1000
AcDbSavedByObjectVersion
1070
     0
  0
ACAD_PROXY_OBJECT
  5
38
102
{ACAD_REACTORS
330
2A
102
}
330
2A
100
AcDbProxyObject
 90
      499
 91
      501
 93
      444
310
42D31A5B995C185D1D195C9B90E409028333333333333E33F0000000000000F9010790141107004050750841D405064090741402483A0350
1001
ACAD
1000
AcDbSavedByObjectVersion
1070
     0
  0
ACAD_PROXY_OBJECT
  5
3C
102
{ACAD_REACTORS
330
2A
102
}
330
2A
100
AcDbProxyObject
 90
      499
 91
      501
 93
      444
310
42D3DD995C9A185B99D3D999915409028333333333333E33F0000000000000F9010790141107004050150941D405064090741402480A0350
1001
ACAD
1000
AcDbSavedByObjectVersion
1070
     0
  0
ACAD_PROXY_OBJECT
  5
33
102
{ACAD_REACTORS
330
2A
102
}
330
2A
100
AcDbProxyObject
 90
      499
 91
      501
 93
      428
310
425499585B1A5CDD1A58D08409038333333333333E33F0000000000000F9010740A907004050150800405405064090740C02480A1B40
1001
ACAD
1000
AcDbSavedByObjectVersion
1070
     0
  0
ACAD_PROXY_OBJECT
  5
42
102
{ACAD_REACTORS
330
2A
102
}
330
2A
100
AcDbProxyObject
 90
      499
 91
      501
 93
      420
310
4194DA1859195911B40902404333333333333E33F0000000000000F9010740A41107004050150800405405064090840C02480A0B40
1001
ACAD
1000
AcDbSavedByObjectVersion
1070
     0
  0
ACAD_PROXY_OBJECT
  5
41
102
{ACAD_REACTORS
330
2A
102
}
330
2A
100
AcDbProxyObject
 90
      499
 91
      501
 93
      516
310
4454DA18591959081DDA5D1A08195919D95CD1A40902404333333333333E33F0000000000000F901074090142907004050250800405405064090740C02480A0B40
1001
ACAD
1000
AcDbSavedByObjectVersion
1070
     0
  0
ACAD_PROXY_OBJECT
  5
3E
102
{ACAD_REACTORS
330
2A
102
}
330
2A
100
AcDbProxyObject
 90
      499
 91
      501
 93
      532
310
4394DA1859195CC81BD98811DC985E5174090240C333333333333E33F0000000000000F901079024090741D01000000000000111010841D405064090740C02480A0340
1001
ACAD
1000
AcDbSavedByObjectVersion
1070
     0
  0
ACAD_PROXY_OBJECT
  5
3F
102
{ACAD_REACTORS
330
2A
102
}
330
2A
100
AcDbProxyObject
 90
      499
 91
      501
 93
      476
310
41D4DAD95D18DA1E51840502408333333333333E33F0000000000000F901079024090741D01000000000000111010B41D405064090741802480A0340
1001
ACAD
1000
AcDbSavedByObjectVersion
1070
     0
  0
ACAD_PROXY_OBJECT
  5
37
102
{ACAD_REACTORS
330
2A
102
}
330
2A
100
AcDbProxyObject
 90
      499
 91
      501
 93
      412
310
41D51A1A58DAD95B90D409028333333333333E33F0000000000000F9010790141107004050150C41D405064090741402480A0350
1001
ACAD
1000
AcDbSavedByObjectVersion
1070
     0
  0
ACAD_PROXY_OBJECT
  5
30
102
{ACAD_REACTORS
330
2A
102
}
330
2A
100
AcDbProxyObject
 90
      499
 91
      501
 93
      420
310
4255DA5C99599C985B595059028333333333333E33F0000000000000F90107901411070040501600405405064090740C02480A0340
1001
ACAD
1000
AcDbSavedByObjectVersion
1070
     0
  0
ACAD_PROXY_OBJECT
  5
40
102
{ACAD_REACTORS
330
2A
102
}
330
2A
100
AcDbProxyObject
 90
      499
 91
      501
 93
      404
310
41560B54985E51940902404000000000000E03F0000000000000F9010740501907004050150841D405064090740C02480A1B40
1001
ACAD
1000
AcDbSavedByObjectVersion
1070
     0
  0
XRECORD
  5
100000C6
102
{ACAD_REACTORS
330
100000BC
102
}
330
100000BC
100
AcDbXrecord
340
0
  0
XRECORD
  5
100000C5
102
{ACAD_REACTORS
330
100000BC
102
}
330
100000BC
100
AcDbXrecord
 90
        0
  0
XRECORD
  5
100000DC
102
{ACAD_REACTORS
330
100000BC
102
}
330
100000BC
100
AcDbXrecord
1000
DSTYLE
1002
{
1070
   340
340
11
1002
}
  0
XRECORD
  5
100000C7
102
{ACAD_REACTORS
330
100000BC
102
}
330
100000BC
100
AcDbXrecord
  1
{37713633-7779-7578-b937-326473f67561}
  0
XRECORD
  5
100000BF
102
{ACAD_REACTORS
330
100000BC
102
}
330
100000BC
100
AcDbXrecord
  1

  0
XRECORD
  5
100000C4
102
{ACAD_REACTORS
330
100000BC
102
}
330
100000BC
100
AcDbXrecord
 90
        1
  0
XRECORD
  5
100000C1
102
{ACAD_REACTORS
330
100000BC
102
}
330
100000BC
100
AcDbXrecord
340
1A
  0
XRECORD
  5
100000C3
102
{ACAD_REACTORS
330
100000BC
102
}
330
100000BC
100
AcDbXrecord
 90
    10781
  0
XRECORD
  5
100000C2
102
{ACAD_REACTORS
330
100000BC
102
}
330
100000BC
100
AcDbXrecord
340
19
  0
XRECORD
  5
100000C9
102
{ACAD_REACTORS
330
100000BC
102
}
330
100000BC
100
AcDbXrecord
 40
0.0
  0
XRECORD
  5
100000CC
102
{ACAD_REACTORS
330
100000BC
102
}
330
100000BC
100
AcDbXrecord
340
0
  0
XRECORD
  5
100000D2
102
{ACAD_REACTORS
330
100000BC
102
}
330
100000BC
100
AcDbXrecord
 10
0.0
 20
0.0
 30
0.0
  0
XRECORD
  5
100000CE
102
{ACAD_REACTORS
330
100000BC
102
}
330
100000BC
100
AcDbXrecord
 10
0.0
 20
0.0
 30
0.0
  0
XRECORD
  5
100000D1
102
{ACAD_REACTORS
330
100000BC
102
}
330
100000BC
100
AcDbXrecord
 10
0.0
 20
0.0
 30
0.0
  0
XRECORD
  5
100000CF
102
{ACAD_REACTORS
330
100000BC
102
}
330
100000BC
100
AcDbXrecord
 10
0.0
 20
0.0
 30
0.0
  0
XRECORD
  5
100000D0
102
{ACAD_REACTORS
330
100000BC
102
}
330
100000BC
100
AcDbXrecord
 10
0.0
 20
0.0
 30
0.0
  0
XRECORD
  5
100000CD
102
{ACAD_REACTORS
330
100000BC
102
}
330
100000BC
100
AcDbXrecord
 10
0.0
 20
0.0
 30
0.0
  0
XRECORD
  5
100000CA
102
{ACAD_REACTORS
330
100000BC
102
}
330
100000BC
100
AcDbXrecord
340
0
  0
XRECORD
  5
100000CB
102
{ACAD_REACTORS
330
100000BC
102
}
330
100000BC
100
AcDbXrecord
 70
     0
  0
XRECORD
  5
100000C0
102
{ACAD_REACTORS
330
100000BC
102
}
330
100000BC
100
AcDbXrecord
  1

  0
XRECORD
  5
100000BD
102
{ACAD_REACTORS
330
100000BC
102
}
330
100000BC
100
AcDbXrecord
 90
        1
  0
XRECORD
  5
100000BE
102
{ACAD_REACTORS
330
100000BC
102
}
330
100000BC
100
AcDbXrecord
 90
       70
  0
XRECORD
  5
100000D5
102
{ACAD_REACTORS
330
100000BC
102
}
330
100000BC
100
AcDbXrecord
340
0
  0
XRECORD
  5
100000DB
102
{ACAD_REACTORS
330
100000BC
102
}
330
100000BC
100
AcDbXrecord
 10
0.0
 20
0.0
 30
0.0
  0
XRECORD
  5
100000D7
102
{ACAD_REACTORS
330
100000BC
102
}
330
100000BC
100
AcDbXrecord
 10
0.0
 20
0.0
 30
0.0
  0
XRECORD
  5
100000DA
102
{ACAD_REACTORS
330
100000BC
102
}
330
100000BC
100
AcDbXrecord
 10
0.0
 20
0.0
 30
0.0
  0
XRECORD
  5
100000D8
102
{ACAD_REACTORS
330
100000BC
102
}
330
100000BC
100
AcDbXrecord
 10
0.0
 20
0.0
 30
0.0
  0
XRECORD
  5
100000D9
102
{ACAD_REACTORS
330
100000BC
102
}
330
100000BC
100
AcDbXrecord
 10
0.0
 20
0.0
 30
0.0
  0
XRECORD
  5
100000D6
102
{ACAD_REACTORS
330
100000BC
102
}
330
100000BC
100
AcDbXrecord
 10
0.0
 20
0.0
 30
0.0
  0
XRECORD
  5
100000D3
102
{ACAD_REACTORS
330
100000BC
102
}
330
100000BC
100
AcDbXrecord
340
0
  0
XRECORD
  5
100000D4
102
{ACAD_REACTORS
330
100000BC
102
}
330
100000BC
100
AcDbXrecord
 70
     0
  0
XRECORD
  5
100000C8
102
{ACAD_REACTORS
330
100000BC
102
}
330
100000BC
100
AcDbXrecord
  1
{FAEB1C32-E019-11D5-929B-00C0DF256EC4}
  0
DICTIONARYVAR
  5
100000E7
102
{ACAD_REACTORS
330
100000DD
102
}
330
100000DD
100
DictionaryVariables
280
     0
  1
1:1
  0
DICTIONARYVAR
  5
100000DF
102
{ACAD_REACTORS
330
100000DD
102
}
330
100000DD
100
DictionaryVariables
280
     0
  1
Standard
  0
DICTIONARYVAR
  5
100000DE
102
{ACAD_REACTORS
330
100000DD
102
}
330
100000DD
100
DictionaryVariables
280
     0
  1
Standard
  0
DICTIONARYVAR
  5
100000E2
102
{ACAD_REACTORS
330
100000DD
102
}
330
100000DD
100
DictionaryVariables
280
     0
  1
2
  0
DICTIONARYVAR
  5
100000E3
102
{ACAD_REACTORS
330
100000DD
102
}
330
100000DD
100
DictionaryVariables
280
     0
  1
1
  0
DICTIONARYVAR
  5
100000E8
102
{ACAD_REACTORS
330
100000DD
102
}
330
100000DD
100
DictionaryVariables
280
     0
  1
1
  0
XRECORD
  5
10000003
102
{ACAD_REACTORS
330
10000001
102
}
330
10000001
100
AcDbXrecord
 70
     4
  0
XRECORD
  5
10000002
102
{ACAD_REACTORS
330
10000001
102
}
330
10000001
100
AcDbXrecord
1040
86.0
  0
ACAD_PROXY_OBJECT
  5
10000005
102
{ACAD_REACTORS
330
10000001
102
}
330
10000001
100
AcDbProxyObject
 90
      499
 91
      509
 93
       34
310
40C8804000
  0
DICTIONARY
  5
100000EB
330
45
100
AcDbDictionary
280
     1
  3
ACAD_XREC_ROUNDTRIP
360
100000EC
  0
DICTIONARY
  5
100000E9
330
44
100
AcDbDictionary
280
     1
  3
ACAD_XREC_ROUNDTRIP
360
100000EA
  0
DICTIONARY
  5
100000ED
330
46
100
AcDbDictionary
280
     1
  3
ACAD_XREC_ROUNDTRIP
360
100000EE
  0
XRECORD
  5
100000EC
102
{ACAD_REACTORS
330
100000EB
102
}
330
100000EB
100
AcDbXrecord
102
MATERIAL
148
0.0
149
0.0
149
0.0
 93
        0
 94
      127
282
     0
 72
     1
 77
     1
171
     1
175
     1
179
     1
273
     0
  0
XRECORD
  5
100000EA
102
{ACAD_REACTORS
330
100000E9
102
}
330
100000E9
100
AcDbXrecord
102
MATERIAL
148
0.0
149
0.0
149
0.0
 93
        0
 94
      127
282
     0
 72
     1
 77
     1
171
     1
175
     1
179
     1
273
     0
  0
XRECORD
  5
100000EE
102
{ACAD_REACTORS
330
100000ED
102
}
330
100000ED
100
AcDbXrecord
102
MATERIAL
148
0.0
149
0.0
149
0.0
 93
        0
 94
      127
282
     0
 72
     1
 77
     1
171
     1
175
     1
179
     1
273
     0
  0
ENDSEC
  0
EOF
