  0
SECTION
  2
HEADER
  9
$ACADVER
  1
AC1014
  9
$ACADMAINTVER
 70
     9
  9
$DWGCODEPAGE
  3
ANSI_1252
  9
$INSBASE
 10
0.0
 20
0.0
 30
0.0
  9
$EXTMIN
 10
1.000000000000000E+20
 20
1.000000000000000E+20
 30
1.000000000000000E+20
  9
$EXTMAX
 10
-1.000000000000000E+20
 20
-1.000000000000000E+20
 30
-1.000000000000000E+20
  9
$LIMMIN
 10
0.0
 20
0.0
  9
$LIMMAX
 10
12.0
 20
9.0
  9
$ORTHOMODE
 70
     0
  9
$REGENMODE
 70
     1
  9
$FILLMODE
 70
     1
  9
$QTEXTMODE
 70
     0
  9
$MIRRTEXT
 70
     1
  9
$DRAGMODE
 70
     2
  9
$LTSCALE
 40
1.0
  9
$OSMODE
 70
    37
  9
$ATTMODE
 70
     1
  9
$TEXTSIZE
 40
0.2
  9
$TRACEWID
 40
0.05
  9
$TEXTSTYLE
  7
STANDARD
  9
$CLAYER
  8
0
  9
$CELTYPE
  6
BYLAYER
  9
$CECOLOR
 62
   256
  9
$CELTSCALE
 40
1.0
  9
$DELOBJ
 70
     1
  9
$DISPSILH
 70
     0
  9
$DIMSCALE
 40
1.0
  9
$DIMASZ
 40
0.18
  9
$DIMEXO
 40
0.0625
  9
$DIMDLI
 40
0.38
  9
$DIMRND
 40
0.0
  9
$DIMDLE
 40
0.0
  9
$DIMEXE
 40
0.18
  9
$DIMTP
 40
0.0
  9
$DIMTM
 40
0.0
  9
$DIMTXT
 40
0.18
  9
$DIMCEN
 40
0.09
  9
$DIMTSZ
 40
0.0
  9
$DIMTOL
 70
     0
  9
$DIMLIM
 70
     0
  9
$DIMTIH
 70
     1
  9
$DIMTOH
 70
     1
  9
$DIMSE1
 70
     0
  9
$DIMSE2
 70
     0
  9
$DIMTAD
 70
     0
  9
$DIMZIN
 70
     0
  9
$DIMBLK
  1

  9
$DIMASO
 70
     1
  9
$DIMSHO
 70
     1
  9
$DIMPOST
  1

  9
$DIMAPOST
  1

  9
$DIMALT
 70
     0
  9
$DIMALTD
 70
     2
  9
$DIMALTF
 40
25.4
  9
$DIMLFAC
 40
1.0
  9
$DIMTOFL
 70
     0
  9
$DIMTVP
 40
0.0
  9
$DIMTIX
 70
     0
  9
$DIMSOXD
 70
     0
  9
$DIMSAH
 70
     0
  9
$DIMBLK1
  1

  9
$DIMBLK2
  1

  9
$DIMSTYLE
  2
STANDARD
  9
$DIMCLRD
 70
     0
  9
$DIMCLRE
 70
     0
  9
$DIMCLRT
 70
     0
  9
$DIMTFAC
 40
1.0
  9
$DIMGAP
 40
0.09
  9
$DIMJUST
 70
     0
  9
$DIMSD1
 70
     0
  9
$DIMSD2
 70
     0
  9
$DIMTOLJ
 70
     1
  9
$DIMTZIN
 70
     0
  9
$DIMALTZ
 70
     0
  9
$DIMALTTZ
 70
     0
  9
$DIMFIT
 70
     3
  9
$DIMUPT
 70
     0
  9
$DIMUNIT
 70
     2
  9
$DIMDEC
 70
     4
  9
$DIMTDEC
 70
     4
  9
$DIMALTU
 70
     2
  9
$DIMALTTD
 70
     2
  9
$DIMTXSTY
  7
STANDARD
  9
$DIMAUNIT
 70
     0
  9
$LUNITS
 70
     2
  9
$LUPREC
 70
     4
  9
$SKETCHINC
 40
0.1
  9
$FILLETRAD
 40
0.5
  9
$AUNITS
 70
     0
  9
$AUPREC
 70
     0
  9
$MENU
  1
.
  9
$ELEVATION
 40
0.0
  9
$PELEVATION
 40
0.0
  9
$THICKNESS
 40
0.0
  9
$LIMCHECK
 70
     0
  9
$CHAMFERA
 40
0.0
  9
$CHAMFERB
 40
0.0
  9
$CHAMFERC
 40
0.0
  9
$CHAMFERD
 40
0.0
  9
$SKPOLY
 70
     0
  9
$TDCREATE
 40
2458352.599897789
  9
$TDUPDATE
 40
2458352.599897836
  9
$TDINDWG
 40
0.0000000116
  9
$TDUSRTIMER
 40
0.0000000116
  9
$USRTIMER
 70
     1
  9
$ANGBASE
 50
0.0
  9
$ANGDIR
 70
     0
  9
$PDMODE
 70
     0
  9
$PDSIZE
 40
0.0
  9
$PLINEWID
 40
0.0
  9
$COORDS
 70
     1
  9
$SPLFRAME
 70
     0
  9
$SPLINETYPE
 70
     6
  9
$SPLINESEGS
 70
     8
  9
$ATTDIA
 70
     0
  9
$ATTREQ
 70
     1
  9
$HANDLING
 70
     1
  9
$HANDSEED
  5
1000015C
  9
$SURFTAB1
 70
     6
  9
$SURFTAB2
 70
     6
  9
$SURFTYPE
 70
     6
  9
$SURFU
 70
     6
  9
$SURFV
 70
     6
  9
$UCSNAME
  2

  9
$UCSORG
 10
0.0
 20
0.0
 30
0.0
  9
$UCSXDIR
 10
1.0
 20
0.0
 30
0.0
  9
$UCSYDIR
 10
0.0
 20
1.0
 30
0.0
  9
$PUCSNAME
  2

  9
$PUCSORG
 10
0.0
 20
0.0
 30
0.0
  9
$PUCSXDIR
 10
1.0
 20
0.0
 30
0.0
  9
$PUCSYDIR
 10
0.0
 20
1.0
 30
0.0
  9
$USERI1
 70
     0
  9
$USERI2
 70
     0
  9
$USERI3
 70
     0
  9
$USERI4
 70
     0
  9
$USERI5
 70
     0
  9
$USERR1
 40
0.0
  9
$USERR2
 40
0.0
  9
$USERR3
 40
0.0
  9
$USERR4
 40
0.0
  9
$USERR5
 40
0.0
  9
$WORLDVIEW
 70
     1
  9
$SHADEDGE
 70
     3
  9
$SHADEDIF
 70
    70
  9
$TILEMODE
 70
     1
  9
$MAXACTVP
 70
    64
  9
$PINSBASE
 10
0.0
 20
0.0
 30
0.0
  9
$PLIMCHECK
 70
     0
  9
$PEXTMIN
 10
1.000000000000000E+20
 20
1.000000000000000E+20
 30
1.000000000000000E+20
  9
$PEXTMAX
 10
-1.000000000000000E+20
 20
-1.000000000000000E+20
 30
-1.000000000000000E+20
  9
$PLIMMIN
 10
0.0
 20
0.0
  9
$PLIMMAX
 10
12.0
 20
9.0
  9
$UNITMODE
 70
     0
  9
$VISRETAIN
 70
     1
  9
$PLINEGEN
 70
     0
  9
$PSLTSCALE
 70
     1
  9
$TREEDEPTH
 70
  3020
  9
$PICKSTYLE
 70
     1
  9
$CMLSTYLE
  2
STANDARD
  9
$CMLJUST
 70
     0
  9
$CMLSCALE
 40
1.0
  9
$PROXYGRAPHICS
 70
     1
  9
$MEASUREMENT
 70
     0
  0
ENDSEC
  0
SECTION
  2
CLASSES
  0
CLASS
  1
ACDBDICTIONARYWDFLT
  2
AcDbDictionaryWithDefault
  3
ObjectDBX Classes
 90
        0
280
     0
281
     0
  0
CLASS
  1
VISUALSTYLE
  2
AcDbVisualStyle
  3
ObjectDBX Classes
 90
     4095
280
     0
281
     0
  0
CLASS
  1
MATERIAL
  2
AcDbMaterial
  3
ObjectDBX Classes
 90
     1153
280
     0
281
     0
  0
CLASS
  1
SCALE
  2
AcDbScale
  3
ObjectDBX Classes
 90
     1153
280
     0
281
     0
  0
CLASS
  1
TABLESTYLE
  2
AcDbTableStyle
  3
ObjectDBX Classes
 90
     4095
280
     0
281
     0
  0
CLASS
  1
MLEADERSTYLE
  2
AcDbMLeaderStyle
  3
ACDB_MLEADERSTYLE_CLASS
 90
     4095
280
     0
281
     0
  0
CLASS
  1
SUN
  2
AcDbSun
  3
SCENEOE
 90
     1153
280
     0
281
     0
  0
CLASS
  1
SORTENTSTABLE
  2
AcDbSortentsTable
  3
ObjectDBX Classes
 90
        0
280
     0
281
     0
  0
CLASS
  1
DICTIONARYVAR
  2
AcDbDictionaryVar
  3
ObjectDBX Classes
 90
        0
280
     0
281
     0
  0
CLASS
  1
XRECORD
  2
AcDbXrecord
  3
ObjectDBX Classes
 90
        0
280
     0
281
     0
  0
CLASS
  1
LWPOLYLINE
  2
AcDbPolyline
  3
ObjectDBX Classes
 90
        0
280
     0
281
     1
  0
CLASS
  1
HATCH
  2
AcDbHatch
  3
ObjectDBX Classes
 90
        0
280
     0
281
     1
  0
CLASS
  1
ACDBPLACEHOLDER
  2
AcDbPlaceHolder
  3
ObjectDBX Classes
 90
        0
280
     0
281
     0
  0
CLASS
  1
LAYOUT
  2
AcDbLayout
  3
ObjectDBX Classes
 90
        0
280
     0
281
     0
  0
ENDSEC
  0
SECTION
  2
TABLES
  0
TABLE
  2
VPORT
  5
8
102
{ACAD_XDICTIONARY
360
10000151
102
}
330
0
100
AcDbSymbolTable
 70
     1
  0
VPORT
  5
29
330
8
100
AcDbSymbolTableRecord
100
AcDbViewportTableRecord
  2
*ACTIVE
 70
     0
 10
0.0
 20
0.0
 11
1.0
 21
1.0
 12
10.42990654205607
 22
4.5
 13
0.0
 23
0.0
 14
0.5
 24
0.5
 15
0.5
 25
0.5
 16
0.0
 26
0.0
 36
1.0
 17
0.0
 27
0.0
 37
0.0
 40
9.0
 41
1.972972972850329
 42
50.0
 43
0.0
 44
0.0
 50
0.0
 51
0.0
 71
     0
 72
   100
 73
     1
 74
     3
 75
     0
 76
     0
 77
     0
 78
     0
  0
ENDTAB
  0
TABLE
  2
LTYPE
  5
5
330
0
100
AcDbSymbolTable
 70
     7
  0
LTYPE
  5
14
330
5
100
AcDbSymbolTableRecord
100
AcDbLinetypeTableRecord
  2
BYBLOCK
 70
     0
  3

 72
    65
 73
     0
 40
0.0
  0
LTYPE
  5
15
330
5
100
AcDbSymbolTableRecord
100
AcDbLinetypeTableRecord
  2
BYLAYER
 70
     0
  3

 72
    65
 73
     0
 40
0.0
  0
LTYPE
  5
16
330
5
100
AcDbSymbolTableRecord
100
AcDbLinetypeTableRecord
  2
CONTINUOUS
 70
     0
  3
Solid line
 72
    65
 73
     0
 40
0.0
  0
LTYPE
  5
10000024
330
5
100
AcDbSymbolTableRecord
100
AcDbLinetypeTableRecord
  2
ONS_PHANTOM
 70
     0
  3
Onshape Phantom line ______ __ __ ______
 72
    65
 73
     6
 40
0.4999999999999999
 49
0.25
 74
     0
 49
-0.05
 74
     0
 49
0.05
 74
     0
 49
-0.05
 74
     0
 49
0.05
 74
     0
 49
-0.05
 74
     0
  0
LTYPE
  5
10000025
330
5
100
AcDbSymbolTableRecord
100
AcDbLinetypeTableRecord
  2
CENTER
 70
     0
  3
Center line ____ _ ____ _ ____ _
 72
    65
 73
     4
 40
0.7199999999999999
 49
0.45
 74
     0
 49
-0.09
 74
     0
 49
0.09
 74
     0
 49
-0.09
 74
     0
  0
LTYPE
  5
10000026
330
5
100
AcDbSymbolTableRecord
100
AcDbLinetypeTableRecord
  2
DASHED
 70
     0
  3
Dashed line __ __ __ __ __
 72
    65
 73
     2
 40
0.75
 49
0.5
 74
     0
 49
-0.25
 74
     0
  0
LTYPE
  5
10000027
330
5
100
AcDbSymbolTableRecord
100
AcDbLinetypeTableRecord
  2
ONS_DASHDOT
 70
     0
  3
Onshape Dashed with Dot _ . ____ . ____
 72
    65
 73
     4
 40
0.71
 49
0.5
 74
     0
 49
-0.1
 74
     0
 49
0.01
 74
     0
 49
-0.1
 74
     0
  0
LTYPE
  5
10000028
330
5
100
AcDbSymbolTableRecord
100
AcDbLinetypeTableRecord
  2
ONS_DOTTED
 70
     0
  3
Onshape Dotted line . . . . . . .
 72
    65
 73
     2
 40
0.11
 49
0.01
 74
     0
 49
-0.1
 74
     0
  0
LTYPE
  5
10000029
330
5
100
AcDbSymbolTableRecord
100
AcDbLinetypeTableRecord
  2
HIDDEN
 70
     0
  3
Hidden line ____ ____ ____ ____ 
 72
    65
 73
     2
 40
0.15
 49
0.1
 74
     0
 49
-0.05
 74
     0
  0
ENDTAB
  0
TABLE
  2
LAYER
  5
2
330
0
100
AcDbSymbolTable
 70
    34
  0
LAYER
  5
10
330
2
100
AcDbSymbolTableRecord
100
AcDbLayerTableRecord
  2
0
 70
     0
 62
     7
  6
CONTINUOUS
  0
LAYER
  5
1000002A
330
2
100
AcDbSymbolTableRecord
100
AcDbLayerTableRecord
  2
SECTION_CUTTING_LINE
 70
     0
 62
     7
  6
ONS_PHANTOM
  0
LAYER
  5
1000002B
330
2
100
AcDbSymbolTableRecord
100
AcDbLayerTableRecord
  2
DETAIL_VIEW_BORDER
 70
     0
 62
     7
  6
CONTINUOUS
  0
LAYER
  5
1000002C
330
2
100
AcDbSymbolTableRecord
100
AcDbLayerTableRecord
  2
DETAIL_VIEW_PARENT_BORDER
 70
     0
 62
     7
  6
ONS_PHANTOM
  0
LAYER
  5
1000002D
330
2
100
AcDbSymbolTableRecord
100
AcDbLayerTableRecord
  2
TEXT
 70
     0
 62
     7
  6
CONTINUOUS
  0
LAYER
  5
1000002E
330
2
100
AcDbSymbolTableRecord
100
AcDbLayerTableRecord
  2
SKETCHED_GEOMETRY
 70
     0
 62
    -7
  6
CONTINUOUS
  0
LAYER
  5
1000002F
330
2
100
AcDbSymbolTableRecord
100
AcDbLayerTableRecord
  2
CENTERLINES
 70
     0
 62
    -7
  6
CENTER
  0
LAYER
  5
10000030
330
2
100
AcDbSymbolTableRecord
100
AcDbLayerTableRecord
  2
CENTERMARKS
 70
     0
 62
    -7
  6
CONTINUOUS
  0
LAYER
  5
10000031
330
2
100
AcDbSymbolTableRecord
100
AcDbLayerTableRecord
  2
TABLES
 70
     0
 62
     7
  6
CONTINUOUS
  0
LAYER
  5
10000032
330
2
100
AcDbSymbolTableRecord
100
AcDbLayerTableRecord
  2
IMAGES
 70
     0
 62
    -7
  6
CONTINUOUS
  0
LAYER
  5
10000033
330
2
100
AcDbSymbolTableRecord
100
AcDbLayerTableRecord
  2
ANNOTATION_LINES
 70
     0
 62
    -7
  6
CONTINUOUS
  0
LAYER
  5
10000034
330
2
100
AcDbSymbolTableRecord
100
AcDbLayerTableRecord
  2
ANNOTATION_TEXT
 70
     0
 62
    -7
  6
CONTINUOUS
  0
LAYER
  5
10000035
330
2
100
AcDbSymbolTableRecord
100
AcDbLayerTableRecord
  2
SIDE_THREAD_SYMBOLS
 70
     0
 62
     7
  6
HIDDEN
  0
LAYER
  5
10000036
330
2
100
AcDbSymbolTableRecord
100
AcDbLayerTableRecord
  2
SIDE_THREAD_SYMBOLS_HIDDEN
 70
     0
 62
    -7
  6
HIDDEN
  0
LAYER
  5
10000037
330
2
100
AcDbSymbolTableRecord
100
AcDbLayerTableRecord
  2
SURFACE_THREAD_SYMBOLS
 70
     0
 62
     7
  6
HIDDEN
  0
LAYER
  5
10000038
330
2
100
AcDbSymbolTableRecord
100
AcDbLayerTableRecord
  2
SURFACE_THREAD_SYMBOLS_ON_
 70
     0
 62
     7
  6
HIDDEN
  0
LAYER
  5
10000039
330
2
100
AcDbSymbolTableRecord
100
AcDbLayerTableRecord
  2
SURFACE_THREAD_SYMBOLS_HID
 70
     0
 62
    -7
  6
HIDDEN
  0
LAYER
  5
1000003A
330
2
100
AcDbSymbolTableRecord
100
AcDbLayerTableRecord
  2
BLIND_THREAD_SYMBOLS
 70
     0
 62
     7
  6
CONTINUOUS
  0
LAYER
  5
1000003B
330
2
100
AcDbSymbolTableRecord
100
AcDbLayerTableRecord
  2
BLIND_THREAD_SYMBOLS_HIDDE
 70
     0
 62
    -7
  6
HIDDEN
  0
LAYER
  5
1000003C
330
2
100
AcDbSymbolTableRecord
100
AcDbLayerTableRecord
  2
EXPLODE_LINES
 70
     0
 62
     7
  6
CONTINUOUS
  0
LAYER
  5
1000003D
330
2
100
AcDbSymbolTableRecord
100
AcDbLayerTableRecord
  2
BREAK_LINES
 70
     0
 62
    -7
  6
CONTINUOUS
  0
LAYER
  5
1000003E
330
2
100
AcDbSymbolTableRecord
100
AcDbLayerTableRecord
  2
SHEETMETAL_BEND_LINES_UP
 70
     0
 62
    -7
  6
CENTER
  0
LAYER
  5
1000003F
330
2
100
AcDbSymbolTableRecord
100
AcDbLayerTableRecord
  2
SHEETMETAL_BEND_LINES_DOWN
 70
     0
 62
    -7
  6
CENTER
  0
LAYER
  5
10000040
330
2
100
AcDbSymbolTableRecord
100
AcDbLayerTableRecord
  2
SHEETMETAL_BEND_TANGENT_LI
 70
     0
 62
    -7
  6
CONTINUOUS
  0
LAYER
  5
10000041
330
2
100
AcDbSymbolTableRecord
100
AcDbLayerTableRecord
  2
SHEETMETAL_CUT_LINES
 70
     0
 62
     7
  6
CONTINUOUS
  0
LAYER
  5
10000042
330
2
100
AcDbSymbolTableRecord
100
AcDbLayerTableRecord
  2
HIDDEN
 70
     0
 62
    -7
  6
HIDDEN
  0
LAYER
  5
10000043
330
2
100
AcDbSymbolTableRecord
100
AcDbLayerTableRecord
  2
VISIBLE
 70
     0
 62
     7
  6
CONTINUOUS
  0
LAYER
  5
10000044
330
2
100
AcDbSymbolTableRecord
100
AcDbLayerTableRecord
  2
MODELSKETCH_VISIBLE
 70
     0
 62
     7
  6
CONTINUOUS
  0
LAYER
  5
10000045
330
2
100
AcDbSymbolTableRecord
100
AcDbLayerTableRecord
  2
MODELSKETCH_CONSTRUCTION
 70
     0
 62
    -7
  6
CENTER
  0
LAYER
  5
10000046
330
2
100
AcDbSymbolTableRecord
100
AcDbLayerTableRecord
  2
TANGENT_LINES
 70
     0
 62
    -7
  6
CONTINUOUS
  0
LAYER
  5
10000047
330
2
100
AcDbSymbolTableRecord
100
AcDbLayerTableRecord
  2
TANGENT_HIDDEN
 70
     0
 62
    -7
  6
HIDDEN
  0
LAYER
  5
10000048
330
2
100
AcDbSymbolTableRecord
100
AcDbLayerTableRecord
  2
INVISIBLE_LINES
 70
     0
 62
    -7
  6
CONTINUOUS
  0
LAYER
  5
10000049
330
2
100
AcDbSymbolTableRecord
100
AcDbLayerTableRecord
  2
VIEW_HATCHES
 70
     0
 62
    -7
  6
CONTINUOUS
  0
LAYER
  5
1000004A
330
2
100
AcDbSymbolTableRecord
100
AcDbLayerTableRecord
  2
SECTION_JOG_LINES
 70
     0
 62
    -7
  6
CONTINUOUS
  0
ENDTAB
  0
TABLE
  2
STYLE
  5
3
330
0
100
AcDbSymbolTable
 70
     2
  0
STYLE
  5
11
330
3
100
AcDbSymbolTableRecord
100
AcDbTextStyleTableRecord
  2
STANDARD
 70
     0
 40
0.0
 41
1.0
 50
0.0
 71
     0
 42
0.2
  3
txt
  4

  0
STYLE
  5
10000004
330
3
100
AcDbSymbolTableRecord
100
AcDbTextStyleTableRecord
  2
TTFSTYLE
 70
     0
 40
0.0
 41
1.0
 50
0.0
 71
     0
 42
0.2
  3
Verdana.ttf
  4

1001
ACAD
1000
Verdana
1071
       34
  0
ENDTAB
  0
TABLE
  2
VIEW
  5
6
330
0
100
AcDbSymbolTable
 70
     0
  0
ENDTAB
  0
TABLE
  2
UCS
  5
7
330
0
100
AcDbSymbolTable
 70
     0
  0
ENDTAB
  0
TABLE
  2
APPID
  5
9
330
0
100
AcDbSymbolTable
 70
     2
  0
APPID
  5
12
330
9
100
AcDbSymbolTableRecord
100
AcDbRegAppTableRecord
  2
ACAD
 70
     0
  0
APPID
  5
1000015B
330
9
100
AcDbSymbolTableRecord
100
AcDbRegAppTableRecord
  2
ACAD_MLEADERVER
 70
     0
  0
ENDTAB
  0
TABLE
  2
DIMSTYLE
  5
A
330
0
100
AcDbSymbolTable
 70
     1
  0
DIMSTYLE
105
27
330
A
100
AcDbSymbolTableRecord
100
AcDbDimStyleTableRecord
  2
STANDARD
 70
     0
  3

  4

  5

  6

  7

 40
1.0
 41
0.18
 42
0.0625
 43
0.38
 44
0.18
 45
0.0
 46
0.0
 47
0.0
 48
0.0
140
0.18
141
0.09
142
0.0
143
25.4
144
1.0
145
0.0
146
1.0
147
0.09
 71
     0
 72
     0
 73
     1
 74
     1
 75
     0
 76
     0
 77
     0
 78
     0
170
     0
171
     2
172
     0
173
     0
174
     0
175
     0
176
     0
177
     0
178
     0
270
     2
271
     4
272
     4
273
     2
274
     2
340
11
275
     0
280
     0
281
     0
282
     0
283
     1
284
     0
285
     0
286
     0
287
     3
288
     0
  0
ENDTAB
  0
TABLE
  2
BLOCK_RECORD
  5
1
330
0
100
AcDbSymbolTable
 70
     0
  0
BLOCK_RECORD
  5
1F
102
{ACAD_XDICTIONARY
360
10000126
102
}
330
1
100
AcDbSymbolTableRecord
100
AcDbBlockTableRecord
  2
*MODEL_SPACE
  0
BLOCK_RECORD
  5
1B
330
1
100
AcDbSymbolTableRecord
100
AcDbBlockTableRecord
  2
*PAPER_SPACE
  0
ENDTAB
  0
ENDSEC
  0
SECTION
  2
BLOCKS
  0
BLOCK
  5
20
330
1F
100
AcDbEntity
  8
0
100
AcDbBlockBegin
  2
*MODEL_SPACE
 70
     0
 10
0.0
 20
0.0
 30
0.0
  3
*MODEL_SPACE
  1

  0
ENDBLK
  5
21
330
1F
100
AcDbEntity
  8
0
100
AcDbBlockEnd
  0
BLOCK
  5
1C
330
1B
100
AcDbEntity
 67
     1
  8
0
100
AcDbBlockBegin
  2
*PAPER_SPACE
 70
     0
 10
0.0
 20
0.0
 30
0.0
  3
*PAPER_SPACE
  1

  0
ENDBLK
  5
1D
330
1B
100
AcDbEntity
 67
     1
  8
0
100
AcDbBlockEnd
  0
ENDSEC
  0
SECTION
  2
ENTITIES
  0
CIRCLE
  5
1000004B
102
{ACAD_XDICTIONARY
360
1000004C
102
}
330
1F
100
AcDbEntity
  8
VISIBLE
100
AcDbCircle
 10
50.0
 20
-25.0
 30
0.0
 40
1.5
  0
ARC
  5
1000004E
102
{ACAD_XDICTIONARY
360
1000004F
102
}
330
1F
100
AcDbEntity
  8
VISIBLE
100
AcDbCircle
 10
47.13923970598793
 20
-29.01697170191287
 30
0.0
 40
0.3956164510627324
100
AcDbArc
 50
329.1248690400154
 51
54.54273182189604
  0
SPLINE
  5
10000051
102
{ACAD_XDICTIONARY
360
10000052
102
}
330
1F
100
AcDbEntity
  8
VISIBLE
100
AcDbSpline
210
0.0
220
0.0
230
1.0
 70
     8
 71
     3
 72
    44
 73
    40
 74
     0
 42
0.000000001
 43
0.00000001
 40
0.0374573816692533
 40
0.0374573816692533
 40
0.0374573816692533
 40
0.0374573816692533
 40
0.1173270388283835
 40
0.1245633749097421
 40
0.1339054427745929
 40
0.1449591259385422
 40
0.157492824253456
 40
0.1713493489450592
 40
0.186412979324603
 40
0.2025939139161435
 40
0.2198198341683084
 40
0.2380308751317531
 40
0.2571764150177153
 40
0.2772129162632477
 40
0.2981024128312286
 40
0.3198114144576313
 40
0.3423100907832787
 40
0.3655716496568647
 40
0.3895718539492967
 40
0.4142886395604836
 40
0.4397018088992017
 40
0.4657927816818093
 40
0.4925443899635603
 40
0.5199407077925865
 40
0.5479669083115218
 40
0.5766091428695075
 40
0.6058544379685353
 40
0.6356906067974987
 40
0.6661061728017248
 40
0.6970903032611986
 40
0.7286327512528589
 40
0.7607238046834918
 40
0.7933542413228106
 40
0.8265152889579642
 40
0.860198589943057
 40
0.8943961695393764
 40
0.9291004075405692
 40
0.9643040127571182
 40
0.9924917445823694
 40
0.9924917445823694
 40
0.9924917445823694
 40
0.9924917445823694
 10
47.47879245003521
 20
-29.2199897069307
 30
0.0
 10
47.34924696891099
 20
-29.43665779797414
 30
0.0
 10
47.23943326907109
 20
-29.62047261532927
 30
0.0
 10
47.23687119143774
 20
-29.62548450582303
 30
0.0
 10
47.23394096598686
 20
-29.63092654944331
 30
0.0
 10
47.23068035772579
 20
-29.6374078830241
 30
0.0
 10
47.22643243001558
 20
-29.6462184194502
 30
0.0
 10
47.22152524546038
 20
-29.65696772514516
 30
0.0
 10
47.2159600852407
 20
-29.66982207305661
 30
0.0
 10
47.20984273355665
 20
-29.68476874187529
 30
0.0
 10
47.20324802120776
 20
-29.70184689709689
 30
0.0
 10
47.19626115091797
 20
-29.72107697491093
 30
0.0
 10
47.1889652500751
 20
-29.74248177653294
 30
0.0
 10
47.18144496564592
 20
-29.76608020382207
 30
0.0
 10
47.1737853318451
 20
-29.79188905817469
 30
0.0
 10
47.16607201307525
 20
-29.81992249486672
 30
0.0
 10
47.15839114836628
 20
-29.85019215803399
 30
0.0
 10
47.15082930931966
 20
-29.88270712312324
 30
0.0
 10
47.14347342504624
 20
-29.91747389675255
 30
0.0
 10
47.136410715975
 20
-29.95449640262992
 30
0.0
 10
47.12972862474678
 20
-29.99377597370341
 30
0.0
 10
47.12351474759654
 20
-30.03531134481139
 30
0.0
 10
47.11785676533161
 20
-30.07909864743004
 30
0.0
 10
47.11284237421415
 20
-30.12513140606079
 30
0.0
 10
47.10855921672832
 20
-30.1734005363856
 30
0.0
 10
47.10509481225689
 20
-30.22389434513737
 30
0.0
 10
47.10253648785505
 20
-30.27659853175684
 30
0.0
 10
47.10097130858519
 20
-30.33149619159186
 30
0.0
 10
47.10048600968479
 20
-30.38856782156209
 30
0.0
 10
47.10116692203992
 20
-30.44779132473813
 30
0.0
 10
47.10309992389571
 20
-30.50914202745203
 30
0.0
 10
47.10637029273925
 20
-30.5725926567141
 30
0.0
 10
47.11106294046196
 20
-30.63811347797293
 30
0.0
 10
47.11726118301533
 20
-30.70567182759775
 30
0.0
 10
47.12505111479119
 20
-30.77523396790457
 30
0.0
 10
47.13450457105871
 20
-30.84675807686198
 30
0.0
 10
47.14574384073184
 20
-30.92022109285709
 30
0.0
 10
47.15777370720697
 20
-30.99016302886981
 30
0.0
 10
47.16671268035263
 20
-31.03587904197796
 30
0.0
 10
47.1707359565336
 20
-31.05622877362971
 30
0.0
  0
ARC
  5
10000054
102
{ACAD_XDICTIONARY
360
10000055
102
}
330
1F
100
AcDbEntity
  8
VISIBLE
100
AcDbCircle
 10
50.0
 20
-25.0
 30
0.0
 40
6.684507609859605
100
AcDbArc
 50
244.959618649561
 51
250.0403813504392
  0
SPLINE
  5
10000057
102
{ACAD_XDICTIONARY
360
10000058
102
}
330
1F
100
AcDbEntity
  8
VISIBLE
100
AcDbSpline
210
0.0
220
0.0
230
1.0
 70
     8
 71
     3
 72
    44
 73
    40
 74
     0
 42
0.000000001
 43
0.00000001
 40
0.0374573816692528
 40
0.0374573816692528
 40
0.0374573816692528
 40
0.0374573816692528
 40
0.1173270388283835
 40
0.1245633749097421
 40
0.1339054427745929
 40
0.1449591259385422
 40
0.157492824253456
 40
0.1713493489450592
 40
0.186412979324603
 40
0.2025939139161435
 40
0.2198198341683084
 40
0.2380308751317531
 40
0.2571764150177153
 40
0.2772129162632477
 40
0.2981024128312286
 40
0.3198114144576313
 40
0.3423100907832787
 40
0.3655716496568647
 40
0.3895718539492967
 40
0.4142886395604836
 40
0.4397018088992017
 40
0.4657927816818093
 40
0.4925443899635603
 40
0.5199407077925865
 40
0.5479669083115218
 40
0.5766091428695075
 40
0.6058544379685353
 40
0.6356906067974987
 40
0.6661061728017248
 40
0.6970903032611986
 40
0.7286327512528589
 40
0.7607238046834918
 40
0.7933542413228106
 40
0.8265152889579642
 40
0.860198589943057
 40
0.8943961695393764
 40
0.9291004075405692
 40
0.9643040127571182
 40
0.9924917445823748
 40
0.9924917445823748
 40
0.9924917445823748
 40
0.9924917445823748
 10
48.79877961705068
 20
-29.76674629366694
 30
0.0
 10
48.73717462878214
 20
-30.01155625828553
 30
0.0
 10
48.68484793677176
 20
-30.21918297394389
 30
0.0
 10
48.68311565748552
 20
-30.22453857816706
 30
0.0
 10
48.68133953382483
 20
-30.23045866640119
 30
0.0
 10
48.67906213711091
 20
-30.23734725953949
 30
0.0
 10
48.67583588554801
 20
-30.24658098808216
 30
0.0
 10
48.67170488207358
 20
-30.25765179850763
 30
0.0
 10
48.66655064802737
 20
-30.27067635761328
 30
0.0
 10
48.66030737800822
 20
-30.2855708693498
 30
0.0
 10
48.65289446446276
 20
-30.30231011453903
 30
0.0
 10
48.64423720939889
 20
-30.32084829632526
 30
0.0
 10
48.63426070998286
 20
-30.34114275766299
 30
0.0
 10
48.62289174613772
 20
-30.36314700974081
 30
0.0
 10
48.61005830921228
 20
-30.38681280467015
 30
0.0
 10
48.59568981603501
 20
-30.41208957786267
 30
0.0
 10
48.57971712346628
 20
-30.43892465347357
 30
0.0
 10
48.56207259882974
 20
-30.46726323344633
 30
0.0
 10
48.54269017308783
 20
-30.49704845049095
 30
0.0
 10
48.52150539760326
 20
-30.52822140493118
 30
0.0
 10
48.49845549855506
 20
-30.56072120801932
 30
0.0
 10
48.4734794306559
 20
-30.59448502525927
 30
0.0
 10
48.44651792967176
 20
-30.62944812149815
 30
0.0
 10
48.4175135638499
 20
-30.66554390724536
 30
0.0
 10
48.38641078417838
 20
-30.70270398632313
 30
0.0
 10
48.35315597349658
 20
-30.74085820479397
 30
0.0
 10
48.31769749427404
 20
-30.77993470108253
 30
0.0
 10
48.27998573560892
 20
-30.81985995749863
 30
0.0
 10
48.23997315718699
 20
-30.86055885220733
 30
0.0
 10
48.19761433874187
 20
-30.90195471516502
 30
0.0
 10
48.15286600210204
 20
-30.94396937436431
 30
0.0
 10
48.10568713189403
 20
-30.98652324459983
 30
0.0
 10
48.05603871184655
 20
-31.02953525859441
 30
0.0
 10
48.00388492536015
 20
-31.07292340639896
 30
0.0
 10
47.94918875065165
 20
-31.11660295394007
 30
0.0
 10
47.89192896515712
 20
-31.16049353336977
 30
0.0
 10
47.83203540457912
 20
-31.20449236634487
 30
0.0
 10
47.77407258717387
 20
-31.24544238342744
 30
0.0
 10
47.73542567576813
 20
-31.27144767777688
 30
0.0
 10
47.71819135665171
 20
-31.28299222515303
 30
0.0
  0
ARC
  5
1000005A
102
{ACAD_XDICTIONARY
360
1000005B
102
}
330
1F
100
AcDbEntity
  8
VISIBLE
100
AcDbCircle
 10
49.1824350729881
 20
-29.86329093350221
 30
0.0
 40
0.3956164510627324
100
AcDbArc
 50
80.45726817810335
 51
165.8751309599834
  0
ARC
  5
1000005D
102
{ACAD_XDICTIONARY
360
1000005E
102
}
330
1F
100
AcDbEntity
  8
VISIBLE
100
AcDbCircle
 10
50.0
 20
-25.0
 30
0.0
 40
4.535915878119019
100
AcDbArc
 50
260.4572681781035
 51
264.5427318218966
  0
ARC
  5
10000060
102
{ACAD_XDICTIONARY
360
10000061
102
}
330
1F
100
AcDbEntity
  8
VISIBLE
100
AcDbCircle
 10
49.53099476220414
 20
-29.90917968714579
 30
0.0
 40
0.3956164510627324
100
AcDbArc
 50
359.1248690400162
 51
84.54273182189571
  0
SPLINE
  5
10000063
102
{ACAD_XDICTIONARY
360
10000064
102
}
330
1F
100
AcDbEntity
  8
VISIBLE
100
AcDbSpline
210
0.0
220
0.0
230
1.0
 70
     8
 71
     3
 72
    44
 73
    40
 74
     0
 42
0.000000001
 43
0.00000001
 40
0.0374573816692533
 40
0.0374573816692533
 40
0.0374573816692533
 40
0.0374573816692533
 40
0.1173270388283835
 40
0.1245633749097421
 40
0.1339054427745929
 40
0.1449591259385422
 40
0.157492824253456
 40
0.1713493489450592
 40
0.186412979324603
 40
0.2025939139161435
 40
0.2198198341683084
 40
0.2380308751317531
 40
0.2571764150177153
 40
0.2772129162632477
 40
0.2981024128312286
 40
0.3198114144576313
 40
0.3423100907832787
 40
0.3655716496568647
 40
0.3895718539492967
 40
0.4142886395604836
 40
0.4397018088992017
 40
0.4657927816818093
 40
0.4925443899635603
 40
0.5199407077925865
 40
0.5479669083115218
 40
0.5766091428695075
 40
0.6058544379685353
 40
0.6356906067974987
 40
0.6661061728017248
 40
0.6970903032611986
 40
0.7286327512528589
 40
0.7607238046834918
 40
0.7933542413228106
 40
0.8265152889579642
 40
0.860198589943057
 40
0.8943961695393764
 40
0.9291004075405692
 40
0.9643040127571182
 40
0.9924917445823721
 40
0.9924917445823721
 40
0.9924917445823721
 40
0.9924917445823721
 10
49.92656506698274
 20
-29.91522206489323
 30
0.0
 10
49.92270943490539
 20
-30.16763487648844
 30
0.0
 10
49.91951538983803
 20
-30.38173002782993
 30
0.0
 10
49.91980251076797
 20
-30.38735149113518
 30
0.0
 10
49.91998588289882
 20
-30.39352955188429
 30
0.0
 10
49.92040278010334
 20
-30.40077285554619
 30
0.0
 10
49.92112923500592
 20
-30.41052696776727
 30
0.0
 10
49.92225414136753
 20
-30.42228973184976
 30
0.0
 10
49.92386174519689
 20
-30.43620450379999
 30
0.0
 10
49.92603729764396
 20
-30.45220737454094
 30
0.0
 10
49.92886518682997
 20
-30.47029484698707
 30
0.0
 10
49.93242941857308
 20
-30.49044201803567
 30
0.0
 10
49.93681338391066
 20
-30.51262707042473
 30
0.0
 10
49.94209984019587
 20
-30.53682405016107
 30
0.0
 10
49.948370829917
 20
-30.56300499057341
 30
0.0
 10
49.95570761826083
 20
-30.59113931828902
 30
0.0
 10
49.96419062588346
 20
-30.62119404791036
 30
0.0
 10
49.97389936371439
 20
-30.65313375320413
 30
0.0
 10
49.98491236788096
 20
-30.68692060451144
 30
0.0
 10
49.99730713534441
 20
-30.72251438964863
 30
0.0
 10
50.01116006012712
 20
-30.75987254166213
 30
0.0
 10
50.026546370213
 20
-30.79895016677238
 30
0.0
 10
50.04354006514674
 20
-30.83970007433579
 30
0.0
 10
50.06221385436988
 20
-30.88207280827503
 30
0.0
 10
50.08263909634114
 20
-30.92601668009781
 30
0.0
 10
50.10488573843578
 20
-30.9714778034464
 30
0.0
 10
50.12902225782241
 20
-31.01840013014557
 30
0.0
 10
50.15511560273074
 20
-31.06672548780594
 30
0.0
 10
50.18323113653967
 20
-31.11639361864574
 30
0.0
 10
50.213432575525
 20
-31.16734222071974
 30
0.0
 10
50.24578195559462
 20
-31.21950698688212
 30
0.0
 10
50.2803394927239
 20
-31.2728216592874
 30
0.0
 10
50.3171638554922
 20
-31.32721803111302
 30
0.0
 10
50.35631086581464
 20
-31.38262615684917
 30
0.0
 10
50.39783821477971
 20
-31.43897377160857
 30
0.0
 10
50.44178720253964
 20
-31.49618873881498
 30
0.0
 10
50.48825220359411
 20
-31.55418994206879
 30
0.0
 10
50.53364134157206
 20
-31.60874650220811
 30
0.0
 10
50.56424072595404
 20
-31.64386824434667
 30
0.0
 10
50.57789985115907
 20
-31.65947999082681
 30
0.0
  0
ARC
  5
10000066
102
{ACAD_XDICTIONARY
360
10000067
102
}
330
1F
100
AcDbEntity
  8
VISIBLE
100
AcDbCircle
 10
50.0
 20
-25.0
 30
0.0
 40
6.684507609859605
100
AcDbArc
 50
274.9596186495608
 51
280.0403813504392
  0
SPLINE
  5
10000069
102
{ACAD_XDICTIONARY
360
1000006A
102
}
330
1F
100
AcDbEntity
  8
VISIBLE
100
AcDbSpline
210
0.0
220
0.0
230
1.0
 70
     8
 71
     3
 72
    44
 73
    40
 74
     0
 42
0.000000001
 43
0.00000001
 40
0.0374573816692532
 40
0.0374573816692532
 40
0.0374573816692532
 40
0.0374573816692532
 40
0.1173270388283835
 40
0.1245633749097421
 40
0.1339054427745929
 40
0.1449591259385422
 40
0.157492824253456
 40
0.1713493489450592
 40
0.186412979324603
 40
0.2025939139161435
 40
0.2198198341683084
 40
0.2380308751317531
 40
0.2571764150177153
 40
0.2772129162632477
 40
0.2981024128312286
 40
0.3198114144576313
 40
0.3423100907832787
 40
0.3655716496568647
 40
0.3895718539492967
 40
0.4142886395604836
 40
0.4397018088992017
 40
0.4657927816818093
 40
0.4925443899635603
 40
0.5199407077925865
 40
0.5479669083115218
 40
0.5766091428695075
 40
0.6058544379685353
 40
0.6356906067974987
 40
0.6661061728017248
 40
0.6970903032611986
 40
0.7286327512528589
 40
0.7607238046834918
 40
0.7933542413228106
 40
0.8265152889579642
 40
0.860198589943057
 40
0.8943961695393764
 40
0.9291004075405692
 40
0.9643040127571182
 40
0.9924917445823681
 40
0.9924917445823681
 40
0.9924917445823681
 40
0.9924917445823681
 10
51.34308577965569
 20
-29.72873357518555
 30
0.0
 10
51.41213927712459
 20
-29.97154771777908
 30
0.0
 10
51.47063639037677
 20
-30.17752107404874
 30
0.0
 10
51.47181399462001
 20
-30.18302530300174
 30
0.0
 10
51.47323587052667
 20
-30.18904031163549
 30
0.0
 10
51.47470788368707
 20
-30.19614470664656
 30
0.0
 10
51.47653073214593
 20
-30.20575447591761
 30
0.0
 10
51.47848858340669
 20
-30.21740758072377
 30
0.0
 10
51.48053716533845
 20
-30.23126429680544
 30
0.0
 10
51.48257759076745
 20
-30.24728495735582
 30
0.0
 10
51.48452744191562
 20
-30.2654880257026
 30
0.0
 10
51.48629912999639
 20
-30.28587118960139
 30
0.0
 10
51.48780645873015
 20
-30.30843495838399
 30
0.0
 10
51.48896277326445
 20
-30.33317568159723
 30
0.0
 10
51.48968158833382
 20
-30.36008757966951
 30
0.0
 10
51.48987649482445
 20
-30.38916215396857
 30
0.0
 10
51.48946127509855
 20
-30.42038835744445
 30
0.0
 10
51.48834995851198
 20
-30.45375254992631
 30
0.0
 10
51.48645689395483
 20
-30.48923851741514
 30
0.0
 10
51.48369681743184
 20
-30.52682747561368
 30
0.0
 10
51.47998492084551
 20
-30.56649808023009
 30
0.0
 10
51.47523692017816
 20
-30.6082264376382
 30
0.0
 10
51.46936912352118
 20
-30.65198611766811
 30
0.0
 10
51.46229849877241
 20
-30.69774816800567
 30
0.0
 10
51.45394274098744
 20
-30.74548113032943
 30
0.0
 10
51.44422033937437
 20
-30.79515105812762
 30
0.0
 10
51.43305064373238
 20
-30.84672153621566
 30
0.0
 10
51.42035393091504
 20
-30.90015370185717
 30
0.0
 10
51.40605146888507
 20
-30.95540626779183
 30
0.0
 10
51.39006558751616
 20
-31.01243554594732
 30
0.0
 10
51.37231972080862
 20
-31.07119547646516
 30
0.0
 10
51.35273855580439
 20
-31.13163764422248
 30
0.0
 10
51.33124776978281
 20
-31.19371135103346
 30
0.0
 10
51.3077753396843
 20
-31.25736348249855
 30
0.0
 10
51.28224683666746
 20
-31.32253916764922
 30
0.0
 10
51.25460369752881
 20
-31.38917941716942
 30
0.0
 10
51.2247337690327
 20
-31.45723030455172
 30
0.0
 10
51.19501150522613
 20
-31.52167546833326
 30
0.0
 10
51.17454494534567
 20
-31.56352016957564
 30
0.0
 10
51.16539186086199
 20
-31.58213520043676
 30
0.0
  0
ARC
  5
1000006C
102
{ACAD_XDICTIONARY
360
1000006D
102
}
330
1F
100
AcDbEntity
  8
VISIBLE
100
AcDbCircle
 10
51.72361347071563
 20
-29.6205159579134
 30
0.0
 40
0.3956164510627324
100
AcDbArc
 50
110.4572681781038
 51
195.8751309599844
  0
ARC
  5
1000006F
102
{ACAD_XDICTIONARY
360
10000070
102
}
330
1F
100
AcDbEntity
  8
VISIBLE
100
AcDbCircle
 10
50.0
 20
-25.0
 30
0.0
 40
4.535915878119019
100
AcDbArc
 50
290.4572681781036
 51
294.5427318218965
  0
ARC
  5
10000072
102
{ACAD_XDICTIONARY
360
10000073
102
}
330
1F
100
AcDbEntity
  8
VISIBLE
100
AcDbCircle
 10
52.04841939313372
 20
-29.48597693970872
 30
0.0
 40
0.3956164510627324
100
AcDbArc
 50
29.12486904001566
 51
114.5427318218969
  0
SPLINE
  5
10000075
102
{ACAD_XDICTIONARY
360
10000076
102
}
330
1F
100
AcDbEntity
  8
VISIBLE
100
AcDbSpline
210
0.0
220
0.0
230
1.0
 70
     8
 71
     3
 72
    44
 73
    40
 74
     0
 42
0.000000001
 43
0.00000001
 40
0.0374573816692534
 40
0.0374573816692534
 40
0.0374573816692534
 40
0.0374573816692534
 40
0.1173270388283835
 40
0.1245633749097421
 40
0.1339054427745929
 40
0.1449591259385422
 40
0.157492824253456
 40
0.1713493489450592
 40
0.186412979324603
 40
0.2025939139161435
 40
0.2198198341683084
 40
0.2380308751317531
 40
0.2571764150177153
 40
0.2772129162632477
 40
0.2981024128312286
 40
0.3198114144576313
 40
0.3423100907832787
 40
0.3655716496568647
 40
0.3895718539492967
 40
0.4142886395604836
 40
0.4397018088992017
 40
0.4657927816818093
 40
0.4925443899635603
 40
0.5199407077925865
 40
0.5479669083115218
 40
0.5766091428695075
 40
0.6058544379685353
 40
0.6356906067974987
 40
0.6661061728017248
 40
0.6970903032611986
 40
0.7286327512528589
 40
0.7607238046834918
 40
0.7933542413228106
 40
0.8265152889579642
 40
0.860198589943057
 40
0.8943961695393764
 40
0.9291004075405692
 40
0.9643040127571182
 40
0.9924917445823677
 40
0.9924917445823677
 40
0.9924917445823677
 40
0.9924917445823677
 10
52.39401451492846
 20
-29.29342463994798
 30
0.0
 10
52.51688184539943
 20
-29.51394836306876
 30
0.0
 10
52.62116329690102
 20
-29.70095722549124
 30
0.0
 10
52.62422268257293
 20
-29.70568199505506
 30
0.0
 10
52.62747051787115
 20
-29.71094066654448
 30
0.0
 10
52.63145321327197
 20
-29.71700510292075
 30
0.0
 10
52.63695939778285
 20
-29.72508918444429
 30
0.0
 10
52.64381497731012
 20
-29.73471358377763
 30
0.0
 10
52.65216458904069
 20
-29.74596032785973
 30
0.0
 10
52.6620501080976
 20
-29.75873144423134
 30
0.0
 10
52.67354286819482
 20
-29.77298171026693
 30
0.0
 10
52.68670316895363
 20
-29.78864755633785
 30
0.0
 10
52.70159232049983
 20
-29.80566839262228
 30
0.0
 10
52.71826901580699
 20
-29.8239803636262
 30
0.0
 10
52.73679032241853
 20
-29.84351822825769
 30
0.0
 10
52.75721133136427
 20
-29.86421487660589
 30
0.0
 10
52.77958519627663
 20
-29.88600153215052
 30
0.0
 10
52.80396306252378
 20
-29.90880775940885
 30
0.0
 10
52.83039402955769
 20
-29.93256152887158
 30
0.0
 10
52.85892510562361
 20
-29.95718926728551
 30
0.0
 10
52.88960116640892
 20
-29.98261591357629
 30
0.0
 10
52.92246491436892
 20
-30.00876497459838
 30
0.0
 10
52.9575568396674
 20
-30.0355585822833
 30
0.0
 10
52.99491518248918
 20
-30.06291755169091
 30
0.0
 10
53.03457589682613
 20
-30.09076144004446
 30
0.0
 10
53.07657261570329
 20
-30.11900860670158
 30
0.0
 10
53.12093661800062
 20
-30.14757627393443
 30
0.0
 10
53.16769679639113
 20
-30.17638058886111
 30
0.0
 10
53.21687962833053
 20
-30.20533668502241
 30
0.0
 10
53.26850914275967
 20
-30.23435874921313
 30
0.0
 10
53.32260691077782
 20
-30.26336007185741
 30
0.0
 10
53.37919195202665
 20
-30.2922531639902
 30
0.0
 10
53.43828097157496
 20
-30.32094962248073
 30
0.0
 10
53.4998873398645
 20
-30.3493609617831
 30
0.0
 10
53.56402488639976
 20
-30.37739575312487
 30
0.0
 10
53.63069330987368
 20
-30.40497087432234
 30
0.0
 10
53.69993378280063
 20
-30.43196888926297
 30
0.0
 10
53.76652020941508
 20
-30.45652168729773
 30
0.0
 10
53.81058092469931
 20
-30.47163831602391
 30
0.0
 10
53.83021594736039
 20
-30.47832892247063
 30
0.0
  0
ARC
  5
10000078
102
{ACAD_XDICTIONARY
360
10000079
102
}
330
1F
100
AcDbEntity
  8
VISIBLE
100
AcDbCircle
 10
50.0
 20
-25.0
 30
0.0
 40
6.684507609859605
100
AcDbArc
 50
304.9596186495609
 51
310.0403813504392
  0
SPLINE
  5
1000007B
102
{ACAD_XDICTIONARY
360
1000007C
102
}
330
1F
100
AcDbEntity
  8
VISIBLE
100
AcDbSpline
210
0.0
220
0.0
230
1.0
 70
     8
 71
     3
 72
    44
 73
    40
 74
     0
 42
0.000000001
 43
0.00000001
 40
0.0374573816692527
 40
0.0374573816692527
 40
0.0374573816692527
 40
0.0374573816692527
 40
0.1173270388283835
 40
0.1245633749097421
 40
0.1339054427745929
 40
0.1449591259385422
 40
0.157492824253456
 40
0.1713493489450592
 40
0.186412979324603
 40
0.2025939139161435
 40
0.2198198341683084
 40
0.2380308751317531
 40
0.2571764150177153
 40
0.2772129162632477
 40
0.2981024128312286
 40
0.3198114144576313
 40
0.3423100907832787
 40
0.3655716496568647
 40
0.3895718539492967
 40
0.4142886395604836
 40
0.4397018088992017
 40
0.4657927816818093
 40
0.4925443899635603
 40
0.5199407077925865
 40
0.5479669083115218
 40
0.5766091428695075
 40
0.6058544379685353
 40
0.6356906067974987
 40
0.6661061728017248
 40
0.6970903032611986
 40
0.7286327512528589
 40
0.7607238046834918
 40
0.7933542413228106
 40
0.8265152889579642
 40
0.860198589943057
 40
0.8943961695393764
 40
0.9291004075405692
 40
0.9643040127571182
 40
0.9924917445823697
 40
0.9924917445823697
 40
0.9924917445823697
 40
0.9924917445823697
 10
53.52751319223626
 20
-28.42366051401126
 30
0.0
 10
53.70872234656123
 20
-28.59941698116094
 30
0.0
 10
53.8623690108205
 20
-28.74854658356712
 30
0.0
 10
53.86614096048726
 20
-28.75272458354704
 30
0.0
 10
53.87037984546032
 20
-28.75722279587452
 30
0.0
 10
53.87520684375747
 20
-28.76263937585242
 30
0.0
 10
53.88159036146562
 20
-28.77005025593623
 30
0.0
 10
53.88911246279734
 20
-28.77916321510095
 30
0.0
 10
53.89781494483282
 20
-28.79013919227483
 30
0.0
 10
53.90759233536404
 20
-28.80299327858236
 30
0.0
 10
53.91838249016536
 20
-28.81778267262341
 30
0.0
 10
53.93010839900027
 20
-28.83454916632888
 30
0.0
 10
53.94269566836686
 20
-28.85333629893286
 30
0.0
 10
53.95606742773496
 20
-28.87418423647637
 30
0.0
 10
53.9701458888818
 20
-28.89713121633634
 30
0.0
 10
53.98485197000358
 20
-28.92221308303822
 30
0.0
 10
54.00010548091073
 20
-28.94946337837503
 30
0.0
 10
54.01582514875604
 20
-28.97891327493435
 30
0.0
 10
54.03192869050297
 20
-29.01059155653611
 30
0.0
 10
54.04833287321694
 20
-29.04452458749935
 30
0.0
 10
54.06495357878516
 20
-29.08073628717382
 30
0.0
 10
54.0817058682941
 20
-29.11924810508111
 30
0.0
 10
54.09850404733987
 20
-29.16007899797698
 30
0.0
 10
54.11526173185558
 20
-29.20324540847296
 30
0.0
 10
54.13189191450782
 20
-29.24876124533569
 30
0.0
 10
54.1483070316242
 20
-29.2966378654196
 30
0.0
 10
54.16441903048971
 20
-29.34688405735015
 30
0.0
 10
54.1801394374661
 20
-29.39950602658359
 30
0.0
 10
54.19537942497882
 20
-29.45450738332226
 30
0.0
 10
54.21004988468919
 20
-29.51188912764886
 30
0.0
 10
54.22406147856722
 20
-29.5716496535557
 30
0.0
 10
54.23732477611652
 20
-29.63378468879544
 30
0.0
 10
54.24975006288002
 20
-29.69828748881161
 30
0.0
 10
54.2612484078587
 20
-29.76514806671466
 30
0.0
 10
54.27172791830087
 20
-29.83435611727262
 30
0.0
 10
54.28110838232654
 20
-29.90588983584096
 30
0.0
 10
54.28926570913084
 20
-29.97975859731217
 30
0.0
 10
54.29574805550713
 20
-30.05043087820132
 30
0.0
 10
54.29894584534377
 20
-30.09690273243121
 30
0.0
 10
54.3003265570885
 20
-30.11760036429102
 30
0.0
  0
ARC
  5
1000007E
102
{ACAD_XDICTIONARY
360
1000007F
102
}
330
1F
100
AcDbEntity
  8
VISIBLE
100
AcDbCircle
 10
53.8029510309015
 20
-28.13967746278658
 30
0.0
 40
0.3956164510627324
100
AcDbArc
 50
140.4572681781035
 51
225.8751309599846
  0
ARC
  5
10000081
102
{ACAD_XDICTIONARY
360
10000082
102
}
330
1F
100
AcDbEntity
  8
VISIBLE
100
AcDbCircle
 10
50.0
 20
-25.0
 30
0.0
 40
4.535915878119019
100
AcDbArc
 50
320.4572681781036
 51
324.5427318218965
  0
ARC
  5
10000084
102
{ACAD_XDICTIONARY
360
10000085
102
}
330
1F
100
AcDbEntity
  8
VISIBLE
100
AcDbCircle
 10
54.01697170191287
 20
-27.86076029401207
 30
0.0
 40
0.3956164510627324
100
AcDbArc
 50
59.12486904001685
 51
144.5427318218972
  0
SPLINE
  5
10000087
102
{ACAD_XDICTIONARY
360
10000088
102
}
330
1F
100
AcDbEntity
  8
VISIBLE
100
AcDbSpline
210
0.0
220
0.0
230
1.0
 70
     8
 71
     3
 72
    44
 73
    40
 74
     0
 42
0.000000001
 43
0.00000001
 40
0.0374573816692525
 40
0.0374573816692525
 40
0.0374573816692525
 40
0.0374573816692525
 40
0.1173270388283835
 40
0.1245633749097421
 40
0.1339054427745929
 40
0.1449591259385422
 40
0.157492824253456
 40
0.1713493489450592
 40
0.186412979324603
 40
0.2025939139161435
 40
0.2198198341683084
 40
0.2380308751317531
 40
0.2571764150177153
 40
0.2772129162632477
 40
0.2981024128312286
 40
0.3198114144576313
 40
0.3423100907832787
 40
0.3655716496568647
 40
0.3895718539492967
 40
0.4142886395604836
 40
0.4397018088992017
 40
0.4657927816818093
 40
0.4925443899635603
 40
0.5199407077925865
 40
0.5479669083115218
 40
0.5766091428695075
 40
0.6058544379685353
 40
0.6356906067974987
 40
0.6661061728017248
 40
0.6970903032611986
 40
0.7286327512528589
 40
0.7607238046834918
 40
0.7933542413228106
 40
0.8265152889579642
 40
0.860198589943057
 40
0.8943961695393764
 40
0.9291004075405692
 40
0.9643040127571182
 40
0.9924917445823694
 40
0.9924917445823694
 40
0.9924917445823694
 40
0.9924917445823694
 10
54.2199897069307
 20
-27.52120754996477
 30
0.0
 10
54.43665779797414
 20
-27.65075303108901
 30
0.0
 10
54.62047261532927
 20
-27.76056673092892
 30
0.0
 10
54.62548450582304
 20
-27.76312880856226
 30
0.0
 10
54.63092654944331
 20
-27.76605903401315
 30
0.0
 10
54.6374078830241
 20
-27.76931964227421
 30
0.0
 10
54.64621841945021
 20
-27.77356756998442
 30
0.0
 10
54.65696772514517
 20
-27.77847475453963
 30
0.0
 10
54.66982207305661
 20
-27.7840399147593
 30
0.0
 10
54.6847687418753
 20
-27.79015726644335
 30
0.0
 10
54.70184689709689
 20
-27.79675197879224
 30
0.0
 10
54.72107697491092
 20
-27.80373884908203
 30
0.0
 10
54.74248177653295
 20
-27.8110347499249
 30
0.0
 10
54.76608020382207
 20
-27.81855503435409
 30
0.0
 10
54.79188905817469
 20
-27.82621466815489
 30
0.0
 10
54.81992249486672
 20
-27.83392798692475
 30
0.0
 10
54.85019215803398
 20
-27.84160885163372
 30
0.0
 10
54.88270712312324
 20
-27.84917069068034
 30
0.0
 10
54.91747389675254
 20
-27.85652657495377
 30
0.0
 10
54.95449640262991
 20
-27.86358928402501
 30
0.0
 10
54.99377597370341
 20
-27.87027137525322
 30
0.0
 10
55.03531134481138
 20
-27.87648525240346
 30
0.0
 10
55.07909864743004
 20
-27.88214323466839
 30
0.0
 10
55.1251314060608
 20
-27.88715762578585
 30
0.0
 10
55.1734005363856
 20
-27.89144078327169
 30
0.0
 10
55.22389434513737
 20
-27.89490518774311
 30
0.0
 10
55.27659853175685
 20
-27.89746351214496
 30
0.0
 10
55.33149619159186
 20
-27.89902869141481
 30
0.0
 10
55.38856782156209
 20
-27.89951399031522
 30
0.0
 10
55.44779132473813
 20
-27.89883307796007
 30
0.0
 10
55.50914202745204
 20
-27.89690007610429
 30
0.0
 10
55.5725926567141
 20
-27.89362970726076
 30
0.0
 10
55.63811347797294
 20
-27.88893705953805
 30
0.0
 10
55.70567182759775
 20
-27.88273881698468
 30
0.0
 10
55.77523396790458
 20
-27.87494888520881
 30
0.0
 10
55.84675807686199
 20
-27.86549542894129
 30
0.0
 10
55.92022109285709
 20
-27.85425615926816
 30
0.0
 10
55.9901630288698
 20
-27.84222629279303
 30
0.0
 10
56.03587904197796
 20
-27.83328731964735
 30
0.0
 10
56.0562287736297
 20
-27.8292640434664
 30
0.0
  0
ARC
  5
1000008A
102
{ACAD_XDICTIONARY
360
1000008B
102
}
330
1F
100
AcDbEntity
  8
VISIBLE
100
AcDbCircle
 10
50.0
 20
-25.0
 30
0.0
 40
6.684507609859605
100
AcDbArc
 50
334.9596186495609
 51
340.0403813504392
  0
SPLINE
  5
1000008D
102
{ACAD_XDICTIONARY
360
1000008E
102
}
330
1F
100
AcDbEntity
  8
VISIBLE
100
AcDbSpline
210
0.0
220
0.0
230
1.0
 70
     8
 71
     3
 72
    44
 73
    40
 74
     0
 42
0.000000001
 43
0.00000001
 40
0.0374573816692517
 40
0.0374573816692517
 40
0.0374573816692517
 40
0.0374573816692517
 40
0.1173270388283835
 40
0.1245633749097421
 40
0.1339054427745929
 40
0.1449591259385422
 40
0.157492824253456
 40
0.1713493489450592
 40
0.186412979324603
 40
0.2025939139161435
 40
0.2198198341683084
 40
0.2380308751317531
 40
0.2571764150177153
 40
0.2772129162632477
 40
0.2981024128312286
 40
0.3198114144576313
 40
0.3423100907832787
 40
0.3655716496568647
 40
0.3895718539492967
 40
0.4142886395604836
 40
0.4397018088992017
 40
0.4657927816818093
 40
0.4925443899635603
 40
0.5199407077925865
 40
0.5479669083115218
 40
0.5766091428695075
 40
0.6058544379685353
 40
0.6356906067974987
 40
0.6661061728017248
 40
0.6970903032611986
 40
0.7286327512528589
 40
0.7607238046834918
 40
0.7933542413228106
 40
0.8265152889579642
 40
0.860198589943057
 40
0.8943961695393764
 40
0.9291004075405692
 40
0.9643040127571182
 40
0.9924917445823677
 40
0.9924917445823677
 40
0.9924917445823677
 40
0.9924917445823677
 10
54.76674629366695
 20
-26.20122038294932
 30
0.0
 10
55.01155625828554
 20
-26.26282537121786
 30
0.0
 10
55.21918297394389
 20
-26.31515206322825
 30
0.0
 10
55.22453857816706
 20
-26.31688434251449
 30
0.0
 10
55.23045866640119
 20
-26.31866046617517
 30
0.0
 10
55.23734725953949
 20
-26.32093786288909
 30
0.0
 10
55.24658098808216
 20
-26.324164114452
 30
0.0
 10
55.25765179850764
 20
-26.32829511792643
 30
0.0
 10
55.27067635761328
 20
-26.33344935197263
 30
0.0
 10
55.28557086934981
 20
-26.33969262199178
 30
0.0
 10
55.30231011453904
 20
-26.34710553553725
 30
0.0
 10
55.32084829632526
 20
-26.35576279060112
 30
0.0
 10
55.341142757663
 20
-26.36573929001713
 30
0.0
 10
55.36314700974081
 20
-26.37710825386229
 30
0.0
 10
55.38681280467016
 20
-26.38994169078772
 30
0.0
 10
55.41208957786267
 20
-26.404310183965
 30
0.0
 10
55.43892465347357
 20
-26.42028287653372
 30
0.0
 10
55.46726323344632
 20
-26.43792740117027
 30
0.0
 10
55.49704845049096
 20
-26.45730982691217
 30
0.0
 10
55.52822140493118
 20
-26.47849460239675
 30
0.0
 10
55.56072120801932
 20
-26.50154450144494
 30
0.0
 10
55.59448502525927
 20
-26.5265205693441
 30
0.0
 10
55.62944812149816
 20
-26.55348207032825
 30
0.0
 10
55.66554390724536
 20
-26.5824864361501
 30
0.0
 10
55.70270398632314
 20
-26.61358921582162
 30
0.0
 10
55.74085820479397
 20
-26.64684402650342
 30
0.0
 10
55.77993470108253
 20
-26.68230250572595
 30
0.0
 10
55.81985995749864
 20
-26.72001426439108
 30
0.0
 10
55.86055885220734
 20
-26.76002684281302
 30
0.0
 10
55.90195471516501
 20
-26.80238566125813
 30
0.0
 10
55.94396937436431
 20
-26.84713399789796
 30
0.0
 10
55.98652324459983
 20
-26.89431286810597
 30
0.0
 10
56.02953525859441
 20
-26.94396128815346
 30
0.0
 10
56.07292340639896
 20
-26.99611507463985
 30
0.0
 10
56.11660295394007
 20
-27.05081124934836
 30
0.0
 10
56.16049353336977
 20
-27.10807103484288
 30
0.0
 10
56.20449236634487
 20
-27.16796459542089
 30
0.0
 10
56.24544238342745
 20
-27.22592741282613
 30
0.0
 10
56.27144767777688
 20
-27.26457432423186
 30
0.0
 10
56.28299222515302
 20
-27.28180864334828
 30
0.0
  0
ARC
  5
10000090
102
{ACAD_XDICTIONARY
360
10000091
102
}
330
1F
100
AcDbEntity
  8
VISIBLE
100
AcDbCircle
 10
54.86329093350221
 20
-25.8175649270119
 30
0.0
 40
0.3956164510627324
100
AcDbArc
 50
170.4572681781035
 51
255.8751309599837
  0
ARC
  5
10000093
102
{ACAD_XDICTIONARY
360
10000094
102
}
330
1F
100
AcDbEntity
  8
VISIBLE
100
AcDbCircle
 10
50.0
 20
-25.0
 30
0.0
 40
4.535915878119019
100
AcDbArc
 50
350.4572681781035
 51
354.5427318218964
  0
ARC
  5
10000096
102
{ACAD_XDICTIONARY
360
10000097
102
}
330
1F
100
AcDbEntity
  8
VISIBLE
100
AcDbCircle
 10
54.90917968714579
 20
-25.46900523779586
 30
0.0
 40
0.3956164510627324
100
AcDbArc
 50
89.1248690400156
 51
174.5427318218967
  0
SPLINE
  5
10000099
102
{ACAD_XDICTIONARY
360
1000009A
102
}
330
1F
100
AcDbEntity
  8
VISIBLE
100
AcDbSpline
210
0.0
220
0.0
230
1.0
 70
     8
 71
     3
 72
    44
 73
    40
 74
     0
 42
0.000000001
 43
0.00000001
 40
0.0374573816692539
 40
0.0374573816692539
 40
0.0374573816692539
 40
0.0374573816692539
 40
0.1173270388283835
 40
0.1245633749097421
 40
0.1339054427745929
 40
0.1449591259385422
 40
0.157492824253456
 40
0.1713493489450592
 40
0.186412979324603
 40
0.2025939139161435
 40
0.2198198341683084
 40
0.2380308751317531
 40
0.2571764150177153
 40
0.2772129162632477
 40
0.2981024128312286
 40
0.3198114144576313
 40
0.3423100907832787
 40
0.3655716496568647
 40
0.3895718539492967
 40
0.4142886395604836
 40
0.4397018088992017
 40
0.4657927816818093
 40
0.4925443899635603
 40
0.5199407077925865
 40
0.5479669083115218
 40
0.5766091428695075
 40
0.6058544379685353
 40
0.6356906067974987
 40
0.6661061728017248
 40
0.6970903032611986
 40
0.7286327512528589
 40
0.7607238046834918
 40
0.7933542413228106
 40
0.8265152889579642
 40
0.860198589943057
 40
0.8943961695393764
 40
0.9291004075405692
 40
0.9643040127571182
 40
0.992491744582368
 40
0.992491744582368
 40
0.992491744582368
 40
0.992491744582368
 10
54.91522206489324
 20
-25.07343493301727
 30
0.0
 10
55.16763487648844
 20
-25.07729056509462
 30
0.0
 10
55.38173002782994
 20
-25.08048461016198
 30
0.0
 10
55.38735149113519
 20
-25.08019748923203
 30
0.0
 10
55.3935295518843
 20
-25.08001411710118
 30
0.0
 10
55.40077285554619
 20
-25.07959721989666
 30
0.0
 10
55.41052696776727
 20
-25.07887076499409
 30
0.0
 10
55.42228973184975
 20
-25.07774585863248
 30
0.0
 10
55.43620450379999
 20
-25.07613825480312
 30
0.0
 10
55.45220737454095
 20
-25.07396270235604
 30
0.0
 10
55.47029484698707
 20
-25.07113481317004
 30
0.0
 10
55.49044201803567
 20
-25.06757058142693
 30
0.0
 10
55.51262707042473
 20
-25.06318661608934
 30
0.0
 10
55.53682405016107
 20
-25.05790015980413
 30
0.0
 10
55.56300499057341
 20
-25.051629170083
 30
0.0
 10
55.59113931828902
 20
-25.04429238173918
 30
0.0
 10
55.62119404791037
 20
-25.03580937411654
 30
0.0
 10
55.65313375320412
 20
-25.02610063628562
 30
0.0
 10
55.68692060451144
 20
-25.01508763211904
 30
0.0
 10
55.72251438964863
 20
-25.00269286465559
 30
0.0
 10
55.75987254166213
 20
-24.98883993987288
 30
0.0
 10
55.79895016677238
 20
-24.97345362978699
 30
0.0
 10
55.8397000743358
 20
-24.95645993485326
 30
0.0
 10
55.88207280827503
 20
-24.93778614563012
 30
0.0
 10
55.92601668009782
 20
-24.91736090365887
 30
0.0
 10
55.97147780344639
 20
-24.89511426156421
 30
0.0
 10
56.01840013014558
 20
-24.87097774217759
 30
0.0
 10
56.06672548780594
 20
-24.84488439726926
 30
0.0
 10
56.11639361864575
 20
-24.81676886346033
 30
0.0
 10
56.16734222071975
 20
-24.786567424475
 30
0.0
 10
56.21950698688212
 20
-24.75421804440538
 30
0.0
 10
56.2728216592874
 20
-24.7196605072761
 30
0.0
 10
56.32721803111302
 20
-24.6828361445078
 30
0.0
 10
56.38262615684918
 20
-24.64368913418536
 30
0.0
 10
56.43897377160857
 20
-24.6021617852203
 30
0.0
 10
56.49618873881497
 20
-24.55821279746036
 30
0.0
 10
56.55418994206879
 20
-24.51174779640589
 30
0.0
 10
56.60874650220811
 20
-24.46635865842794
 30
0.0
 10
56.64386824434667
 20
-24.43575927404597
 30
0.0
 10
56.6594799908268
 20
-24.42210014884094
 30
0.0
  0
ARC
  5
1000009C
102
{ACAD_XDICTIONARY
360
1000009D
102
}
330
1F
100
AcDbEntity
  8
VISIBLE
100
AcDbCircle
 10
50.0
 20
-25.0
 30
0.0
 40
6.684507609859605
100
AcDbArc
 50
4.959618649560777
 51
10.04038135043921
  0
SPLINE
  5
1000009F
102
{ACAD_XDICTIONARY
360
100000A0
102
}
330
1F
100
AcDbEntity
  8
VISIBLE
100
AcDbSpline
210
0.0
220
0.0
230
1.0
 70
     8
 71
     3
 72
    44
 73
    40
 74
     0
 42
0.000000001
 43
0.00000001
 40
0.0374573816692521
 40
0.0374573816692521
 40
0.0374573816692521
 40
0.0374573816692521
 40
0.1173270388283835
 40
0.1245633749097421
 40
0.1339054427745929
 40
0.1449591259385422
 40
0.157492824253456
 40
0.1713493489450592
 40
0.186412979324603
 40
0.2025939139161435
 40
0.2198198341683084
 40
0.2380308751317531
 40
0.2571764150177153
 40
0.2772129162632477
 40
0.2981024128312286
 40
0.3198114144576313
 40
0.3423100907832787
 40
0.3655716496568647
 40
0.3895718539492967
 40
0.4142886395604836
 40
0.4397018088992017
 40
0.4657927816818093
 40
0.4925443899635603
 40
0.5199407077925865
 40
0.5479669083115218
 40
0.5766091428695075
 40
0.6058544379685353
 40
0.6356906067974987
 40
0.6661061728017248
 40
0.6970903032611986
 40
0.7286327512528589
 40
0.7607238046834918
 40
0.7933542413228106
 40
0.8265152889579642
 40
0.860198589943057
 40
0.8943961695393764
 40
0.9291004075405692
 40
0.9643040127571182
 40
0.9924917445823634
 40
0.9924917445823634
 40
0.9924917445823634
 40
0.9924917445823634
 10
54.72873357518554
 20
-23.65691422034431
 30
0.0
 10
54.97154771777907
 20
-23.58786072287541
 30
0.0
 10
55.17752107404875
 20
-23.52936360962323
 30
0.0
 10
55.18302530300175
 20
-23.52818600537998
 30
0.0
 10
55.18904031163549
 20
-23.52676412947334
 30
0.0
 10
55.19614470664656
 20
-23.52529211631293
 30
0.0
 10
55.20575447591762
 20
-23.52346926785408
 30
0.0
 10
55.21740758072377
 20
-23.52151141659332
 30
0.0
 10
55.23126429680544
 20
-23.51946283466155
 30
0.0
 10
55.24728495735583
 20
-23.51742240923256
 30
0.0
 10
55.2654880257026
 20
-23.51547255808437
 30
0.0
 10
55.28587118960139
 20
-23.51370087000361
 30
0.0
 10
55.30843495838399
 20
-23.51219354126986
 30
0.0
 10
55.33317568159723
 20
-23.51103722673556
 30
0.0
 10
55.36008757966952
 20
-23.51031841166618
 30
0.0
 10
55.38916215396857
 20
-23.51012350517555
 30
0.0
 10
55.42038835744445
 20
-23.51053872490145
 30
0.0
 10
55.45375254992631
 20
-23.51165004148802
 30
0.0
 10
55.48923851741513
 20
-23.51354310604516
 30
0.0
 10
55.52682747561368
 20
-23.51630318256817
 30
0.0
 10
55.56649808023009
 20
-23.5200150791545
 30
0.0
 10
55.60822643763821
 20
-23.52476307982184
 30
0.0
 10
55.65198611766812
 20
-23.53063087647882
 30
0.0
 10
55.69774816800567
 20
-23.53770150122761
 30
0.0
 10
55.74548113032943
 20
-23.54605725901257
 30
0.0
 10
55.79515105812762
 20
-23.55577966062563
 30
0.0
 10
55.84672153621567
 20
-23.56694935626762
 30
0.0
 10
55.90015370185718
 20
-23.57964606908496
 30
0.0
 10
55.95540626779183
 20
-23.59394853111492
 30
0.0
 10
56.01243554594732
 20
-23.60993441248385
 30
0.0
 10
56.07119547646518
 20
-23.62768027919139
 30
0.0
 10
56.13163764422248
 20
-23.64726144419562
 30
0.0
 10
56.19371135103346
 20
-23.6687522302172
 30
0.0
 10
56.25736348249856
 20
-23.6922246603157
 30
0.0
 10
56.32253916764922
 20
-23.71775316333254
 30
0.0
 10
56.38917941716942
 20
-23.74539630247119
 30
0.0
 10
56.45723030455172
 20
-23.77526623096731
 30
0.0
 10
56.52167546833326
 20
-23.80498849477388
 30
0.0
 10
56.56352016957563
 20
-23.82545505465432
 30
0.0
 10
56.58213520043677
 20
-23.834608139138
 30
0.0
  0
ARC
  5
100000A2
102
{ACAD_XDICTIONARY
360
100000A3
102
}
330
1F
100
AcDbEntity
  8
VISIBLE
100
AcDbCircle
 10
54.6205159579134
 20
-23.27638652928437
 30
0.0
 40
0.3956164510627324
100
AcDbArc
 50
200.4572681781034
 51
285.875130959983
  0
ARC
  5
100000A5
102
{ACAD_XDICTIONARY
360
100000A6
102
}
330
1F
100
AcDbEntity
  8
VISIBLE
100
AcDbCircle
 10
50.0
 20
-25.0
 30
0.0
 40
4.535915878119019
100
AcDbArc
 50
20.45726817810352
 51
24.54273182189643
  0
ARC
  5
100000A8
102
{ACAD_XDICTIONARY
360
100000A9
102
}
330
1F
100
AcDbEntity
  8
VISIBLE
100
AcDbCircle
 10
54.48597693970873
 20
-22.95158060686628
 30
0.0
 40
0.3956164510627324
100
AcDbArc
 50
119.1248690400153
 51
204.5427318218969
  0
SPLINE
  5
100000AB
102
{ACAD_XDICTIONARY
360
100000AC
102
}
330
1F
100
AcDbEntity
  8
VISIBLE
100
AcDbSpline
210
0.0
220
0.0
230
1.0
 70
     8
 71
     3
 72
    44
 73
    40
 74
     0
 42
0.000000001
 43
0.00000001
 40
0.0374573816692536
 40
0.0374573816692536
 40
0.0374573816692536
 40
0.0374573816692536
 40
0.1173270388283835
 40
0.1245633749097421
 40
0.1339054427745929
 40
0.1449591259385422
 40
0.157492824253456
 40
0.1713493489450592
 40
0.186412979324603
 40
0.2025939139161435
 40
0.2198198341683084
 40
0.2380308751317531
 40
0.2571764150177153
 40
0.2772129162632477
 40
0.2981024128312286
 40
0.3198114144576313
 40
0.3423100907832787
 40
0.3655716496568647
 40
0.3895718539492967
 40
0.4142886395604836
 40
0.4397018088992017
 40
0.4657927816818093
 40
0.4925443899635603
 40
0.5199407077925865
 40
0.5479669083115218
 40
0.5766091428695075
 40
0.6058544379685353
 40
0.6356906067974987
 40
0.6661061728017248
 40
0.6970903032611986
 40
0.7286327512528589
 40
0.7607238046834918
 40
0.7933542413228106
 40
0.8265152889579642
 40
0.860198589943057
 40
0.8943961695393764
 40
0.9291004075405692
 40
0.9643040127571182
 40
0.9924917445823697
 40
0.9924917445823697
 40
0.9924917445823697
 40
0.9924917445823697
 10
54.29342463994798
 20
-22.60598548507155
 30
0.0
 10
54.51394836306876
 20
-22.48311815460057
 30
0.0
 10
54.70095722549124
 20
-22.37883670309899
 30
0.0
 10
54.70568199505507
 20
-22.37577731742708
 30
0.0
 10
54.71094066654449
 20
-22.37252948212886
 30
0.0
 10
54.71700510292075
 20
-22.36854678672802
 30
0.0
 10
54.72508918444429
 20
-22.36304060221715
 30
0.0
 10
54.73471358377764
 20
-22.35618502268988
 30
0.0
 10
54.74596032785973
 20
-22.34783541095932
 30
0.0
 10
54.75873144423134
 20
-22.3379498919024
 30
0.0
 10
54.77298171026693
 20
-22.32645713180518
 30
0.0
 10
54.78864755633786
 20
-22.31329683104636
 30
0.0
 10
54.80566839262228
 20
-22.29840767950017
 30
0.0
 10
54.8239803636262
 20
-22.28173098419302
 30
0.0
 10
54.8435182282577
 20
-22.26320967758148
 30
0.0
 10
54.86421487660589
 20
-22.24278866863573
 30
0.0
 10
54.88600153215052
 20
-22.22041480372336
 30
0.0
 10
54.90880775940886
 20
-22.19603693747622
 30
0.0
 10
54.93256152887159
 20
-22.16960597044233
 30
0.0
 10
54.95718926728551
 20
-22.14107489437638
 30
0.0
 10
54.98261591357628
 20
-22.11039883359109
 30
0.0
 10
55.00876497459839
 20
-22.07753508563108
 30
0.0
 10
55.03555858228331
 20
-22.0424431603326
 30
0.0
 10
55.06291755169091
 20
-22.00508481751082
 30
0.0
 10
55.09076144004445
 20
-21.96542410317388
 30
0.0
 10
55.11900860670159
 20
-21.92342738429672
 30
0.0
 10
55.14757627393443
 20
-21.87906338199938
 30
0.0
 10
55.17638058886111
 20
-21.83230320360887
 30
0.0
 10
55.20533668502241
 20
-21.78312037166947
 30
0.0
 10
55.23435874921313
 20
-21.73149085724034
 30
0.0
 10
55.26336007185741
 20
-21.67739308922218
 30
0.0
 10
55.2922531639902
 20
-21.62080804797335
 30
0.0
 10
55.32094962248073
 20
-21.56171902842503
 30
0.0
 10
55.34936096178311
 20
-21.5001126601355
 30
0.0
 10
55.37739575312487
 20
-21.43597511360024
 30
0.0
 10
55.40497087432234
 20
-21.36930669012633
 30
0.0
 10
55.43196888926298
 20
-21.30006621719937
 30
0.0
 10
55.45652168729774
 20
-21.23347979058493
 30
0.0
 10
55.47163831602391
 20
-21.18941907530069
 30
0.0
 10
55.47832892247065
 20
-21.1697840526396
 30
0.0
  0
ARC
  5
100000AE
102
{ACAD_XDICTIONARY
360
100000AF
102
}
330
1F
100
AcDbEntity
  8
VISIBLE
100
AcDbCircle
 10
50.0
 20
-25.0
 30
0.0
 40
6.684507609859605
100
AcDbArc
 50
34.95961864956084
 51
40.04038135043922
  0
SPLINE
  5
100000B1
102
{ACAD_XDICTIONARY
360
100000B2
102
}
330
1F
100
AcDbEntity
  8
VISIBLE
100
AcDbSpline
210
0.0
220
0.0
230
1.0
 70
     8
 71
     3
 72
    44
 73
    40
 74
     0
 42
0.000000001
 43
0.00000001
 40
0.0374573816692529
 40
0.0374573816692529
 40
0.0374573816692529
 40
0.0374573816692529
 40
0.1173270388283835
 40
0.1245633749097421
 40
0.1339054427745929
 40
0.1449591259385422
 40
0.157492824253456
 40
0.1713493489450592
 40
0.186412979324603
 40
0.2025939139161435
 40
0.2198198341683084
 40
0.2380308751317531
 40
0.2571764150177153
 40
0.2772129162632477
 40
0.2981024128312286
 40
0.3198114144576313
 40
0.3423100907832787
 40
0.3655716496568647
 40
0.3895718539492967
 40
0.4142886395604836
 40
0.4397018088992017
 40
0.4657927816818093
 40
0.4925443899635603
 40
0.5199407077925865
 40
0.5479669083115218
 40
0.5766091428695075
 40
0.6058544379685353
 40
0.6356906067974987
 40
0.6661061728017248
 40
0.6970903032611986
 40
0.7286327512528589
 40
0.7607238046834918
 40
0.7933542413228106
 40
0.8265152889579642
 40
0.860198589943057
 40
0.8943961695393764
 40
0.9291004075405692
 40
0.9643040127571182
 40
0.992491744582375
 40
0.992491744582375
 40
0.992491744582375
 40
0.992491744582375
 10
53.42366051401126
 20
-21.47248680776377
 30
0.0
 10
53.59941698116094
 20
-21.29127765343877
 30
0.0
 10
53.74854658356712
 20
-21.1376309891795
 30
0.0
 10
53.75272458354704
 20
-21.13385903951274
 30
0.0
 10
53.75722279587453
 20
-21.12962015453968
 30
0.0
 10
53.76263937585242
 20
-21.12479315624254
 30
0.0
 10
53.77005025593623
 20
-21.11840963853439
 30
0.0
 10
53.77916321510096
 20
-21.11088753720266
 30
0.0
 10
53.79013919227484
 20
-21.10218505516718
 30
0.0
 10
53.80299327858236
 20
-21.09240766463595
 30
0.0
 10
53.81778267262341
 20
-21.08161750983464
 30
0.0
 10
53.83454916632888
 20
-21.06989160099973
 30
0.0
 10
53.85333629893285
 20
-21.05730433163314
 30
0.0
 10
53.87418423647638
 20
-21.04393257226505
 30
0.0
 10
53.89713121633634
 20
-21.0298541111182
 30
0.0
 10
53.92221308303822
 20
-21.01514802999643
 30
0.0
 10
53.94946337837503
 20
-20.99989451908928
 30
0.0
 10
53.97891327493436
 20
-20.98417485124396
 30
0.0
 10
54.01059155653612
 20
-20.96807130949703
 30
0.0
 10
54.04452458749935
 20
-20.95166712678307
 30
0.0
 10
54.08073628717381
 20
-20.93504642121484
 30
0.0
 10
54.11924810508111
 20
-20.91829413170589
 30
0.0
 10
54.16007899797699
 20
-20.90149595266013
 30
0.0
 10
54.20324540847297
 20
-20.88473826814442
 30
0.0
 10
54.2487612453357
 20
-20.86810808549219
 30
0.0
 10
54.2966378654196
 20
-20.85169296837581
 30
0.0
 10
54.34688405735017
 20
-20.83558096951029
 30
0.0
 10
54.39950602658359
 20
-20.8198605625339
 30
0.0
 10
54.45450738332225
 20
-20.80462057502118
 30
0.0
 10
54.51188912764886
 20
-20.78995011531081
 30
0.0
 10
54.5716496535557
 20
-20.77593852143279
 30
0.0
 10
54.63378468879544
 20
-20.76267522388349
 30
0.0
 10
54.69828748881162
 20
-20.75024993711999
 30
0.0
 10
54.76514806671466
 20
-20.7387515921413
 30
0.0
 10
54.83435611727261
 20
-20.72827208169914
 30
0.0
 10
54.90588983584097
 20
-20.71889161767346
 30
0.0
 10
54.97975859731218
 20
-20.71073429086916
 30
0.0
 10
55.05043087820133
 20
-20.70425194449287
 30
0.0
 10
55.09690273243122
 20
-20.70105415465623
 30
0.0
 10
55.11760036429104
 20
-20.69967344291151
 30
0.0
  0
ARC
  5
100000B4
102
{ACAD_XDICTIONARY
360
100000B5
102
}
330
1F
100
AcDbEntity
  8
VISIBLE
100
AcDbCircle
 10
53.13967746278658
 20
-21.1970489690985
 30
0.0
 40
0.3956164510627324
100
AcDbArc
 50
230.4572681781037
 51
315.8751309599836
  0
ARC
  5
100000B7
102
{ACAD_XDICTIONARY
360
100000B8
102
}
330
1F
100
AcDbEntity
  8
VISIBLE
100
AcDbCircle
 10
50.0
 20
-25.0
 30
0.0
 40
4.535915878119019
100
AcDbArc
 50
50.45726817810353
 51
54.5427318218964
  0
ARC
  5
100000BA
102
{ACAD_XDICTIONARY
360
100000BB
102
}
330
1F
100
AcDbEntity
  8
VISIBLE
100
AcDbCircle
 10
52.86076029401207
 20
-20.98302829808713
 30
0.0
 40
0.3956164510627324
100
AcDbArc
 50
149.1248690400162
 51
234.5427318218966
  0
SPLINE
  5
100000BD
102
{ACAD_XDICTIONARY
360
100000BE
102
}
330
1F
100
AcDbEntity
  8
VISIBLE
100
AcDbSpline
210
0.0
220
0.0
230
1.0
 70
     8
 71
     3
 72
    44
 73
    40
 74
     0
 42
0.000000001
 43
0.00000001
 40
0.0374573816692532
 40
0.0374573816692532
 40
0.0374573816692532
 40
0.0374573816692532
 40
0.1173270388283835
 40
0.1245633749097421
 40
0.1339054427745929
 40
0.1449591259385422
 40
0.157492824253456
 40
0.1713493489450592
 40
0.186412979324603
 40
0.2025939139161435
 40
0.2198198341683084
 40
0.2380308751317531
 40
0.2571764150177153
 40
0.2772129162632477
 40
0.2981024128312286
 40
0.3198114144576313
 40
0.3423100907832787
 40
0.3655716496568647
 40
0.3895718539492967
 40
0.4142886395604836
 40
0.4397018088992017
 40
0.4657927816818093
 40
0.4925443899635603
 40
0.5199407077925865
 40
0.5479669083115218
 40
0.5766091428695075
 40
0.6058544379685353
 40
0.6356906067974987
 40
0.6661061728017248
 40
0.6970903032611986
 40
0.7286327512528589
 40
0.7607238046834918
 40
0.7933542413228106
 40
0.8265152889579642
 40
0.860198589943057
 40
0.8943961695393764
 40
0.9291004075405692
 40
0.9643040127571182
 40
0.9924917445823674
 40
0.9924917445823674
 40
0.9924917445823674
 40
0.9924917445823674
 10
52.52120754996478
 20
-20.78001029306929
 30
0.0
 10
52.65075303108902
 20
-20.56334220202586
 30
0.0
 10
52.76056673092892
 20
-20.37952738467073
 30
0.0
 10
52.76312880856226
 20
-20.37451549417697
 30
0.0
 10
52.76605903401315
 20
-20.36907345055669
 30
0.0
 10
52.76931964227421
 20
-20.36259211697591
 30
0.0
 10
52.77356756998443
 20
-20.3537815805498
 30
0.0
 10
52.77847475453963
 20
-20.34303227485484
 30
0.0
 10
52.7840399147593
 20
-20.33017792694339
 30
0.0
 10
52.79015726644336
 20
-20.31523125812471
 30
0.0
 10
52.79675197879225
 20
-20.29815310290311
 30
0.0
 10
52.80373884908204
 20
-20.27892302508907
 30
0.0
 10
52.81103474992491
 20
-20.25751822346707
 30
0.0
 10
52.81855503435409
 20
-20.23391979617793
 30
0.0
 10
52.8262146681549
 20
-20.20811094182531
 30
0.0
 10
52.83392798692476
 20
-20.18007750513329
 30
0.0
 10
52.84160885163372
 20
-20.14980784196601
 30
0.0
 10
52.84917069068035
 20
-20.11729287687676
 30
0.0
 10
52.85652657495377
 20
-20.08252610324746
 30
0.0
 10
52.86358928402501
 20
-20.04550359737009
 30
0.0
 10
52.87027137525322
 20
-20.00622402629659
 30
0.0
 10
52.87648525240346
 20
-19.96468865518861
 30
0.0
 10
52.8821432346684
 20
-19.92090135256996
 30
0.0
 10
52.88715762578586
 20
-19.87486859393921
 30
0.0
 10
52.89144078327169
 20
-19.8265994636144
 30
0.0
 10
52.89490518774312
 20
-19.77610565486263
 30
0.0
 10
52.89746351214496
 20
-19.72340146824316
 30
0.0
 10
52.89902869141481
 20
-19.66850380840814
 30
0.0
 10
52.89951399031522
 20
-19.61143217843792
 30
0.0
 10
52.89883307796008
 20
-19.55220867526187
 30
0.0
 10
52.8969000761043
 20
-19.49085797254797
 30
0.0
 10
52.89362970726076
 20
-19.4274073432859
 30
0.0
 10
52.88893705953805
 20
-19.36188652202707
 30
0.0
 10
52.88273881698468
 20
-19.29432817240226
 30
0.0
 10
52.87494888520882
 20
-19.22476603209543
 30
0.0
 10
52.8654954289413
 20
-19.15324192313802
 30
0.0
 10
52.85425615926816
 20
-19.07977890714292
 30
0.0
 10
52.84222629279302
 20
-19.00983697113019
 30
0.0
 10
52.83328731964736
 20
-18.96412095802205
 30
0.0
 10
52.8292640434664
 20
-18.9437712263703
 30
0.0
  0
ARC
  5
100000C0
102
{ACAD_XDICTIONARY
360
100000C1
102
}
330
1F
100
AcDbEntity
  8
VISIBLE
100
AcDbCircle
 10
50.0
 20
-25.0
 30
0.0
 40
6.684507609859605
100
AcDbArc
 50
64.95961864956087
 51
70.04038135043919
  0
SPLINE
  5
100000C3
102
{ACAD_XDICTIONARY
360
100000C4
102
}
330
1F
100
AcDbEntity
  8
VISIBLE
100
AcDbSpline
210
0.0
220
0.0
230
1.0
 70
     8
 71
     3
 72
    44
 73
    40
 74
     0
 42
0.000000001
 43
0.00000001
 40
0.0374573816692531
 40
0.0374573816692531
 40
0.0374573816692531
 40
0.0374573816692531
 40
0.1173270388283835
 40
0.1245633749097421
 40
0.1339054427745929
 40
0.1449591259385422
 40
0.157492824253456
 40
0.1713493489450592
 40
0.186412979324603
 40
0.2025939139161435
 40
0.2198198341683084
 40
0.2380308751317531
 40
0.2571764150177153
 40
0.2772129162632477
 40
0.2981024128312286
 40
0.3198114144576313
 40
0.3423100907832787
 40
0.3655716496568647
 40
0.3895718539492967
 40
0.4142886395604836
 40
0.4397018088992017
 40
0.4657927816818093
 40
0.4925443899635603
 40
0.5199407077925865
 40
0.5479669083115218
 40
0.5766091428695075
 40
0.6058544379685353
 40
0.6356906067974987
 40
0.6661061728017248
 40
0.6970903032611986
 40
0.7286327512528589
 40
0.7607238046834918
 40
0.7933542413228106
 40
0.8265152889579642
 40
0.860198589943057
 40
0.8943961695393764
 40
0.9291004075405692
 40
0.9643040127571182
 40
0.992491744582371
 40
0.992491744582371
 40
0.992491744582371
 40
0.992491744582371
 10
51.20122038294932
 20
-20.23325370633305
 30
0.0
 10
51.26282537121785
 20
-19.98844374171447
 30
0.0
 10
51.31515206322825
 20
-19.78081702605611
 30
0.0
 10
51.31688434251449
 20
-19.77546142183294
 30
0.0
 10
51.31866046617517
 20
-19.76954133359881
 30
0.0
 10
51.3209378628891
 20
-19.76265274046051
 30
0.0
 10
51.324164114452
 20
-19.75341901191784
 30
0.0
 10
51.32829511792644
 20
-19.74234820149237
 30
0.0
 10
51.33344935197263
 20
-19.72932364238672
 30
0.0
 10
51.33969262199178
 20
-19.7144291306502
 30
0.0
 10
51.34710553553725
 20
-19.69768988546097
 30
0.0
 10
51.35576279060111
 20
-19.67915170367473
 30
0.0
 10
51.36573929001714
 20
-19.65885724233701
 30
0.0
 10
51.37710825386229
 20
-19.63685299025919
 30
0.0
 10
51.38994169078773
 20
-19.61318719532985
 30
0.0
 10
51.404310183965
 20
-19.58791042213733
 30
0.0
 10
51.42028287653372
 20
-19.56107534652643
 30
0.0
 10
51.43792740117027
 20
-19.53273676655367
 30
0.0
 10
51.45730982691217
 20
-19.50295154950905
 30
0.0
 10
51.47849460239675
 20
-19.47177859506882
 30
0.0
 10
51.50154450144495
 20
-19.43927879198068
 30
0.0
 10
51.5265205693441
 20
-19.40551497474073
 30
0.0
 10
51.55348207032825
 20
-19.37055187850184
 30
0.0
 10
51.58248643615011
 20
-19.33445609275464
 30
0.0
 10
51.61358921582163
 20
-19.29729601367687
 30
0.0
 10
51.64684402650342
 20
-19.25914179520604
 30
0.0
 10
51.68230250572596
 20
-19.22006529891747
 30
0.0
 10
51.72001426439108
 20
-19.18014004250137
 30
0.0
 10
51.76002684281301
 20
-19.13944114779267
 30
0.0
 10
51.80238566125813
 20
-19.09804528483498
 30
0.0
 10
51.84713399789796
 20
-19.05603062563569
 30
0.0
 10
51.89431286810597
 20
-19.01347675540018
 30
0.0
 10
51.94396128815345
 20
-18.97046474140559
 30
0.0
 10
51.99611507463986
 20
-18.92707659360104
 30
0.0
 10
52.05081124934836
 20
-18.88339704605993
 30
0.0
 10
52.10807103484289
 20
-18.83950646663023
 30
0.0
 10
52.16796459542089
 20
-18.79550763365513
 30
0.0
 10
52.22592741282614
 20
-18.75455761657256
 30
0.0
 10
52.26457432423187
 20
-18.72855232222312
 30
0.0
 10
52.28180864334829
 20
-18.71700777484698
 30
0.0
  0
ARC
  5
100000C6
102
{ACAD_XDICTIONARY
360
100000C7
102
}
330
1F
100
AcDbEntity
  8
VISIBLE
100
AcDbCircle
 10
50.81756492701191
 20
-20.13670906649779
 30
0.0
 40
0.3956164510627324
100
AcDbArc
 50
260.4572681781025
 51
345.8751309599827
  0
ARC
  5
100000C9
102
{ACAD_XDICTIONARY
360
100000CA
102
}
330
1F
100
AcDbEntity
  8
VISIBLE
100
AcDbCircle
 10
50.0
 20
-25.0
 30
0.0
 40
4.535915878119019
100
AcDbArc
 50
80.45726817810349
 51
84.54273182189652
  0
ARC
  5
100000CC
102
{ACAD_XDICTIONARY
360
100000CD
102
}
330
1F
100
AcDbEntity
  8
VISIBLE
100
AcDbCircle
 10
50.46900523779586
 20
-20.09082031285422
 30
0.0
 40
0.3956164510627324
100
AcDbArc
 50
179.1248690400156
 51
264.5427318218967
  0
SPLINE
  5
100000CF
102
{ACAD_XDICTIONARY
360
100000D0
102
}
330
1F
100
AcDbEntity
  8
VISIBLE
100
AcDbSpline
210
0.0
220
0.0
230
1.0
 70
     8
 71
     3
 72
    44
 73
    40
 74
     0
 42
0.000000001
 43
0.00000001
 40
0.0374573816692529
 40
0.0374573816692529
 40
0.0374573816692529
 40
0.0374573816692529
 40
0.1173270388283835
 40
0.1245633749097421
 40
0.1339054427745929
 40
0.1449591259385422
 40
0.157492824253456
 40
0.1713493489450592
 40
0.186412979324603
 40
0.2025939139161435
 40
0.2198198341683084
 40
0.2380308751317531
 40
0.2571764150177153
 40
0.2772129162632477
 40
0.2981024128312286
 40
0.3198114144576313
 40
0.3423100907832787
 40
0.3655716496568647
 40
0.3895718539492967
 40
0.4142886395604836
 40
0.4397018088992017
 40
0.4657927816818093
 40
0.4925443899635603
 40
0.5199407077925865
 40
0.5479669083115218
 40
0.5766091428695075
 40
0.6058544379685353
 40
0.6356906067974987
 40
0.6661061728017248
 40
0.6970903032611986
 40
0.7286327512528589
 40
0.7607238046834918
 40
0.7933542413228106
 40
0.8265152889579642
 40
0.860198589943057
 40
0.8943961695393764
 40
0.9291004075405692
 40
0.9643040127571182
 40
0.9924917445823702
 40
0.9924917445823702
 40
0.9924917445823702
 40
0.9924917445823702
 10
50.07343493301726
 20
-20.08477793510678
 30
0.0
 10
50.07729056509462
 20
-19.83236512351156
 30
0.0
 10
50.08048461016198
 20
-19.61826997217007
 30
0.0
 10
50.08019748923203
 20
-19.61264850886482
 30
0.0
 10
50.08001411710118
 20
-19.60647044811571
 30
0.0
 10
50.07959721989666
 20
-19.59922714445381
 30
0.0
 10
50.07887076499409
 20
-19.58947303223273
 30
0.0
 10
50.07774585863247
 20
-19.57771026815025
 30
0.0
 10
50.07613825480311
 20
-19.56379549620001
 30
0.0
 10
50.07396270235605
 20
-19.54779262545906
 30
0.0
 10
50.07113481317004
 20
-19.52970515301293
 30
0.0
 10
50.06757058142693
 20
-19.50955798196433
 30
0.0
 10
50.06318661608934
 20
-19.48737292957527
 30
0.0
 10
50.05790015980413
 20
-19.46317594983893
 30
0.0
 10
50.05162917008301
 20
-19.43699500942658
 30
0.0
 10
50.04429238173918
 20
-19.40886068171098
 30
0.0
 10
50.03580937411654
 20
-19.37880595208964
 30
0.0
 10
50.02610063628562
 20
-19.34686624679588
 30
0.0
 10
50.01508763211905
 20
-19.31307939548856
 30
0.0
 10
50.0026928646556
 20
-19.27748561035137
 30
0.0
 10
49.98883993987289
 20
-19.24012745833787
 30
0.0
 10
49.973453629787
 20
-19.20104983322762
 30
0.0
 10
49.95645993485326
 20
-19.16029992566421
 30
0.0
 10
49.93778614563012
 20
-19.11792719172497
 30
0.0
 10
49.91736090365887
 20
-19.07398331990219
 30
0.0
 10
49.89511426156421
 20
-19.02852219655361
 30
0.0
 10
49.87097774217759
 20
-18.98159986985443
 30
0.0
 10
49.84488439726926
 20
-18.93327451219406
 30
0.0
 10
49.81676886346033
 20
-18.88360638135425
 30
0.0
 10
49.786567424475
 20
-18.83265777928026
 30
0.0
 10
49.75421804440538
 20
-18.78049301311789
 30
0.0
 10
49.7196605072761
 20
-18.72717834071259
 30
0.0
 10
49.68283614450781
 20
-18.67278196888698
 30
0.0
 10
49.64368913418537
 20
-18.61737384315083
 30
0.0
 10
49.6021617852203
 20
-18.56102622839143
 30
0.0
 10
49.55821279746036
 20
-18.50381126118503
 30
0.0
 10
49.51174779640589
 20
-18.44581005793121
 30
0.0
 10
49.46635865842793
 20
-18.39125349779189
 30
0.0
 10
49.43575927404596
 20
-18.35613175565333
 30
0.0
 10
49.42210014884094
 20
-18.3405200091732
 30
0.0
  0
ARC
  5
100000D2
102
{ACAD_XDICTIONARY
360
100000D3
102
}
330
1F
100
AcDbEntity
  8
VISIBLE
100
AcDbCircle
 10
50.0
 20
-25.0
 30
0.0
 40
6.684507609859605
100
AcDbArc
 50
94.95961864956084
 51
100.0403813504391
  0
SPLINE
  5
100000D5
102
{ACAD_XDICTIONARY
360
100000D6
102
}
330
1F
100
AcDbEntity
  8
VISIBLE
100
AcDbSpline
210
0.0
220
0.0
230
1.0
 70
     8
 71
     3
 72
    44
 73
    40
 74
     0
 42
0.000000001
 43
0.00000001
 40
0.0374573816692531
 40
0.0374573816692531
 40
0.0374573816692531
 40
0.0374573816692531
 40
0.1173270388283835
 40
0.1245633749097421
 40
0.1339054427745929
 40
0.1449591259385422
 40
0.157492824253456
 40
0.1713493489450592
 40
0.186412979324603
 40
0.2025939139161435
 40
0.2198198341683084
 40
0.2380308751317531
 40
0.2571764150177153
 40
0.2772129162632477
 40
0.2981024128312286
 40
0.3198114144576313
 40
0.3423100907832787
 40
0.3655716496568647
 40
0.3895718539492967
 40
0.4142886395604836
 40
0.4397018088992017
 40
0.4657927816818093
 40
0.4925443899635603
 40
0.5199407077925865
 40
0.5479669083115218
 40
0.5766091428695075
 40
0.6058544379685353
 40
0.6356906067974987
 40
0.6661061728017248
 40
0.6970903032611986
 40
0.7286327512528589
 40
0.7607238046834918
 40
0.7933542413228106
 40
0.8265152889579642
 40
0.860198589943057
 40
0.8943961695393764
 40
0.9291004075405692
 40
0.9643040127571182
 40
0.9924917445823723
 40
0.9924917445823723
 40
0.9924917445823723
 40
0.9924917445823723
 10
48.65691422034431
 20
-20.27126642481445
 30
0.0
 10
48.58786072287542
 20
-20.02845228222091
 30
0.0
 10
48.52936360962323
 20
-19.82247892595126
 30
0.0
 10
48.52818600537999
 20
-19.81697469699826
 30
0.0
 10
48.52676412947334
 20
-19.81095968836451
 30
0.0
 10
48.52529211631293
 20
-19.80385529335344
 30
0.0
 10
48.52346926785408
 20
-19.79424552408239
 30
0.0
 10
48.52151141659332
 20
-19.78259241927623
 30
0.0
 10
48.51946283466155
 20
-19.76873570319456
 30
0.0
 10
48.51742240923256
 20
-19.75271504264418
 30
0.0
 10
48.51547255808438
 20
-19.7345119742974
 30
0.0
 10
48.51370087000362
 20
-19.71412881039862
 30
0.0
 10
48.51219354126986
 20
-19.69156504161601
 30
0.0
 10
48.51103722673557
 20
-19.66682431840277
 30
0.0
 10
48.51031841166619
 20
-19.63991242033049
 30
0.0
 10
48.51012350517556
 20
-19.61083784603143
 30
0.0
 10
48.51053872490146
 20
-19.57961164255556
 30
0.0
 10
48.51165004148802
 20
-19.54624745007369
 30
0.0
 10
48.51354310604517
 20
-19.51076148258486
 30
0.0
 10
48.51630318256817
 20
-19.47317252438632
 30
0.0
 10
48.5200150791545
 20
-19.43350191976991
 30
0.0
 10
48.52476307982185
 20
-19.3917735623618
 30
0.0
 10
48.53063087647883
 20
-19.34801388233188
 30
0.0
 10
48.5377015012276
 20
-19.30225183199432
 30
0.0
 10
48.54605725901257
 20
-19.25451886967057
 30
0.0
 10
48.55577966062564
 20
-19.20484894187239
 30
0.0
 10
48.56694935626763
 20
-19.15327846378434
 30
0.0
 10
48.57964606908496
 20
-19.09984629814283
 30
0.0
 10
48.59394853111492
 20
-19.04459373220817
 30
0.0
 10
48.60993441248385
 20
-18.98756445405268
 30
0.0
 10
48.6276802791914
 20
-18.92880452353483
 30
0.0
 10
48.64726144419561
 20
-18.86836235577752
 30
0.0
 10
48.66875223021721
 20
-18.80628864896654
 30
0.0
 10
48.6922246603157
 20
-18.74263651750145
 30
0.0
 10
48.71775316333255
 20
-18.67746083235078
 30
0.0
 10
48.7453963024712
 20
-18.61082058283058
 30
0.0
 10
48.7752662309673
 20
-18.54276969544827
 30
0.0
 10
48.80498849477389
 20
-18.47832453166673
 30
0.0
 10
48.82545505465433
 20
-18.43647983042436
 30
0.0
 10
48.83460813913801
 20
-18.41786479956322
 30
0.0
  0
ARC
  5
100000D8
102
{ACAD_XDICTIONARY
360
100000D9
102
}
330
1F
100
AcDbEntity
  8
VISIBLE
100
AcDbCircle
 10
48.27638652928437
 20
-20.3794840420866
 30
0.0
 40
0.3956164510627324
100
AcDbArc
 50
290.4572681781036
 51
15.87513095998444
  0
ARC
  5
100000DB
102
{ACAD_XDICTIONARY
360
100000DC
102
}
330
1F
100
AcDbEntity
  8
VISIBLE
100
AcDbCircle
 10
50.0
 20
-25.0
 30
0.0
 40
4.535915878119019
100
AcDbArc
 50
110.4572681781035
 51
114.5427318218966
  0
ARC
  5
100000DE
102
{ACAD_XDICTIONARY
360
100000DF
102
}
330
1F
100
AcDbEntity
  8
VISIBLE
100
AcDbCircle
 10
47.95158060686629
 20
-20.51402306029128
 30
0.0
 40
0.3956164510627324
100
AcDbArc
 50
209.1248690400161
 51
294.5427318218946
  0
SPLINE
  5
100000E1
102
{ACAD_XDICTIONARY
360
100000E2
102
}
330
1F
100
AcDbEntity
  8
VISIBLE
100
AcDbSpline
210
0.0
220
0.0
230
1.0
 70
     8
 71
     3
 72
    44
 73
    40
 74
     0
 42
0.000000001
 43
0.00000001
 40
0.0374573816692523
 40
0.0374573816692523
 40
0.0374573816692523
 40
0.0374573816692523
 40
0.1173270388283835
 40
0.1245633749097421
 40
0.1339054427745929
 40
0.1449591259385422
 40
0.157492824253456
 40
0.1713493489450592
 40
0.186412979324603
 40
0.2025939139161435
 40
0.2198198341683084
 40
0.2380308751317531
 40
0.2571764150177153
 40
0.2772129162632477
 40
0.2981024128312286
 40
0.3198114144576313
 40
0.3423100907832787
 40
0.3655716496568647
 40
0.3895718539492967
 40
0.4142886395604836
 40
0.4397018088992017
 40
0.4657927816818093
 40
0.4925443899635603
 40
0.5199407077925865
 40
0.5479669083115218
 40
0.5766091428695075
 40
0.6058544379685353
 40
0.6356906067974987
 40
0.6661061728017248
 40
0.6970903032611986
 40
0.7286327512528589
 40
0.7607238046834918
 40
0.7933542413228106
 40
0.8265152889579642
 40
0.860198589943057
 40
0.8943961695393764
 40
0.9291004075405692
 40
0.9643040127571182
 40
0.9924917445823702
 40
0.9924917445823702
 40
0.9924917445823702
 40
0.9924917445823702
 10
47.60598548507154
 20
-20.70657536005203
 30
0.0
 10
47.48311815460058
 20
-20.48605163693124
 30
0.0
 10
47.37883670309899
 20
-20.29904277450876
 30
0.0
 10
47.37577731742708
 20
-20.29431800494493
 30
0.0
 10
47.37252948212886
 20
-20.28905933345552
 30
0.0
 10
47.36854678672803
 20
-20.28299489707925
 30
0.0
 10
47.36304060221716
 20
-20.27491081555571
 30
0.0
 10
47.35618502268989
 20
-20.26528641622237
 30
0.0
 10
47.34783541095932
 20
-20.25403967214028
 30
0.0
 10
47.33794989190241
 20
-20.24126855576866
 30
0.0
 10
47.32645713180518
 20
-20.22701828973307
 30
0.0
 10
47.31329683104637
 20
-20.21135244366215
 30
0.0
 10
47.29840767950018
 20
-20.19433160737773
 30
0.0
 10
47.28173098419303
 20
-20.1760196363738
 30
0.0
 10
47.26320967758149
 20
-20.15648177174231
 30
0.0
 10
47.24278866863574
 20
-20.13578512339411
 30
0.0
 10
47.22041480372337
 20
-20.11399846784948
 30
0.0
 10
47.19603693747622
 20
-20.09119224059115
 30
0.0
 10
47.16960597044232
 20
-20.06743847112842
 30
0.0
 10
47.14107489437639
 20
-20.04281073271449
 30
0.0
 10
47.1103988335911
 20
-20.01738408642371
 30
0.0
 10
47.07753508563109
 20
-19.99123502540162
 30
0.0
 10
47.0424431603326
 20
-19.9644414177167
 30
0.0
 10
47.00508481751083
 20
-19.93708244830909
 30
0.0
 10
46.96542410317389
 20
-19.90923855995554
 30
0.0
 10
46.92342738429672
 20
-19.88099139329842
 30
0.0
 10
46.87906338199939
 20
-19.85242372606557
 30
0.0
 10
46.83230320360888
 20
-19.82361941113889
 30
0.0
 10
46.78312037166948
 20
-19.79466331497759
 30
0.0
 10
46.73149085724034
 20
-19.76564125078687
 30
0.0
 10
46.67739308922219
 20
-19.73663992814259
 30
0.0
 10
46.62080804797336
 20
-19.7077468360098
 30
0.0
 10
46.56171902842504
 20
-19.67905037751927
 30
0.0
 10
46.50011266013551
 20
-19.65063903821689
 30
0.0
 10
46.43597511360024
 20
-19.62260424687513
 30
0.0
 10
46.36930669012633
 20
-19.59502912567766
 30
0.0
 10
46.30006621719938
 20
-19.56803111073703
 30
0.0
 10
46.23347979058493
 20
-19.54347831270227
 30
0.0
 10
46.1894190753007
 20
-19.52836168397609
 30
0.0
 10
46.16978405263961
 20
-19.52167107752936
 30
0.0
  0
ARC
  5
100000E4
102
{ACAD_XDICTIONARY
360
100000E5
102
}
330
1F
100
AcDbEntity
  8
VISIBLE
100
AcDbCircle
 10
50.0
 20
-25.0
 30
0.0
 40
6.684507609859605
100
AcDbArc
 50
124.9596186495609
 51
130.0403813504391
  0
SPLINE
  5
100000E7
102
{ACAD_XDICTIONARY
360
100000E8
102
}
330
1F
100
AcDbEntity
  8
VISIBLE
100
AcDbSpline
210
0.0
220
0.0
230
1.0
 70
     8
 71
     3
 72
    44
 73
    40
 74
     0
 42
0.000000001
 43
0.00000001
 40
0.0374573816692512
 40
0.0374573816692512
 40
0.0374573816692512
 40
0.0374573816692512
 40
0.1173270388283835
 40
0.1245633749097421
 40
0.1339054427745929
 40
0.1449591259385422
 40
0.157492824253456
 40
0.1713493489450592
 40
0.186412979324603
 40
0.2025939139161435
 40
0.2198198341683084
 40
0.2380308751317531
 40
0.2571764150177153
 40
0.2772129162632477
 40
0.2981024128312286
 40
0.3198114144576313
 40
0.3423100907832787
 40
0.3655716496568647
 40
0.3895718539492967
 40
0.4142886395604836
 40
0.4397018088992017
 40
0.4657927816818093
 40
0.4925443899635603
 40
0.5199407077925865
 40
0.5479669083115218
 40
0.5766091428695075
 40
0.6058544379685353
 40
0.6356906067974987
 40
0.6661061728017248
 40
0.6970903032611986
 40
0.7286327512528589
 40
0.7607238046834918
 40
0.7933542413228106
 40
0.8265152889579642
 40
0.860198589943057
 40
0.8943961695393764
 40
0.9291004075405692
 40
0.9643040127571182
 40
0.9924917445823698
 40
0.9924917445823698
 40
0.9924917445823698
 40
0.9924917445823698
 10
46.47248680776377
 20
-21.57633948598875
 30
0.0
 10
46.29127765343878
 20
-21.40058301883907
 30
0.0
 10
46.13763098917949
 20
-21.25145341643288
 30
0.0
 10
46.13385903951274
 20
-21.24727541645296
 30
0.0
 10
46.12962015453968
 20
-21.24277720412548
 30
0.0
 10
46.12479315624254
 20
-21.23736062414758
 30
0.0
 10
46.11840963853438
 20
-21.22994974406377
 30
0.0
 10
46.11088753720266
 20
-21.22083678489905
 30
0.0
 10
46.1021850551672
 20
-21.20986080772517
 30
0.0
 10
46.09240766463596
 20
-21.19700672141764
 30
0.0
 10
46.08161750983465
 20
-21.18221732737659
 30
0.0
 10
46.06989160099974
 20
-21.16545083367112
 30
0.0
 10
46.05730433163315
 20
-21.14666370106714
 30
0.0
 10
46.04393257226506
 20
-21.12581576352363
 30
0.0
 10
46.0298541111182
 20
-21.10286878366366
 30
0.0
 10
46.01514802999644
 20
-21.07778691696177
 30
0.0
 10
45.99989451908928
 20
-21.05053662162497
 30
0.0
 10
45.98417485124396
 20
-21.02108672506565
 30
0.0
 10
45.96807130949703
 20
-20.98940844346388
 30
0.0
 10
45.95166712678308
 20
-20.95547541250065
 30
0.0
 10
45.93504642121484
 20
-20.91926371282618
 30
0.0
 10
45.9182941317059
 20
-20.88075189491889
 30
0.0
 10
45.90149595266014
 20
-20.83992100202302
 30
0.0
 10
45.88473826814443
 20
-20.79675459152704
 30
0.0
 10
45.8681080854922
 20
-20.7512387546643
 30
0.0
 10
45.85169296837581
 20
-20.7033621345804
 30
0.0
 10
45.83558096951029
 20
-20.65311594264985
 30
0.0
 10
45.8198605625339
 20
-20.60049397341641
 30
0.0
 10
45.80462057502119
 20
-20.54549261667774
 30
0.0
 10
45.78995011531081
 20
-20.48811087235114
 30
0.0
 10
45.77593852143279
 20
-20.4283503464443
 30
0.0
 10
45.7626752238835
 20
-20.36621531120456
 30
0.0
 10
45.75024993712
 20
-20.30171251118839
 30
0.0
 10
45.73875159214131
 20
-20.23485193328533
 30
0.0
 10
45.72827208169914
 20
-20.16564388272739
 30
0.0
 10
45.71889161767346
 20
-20.09411016415904
 30
0.0
 10
45.71073429086916
 20
-20.02024140268783
 30
0.0
 10
45.70425194449287
 20
-19.94956912179868
 30
0.0
 10
45.70105415465623
 20
-19.90309726756879
 30
0.0
 10
45.69967344291151
 20
-19.88239963570897
 30
0.0
  0
ARC
  5
100000EA
102
{ACAD_XDICTIONARY
360
100000EB
102
}
330
1F
100
AcDbEntity
  8
VISIBLE
100
AcDbCircle
 10
46.1970489690985
 20
-21.86032253721342
 30
0.0
 40
0.3956164510627324
100
AcDbArc
 50
320.457268178103
 51
45.87513095998318
  0
ARC
  5
100000ED
102
{ACAD_XDICTIONARY
360
100000EE
102
}
330
1F
100
AcDbEntity
  8
VISIBLE
100
AcDbCircle
 10
50.0
 20
-25.0
 30
0.0
 40
4.535915878119019
100
AcDbArc
 50
140.4572681781035
 51
144.5427318218965
  0
ARC
  5
100000F0
102
{ACAD_XDICTIONARY
360
100000F1
102
}
330
1F
100
AcDbEntity
  8
VISIBLE
100
AcDbCircle
 10
45.98302829808714
 20
-22.13923970598793
 30
0.0
 40
0.3956164510627324
100
AcDbArc
 50
239.124869040016
 51
324.542731821896
  0
SPLINE
  5
100000F3
102
{ACAD_XDICTIONARY
360
100000F4
102
}
330
1F
100
AcDbEntity
  8
VISIBLE
100
AcDbSpline
210
0.0
220
0.0
230
1.0
 70
     8
 71
     3
 72
    44
 73
    40
 74
     0
 42
0.000000001
 43
0.00000001
 40
0.0374573816692521
 40
0.0374573816692521
 40
0.0374573816692521
 40
0.0374573816692521
 40
0.1173270388283835
 40
0.1245633749097421
 40
0.1339054427745929
 40
0.1449591259385422
 40
0.157492824253456
 40
0.1713493489450592
 40
0.186412979324603
 40
0.2025939139161435
 40
0.2198198341683084
 40
0.2380308751317531
 40
0.2571764150177153
 40
0.2772129162632477
 40
0.2981024128312286
 40
0.3198114144576313
 40
0.3423100907832787
 40
0.3655716496568647
 40
0.3895718539492967
 40
0.4142886395604836
 40
0.4397018088992017
 40
0.4657927816818093
 40
0.4925443899635603
 40
0.5199407077925865
 40
0.5479669083115218
 40
0.5766091428695075
 40
0.6058544379685353
 40
0.6356906067974987
 40
0.6661061728017248
 40
0.6970903032611986
 40
0.7286327512528589
 40
0.7607238046834918
 40
0.7933542413228106
 40
0.8265152889579642
 40
0.860198589943057
 40
0.8943961695393764
 40
0.9291004075405692
 40
0.9643040127571182
 40
0.9924917445823692
 40
0.9924917445823692
 40
0.9924917445823692
 40
0.9924917445823692
 10
45.7800102930693
 20
-22.47879245003523
 30
0.0
 10
45.56334220202587
 20
-22.34924696891099
 30
0.0
 10
45.37952738467074
 20
-22.23943326907108
 30
0.0
 10
45.37451549417698
 20
-22.23687119143774
 30
0.0
 10
45.3690734505567
 20
-22.23394096598685
 30
0.0
 10
45.36259211697591
 20
-22.23068035772578
 30
0.0
 10
45.3537815805498
 20
-22.22643243001558
 30
0.0
 10
45.34303227485484
 20
-22.22152524546037
 30
0.0
 10
45.33017792694339
 20
-22.2159600852407
 30
0.0
 10
45.3152312581247
 20
-22.20984273355665
 30
0.0
 10
45.29815310290311
 20
-22.20324802120775
 30
0.0
 10
45.27892302508909
 20
-22.19626115091796
 30
0.0
 10
45.25751822346707
 20
-22.1889652500751
 30
0.0
 10
45.23391979617794
 20
-22.18144496564591
 30
0.0
 10
45.20811094182532
 20
-22.1737853318451
 30
0.0
 10
45.18007750513329
 20
-22.16607201307525
 30
0.0
 10
45.14980784196602
 20
-22.15839114836628
 30
0.0
 10
45.11729287687677
 20
-22.15082930931966
 30
0.0
 10
45.08252610324745
 20
-22.14347342504623
 30
0.0
 10
45.04550359737009
 20
-22.13641071597499
 30
0.0
 10
45.0062240262966
 20
-22.12972862474678
 30
0.0
 10
44.96468865518862
 20
-22.12351474759654
 30
0.0
 10
44.92090135256996
 20
-22.11785676533161
 30
0.0
 10
44.87486859393922
 20
-22.11284237421415
 30
0.0
 10
44.82659946361441
 20
-22.10855921672831
 30
0.0
 10
44.77610565486263
 20
-22.10509481225689
 30
0.0
 10
44.72340146824316
 20
-22.10253648785505
 30
0.0
 10
44.66850380840815
 20
-22.10097130858519
 30
0.0
 10
44.61143217843792
 20
-22.10048600968478
 30
0.0
 10
44.55220867526188
 20
-22.10116692203992
 30
0.0
 10
44.49085797254797
 20
-22.10309992389571
 30
0.0
 10
44.42740734328591
 20
-22.10637029273925
 30
0.0
 10
44.36188652202707
 20
-22.11106294046195
 30
0.0
 10
44.29432817240225
 20
-22.11726118301532
 30
0.0
 10
44.22476603209544
 20
-22.12505111479118
 30
0.0
 10
44.15324192313802
 20
-22.1345045710587
 30
0.0
 10
44.07977890714292
 20
-22.14574384073184
 30
0.0
 10
44.0098369711302
 20
-22.15777370720697
 30
0.0
 10
43.96412095802206
 20
-22.16671268035264
 30
0.0
 10
43.9437712263703
 20
-22.17073595653359
 30
0.0
  0
ARC
  5
100000F6
102
{ACAD_XDICTIONARY
360
100000F7
102
}
330
1F
100
AcDbEntity
  8
VISIBLE
100
AcDbCircle
 10
50.0
 20
-25.0
 30
0.0
 40
6.684507609859605
100
AcDbArc
 50
154.9596186495608
 51
160.0403813504392
  0
SPLINE
  5
100000F9
102
{ACAD_XDICTIONARY
360
100000FA
102
}
330
1F
100
AcDbEntity
  8
VISIBLE
100
AcDbSpline
210
0.0
220
0.0
230
1.0
 70
     8
 71
     3
 72
    44
 73
    40
 74
     0
 42
0.000000001
 43
0.00000001
 40
0.0374573816692526
 40
0.0374573816692526
 40
0.0374573816692526
 40
0.0374573816692526
 40
0.1173270388283835
 40
0.1245633749097421
 40
0.1339054427745929
 40
0.1449591259385422
 40
0.157492824253456
 40
0.1713493489450592
 40
0.186412979324603
 40
0.2025939139161435
 40
0.2198198341683084
 40
0.2380308751317531
 40
0.2571764150177153
 40
0.2772129162632477
 40
0.2981024128312286
 40
0.3198114144576313
 40
0.3423100907832787
 40
0.3655716496568647
 40
0.3895718539492967
 40
0.4142886395604836
 40
0.4397018088992017
 40
0.4657927816818093
 40
0.4925443899635603
 40
0.5199407077925865
 40
0.5479669083115218
 40
0.5766091428695075
 40
0.6058544379685353
 40
0.6356906067974987
 40
0.6661061728017248
 40
0.6970903032611986
 40
0.7286327512528589
 40
0.7607238046834918
 40
0.7933542413228106
 40
0.8265152889579642
 40
0.860198589943057
 40
0.8943961695393764
 40
0.9291004075405692
 40
0.9643040127571182
 40
0.9924917445823701
 40
0.9924917445823701
 40
0.9924917445823701
 40
0.9924917445823701
 10
45.23325370633307
 20
-23.79877961705068
 30
0.0
 10
44.98844374171448
 20
-23.73717462878215
 30
0.0
 10
44.78081702605611
 20
-23.68484793677176
 30
0.0
 10
44.77546142183294
 20
-23.68311565748552
 30
0.0
 10
44.76954133359881
 20
-23.68133953382483
 30
0.0
 10
44.76265274046051
 20
-23.67906213711091
 30
0.0
 10
44.75341901191784
 20
-23.675835885548
 30
0.0
 10
44.74234820149236
 20
-23.67170488207357
 30
0.0
 10
44.72932364238673
 20
-23.66655064802737
 30
0.0
 10
44.7144291306502
 20
-23.66030737800823
 30
0.0
 10
44.69768988546097
 20
-23.65289446446276
 30
0.0
 10
44.67915170367474
 20
-23.64423720939889
 30
0.0
 10
44.65885724233701
 20
-23.63426070998288
 30
0.0
 10
44.6368529902592
 20
-23.62289174613772
 30
0.0
 10
44.61318719532985
 20
-23.61005830921228
 30
0.0
 10
44.58791042213733
 20
-23.595689816035
 30
0.0
 10
44.56107534652644
 20
-23.57971712346628
 30
0.0
 10
44.53273676655367
 20
-23.56207259882974
 30
0.0
 10
44.50295154950905
 20
-23.54269017308783
 30
0.0
 10
44.47177859506883
 20
-23.52150539760325
 30
0.0
 10
44.43927879198068
 20
-23.49845549855506
 30
0.0
 10
44.40551497474074
 20
-23.4734794306559
 30
0.0
 10
44.37055187850185
 20
-23.44651792967176
 30
0.0
 10
44.33445609275464
 20
-23.41751356384991
 30
0.0
 10
44.29729601367687
 20
-23.38641078417838
 30
0.0
 10
44.25914179520604
 20
-23.35315597349658
 30
0.0
 10
44.22006529891748
 20
-23.31769749427405
 30
0.0
 10
44.18014004250137
 20
-23.27998573560893
 30
0.0
 10
44.13944114779267
 20
-23.23997315718699
 30
0.0
 10
44.09804528483498
 20
-23.19761433874187
 30
0.0
 10
44.05603062563569
 20
-23.15286600210204
 30
0.0
 10
44.01347675540018
 20
-23.10568713189403
 30
0.0
 10
43.97046474140559
 20
-23.05603871184655
 30
0.0
 10
43.92707659360104
 20
-23.00388492536015
 30
0.0
 10
43.88339704605993
 20
-22.94918875065165
 30
0.0
 10
43.83950646663023
 20
-22.89192896515713
 30
0.0
 10
43.79550763365513
 20
-22.83203540457911
 30
0.0
 10
43.75455761657255
 20
-22.77407258717387
 30
0.0
 10
43.72855232222312
 20
-22.73542567576814
 30
0.0
 10
43.71700777484698
 20
-22.71819135665172
 30
0.0
  0
ARC
  5
100000FC
102
{ACAD_XDICTIONARY
360
100000FD
102
}
330
1F
100
AcDbEntity
  8
VISIBLE
100
AcDbCircle
 10
45.13670906649779
 20
-24.1824350729881
 30
0.0
 40
0.3956164510627324
100
AcDbArc
 50
350.457268178103
 51
75.87513095998361
  0
ARC
  5
100000FF
102
{ACAD_XDICTIONARY
360
10000100
102
}
330
1F
100
AcDbEntity
  8
VISIBLE
100
AcDbCircle
 10
50.0
 20
-25.0
 30
0.0
 40
4.535915878119019
100
AcDbArc
 50
170.4572681781036
 51
174.5427318218965
  0
ARC
  5
10000102
102
{ACAD_XDICTIONARY
360
10000103
102
}
330
1F
100
AcDbEntity
  8
VISIBLE
100
AcDbCircle
 10
45.09082031285422
 20
-24.53099476220414
 30
0.0
 40
0.3956164510627324
100
AcDbArc
 50
269.1248690400156
 51
354.5427318218966
  0
SPLINE
  5
10000105
102
{ACAD_XDICTIONARY
360
10000106
102
}
330
1F
100
AcDbEntity
  8
VISIBLE
100
AcDbSpline
210
0.0
220
0.0
230
1.0
 70
     8
 71
     3
 72
    44
 73
    40
 74
     0
 42
0.000000001
 43
0.00000001
 40
0.0374573816692519
 40
0.0374573816692519
 40
0.0374573816692519
 40
0.0374573816692519
 40
0.1173270388283835
 40
0.1245633749097421
 40
0.1339054427745929
 40
0.1449591259385422
 40
0.157492824253456
 40
0.1713493489450592
 40
0.186412979324603
 40
0.2025939139161435
 40
0.2198198341683084
 40
0.2380308751317531
 40
0.2571764150177153
 40
0.2772129162632477
 40
0.2981024128312286
 40
0.3198114144576313
 40
0.3423100907832787
 40
0.3655716496568647
 40
0.3895718539492967
 40
0.4142886395604836
 40
0.4397018088992017
 40
0.4657927816818093
 40
0.4925443899635603
 40
0.5199407077925865
 40
0.5479669083115218
 40
0.5766091428695075
 40
0.6058544379685353
 40
0.6356906067974987
 40
0.6661061728017248
 40
0.6970903032611986
 40
0.7286327512528589
 40
0.7607238046834918
 40
0.7933542413228106
 40
0.8265152889579642
 40
0.860198589943057
 40
0.8943961695393764
 40
0.9291004075405692
 40
0.9643040127571182
 40
0.9924917445823699
 40
0.9924917445823699
 40
0.9924917445823699
 40
0.9924917445823699
 10
45.08477793510679
 20
-24.92656506698274
 30
0.0
 10
44.83236512351156
 20
-24.92270943490539
 30
0.0
 10
44.61826997217007
 20
-24.91951538983803
 30
0.0
 10
44.61264850886482
 20
-24.91980251076797
 30
0.0
 10
44.60647044811571
 20
-24.91998588289882
 30
0.0
 10
44.59922714445381
 20
-24.92040278010335
 30
0.0
 10
44.58947303223273
 20
-24.92112923500592
 30
0.0
 10
44.57771026815024
 20
-24.92225414136753
 30
0.0
 10
44.56379549620002
 20
-24.92386174519688
 30
0.0
 10
44.54779262545905
 20
-24.92603729764396
 30
0.0
 10
44.52970515301294
 20
-24.92886518682996
 30
0.0
 10
44.50955798196433
 20
-24.93242941857308
 30
0.0
 10
44.48737292957527
 20
-24.93681338391066
 30
0.0
 10
44.46317594983893
 20
-24.94209984019587
 30
0.0
 10
44.43699500942659
 20
-24.94837082991699
 30
0.0
 10
44.40886068171099
 20
-24.95570761826083
 30
0.0
 10
44.37880595208964
 20
-24.96419062588347
 30
0.0
 10
44.34686624679588
 20
-24.97389936371439
 30
0.0
 10
44.31307939548856
 20
-24.98491236788096
 30
0.0
 10
44.27748561035137
 20
-24.99730713534441
 30
0.0
 10
44.24012745833787
 20
-25.01116006012712
 30
0.0
 10
44.20104983322763
 20
-25.026546370213
 30
0.0
 10
44.16029992566421
 20
-25.04354006514674
 30
0.0
 10
44.11792719172498
 20
-25.06221385436988
 30
0.0
 10
44.0739833199022
 20
-25.08263909634114
 30
0.0
 10
44.02852219655362
 20
-25.1048857384358
 30
0.0
 10
43.98159986985443
 20
-25.12902225782241
 30
0.0
 10
43.93327451219406
 20
-25.15511560273075
 30
0.0
 10
43.88360638135426
 20
-25.18323113653967
 30
0.0
 10
43.83265777928027
 20
-25.213432575525
 30
0.0
 10
43.78049301311789
 20
-25.24578195559463
 30
0.0
 10
43.72717834071261
 20
-25.2803394927239
 30
0.0
 10
43.67278196888699
 20
-25.3171638554922
 30
0.0
 10
43.61737384315083
 20
-25.35631086581464
 30
0.0
 10
43.56102622839143
 20
-25.3978382147797
 30
0.0
 10
43.50381126118503
 20
-25.44178720253964
 30
0.0
 10
43.44581005793122
 20
-25.48825220359411
 30
0.0
 10
43.39125349779191
 20
-25.53364134157207
 30
0.0
 10
43.35613175565334
 20
-25.56424072595404
 30
0.0
 10
43.34052000917321
 20
-25.57789985115906
 30
0.0
  0
ARC
  5
10000108
102
{ACAD_XDICTIONARY
360
10000109
102
}
330
1F
100
AcDbEntity
  8
VISIBLE
100
AcDbCircle
 10
50.0
 20
-25.0
 30
0.0
 40
6.684507609859605
100
AcDbArc
 50
184.9596186495608
 51
190.0403813504392
  0
SPLINE
  5
1000010B
102
{ACAD_XDICTIONARY
360
1000010C
102
}
330
1F
100
AcDbEntity
  8
VISIBLE
100
AcDbSpline
210
0.0
220
0.0
230
1.0
 70
     8
 71
     3
 72
    44
 73
    40
 74
     0
 42
0.000000001
 43
0.00000001
 40
0.0374573816692516
 40
0.0374573816692516
 40
0.0374573816692516
 40
0.0374573816692516
 40
0.1173270388283835
 40
0.1245633749097421
 40
0.1339054427745929
 40
0.1449591259385422
 40
0.157492824253456
 40
0.1713493489450592
 40
0.186412979324603
 40
0.2025939139161435
 40
0.2198198341683084
 40
0.2380308751317531
 40
0.2571764150177153
 40
0.2772129162632477
 40
0.2981024128312286
 40
0.3198114144576313
 40
0.3423100907832787
 40
0.3655716496568647
 40
0.3895718539492967
 40
0.4142886395604836
 40
0.4397018088992017
 40
0.4657927816818093
 40
0.4925443899635603
 40
0.5199407077925865
 40
0.5479669083115218
 40
0.5766091428695075
 40
0.6058544379685353
 40
0.6356906067974987
 40
0.6661061728017248
 40
0.6970903032611986
 40
0.7286327512528589
 40
0.7607238046834918
 40
0.7933542413228106
 40
0.8265152889579642
 40
0.860198589943057
 40
0.8943961695393764
 40
0.9291004075405692
 40
0.9643040127571182
 40
0.9924917445823712
 40
0.9924917445823712
 40
0.9924917445823712
 40
0.9924917445823712
 10
45.27126642481446
 20
-26.34308577965569
 30
0.0
 10
45.02845228222092
 20
-26.41213927712458
 30
0.0
 10
44.82247892595125
 20
-26.47063639037676
 30
0.0
 10
44.81697469699826
 20
-26.47181399462001
 30
0.0
 10
44.81095968836451
 20
-26.47323587052666
 30
0.0
 10
44.80385529335344
 20
-26.47470788368707
 30
0.0
 10
44.79424552408239
 20
-26.47653073214593
 30
0.0
 10
44.78259241927623
 20
-26.47848858340669
 30
0.0
 10
44.76873570319457
 20
-26.48053716533845
 30
0.0
 10
44.75271504264418
 20
-26.48257759076744
 30
0.0
 10
44.7345119742974
 20
-26.48452744191562
 30
0.0
 10
44.71412881039862
 20
-26.48629912999639
 30
0.0
 10
44.69156504161601
 20
-26.48780645873014
 30
0.0
 10
44.66682431840277
 20
-26.48896277326443
 30
0.0
 10
44.63991242033048
 20
-26.48968158833382
 30
0.0
 10
44.61083784603143
 20
-26.48987649482444
 30
0.0
 10
44.57961164255556
 20
-26.48946127509855
 30
0.0
 10
44.5462474500737
 20
-26.48834995851198
 30
0.0
 10
44.51076148258487
 20
-26.48645689395483
 30
0.0
 10
44.47317252438632
 20
-26.48369681743183
 30
0.0
 10
44.43350191976991
 20
-26.47998492084551
 30
0.0
 10
44.3917735623618
 20
-26.47523692017816
 30
0.0
 10
44.34801388233188
 20
-26.46936912352117
 30
0.0
 10
44.30225183199433
 20
-26.46229849877239
 30
0.0
 10
44.25451886967058
 20
-26.45394274098743
 30
0.0
 10
44.20484894187239
 20
-26.44422033937437
 30
0.0
 10
44.15327846378433
 20
-26.43305064373238
 30
0.0
 10
44.09984629814283
 20
-26.42035393091505
 30
0.0
 10
44.04459373220818
 20
-26.40605146888508
 30
0.0
 10
43.98756445405268
 20
-26.39006558751616
 30
0.0
 10
43.92880452353484
 20
-26.37231972080861
 30
0.0
 10
43.86836235577753
 20
-26.35273855580438
 30
0.0
 10
43.80628864896654
 20
-26.3312477697828
 30
0.0
 10
43.74263651750145
 20
-26.3077753396843
 30
0.0
 10
43.67746083235079
 20
-26.28224683666746
 30
0.0
 10
43.61082058283059
 20
-26.2546036975288
 30
0.0
 10
43.54276969544829
 20
-26.22473376903269
 30
0.0
 10
43.47832453166674
 20
-26.19501150522612
 30
0.0
 10
43.43647983042435
 20
-26.17454494534567
 30
0.0
 10
43.41786479956322
 20
-26.16539186086199
 30
0.0
  0
ARC
  5
1000010E
102
{ACAD_XDICTIONARY
360
1000010F
102
}
330
1F
100
AcDbEntity
  8
VISIBLE
100
AcDbCircle
 10
45.3794840420866
 20
-26.72361347071563
 30
0.0
 40
0.3956164510627324
100
AcDbArc
 50
20.45726817810337
 51
105.8751309599837
  0
ARC
  5
10000111
102
{ACAD_XDICTIONARY
360
10000112
102
}
330
1F
100
AcDbEntity
  8
VISIBLE
100
AcDbCircle
 10
50.0
 20
-25.0
 30
0.0
 40
4.535915878119019
100
AcDbArc
 50
200.4572681781036
 51
204.5427318218965
  0
ARC
  5
10000114
102
{ACAD_XDICTIONARY
360
10000115
102
}
330
1F
100
AcDbEntity
  8
VISIBLE
100
AcDbCircle
 10
45.51402306029128
 20
-27.04841939313372
 30
0.0
 40
0.3956164510627324
100
AcDbArc
 50
299.1248690400157
 51
24.54273182189643
  0
SPLINE
  5
10000117
102
{ACAD_XDICTIONARY
360
10000118
102
}
330
1F
100
AcDbEntity
  8
VISIBLE
100
AcDbSpline
210
0.0
220
0.0
230
1.0
 70
     8
 71
     3
 72
    44
 73
    40
 74
     0
 42
0.000000001
 43
0.00000001
 40
0.0374573816692531
 40
0.0374573816692531
 40
0.0374573816692531
 40
0.0374573816692531
 40
0.1173270388283835
 40
0.1245633749097421
 40
0.1339054427745929
 40
0.1449591259385422
 40
0.157492824253456
 40
0.1713493489450592
 40
0.186412979324603
 40
0.2025939139161435
 40
0.2198198341683084
 40
0.2380308751317531
 40
0.2571764150177153
 40
0.2772129162632477
 40
0.2981024128312286
 40
0.3198114144576313
 40
0.3423100907832787
 40
0.3655716496568647
 40
0.3895718539492967
 40
0.4142886395604836
 40
0.4397018088992017
 40
0.4657927816818093
 40
0.4925443899635603
 40
0.5199407077925865
 40
0.5479669083115218
 40
0.5766091428695075
 40
0.6058544379685353
 40
0.6356906067974987
 40
0.6661061728017248
 40
0.6970903032611986
 40
0.7286327512528589
 40
0.7607238046834918
 40
0.7933542413228106
 40
0.8265152889579642
 40
0.860198589943057
 40
0.8943961695393764
 40
0.9291004075405692
 40
0.9643040127571182
 40
0.9924917445823679
 40
0.9924917445823679
 40
0.9924917445823679
 40
0.9924917445823679
 10
45.70657536005203
 20
-27.39401451492845
 30
0.0
 10
45.48605163693124
 20
-27.51688184539944
 30
0.0
 10
45.29904277450876
 20
-27.62116329690101
 30
0.0
 10
45.29431800494495
 20
-27.62422268257292
 30
0.0
 10
45.28905933345552
 20
-27.62747051787115
 30
0.0
 10
45.28299489707925
 20
-27.63145321327198
 30
0.0
 10
45.27491081555571
 20
-27.63695939778285
 30
0.0
 10
45.26528641622237
 20
-27.64381497731013
 30
0.0
 10
45.25403967214027
 20
-27.65216458904068
 30
0.0
 10
45.24126855576867
 20
-27.6620501080976
 30
0.0
 10
45.22701828973307
 20
-27.67354286819482
 30
0.0
 10
45.21135244366216
 20
-27.68670316895363
 30
0.0
 10
45.19433160737773
 20
-27.70159232049982
 30
0.0
 10
45.17601963637381
 20
-27.71826901580698
 30
0.0
 10
45.15648177174231
 20
-27.73679032241852
 30
0.0
 10
45.13578512339412
 20
-27.75721133136427
 30
0.0
 10
45.11399846784948
 20
-27.77958519627664
 30
0.0
 10
45.09119224059116
 20
-27.80396306252378
 30
0.0
 10
45.06743847112841
 20
-27.83039402955768
 30
0.0
 10
45.04281073271449
 20
-27.85892510562362
 30
0.0
 10
45.01738408642372
 20
-27.88960116640891
 30
0.0
 10
44.99123502540162
 20
-27.92246491436892
 30
0.0
 10
44.96444141771669
 20
-27.9575568396674
 30
0.0
 10
44.93708244830909
 20
-27.99491518248918
 30
0.0
 10
44.90923855995555
 20
-28.03457589682612
 30
0.0
 10
44.88099139329842
 20
-28.07657261570328
 30
0.0
 10
44.85242372606557
 20
-28.12093661800062
 30
0.0
 10
44.82361941113889
 20
-28.16769679639113
 30
0.0
 10
44.7946633149776
 20
-28.21687962833053
 30
0.0
 10
44.76564125078688
 20
-28.26850914275966
 30
0.0
 10
44.73663992814259
 20
-28.32260691077781
 30
0.0
 10
44.70774683600981
 20
-28.37919195202665
 30
0.0
 10
44.67905037751927
 20
-28.43828097157497
 30
0.0
 10
44.65063903821689
 20
-28.4998873398645
 30
0.0
 10
44.62260424687514
 20
-28.56402488639975
 30
0.0
 10
44.59502912567766
 20
-28.63069330987367
 30
0.0
 10
44.56803111073703
 20
-28.69993378280062
 30
0.0
 10
44.54347831270228
 20
-28.76652020941507
 30
0.0
 10
44.52836168397609
 20
-28.81058092469931
 30
0.0
 10
44.52167107752936
 20
-28.83021594736039
 30
0.0
  0
ARC
  5
1000011A
102
{ACAD_XDICTIONARY
360
1000011B
102
}
330
1F
100
AcDbEntity
  8
VISIBLE
100
AcDbCircle
 10
50.0
 20
-25.0
 30
0.0
 40
6.684507609859605
100
AcDbArc
 50
214.9596186495609
 51
220.0403813504393
  0
SPLINE
  5
1000011D
102
{ACAD_XDICTIONARY
360
1000011E
102
}
330
1F
100
AcDbEntity
  8
VISIBLE
100
AcDbSpline
210
0.0
220
0.0
230
1.0
 70
     8
 71
     3
 72
    44
 73
    40
 74
     0
 42
0.000000001
 43
0.00000001
 40
0.0374573816692528
 40
0.0374573816692528
 40
0.0374573816692528
 40
0.0374573816692528
 40
0.1173270388283835
 40
0.1245633749097421
 40
0.1339054427745929
 40
0.1449591259385422
 40
0.157492824253456
 40
0.1713493489450592
 40
0.186412979324603
 40
0.2025939139161435
 40
0.2198198341683084
 40
0.2380308751317531
 40
0.2571764150177153
 40
0.2772129162632477
 40
0.2981024128312286
 40
0.3198114144576313
 40
0.3423100907832787
 40
0.3655716496568647
 40
0.3895718539492967
 40
0.4142886395604836
 40
0.4397018088992017
 40
0.4657927816818093
 40
0.4925443899635603
 40
0.5199407077925865
 40
0.5479669083115218
 40
0.5766091428695075
 40
0.6058544379685353
 40
0.6356906067974987
 40
0.6661061728017248
 40
0.6970903032611986
 40
0.7286327512528589
 40
0.7607238046834918
 40
0.7933542413228106
 40
0.8265152889579642
 40
0.860198589943057
 40
0.8943961695393764
 40
0.9291004075405692
 40
0.9643040127571182
 40
0.9924917445823684
 40
0.9924917445823684
 40
0.9924917445823684
 40
0.9924917445823684
 10
46.57633948598875
 20
-28.52751319223623
 30
0.0
 10
46.40058301883906
 20
-28.70872234656123
 30
0.0
 10
46.25145341643289
 20
-28.8623690108205
 30
0.0
 10
46.24727541645296
 20
-28.86614096048726
 30
0.0
 10
46.24277720412548
 20
-28.87037984546032
 30
0.0
 10
46.23736062414758
 20
-28.87520684375747
 30
0.0
 10
46.22994974406377
 20
-28.88159036146562
 30
0.0
 10
46.22083678489905
 20
-28.88911246279734
 30
0.0
 10
46.20986080772519
 20
-28.89781494483282
 30
0.0
 10
46.19700672141764
 20
-28.90759233536405
 30
0.0
 10
46.1822173273766
 20
-28.91838249016536
 30
0.0
 10
46.16545083367113
 20
-28.93010839900027
 30
0.0
 10
46.14666370106715
 20
-28.94269566836686
 30
0.0
 10
46.12581576352363
 20
-28.95606742773495
 30
0.0
 10
46.10286878366367
 20
-28.9701458888818
 30
0.0
 10
46.07778691696178
 20
-28.98485197000357
 30
0.0
 10
46.05053662162498
 20
-29.00010548091073
 30
0.0
 10
46.02108672506565
 20
-29.01582514875604
 30
0.0
 10
45.98940844346389
 20
-29.03192869050297
 30
0.0
 10
45.95547541250065
 20
-29.04833287321693
 30
0.0
 10
45.91926371282619
 20
-29.06495357878516
 30
0.0
 10
45.88075189491889
 20
-29.0817058682941
 30
0.0
 10
45.83992100202302
 20
-29.09850404733987
 30
0.0
 10
45.79675459152705
 20
-29.11526173185558
 30
0.0
 10
45.75123875466431
 20
-29.13189191450781
 30
0.0
 10
45.70336213458041
 20
-29.1483070316242
 30
0.0
 10
45.65311594264985
 20
-29.16441903048971
 30
0.0
 10
45.60049397341641
 20
-29.1801394374661
 30
0.0
 10
45.54549261667775
 20
-29.19537942497882
 30
0.0
 10
45.48811087235115
 20
-29.21004988468919
 30
0.0
 10
45.4283503464443
 20
-29.22406147856721
 30
0.0
 10
45.36621531120456
 20
-29.23732477611651
 30
0.0
 10
45.3017125111884
 20
-29.24975006288001
 30
0.0
 10
45.23485193328534
 20
-29.26124840785871
 30
0.0
 10
45.16564388272739
 20
-29.27172791830086
 30
0.0
 10
45.09411016415903
 20
-29.28110838232654
 30
0.0
 10
45.02024140268783
 20
-29.28926570913084
 30
0.0
 10
44.94956912179869
 20
-29.29574805550713
 30
0.0
 10
44.9030972675688
 20
-29.29894584534377
 30
0.0
 10
44.88239963570899
 20
-29.30032655708849
 30
0.0
  0
ARC
  5
10000120
102
{ACAD_XDICTIONARY
360
10000121
102
}
330
1F
100
AcDbEntity
  8
VISIBLE
100
AcDbCircle
 10
46.86032253721342
 20
-28.80295103090151
 30
0.0
 40
0.3956164510627324
100
AcDbArc
 50
50.45726817810409
 51
135.8751309599832
  0
ARC
  5
10000123
102
{ACAD_XDICTIONARY
360
10000124
102
}
330
1F
100
AcDbEntity
  8
VISIBLE
100
AcDbCircle
 10
50.0
 20
-25.0
 30
0.0
 40
4.535915878119019
100
AcDbArc
 50
230.4572681781035
 51
234.5427318218966
  0
ENDSEC
  0
SECTION
  2
OBJECTS
  0
DICTIONARY
  5
C
330
0
100
AcDbDictionary
  3
ACAD_GROUP
350
D
  3
ACAD_LAYOUT
350
1A
  3
ACAD_MATERIAL
350
43
  3
ACAD_MLEADERSTYLE
350
6B
  3
ACAD_MLINESTYLE
350
17
  3
ACAD_PLOTSETTINGS
350
19
  3
ACAD_SCALELIST
350
47
  3
ACAD_VISUALSTYLE
350
2A
  3
ACDBHEADERROUNDTRIPXREC
350
10000128
  3
ACDBVARIABLEDICTIONARY
350
10000149
  3
DWGPROPS
350
10000150
  3
ONSHAPE_DATA
350
10000001
  0
DICTIONARY
  5
10000151
330
8
100
AcDbDictionary
280
     1
  3
ACAD_XREC_ROUNDTRIP
360
10000152
  0
DICTIONARY
  5
10000126
330
1F
100
AcDbDictionary
280
     1
  3
ACAD_SORTENTS
360
10000127
  0
DICTIONARY
  5
1000004C
330
1000004B
100
AcDbDictionary
280
     1
  3
BTDETID
360
1000004D
  0
DICTIONARY
  5
1000004F
330
1000004E
100
AcDbDictionary
280
     1
  3
BTDETID
360
10000050
  0
DICTIONARY
  5
10000052
330
10000051
100
AcDbDictionary
280
     1
  3
BTDETID
360
10000053
  0
DICTIONARY
  5
10000055
330
10000054
100
AcDbDictionary
280
     1
  3
BTDETID
360
10000056
  0
DICTIONARY
  5
10000058
330
10000057
100
AcDbDictionary
280
     1
  3
BTDETID
360
10000059
  0
DICTIONARY
  5
1000005B
330
1000005A
100
AcDbDictionary
280
     1
  3
BTDETID
360
1000005C
  0
DICTIONARY
  5
1000005E
330
1000005D
100
AcDbDictionary
280
     1
  3
BTDETID
360
1000005F
  0
DICTIONARY
  5
10000061
330
10000060
100
AcDbDictionary
280
     1
  3
BTDETID
360
10000062
  0
DICTIONARY
  5
10000064
330
10000063
100
AcDbDictionary
280
     1
  3
BTDETID
360
10000065
  0
DICTIONARY
  5
10000067
330
10000066
100
AcDbDictionary
280
     1
  3
BTDETID
360
10000068
  0
DICTIONARY
  5
1000006A
330
10000069
100
AcDbDictionary
280
     1
  3
BTDETID
360
1000006B
  0
DICTIONARY
  5
1000006D
330
1000006C
100
AcDbDictionary
280
     1
  3
BTDETID
360
1000006E
  0
DICTIONARY
  5
10000070
330
1000006F
100
AcDbDictionary
280
     1
  3
BTDETID
360
10000071
  0
DICTIONARY
  5
10000073
330
10000072
100
AcDbDictionary
280
     1
  3
BTDETID
360
10000074
  0
DICTIONARY
  5
10000076
330
10000075
100
AcDbDictionary
280
     1
  3
BTDETID
360
10000077
  0
DICTIONARY
  5
10000079
330
10000078
100
AcDbDictionary
280
     1
  3
BTDETID
360
1000007A
  0
DICTIONARY
  5
1000007C
330
1000007B
100
AcDbDictionary
280
     1
  3
BTDETID
360
1000007D
  0
DICTIONARY
  5
1000007F
330
1000007E
100
AcDbDictionary
280
     1
  3
BTDETID
360
10000080
  0
DICTIONARY
  5
10000082
330
10000081
100
AcDbDictionary
280
     1
  3
BTDETID
360
10000083
  0
DICTIONARY
  5
10000085
330
10000084
100
AcDbDictionary
280
     1
  3
BTDETID
360
10000086
  0
DICTIONARY
  5
10000088
330
10000087
100
AcDbDictionary
280
     1
  3
BTDETID
360
10000089
  0
DICTIONARY
  5
1000008B
330
1000008A
100
AcDbDictionary
280
     1
  3
BTDETID
360
1000008C
  0
DICTIONARY
  5
1000008E
330
1000008D
100
AcDbDictionary
280
     1
  3
BTDETID
360
1000008F
  0
DICTIONARY
  5
10000091
330
10000090
100
AcDbDictionary
280
     1
  3
BTDETID
360
10000092
  0
DICTIONARY
  5
10000094
330
10000093
100
AcDbDictionary
280
     1
  3
BTDETID
360
10000095
  0
DICTIONARY
  5
10000097
330
10000096
100
AcDbDictionary
280
     1
  3
BTDETID
360
10000098
  0
DICTIONARY
  5
1000009A
330
10000099
100
AcDbDictionary
280
     1
  3
BTDETID
360
1000009B
  0
DICTIONARY
  5
1000009D
330
1000009C
100
AcDbDictionary
280
     1
  3
BTDETID
360
1000009E
  0
DICTIONARY
  5
100000A0
330
1000009F
100
AcDbDictionary
280
     1
  3
BTDETID
360
100000A1
  0
DICTIONARY
  5
100000A3
330
100000A2
100
AcDbDictionary
280
     1
  3
BTDETID
360
100000A4
  0
DICTIONARY
  5
100000A6
330
100000A5
100
AcDbDictionary
280
     1
  3
BTDETID
360
100000A7
  0
DICTIONARY
  5
100000A9
330
100000A8
100
AcDbDictionary
280
     1
  3
BTDETID
360
100000AA
  0
DICTIONARY
  5
100000AC
330
100000AB
100
AcDbDictionary
280
     1
  3
BTDETID
360
100000AD
  0
DICTIONARY
  5
100000AF
330
100000AE
100
AcDbDictionary
280
     1
  3
BTDETID
360
100000B0
  0
DICTIONARY
  5
100000B2
330
100000B1
100
AcDbDictionary
280
     1
  3
BTDETID
360
100000B3
  0
DICTIONARY
  5
100000B5
330
100000B4
100
AcDbDictionary
280
     1
  3
BTDETID
360
100000B6
  0
DICTIONARY
  5
100000B8
330
100000B7
100
AcDbDictionary
280
     1
  3
BTDETID
360
100000B9
  0
DICTIONARY
  5
100000BB
330
100000BA
100
AcDbDictionary
280
     1
  3
BTDETID
360
100000BC
  0
DICTIONARY
  5
100000BE
330
100000BD
100
AcDbDictionary
280
     1
  3
BTDETID
360
100000BF
  0
DICTIONARY
  5
100000C1
330
100000C0
100
AcDbDictionary
280
     1
  3
BTDETID
360
100000C2
  0
DICTIONARY
  5
100000C4
330
100000C3
100
AcDbDictionary
280
     1
  3
BTDETID
360
100000C5
  0
DICTIONARY
  5
100000C7
330
100000C6
100
AcDbDictionary
280
     1
  3
BTDETID
360
100000C8
  0
DICTIONARY
  5
100000CA
330
100000C9
100
AcDbDictionary
280
     1
  3
BTDETID
360
100000CB
  0
DICTIONARY
  5
100000CD
330
100000CC
100
AcDbDictionary
280
     1
  3
BTDETID
360
100000CE
  0
DICTIONARY
  5
100000D0
330
100000CF
100
AcDbDictionary
280
     1
  3
BTDETID
360
100000D1
  0
DICTIONARY
  5
100000D3
330
100000D2
100
AcDbDictionary
280
     1
  3
BTDETID
360
100000D4
  0
DICTIONARY
  5
100000D6
330
100000D5
100
AcDbDictionary
280
     1
  3
BTDETID
360
100000D7
  0
DICTIONARY
  5
100000D9
330
100000D8
100
AcDbDictionary
280
     1
  3
BTDETID
360
100000DA
  0
DICTIONARY
  5
100000DC
330
100000DB
100
AcDbDictionary
280
     1
  3
BTDETID
360
100000DD
  0
DICTIONARY
  5
100000DF
330
100000DE
100
AcDbDictionary
280
     1
  3
BTDETID
360
100000E0
  0
DICTIONARY
  5
100000E2
330
100000E1
100
AcDbDictionary
280
     1
  3
BTDETID
360
100000E3
  0
DICTIONARY
  5
100000E5
330
100000E4
100
AcDbDictionary
280
     1
  3
BTDETID
360
100000E6
  0
DICTIONARY
  5
100000E8
330
100000E7
100
AcDbDictionary
280
     1
  3
BTDETID
360
100000E9
  0
DICTIONARY
  5
100000EB
330
100000EA
100
AcDbDictionary
280
     1
  3
BTDETID
360
100000EC
  0
DICTIONARY
  5
100000EE
330
100000ED
100
AcDbDictionary
280
     1
  3
BTDETID
360
100000EF
  0
DICTIONARY
  5
100000F1
330
100000F0
100
AcDbDictionary
280
     1
  3
BTDETID
360
100000F2
  0
DICTIONARY
  5
100000F4
330
100000F3
100
AcDbDictionary
280
     1
  3
BTDETID
360
100000F5
  0
DICTIONARY
  5
100000F7
330
100000F6
100
AcDbDictionary
280
     1
  3
BTDETID
360
100000F8
  0
DICTIONARY
  5
100000FA
330
100000F9
100
AcDbDictionary
280
     1
  3
BTDETID
360
100000FB
  0
DICTIONARY
  5
100000FD
330
100000FC
100
AcDbDictionary
280
     1
  3
BTDETID
360
100000FE
  0
DICTIONARY
  5
10000100
330
100000FF
100
AcDbDictionary
280
     1
  3
BTDETID
360
10000101
  0
DICTIONARY
  5
10000103
330
10000102
100
AcDbDictionary
280
     1
  3
BTDETID
360
10000104
  0
DICTIONARY
  5
10000106
330
10000105
100
AcDbDictionary
280
     1
  3
BTDETID
360
10000107
  0
DICTIONARY
  5
10000109
330
10000108
100
AcDbDictionary
280
     1
  3
BTDETID
360
1000010A
  0
DICTIONARY
  5
1000010C
330
1000010B
100
AcDbDictionary
280
     1
  3
BTDETID
360
1000010D
  0
DICTIONARY
  5
1000010F
330
1000010E
100
AcDbDictionary
280
     1
  3
BTDETID
360
10000110
  0
DICTIONARY
  5
10000112
330
10000111
100
AcDbDictionary
280
     1
  3
BTDETID
360
10000113
  0
DICTIONARY
  5
10000115
330
10000114
100
AcDbDictionary
280
     1
  3
BTDETID
360
10000116
  0
DICTIONARY
  5
10000118
330
10000117
100
AcDbDictionary
280
     1
  3
BTDETID
360
10000119
  0
DICTIONARY
  5
1000011B
330
1000011A
100
AcDbDictionary
280
     1
  3
BTDETID
360
1000011C
  0
DICTIONARY
  5
1000011E
330
1000011D
100
AcDbDictionary
280
     1
  3
BTDETID
360
1000011F
  0
DICTIONARY
  5
10000121
330
10000120
100
AcDbDictionary
280
     1
  3
BTDETID
360
10000122
  0
DICTIONARY
  5
10000124
330
10000123
100
AcDbDictionary
280
     1
  3
BTDETID
360
10000125
  0
DICTIONARY
  5
D
102
{ACAD_REACTORS
330
C
102
}
330
C
100
AcDbDictionary
  0
DICTIONARY
  5
1A
102
{ACAD_REACTORS
330
C
102
}
330
C
100
AcDbDictionary
  0
DICTIONARY
  5
43
102
{ACAD_REACTORS
330
C
102
}
330
C
100
AcDbDictionary
  3
BYBLOCK
350
45
  3
BYLAYER
350
44
  3
GLOBAL
350
46
  0
DICTIONARY
  5
6B
102
{ACAD_REACTORS
330
C
102
}
330
C
100
AcDbDictionary
  3
STANDARD
350
6C
  0
DICTIONARY
  5
17
102
{ACAD_REACTORS
330
C
102
}
330
C
100
AcDbDictionary
  3
STANDARD
350
18
  0
DICTIONARY
  5
19
102
{ACAD_REACTORS
330
C
102
}
330
C
100
AcDbDictionary
  0
DICTIONARY
  5
47
102
{ACAD_REACTORS
330
C
102
}
330
C
100
AcDbDictionary
  3
SCALE100_1
350
10000023
  3
SCALE10_1
350
1000001D
  3
SCALE12_1
350
1000001E
  3
SCALE16_1
350
1000001F
  3
SCALE1_1
350
10000006
  3
SCALE1_10
350
1000000D
  3
SCALE1_100
350
10000016
  3
SCALE1_12
350
1000000E
  3
SCALE1_16
350
1000000F
  3
SCALE1_2
350
10000007
  3
SCALE1_20
350
10000010
  3
SCALE1_25
350
10000011
  3
SCALE1_3
350
10000008
  3
SCALE1_32
350
10000012
  3
SCALE1_4
350
10000009
  3
SCALE1_40
350
10000013
  3
SCALE1_5
350
1000000A
  3
SCALE1_50
350
10000014
  3
SCALE1_6
350
1000000B
  3
SCALE1_8
350
1000000C
  3
SCALE1_80
350
10000015
  3
SCALE20_1
350
10000020
  3
SCALE2_1
350
10000017
  3
SCALE32_1
350
10000021
  3
SCALE3_1
350
10000018
  3
SCALE4_1
350
10000019
  3
SCALE50_1
350
10000022
  3
SCALE5_1
350
1000001A
  3
SCALE6_1
350
1000001B
  3
SCALE8_1
350
1000001C
  0
DICTIONARY
  5
2A
102
{ACAD_REACTORS
330
C
102
}
330
C
100
AcDbDictionary
  3
2DWIREFRAME
350
2F
  3
BASIC
350
32
  3
BRIGHTEN
350
36
  3
COLORCHANGE
350
3A
  3
CONCEPTUAL
350
34
  3
DIM
350
35
  3
EDGECOLOROFF
350
3D
  3
FACEPATTERN
350
39
  3
FLAT
350
2B
  3
FLATWITHEDGES
350
2C
  3
GOURAUD
350
2D
  3
GOURAUDWITHEDGES
350
2E
  3
HIDDEN
350
31
  3
JITTEROFF
350
3B
  3
LINEPATTERN
350
38
  3
OVERHANGOFF
350
3C
  3
REALISTIC
350
33
  3
SHADED
350
42
  3
SHADED_WITH_EDGES
350
41
  3
SHADES_OF_GRAY
350
3E
  3
SKETCHY
350
3F
  3
THICKEN
350
37
  3
WIREFRAME
350
30
  3
X-RAY
350
40
  0
DICTIONARY
  5
10000128
102
{ACAD_REACTORS
330
C
102
}
330
C
100
AcDbDictionary
  3
CEPSNID
350
10000132
  3
CEPSNTYPE
350
10000131
  3
DIMSTYLEDATA
350
10000148
  3
FINGERPRINTGUID
350
10000133
  3
HYPERLINKBASE
350
1000012B
  3
INSUNITS
350
10000130
  3
LAYOUTDICT
350
1000012D
  3
LWETCUNION
350
1000012F
  3
PLOTSETDICT
350
1000012E
  3
PSVPSCALE
350
10000135
  3
PUCSBASE
350
10000138
  3
PUCSORGBACK
350
1000013E
  3
PUCSORGBOTTOM
350
1000013A
  3
PUCSORGFRONT
350
1000013D
  3
PUCSORGLEFT
350
1000013B
  3
PUCSORGRIGHT
350
1000013C
  3
PUCSORGTOP
350
10000139
  3
PUCSORTHOREF
350
10000136
  3
PUCSORTHOVIEW
350
10000137
  3
STYLESHEET
350
1000012C
  3
TSTACKALIGN
350
10000129
  3
TSTACKSIZE
350
1000012A
  3
UCSBASE
350
10000141
  3
UCSORGBACK
350
10000147
  3
UCSORGBOTTOM
350
10000143
  3
UCSORGFRONT
350
10000146
  3
UCSORGLEFT
350
10000144
  3
UCSORGRIGHT
350
10000145
  3
UCSORGTOP
350
10000142
  3
UCSORTHOREF
350
1000013F
  3
UCSORTHOVIEW
350
10000140
  3
VERSIONGUID
350
10000134
  0
DICTIONARY
  5
10000149
102
{ACAD_REACTORS
330
C
102
}
330
C
100
AcDbDictionary
  3
CANNOSCALE
350
10000153
  3
CMLEADERSTYLE
350
1000014B
  3
CTABLESTYLE
350
1000014A
  3
DIMASSOC
350
1000014E
  3
HIDETEXT
350
1000014F
  3
MSLTSCALE
350
10000154
  0
XRECORD
  5
10000150
102
{ACAD_REACTORS
330
C
102
}
330
C
100
AcDbXrecord
  1
DWGPROPS COOKIE
  2

  3

  4

  6
File was created by BTDwgCreate
  7

  8

  9

300
=
301
=
302
=
303
=
304
=
305
=
306
=
307
=
308
=
309
=
 40
0.0
 41
2458352.599897789
 42
2458352.599897836
  1

 90
        0
  0
DICTIONARY
  5
10000001
102
{ACAD_REACTORS
330
C
102
}
330
C
100
AcDbDictionary
280
     1
  3
DIM_UNITS
360
10000003
  3
DWGGEN_VERSION
360
10000002
  3
FIRST_ANGLE
360
10000005
  0
XRECORD
  5
10000152
102
{ACAD_REACTORS
330
10000151
102
}
330
10000151
100
AcDbXrecord
102
VTR_0.000_0.000_1.000_1.000_VISUALSTYLE
340
2F
102
VTR_0.000_0.000_1.000_1.000_GRIDDISPLAY
 70
     3
102
VTR_0.000_0.000_1.000_1.000_GRIDMAJOR
 70
     5
102
VTR_0.000_0.000_1.000_1.000_DEFAULTLIGHTING
280
     1
102
VTR_0.000_0.000_1.000_1.000_DEFAULTLIGHTINGTYPE
 70
     1
102
VTR_0.000_0.000_1.000_1.000_BRIGHTNESS
141
0.0
102
VTR_0.000_0.000_1.000_1.000_CONTRAST
142
0.0
  0
SORTENTSTABLE
  5
10000127
102
{ACAD_REACTORS
330
10000126
102
}
330
10000126
100
AcDbSortentsTable
330
1F
  0
XRECORD
  5
1000004D
102
{ACAD_REACTORS
330
1000004C
102
}
330
1000004C
100
AcDbXrecord
1000
JdF
  0
XRECORD
  5
10000050
102
{ACAD_REACTORS
330
1000004F
102
}
330
1000004F
100
AcDbXrecord
1000
KdZH
  0
XRECORD
  5
10000053
102
{ACAD_REACTORS
330
10000052
102
}
330
10000052
100
AcDbXrecord
1000
Kd1H
  0
XRECORD
  5
10000056
102
{ACAD_REACTORS
330
10000055
102
}
330
10000055
100
AcDbXrecord
1000
KdZN
  0
XRECORD
  5
10000059
102
{ACAD_REACTORS
330
10000058
102
}
330
10000058
100
AcDbXrecord
1000
Kd9I
  0
XRECORD
  5
1000005C
102
{ACAD_REACTORS
330
1000005B
102
}
330
1000005B
100
AcDbXrecord
1000
KdlI
  0
XRECORD
  5
1000005F
102
{ACAD_REACTORS
330
1000005E
102
}
330
1000005E
100
AcDbXrecord
1000
KdFJ
  0
XRECORD
  5
10000062
102
{ACAD_REACTORS
330
10000061
102
}
330
10000061
100
AcDbXrecord
1000
KdZI
  0
XRECORD
  5
10000065
102
{ACAD_REACTORS
330
10000064
102
}
330
10000064
100
AcDbXrecord
1000
Kd1I
  0
XRECORD
  5
10000068
102
{ACAD_REACTORS
330
10000067
102
}
330
10000067
100
AcDbXrecord
1000
KddN
  0
XRECORD
  5
1000006B
102
{ACAD_REACTORS
330
1000006A
102
}
330
1000006A
100
AcDbXrecord
1000
Kd9J
  0
XRECORD
  5
1000006E
102
{ACAD_REACTORS
330
1000006D
102
}
330
1000006D
100
AcDbXrecord
1000
KdlJ
  0
XRECORD
  5
10000071
102
{ACAD_REACTORS
330
10000070
102
}
330
10000070
100
AcDbXrecord
1000
KdFK
  0
XRECORD
  5
10000074
102
{ACAD_REACTORS
330
10000073
102
}
330
10000073
100
AcDbXrecord
1000
KdZJ
  0
XRECORD
  5
10000077
102
{ACAD_REACTORS
330
10000076
102
}
330
10000076
100
AcDbXrecord
1000
Kd1J
  0
XRECORD
  5
1000007A
102
{ACAD_REACTORS
330
10000079
102
}
330
10000079
100
AcDbXrecord
1000
KdhN
  0
XRECORD
  5
1000007D
102
{ACAD_REACTORS
330
1000007C
102
}
330
1000007C
100
AcDbXrecord
1000
Kd9K
  0
XRECORD
  5
10000080
102
{ACAD_REACTORS
330
1000007F
102
}
330
1000007F
100
AcDbXrecord
1000
KdlK
  0
XRECORD
  5
10000083
102
{ACAD_REACTORS
330
10000082
102
}
330
10000082
100
AcDbXrecord
1000
KdFL
  0
XRECORD
  5
10000086
102
{ACAD_REACTORS
330
10000085
102
}
330
10000085
100
AcDbXrecord
1000
KdZK
  0
XRECORD
  5
10000089
102
{ACAD_REACTORS
330
10000088
102
}
330
10000088
100
AcDbXrecord
1000
Kd1K
  0
XRECORD
  5
1000008C
102
{ACAD_REACTORS
330
1000008B
102
}
330
1000008B
100
AcDbXrecord
1000
KdlN
  0
XRECORD
  5
1000008F
102
{ACAD_REACTORS
330
1000008E
102
}
330
1000008E
100
AcDbXrecord
1000
Kd9L
  0
XRECORD
  5
10000092
102
{ACAD_REACTORS
330
10000091
102
}
330
10000091
100
AcDbXrecord
1000
KdlL
  0
XRECORD
  5
10000095
102
{ACAD_REACTORS
330
10000094
102
}
330
10000094
100
AcDbXrecord
1000
KdFM
  0
XRECORD
  5
10000098
102
{ACAD_REACTORS
330
10000097
102
}
330
10000097
100
AcDbXrecord
1000
KdZL
  0
XRECORD
  5
1000009B
102
{ACAD_REACTORS
330
1000009A
102
}
330
1000009A
100
AcDbXrecord
1000
Kd1L
  0
XRECORD
  5
1000009E
102
{ACAD_REACTORS
330
1000009D
102
}
330
1000009D
100
AcDbXrecord
1000
Kd9M
  0
XRECORD
  5
100000A1
102
{ACAD_REACTORS
330
100000A0
102
}
330
100000A0
100
AcDbXrecord
1000
Jd9
  0
XRECORD
  5
100000A4
102
{ACAD_REACTORS
330
100000A3
102
}
330
100000A3
100
AcDbXrecord
1000
Jdl
  0
XRECORD
  5
100000A7
102
{ACAD_REACTORS
330
100000A6
102
}
330
100000A6
100
AcDbXrecord
1000
KdFB
  0
XRECORD
  5
100000AA
102
{ACAD_REACTORS
330
100000A9
102
}
330
100000A9
100
AcDbXrecord
1000
JdZ
  0
XRECORD
  5
100000AD
102
{ACAD_REACTORS
330
100000AC
102
}
330
100000AC
100
AcDbXrecord
1000
Jd1
  0
XRECORD
  5
100000B0
102
{ACAD_REACTORS
330
100000AF
102
}
330
100000AF
100
AcDbXrecord
1000
Kd5M
  0
XRECORD
  5
100000B3
102
{ACAD_REACTORS
330
100000B2
102
}
330
100000B2
100
AcDbXrecord
1000
Kd9B
  0
XRECORD
  5
100000B6
102
{ACAD_REACTORS
330
100000B5
102
}
330
100000B5
100
AcDbXrecord
1000
KdlB
  0
XRECORD
  5
100000B9
102
{ACAD_REACTORS
330
100000B8
102
}
330
100000B8
100
AcDbXrecord
1000
KdFC
  0
XRECORD
  5
100000BC
102
{ACAD_REACTORS
330
100000BB
102
}
330
100000BB
100
AcDbXrecord
1000
KdZB
  0
XRECORD
  5
100000BF
102
{ACAD_REACTORS
330
100000BE
102
}
330
100000BE
100
AcDbXrecord
1000
Kd1B
  0
XRECORD
  5
100000C2
102
{ACAD_REACTORS
330
100000C1
102
}
330
100000C1
100
AcDbXrecord
1000
KdBN
  0
XRECORD
  5
100000C5
102
{ACAD_REACTORS
330
100000C4
102
}
330
100000C4
100
AcDbXrecord
1000
Kd9C
  0
XRECORD
  5
100000C8
102
{ACAD_REACTORS
330
100000C7
102
}
330
100000C7
100
AcDbXrecord
1000
KdlC
  0
XRECORD
  5
100000CB
102
{ACAD_REACTORS
330
100000CA
102
}
330
100000CA
100
AcDbXrecord
1000
KdFD
  0
XRECORD
  5
100000CE
102
{ACAD_REACTORS
330
100000CD
102
}
330
100000CD
100
AcDbXrecord
1000
KdZC
  0
XRECORD
  5
100000D1
102
{ACAD_REACTORS
330
100000D0
102
}
330
100000D0
100
AcDbXrecord
1000
Kd1C
  0
XRECORD
  5
100000D4
102
{ACAD_REACTORS
330
100000D3
102
}
330
100000D3
100
AcDbXrecord
1000
KdFN
  0
XRECORD
  5
100000D7
102
{ACAD_REACTORS
330
100000D6
102
}
330
100000D6
100
AcDbXrecord
1000
Kd9D
  0
XRECORD
  5
100000DA
102
{ACAD_REACTORS
330
100000D9
102
}
330
100000D9
100
AcDbXrecord
1000
KdlD
  0
XRECORD
  5
100000DD
102
{ACAD_REACTORS
330
100000DC
102
}
330
100000DC
100
AcDbXrecord
1000
KdFE
  0
XRECORD
  5
100000E0
102
{ACAD_REACTORS
330
100000DF
102
}
330
100000DF
100
AcDbXrecord
1000
KdZD
  0
XRECORD
  5
100000E3
102
{ACAD_REACTORS
330
100000E2
102
}
330
100000E2
100
AcDbXrecord
1000
Kd1D
  0
XRECORD
  5
100000E6
102
{ACAD_REACTORS
330
100000E5
102
}
330
100000E5
100
AcDbXrecord
1000
KdJN
  0
XRECORD
  5
100000E9
102
{ACAD_REACTORS
330
100000E8
102
}
330
100000E8
100
AcDbXrecord
1000
Kd9E
  0
XRECORD
  5
100000EC
102
{ACAD_REACTORS
330
100000EB
102
}
330
100000EB
100
AcDbXrecord
1000
KdlE
  0
XRECORD
  5
100000EF
102
{ACAD_REACTORS
330
100000EE
102
}
330
100000EE
100
AcDbXrecord
1000
KdFF
  0
XRECORD
  5
100000F2
102
{ACAD_REACTORS
330
100000F1
102
}
330
100000F1
100
AcDbXrecord
1000
KdZE
  0
XRECORD
  5
100000F5
102
{ACAD_REACTORS
330
100000F4
102
}
330
100000F4
100
AcDbXrecord
1000
Kd1E
  0
XRECORD
  5
100000F8
102
{ACAD_REACTORS
330
100000F7
102
}
330
100000F7
100
AcDbXrecord
1000
KdNN
  0
XRECORD
  5
100000FB
102
{ACAD_REACTORS
330
100000FA
102
}
330
100000FA
100
AcDbXrecord
1000
Kd9F
  0
XRECORD
  5
100000FE
102
{ACAD_REACTORS
330
100000FD
102
}
330
100000FD
100
AcDbXrecord
1000
KdlF
  0
XRECORD
  5
10000101
102
{ACAD_REACTORS
330
10000100
102
}
330
10000100
100
AcDbXrecord
1000
KdFG
  0
XRECORD
  5
10000104
102
{ACAD_REACTORS
330
10000103
102
}
330
10000103
100
AcDbXrecord
1000
KdZF
  0
XRECORD
  5
10000107
102
{ACAD_REACTORS
330
10000106
102
}
330
10000106
100
AcDbXrecord
1000
Kd1F
  0
XRECORD
  5
1000010A
102
{ACAD_REACTORS
330
10000109
102
}
330
10000109
100
AcDbXrecord
1000
KdRN
  0
XRECORD
  5
1000010D
102
{ACAD_REACTORS
330
1000010C
102
}
330
1000010C
100
AcDbXrecord
1000
Kd9G
  0
XRECORD
  5
10000110
102
{ACAD_REACTORS
330
1000010F
102
}
330
1000010F
100
AcDbXrecord
1000
KdlG
  0
XRECORD
  5
10000113
102
{ACAD_REACTORS
330
10000112
102
}
330
10000112
100
AcDbXrecord
1000
KdFH
  0
XRECORD
  5
10000116
102
{ACAD_REACTORS
330
10000115
102
}
330
10000115
100
AcDbXrecord
1000
KdZG
  0
XRECORD
  5
10000119
102
{ACAD_REACTORS
330
10000118
102
}
330
10000118
100
AcDbXrecord
1000
Kd1G
  0
XRECORD
  5
1000011C
102
{ACAD_REACTORS
330
1000011B
102
}
330
1000011B
100
AcDbXrecord
1000
KdVN
  0
XRECORD
  5
1000011F
102
{ACAD_REACTORS
330
1000011E
102
}
330
1000011E
100
AcDbXrecord
1000
Kd9H
  0
XRECORD
  5
10000122
102
{ACAD_REACTORS
330
10000121
102
}
330
10000121
100
AcDbXrecord
1000
KdlH
  0
XRECORD
  5
10000125
102
{ACAD_REACTORS
330
10000124
102
}
330
10000124
100
AcDbXrecord
1000
KdFI
  0
MATERIAL
  5
45
102
{ACAD_REACTORS
330
43
102
}
102
{ACAD_XDICTIONARY
360
10000157
102
}
330
43
100
AcDbMaterial
  1
BYBLOCK
  0
MATERIAL
  5
44
102
{ACAD_REACTORS
330
43
102
}
102
{ACAD_XDICTIONARY
360
10000155
102
}
330
43
100
AcDbMaterial
  1
BYLAYER
  0
MATERIAL
  5
46
102
{ACAD_REACTORS
330
43
102
}
102
{ACAD_XDICTIONARY
360
10000159
102
}
330
43
100
AcDbMaterial
  1
GLOBAL
  0
ACAD_PROXY_OBJECT
  5
6C
102
{ACAD_REACTORS
330
6B
102
}
330
6B
100
AcDbProxyObject
 90
      499
 91
      505
 93
      610
310
40901902A4063FBFFFFFE056BD1B81E855B9FC0AD7A3703D0AD73F4214DD185B99185C9900AD7A3703D0AC73F90141901A02B5E8DC0F42B1CFC02B5E8DC0F42B1CFE5764000000000000300FC0
340
14
340
0
340
11
340
0
 94
        0
1001
ACAD_MLEADERVER
1070
     2
  0
MLINESTYLE
  5
18
102
{ACAD_REACTORS
330
17
102
}
330
17
100
AcDbMlineStyle
  2
Standard
 70
     0
  3

 62
   256
 51
90.0
 52
90.0
 71
     2
 49
0.5
 62
   256
  6
BYLAYER
 49
-0.5
 62
   256
  6
BYLAYER
  0
ACAD_PROXY_OBJECT
  5
10000023
102
{ACAD_REACTORS
330
47
102
}
330
47
100
AcDbProxyObject
 90
      499
 91
      503
 93
      121
310
9053130303A310000000000001650100
  0
ACAD_PROXY_OBJECT
  5
1000001D
102
{ACAD_REACTORS
330
47
102
}
330
47
100
AcDbProxyObject
 90
      499
 91
      503
 93
      113
310
90431303A310000000000000910100
  0
ACAD_PROXY_OBJECT
  5
1000001E
102
{ACAD_REACTORS
330
47
102
}
330
47
100
AcDbProxyObject
 90
      499
 91
      503
 93
      113
310
90431323A310000000000000A10100
  0
ACAD_PROXY_OBJECT
  5
1000001F
102
{ACAD_REACTORS
330
47
102
}
330
47
100
AcDbProxyObject
 90
      499
 91
      503
 93
      113
310
90431363A310000000000000C10100
  0
ACAD_PROXY_OBJECT
  5
10000006
102
{ACAD_REACTORS
330
47
102
}
330
47
100
AcDbProxyObject
 90
      499
 91
      503
 93
       41
310
903313A31500
  0
ACAD_PROXY_OBJECT
  5
1000000D
102
{ACAD_REACTORS
330
47
102
}
330
47
100
AcDbProxyObject
 90
      499
 91
      503
 93
      113
310
904313A31304000000000000244000
  0
ACAD_PROXY_OBJECT
  5
10000016
102
{ACAD_REACTORS
330
47
102
}
330
47
100
AcDbProxyObject
 90
      499
 91
      503
 93
      121
310
905313A3130304000000000000594000
  0
ACAD_PROXY_OBJECT
  5
1000000E
102
{ACAD_REACTORS
330
47
102
}
330
47
100
AcDbProxyObject
 90
      499
 91
      503
 93
      113
310
904313A31324000000000000284000
  0
ACAD_PROXY_OBJECT
  5
1000000F
102
{ACAD_REACTORS
330
47
102
}
330
47
100
AcDbProxyObject
 90
      499
 91
      503
 93
      113
310
904313A31364000000000000304000
  0
ACAD_PROXY_OBJECT
  5
10000007
102
{ACAD_REACTORS
330
47
102
}
330
47
100
AcDbProxyObject
 90
      499
 91
      503
 93
      105
310
903313A324000000000000004000
  0
ACAD_PROXY_OBJECT
  5
10000010
102
{ACAD_REACTORS
330
47
102
}
330
47
100
AcDbProxyObject
 90
      499
 91
      503
 93
      113
310
904313A32304000000000000344000
  0
ACAD_PROXY_OBJECT
  5
10000011
102
{ACAD_REACTORS
330
47
102
}
330
47
100
AcDbProxyObject
 90
      499
 91
      503
 93
      113
310
904313A32354000000000000394000
  0
ACAD_PROXY_OBJECT
  5
10000008
102
{ACAD_REACTORS
330
47
102
}
330
47
100
AcDbProxyObject
 90
      499
 91
      503
 93
      105
310
903313A334000000000000084000
  0
ACAD_PROXY_OBJECT
  5
10000012
102
{ACAD_REACTORS
330
47
102
}
330
47
100
AcDbProxyObject
 90
      499
 91
      503
 93
      113
310
904313A33324000000000000404000
  0
ACAD_PROXY_OBJECT
  5
10000009
102
{ACAD_REACTORS
330
47
102
}
330
47
100
AcDbProxyObject
 90
      499
 91
      503
 93
      105
310
903313A344000000000000104000
  0
ACAD_PROXY_OBJECT
  5
10000013
102
{ACAD_REACTORS
330
47
102
}
330
47
100
AcDbProxyObject
 90
      499
 91
      503
 93
      113
310
904313A34304000000000000444000
  0
ACAD_PROXY_OBJECT
  5
1000000A
102
{ACAD_REACTORS
330
47
102
}
330
47
100
AcDbProxyObject
 90
      499
 91
      503
 93
      105
310
903313A354000000000000144000
  0
ACAD_PROXY_OBJECT
  5
10000014
102
{ACAD_REACTORS
330
47
102
}
330
47
100
AcDbProxyObject
 90
      499
 91
      503
 93
      113
310
904313A35304000000000000494000
  0
ACAD_PROXY_OBJECT
  5
1000000B
102
{ACAD_REACTORS
330
47
102
}
330
47
100
AcDbProxyObject
 90
      499
 91
      503
 93
      105
310
903313A364000000000000184000
  0
ACAD_PROXY_OBJECT
  5
1000000C
102
{ACAD_REACTORS
330
47
102
}
330
47
100
AcDbProxyObject
 90
      499
 91
      503
 93
      105
310
903313A384000000000000204000
  0
ACAD_PROXY_OBJECT
  5
10000015
102
{ACAD_REACTORS
330
47
102
}
330
47
100
AcDbProxyObject
 90
      499
 91
      503
 93
      113
310
904313A38304000000000000544000
  0
ACAD_PROXY_OBJECT
  5
10000020
102
{ACAD_REACTORS
330
47
102
}
330
47
100
AcDbProxyObject
 90
      499
 91
      503
 93
      113
310
90432303A310000000000000D10100
  0
ACAD_PROXY_OBJECT
  5
10000017
102
{ACAD_REACTORS
330
47
102
}
330
47
100
AcDbProxyObject
 90
      499
 91
      503
 93
      105
310
903323A310000000000000010100
  0
ACAD_PROXY_OBJECT
  5
10000021
102
{ACAD_REACTORS
330
47
102
}
330
47
100
AcDbProxyObject
 90
      499
 91
      503
 93
      113
310
90433323A310000000000001010100
  0
ACAD_PROXY_OBJECT
  5
10000018
102
{ACAD_REACTORS
330
47
102
}
330
47
100
AcDbProxyObject
 90
      499
 91
      503
 93
      105
310
903333A310000000000000210100
  0
ACAD_PROXY_OBJECT
  5
10000019
102
{ACAD_REACTORS
330
47
102
}
330
47
100
AcDbProxyObject
 90
      499
 91
      503
 93
      105
310
903343A310000000000000410100
  0
ACAD_PROXY_OBJECT
  5
10000022
102
{ACAD_REACTORS
330
47
102
}
330
47
100
AcDbProxyObject
 90
      499
 91
      503
 93
      113
310
90435303A310000000000001250100
  0
ACAD_PROXY_OBJECT
  5
1000001A
102
{ACAD_REACTORS
330
47
102
}
330
47
100
AcDbProxyObject
 90
      499
 91
      503
 93
      105
310
903353A310000000000000510100
  0
ACAD_PROXY_OBJECT
  5
1000001B
102
{ACAD_REACTORS
330
47
102
}
330
47
100
AcDbProxyObject
 90
      499
 91
      503
 93
      105
310
903363A310000000000000610100
  0
ACAD_PROXY_OBJECT
  5
1000001C
102
{ACAD_REACTORS
330
47
102
}
330
47
100
AcDbProxyObject
 90
      499
 91
      503
 93
      105
310
903383A310000000000000810100
  0
ACAD_PROXY_OBJECT
  5
2F
102
{ACAD_REACTORS
330
2A
102
}
330
2A
100
AcDbProxyObject
 90
      499
 91
      501
 93
      436
310
42CC9915DA5C99599C985B595049028333333333333E33F0000000000000F90107901411070040501600405405064090741402480A0340
1001
ACAD
1000
AcDbSavedByObjectVersion
1070
     0
  0
ACAD_PROXY_OBJECT
  5
32
102
{ACAD_REACTORS
330
2A
102
}
330
2A
100
AcDbProxyObject
 90
      499
 91
      501
 93
      388
310
4150985CDA58D07406404333333333333E33F0000000000000F90107A41107004050150841D405064090741402480A0350
1001
ACAD
1000
AcDbSavedByObjectVersion
1070
     0
  0
ACAD_PROXY_OBJECT
  5
36
102
{ACAD_REACTORS
330
2A
102
}
330
2A
100
AcDbProxyObject
 90
      499
 91
      501
 93
      428
310
42109C9A59DA1D195B90C409028333333333333E33F0000000000000F9010790141107004050150841D405064090741402480A029950
1001
ACAD
1000
AcDbSavedByObjectVersion
1070
     0
  0
ACAD_PROXY_OBJECT
  5
3A
102
{ACAD_REACTORS
330
2A
102
}
330
2A
100
AcDbProxyObject
 90
      499
 91
      501
 93
      452
310
42D0DBDB1BDC90DA185B99D95104090240C333333333333E33F0000000000000F90108901411070040501508421405064090741402480A0350
1001
ACAD
1000
AcDbSavedByObjectVersion
1070
     0
  0
ACAD_PROXY_OBJECT
  5
34
102
{ACAD_REACTORS
330
2A
102
}
330
2A
100
AcDbProxyObject
 90
      499
 91
      501
 93
      500
310
4290DBDB98D95C1D1D585B10940D028333333333333E33F0000000000000F90107902409070040501000000000018199010841D405064090740C02480A0340
1001
ACAD
1000
AcDbSavedByObjectVersion
1070
     0
  0
ACAD_PROXY_OBJECT
  5
35
102
{ACAD_REACTORS
330
2A
102
}
330
2A
100
AcDbProxyObject
 90
      499
 91
      501
 93
      412
310
40D11A5B50B409028333333333333E33F0000000000000F9010790141107004050150841D405064090741402480A02677FFFFFD0
1001
ACAD
1000
AcDbSavedByObjectVersion
1070
     0
  0
ACAD_PROXY_OBJECT
  5
3D
102
{ACAD_REACTORS
330
2A
102
}
330
2A
100
AcDbProxyObject
 90
      499
 91
      501
 93
      452
310
43115919D950DBDB1BDC93D999916409028333333333333E33F0000000000000F9010790141107004050150841D405064090741402480A0350
1001
ACAD
1000
AcDbSavedByObjectVersion
1070
     0
  0
ACAD_PROXY_OBJECT
  5
39
102
{ACAD_REACTORS
330
2A
102
}
330
2A
100
AcDbProxyObject
 90
      499
 91
      501
 93
      444
310
42D19858D95C185D1D195C9B90F409028333333333333E33F0000000000000F9010790141107004050150841D405064090741402480A0350
1001
ACAD
1000
AcDbSavedByObjectVersion
1070
     0
  0
ACAD_PROXY_OBJECT
  5
2B
102
{ACAD_REACTORS
330
2A
102
}
330
2A
100
AcDbProxyObject
 90
      499
 91
      501
 93
      380
310
41119B185D240901404333333333333E33F0000000000000F9010740A907004050150841D405064090741402480A1B50
1001
ACAD
1000
AcDbSavedByObjectVersion
1070
     0
  0
ACAD_PROXY_OBJECT
  5
2C
102
{ACAD_REACTORS
330
2A
102
}
330
2A
100
AcDbProxyObject
 90
      499
 91
      501
 93
      468
310
43519B185D15DA5D1A115919D95CD0140901404333333333333E33F0000000000000F90107409019070040501600405405064090741402480A1B50
1001
ACAD
1000
AcDbSavedByObjectVersion
1070
     0
  0
ACAD_PROXY_OBJECT
  5
2D
102
{ACAD_REACTORS
330
2A
102
}
330
2A
100
AcDbProxyObject
 90
      499
 91
      501
 93
      404
310
41D1DBDD5C985D5910240902404333333333333E33F0000000000000F9010740A9070040501641D405064090741402480A1B50
1001
ACAD
1000
AcDbSavedByObjectVersion
1070
     0
  0
ACAD_PROXY_OBJECT
  5
2E
102
{ACAD_REACTORS
330
2A
102
}
330
2A
100
AcDbProxyObject
 90
      499
 91
      501
 93
      492
310
4411DBDD5C985D5915DA5D1A115919D95CD0340902404333333333333E33F0000000000000F90107409019070040501600405405064090741402480A1B50
1001
ACAD
1000
AcDbSavedByObjectVersion
1070
     0
  0
ACAD_PROXY_OBJECT
  5
31
102
{ACAD_REACTORS
330
2A
102
}
330
2A
100
AcDbProxyObject
 90
      499
 91
      501
 93
      476
310
41921A5919195B90640502408333333333333E33F0000000000000F901079024090700405020000000000001110200405405064090740C02480A0340
1001
ACAD
1000
AcDbSavedByObjectVersion
1070
     0
  0
ACAD_PROXY_OBJECT
  5
3B
102
{ACAD_REACTORS
330
2A
102
}
330
2A
100
AcDbProxyObject
 90
      499
 91
      501
 93
      428
310
42529A5D1D195C93D999914409028333333333333E33F0000000000000F9010790141107004050150A41D405064090741402480A0350
1001
ACAD
1000
AcDbSavedByObjectVersion
1070
     0
  0
ACAD_PROXY_OBJECT
  5
38
102
{ACAD_REACTORS
330
2A
102
}
330
2A
100
AcDbProxyObject
 90
      499
 91
      501
 93
      444
310
42D31A5B995C185D1D195C9B90E409028333333333333E33F0000000000000F9010790141107004050750841D405064090741402483A0350
1001
ACAD
1000
AcDbSavedByObjectVersion
1070
     0
  0
ACAD_PROXY_OBJECT
  5
3C
102
{ACAD_REACTORS
330
2A
102
}
330
2A
100
AcDbProxyObject
 90
      499
 91
      501
 93
      444
310
42D3DD995C9A185B99D3D999915409028333333333333E33F0000000000000F9010790141107004050150941D405064090741402480A0350
1001
ACAD
1000
AcDbSavedByObjectVersion
1070
     0
  0
ACAD_PROXY_OBJECT
  5
33
102
{ACAD_REACTORS
330
2A
102
}
330
2A
100
AcDbProxyObject
 90
      499
 91
      501
 93
      428
310
425499585B1A5CDD1A58D08409038333333333333E33F0000000000000F9010740A907004050150800405405064090740C02480A1B40
1001
ACAD
1000
AcDbSavedByObjectVersion
1070
     0
  0
ACAD_PROXY_OBJECT
  5
42
102
{ACAD_REACTORS
330
2A
102
}
330
2A
100
AcDbProxyObject
 90
      499
 91
      501
 93
      420
310
4194DA1859195911B40902404333333333333E33F0000000000000F9010740A41107004050150800405405064090840C02480A0B40
1001
ACAD
1000
AcDbSavedByObjectVersion
1070
     0
  0
ACAD_PROXY_OBJECT
  5
41
102
{ACAD_REACTORS
330
2A
102
}
330
2A
100
AcDbProxyObject
 90
      499
 91
      501
 93
      516
310
4454DA18591959081DDA5D1A08195919D95CD1A40902404333333333333E33F0000000000000F901074090142907004050250800405405064090740C02480A0B40
1001
ACAD
1000
AcDbSavedByObjectVersion
1070
     0
  0
ACAD_PROXY_OBJECT
  5
3E
102
{ACAD_REACTORS
330
2A
102
}
330
2A
100
AcDbProxyObject
 90
      499
 91
      501
 93
      532
310
4394DA1859195CC81BD98811DC985E5174090240C333333333333E33F0000000000000F901079024090741D01000000000000111010841D405064090740C02480A0340
1001
ACAD
1000
AcDbSavedByObjectVersion
1070
     0
  0
ACAD_PROXY_OBJECT
  5
3F
102
{ACAD_REACTORS
330
2A
102
}
330
2A
100
AcDbProxyObject
 90
      499
 91
      501
 93
      476
310
41D4DAD95D18DA1E51840502408333333333333E33F0000000000000F901079024090741D01000000000000111010B41D405064090741802480A0340
1001
ACAD
1000
AcDbSavedByObjectVersion
1070
     0
  0
ACAD_PROXY_OBJECT
  5
37
102
{ACAD_REACTORS
330
2A
102
}
330
2A
100
AcDbProxyObject
 90
      499
 91
      501
 93
      412
310
41D51A1A58DAD95B90D409028333333333333E33F0000000000000F9010790141107004050150C41D405064090741402480A0350
1001
ACAD
1000
AcDbSavedByObjectVersion
1070
     0
  0
ACAD_PROXY_OBJECT
  5
30
102
{ACAD_REACTORS
330
2A
102
}
330
2A
100
AcDbProxyObject
 90
      499
 91
      501
 93
      420
310
4255DA5C99599C985B595059028333333333333E33F0000000000000F90107901411070040501600405405064090740C02480A0340
1001
ACAD
1000
AcDbSavedByObjectVersion
1070
     0
  0
ACAD_PROXY_OBJECT
  5
40
102
{ACAD_REACTORS
330
2A
102
}
330
2A
100
AcDbProxyObject
 90
      499
 91
      501
 93
      404
310
41560B54985E51940902404000000000000E03F0000000000000F9010740501907004050150841D405064090740C02480A1B40
1001
ACAD
1000
AcDbSavedByObjectVersion
1070
     0
  0
XRECORD
  5
10000132
102
{ACAD_REACTORS
330
10000128
102
}
330
10000128
100
AcDbXrecord
340
0
  0
XRECORD
  5
10000131
102
{ACAD_REACTORS
330
10000128
102
}
330
10000128
100
AcDbXrecord
 90
        0
  0
XRECORD
  5
10000148
102
{ACAD_REACTORS
330
10000128
102
}
330
10000128
100
AcDbXrecord
1000
DSTYLE
1002
{
1070
   340
340
11
1002
}
  0
XRECORD
  5
10000133
102
{ACAD_REACTORS
330
10000128
102
}
330
10000128
100
AcDbXrecord
  1
{b2316379-7876-3178-f578-71723064f173}
  0
XRECORD
  5
1000012B
102
{ACAD_REACTORS
330
10000128
102
}
330
10000128
100
AcDbXrecord
  1

  0
XRECORD
  5
10000130
102
{ACAD_REACTORS
330
10000128
102
}
330
10000128
100
AcDbXrecord
 90
        1
  0
XRECORD
  5
1000012D
102
{ACAD_REACTORS
330
10000128
102
}
330
10000128
100
AcDbXrecord
340
1A
  0
XRECORD
  5
1000012F
102
{ACAD_REACTORS
330
10000128
102
}
330
10000128
100
AcDbXrecord
 90
    10781
  0
XRECORD
  5
1000012E
102
{ACAD_REACTORS
330
10000128
102
}
330
10000128
100
AcDbXrecord
340
19
  0
XRECORD
  5
10000135
102
{ACAD_REACTORS
330
10000128
102
}
330
10000128
100
AcDbXrecord
 40
0.0
  0
XRECORD
  5
10000138
102
{ACAD_REACTORS
330
10000128
102
}
330
10000128
100
AcDbXrecord
340
0
  0
XRECORD
  5
1000013E
102
{ACAD_REACTORS
330
10000128
102
}
330
10000128
100
AcDbXrecord
 10
0.0
 20
0.0
 30
0.0
  0
XRECORD
  5
1000013A
102
{ACAD_REACTORS
330
10000128
102
}
330
10000128
100
AcDbXrecord
 10
0.0
 20
0.0
 30
0.0
  0
XRECORD
  5
1000013D
102
{ACAD_REACTORS
330
10000128
102
}
330
10000128
100
AcDbXrecord
 10
0.0
 20
0.0
 30
0.0
  0
XRECORD
  5
1000013B
102
{ACAD_REACTORS
330
10000128
102
}
330
10000128
100
AcDbXrecord
 10
0.0
 20
0.0
 30
0.0
  0
XRECORD
  5
1000013C
102
{ACAD_REACTORS
330
10000128
102
}
330
10000128
100
AcDbXrecord
 10
0.0
 20
0.0
 30
0.0
  0
XRECORD
  5
10000139
102
{ACAD_REACTORS
330
10000128
102
}
330
10000128
100
AcDbXrecord
 10
0.0
 20
0.0
 30
0.0
  0
XRECORD
  5
10000136
102
{ACAD_REACTORS
330
10000128
102
}
330
10000128
100
AcDbXrecord
340
0
  0
XRECORD
  5
10000137
102
{ACAD_REACTORS
330
10000128
102
}
330
10000128
100
AcDbXrecord
 70
     0
  0
XRECORD
  5
1000012C
102
{ACAD_REACTORS
330
10000128
102
}
330
10000128
100
AcDbXrecord
  1

  0
XRECORD
  5
10000129
102
{ACAD_REACTORS
330
10000128
102
}
330
10000128
100
AcDbXrecord
 90
        1
  0
XRECORD
  5
1000012A
102
{ACAD_REACTORS
330
10000128
102
}
330
10000128
100
AcDbXrecord
 90
       70
  0
XRECORD
  5
10000141
102
{ACAD_REACTORS
330
10000128
102
}
330
10000128
100
AcDbXrecord
340
0
  0
XRECORD
  5
10000147
102
{ACAD_REACTORS
330
10000128
102
}
330
10000128
100
AcDbXrecord
 10
0.0
 20
0.0
 30
0.0
  0
XRECORD
  5
10000143
102
{ACAD_REACTORS
330
10000128
102
}
330
10000128
100
AcDbXrecord
 10
0.0
 20
0.0
 30
0.0
  0
XRECORD
  5
10000146
102
{ACAD_REACTORS
330
10000128
102
}
330
10000128
100
AcDbXrecord
 10
0.0
 20
0.0
 30
0.0
  0
XRECORD
  5
10000144
102
{ACAD_REACTORS
330
10000128
102
}
330
10000128
100
AcDbXrecord
 10
0.0
 20
0.0
 30
0.0
  0
XRECORD
  5
10000145
102
{ACAD_REACTORS
330
10000128
102
}
330
10000128
100
AcDbXrecord
 10
0.0
 20
0.0
 30
0.0
  0
XRECORD
  5
10000142
102
{ACAD_REACTORS
330
10000128
102
}
330
10000128
100
AcDbXrecord
 10
0.0
 20
0.0
 30
0.0
  0
XRECORD
  5
1000013F
102
{ACAD_REACTORS
330
10000128
102
}
330
10000128
100
AcDbXrecord
340
0
  0
XRECORD
  5
10000140
102
{ACAD_REACTORS
330
10000128
102
}
330
10000128
100
AcDbXrecord
 70
     0
  0
XRECORD
  5
10000134
102
{ACAD_REACTORS
330
10000128
102
}
330
10000128
100
AcDbXrecord
  1
{FAEB1C32-E019-11D5-929B-00C0DF256EC4}
  0
DICTIONARYVAR
  5
10000153
102
{ACAD_REACTORS
330
10000149
102
}
330
10000149
100
DictionaryVariables
280
     0
  1
1:1
  0
DICTIONARYVAR
  5
1000014B
102
{ACAD_REACTORS
330
10000149
102
}
330
10000149
100
DictionaryVariables
280
     0
  1
Standard
  0
DICTIONARYVAR
  5
1000014A
102
{ACAD_REACTORS
330
10000149
102
}
330
10000149
100
DictionaryVariables
280
     0
  1
Standard
  0
DICTIONARYVAR
  5
1000014E
102
{ACAD_REACTORS
330
10000149
102
}
330
10000149
100
DictionaryVariables
280
     0
  1
2
  0
DICTIONARYVAR
  5
1000014F
102
{ACAD_REACTORS
330
10000149
102
}
330
10000149
100
DictionaryVariables
280
     0
  1
1
  0
DICTIONARYVAR
  5
10000154
102
{ACAD_REACTORS
330
10000149
102
}
330
10000149
100
DictionaryVariables
280
     0
  1
1
  0
XRECORD
  5
10000003
102
{ACAD_REACTORS
330
10000001
102
}
330
10000001
100
AcDbXrecord
 70
     4
  0
XRECORD
  5
10000002
102
{ACAD_REACTORS
330
10000001
102
}
330
10000001
100
AcDbXrecord
1040
86.0
  0
ACAD_PROXY_OBJECT
  5
10000005
102
{ACAD_REACTORS
330
10000001
102
}
330
10000001
100
AcDbProxyObject
 90
      499
 91
      509
 93
       34
310
40C8804000
  0
DICTIONARY
  5
10000157
330
45
100
AcDbDictionary
280
     1
  3
ACAD_XREC_ROUNDTRIP
360
10000158
  0
DICTIONARY
  5
10000155
330
44
100
AcDbDictionary
280
     1
  3
ACAD_XREC_ROUNDTRIP
360
10000156
  0
DICTIONARY
  5
10000159
330
46
100
AcDbDictionary
280
     1
  3
ACAD_XREC_ROUNDTRIP
360
1000015A
  0
XRECORD
  5
10000158
102
{ACAD_REACTORS
330
10000157
102
}
330
10000157
100
AcDbXrecord
102
MATERIAL
148
0.0
149
0.0
149
0.0
 93
        0
 94
      127
282
     0
 72
     1
 77
     1
171
     1
175
     1
179
     1
273
     0
  0
XRECORD
  5
10000156
102
{ACAD_REACTORS
330
10000155
102
}
330
10000155
100
AcDbXrecord
102
MATERIAL
148
0.0
149
0.0
149
0.0
 93
        0
 94
      127
282
     0
 72
     1
 77
     1
171
     1
175
     1
179
     1
273
     0
  0
XRECORD
  5
1000015A
102
{ACAD_REACTORS
330
10000159
102
}
330
10000159
100
AcDbXrecord
102
MATERIAL
148
0.0
149
0.0
149
0.0
 93
        0
 94
      127
282
     0
 72
     1
 77
     1
171
     1
175
     1
179
     1
273
     0
  0
ENDSEC
  0
EOF
