  0
SECTION
  2
HEADER
  9
$ACADVER
  1
AC1014
  9
$ACADMAINTVER
 70
     9
  9
$DWGCODEPAGE
  3
ANSI_1252
  9
$INSBASE
 10
0.0
 20
0.0
 30
0.0
  9
$EXTMIN
 10
1.000000000000000E+20
 20
1.000000000000000E+20
 30
1.000000000000000E+20
  9
$EXTMAX
 10
-1.000000000000000E+20
 20
-1.000000000000000E+20
 30
-1.000000000000000E+20
  9
$LIMMIN
 10
0.0
 20
0.0
  9
$LIMMAX
 10
12.0
 20
9.0
  9
$ORTHOMODE
 70
     0
  9
$REGENMODE
 70
     1
  9
$FILLMODE
 70
     1
  9
$QTEXTMODE
 70
     0
  9
$MIRRTEXT
 70
     1
  9
$DRAGMODE
 70
     2
  9
$LTSCALE
 40
1.0
  9
$OSMODE
 70
    37
  9
$ATTMODE
 70
     1
  9
$TEXTSIZE
 40
0.2
  9
$TRACEWID
 40
0.05
  9
$TEXTSTYLE
  7
STANDARD
  9
$CLAYER
  8
0
  9
$CELTYPE
  6
BYLAYER
  9
$CECOLOR
 62
   256
  9
$CELTSCALE
 40
1.0
  9
$DELOBJ
 70
     1
  9
$DISPSILH
 70
     0
  9
$DIMSCALE
 40
1.0
  9
$DIMASZ
 40
0.18
  9
$DIMEXO
 40
0.0625
  9
$DIMDLI
 40
0.38
  9
$DIMRND
 40
0.0
  9
$DIMDLE
 40
0.0
  9
$DIMEXE
 40
0.18
  9
$DIMTP
 40
0.0
  9
$DIMTM
 40
0.0
  9
$DIMTXT
 40
0.18
  9
$DIMCEN
 40
0.09
  9
$DIMTSZ
 40
0.0
  9
$DIMTOL
 70
     0
  9
$DIMLIM
 70
     0
  9
$DIMTIH
 70
     1
  9
$DIMTOH
 70
     1
  9
$DIMSE1
 70
     0
  9
$DIMSE2
 70
     0
  9
$DIMTAD
 70
     0
  9
$DIMZIN
 70
     0
  9
$DIMBLK
  1

  9
$DIMASO
 70
     1
  9
$DIMSHO
 70
     1
  9
$DIMPOST
  1

  9
$DIMAPOST
  1

  9
$DIMALT
 70
     0
  9
$DIMALTD
 70
     2
  9
$DIMALTF
 40
25.4
  9
$DIMLFAC
 40
1.0
  9
$DIMTOFL
 70
     0
  9
$DIMTVP
 40
0.0
  9
$DIMTIX
 70
     0
  9
$DIMSOXD
 70
     0
  9
$DIMSAH
 70
     0
  9
$DIMBLK1
  1

  9
$DIMBLK2
  1

  9
$DIMSTYLE
  2
STANDARD
  9
$DIMCLRD
 70
     0
  9
$DIMCLRE
 70
     0
  9
$DIMCLRT
 70
     0
  9
$DIMTFAC
 40
1.0
  9
$DIMGAP
 40
0.09
  9
$DIMJUST
 70
     0
  9
$DIMSD1
 70
     0
  9
$DIMSD2
 70
     0
  9
$DIMTOLJ
 70
     1
  9
$DIMTZIN
 70
     0
  9
$DIMALTZ
 70
     0
  9
$DIMALTTZ
 70
     0
  9
$DIMFIT
 70
     3
  9
$DIMUPT
 70
     0
  9
$DIMUNIT
 70
     2
  9
$DIMDEC
 70
     4
  9
$DIMTDEC
 70
     4
  9
$DIMALTU
 70
     2
  9
$DIMALTTD
 70
     2
  9
$DIMTXSTY
  7
STANDARD
  9
$DIMAUNIT
 70
     0
  9
$LUNITS
 70
     2
  9
$LUPREC
 70
     4
  9
$SKETCHINC
 40
0.1
  9
$FILLETRAD
 40
0.5
  9
$AUNITS
 70
     0
  9
$AUPREC
 70
     0
  9
$MENU
  1
.
  9
$ELEVATION
 40
0.0
  9
$PELEVATION
 40
0.0
  9
$THICKNESS
 40
0.0
  9
$LIMCHECK
 70
     0
  9
$CHAMFERA
 40
0.0
  9
$CHAMFERB
 40
0.0
  9
$CHAMFERC
 40
0.0
  9
$CHAMFERD
 40
0.0
  9
$SKPOLY
 70
     0
  9
$TDCREATE
 40
2458359.619751377
  9
$TDUPDATE
 40
2458359.619751424
  9
$TDINDWG
 40
0.0000000116
  9
$TDUSRTIMER
 40
0.0000000116
  9
$USRTIMER
 70
     1
  9
$ANGBASE
 50
0.0
  9
$ANGDIR
 70
     0
  9
$PDMODE
 70
     0
  9
$PDSIZE
 40
0.0
  9
$PLINEWID
 40
0.0
  9
$COORDS
 70
     1
  9
$SPLFRAME
 70
     0
  9
$SPLINETYPE
 70
     6
  9
$SPLINESEGS
 70
     8
  9
$ATTDIA
 70
     0
  9
$ATTREQ
 70
     1
  9
$HANDLING
 70
     1
  9
$HANDSEED
  5
1000015C
  9
$SURFTAB1
 70
     6
  9
$SURFTAB2
 70
     6
  9
$SURFTYPE
 70
     6
  9
$SURFU
 70
     6
  9
$SURFV
 70
     6
  9
$UCSNAME
  2

  9
$UCSORG
 10
0.0
 20
0.0
 30
0.0
  9
$UCSXDIR
 10
1.0
 20
0.0
 30
0.0
  9
$UCSYDIR
 10
0.0
 20
1.0
 30
0.0
  9
$PUCSNAME
  2

  9
$PUCSORG
 10
0.0
 20
0.0
 30
0.0
  9
$PUCSXDIR
 10
1.0
 20
0.0
 30
0.0
  9
$PUCSYDIR
 10
0.0
 20
1.0
 30
0.0
  9
$USERI1
 70
     0
  9
$USERI2
 70
     0
  9
$USERI3
 70
     0
  9
$USERI4
 70
     0
  9
$USERI5
 70
     0
  9
$USERR1
 40
0.0
  9
$USERR2
 40
0.0
  9
$USERR3
 40
0.0
  9
$USERR4
 40
0.0
  9
$USERR5
 40
0.0
  9
$WORLDVIEW
 70
     1
  9
$SHADEDGE
 70
     3
  9
$SHADEDIF
 70
    70
  9
$TILEMODE
 70
     1
  9
$MAXACTVP
 70
    64
  9
$PINSBASE
 10
0.0
 20
0.0
 30
0.0
  9
$PLIMCHECK
 70
     0
  9
$PEXTMIN
 10
1.000000000000000E+20
 20
1.000000000000000E+20
 30
1.000000000000000E+20
  9
$PEXTMAX
 10
-1.000000000000000E+20
 20
-1.000000000000000E+20
 30
-1.000000000000000E+20
  9
$PLIMMIN
 10
0.0
 20
0.0
  9
$PLIMMAX
 10
12.0
 20
9.0
  9
$UNITMODE
 70
     0
  9
$VISRETAIN
 70
     1
  9
$PLINEGEN
 70
     0
  9
$PSLTSCALE
 70
     1
  9
$TREEDEPTH
 70
  3020
  9
$PICKSTYLE
 70
     1
  9
$CMLSTYLE
  2
STANDARD
  9
$CMLJUST
 70
     0
  9
$CMLSCALE
 40
1.0
  9
$PROXYGRAPHICS
 70
     1
  9
$MEASUREMENT
 70
     0
  0
ENDSEC
  0
SECTION
  2
CLASSES
  0
CLASS
  1
ACDBDICTIONARYWDFLT
  2
AcDbDictionaryWithDefault
  3
ObjectDBX Classes
 90
        0
280
     0
281
     0
  0
CLASS
  1
VISUALSTYLE
  2
AcDbVisualStyle
  3
ObjectDBX Classes
 90
     4095
280
     0
281
     0
  0
CLASS
  1
MATERIAL
  2
AcDbMaterial
  3
ObjectDBX Classes
 90
     1153
280
     0
281
     0
  0
CLASS
  1
SCALE
  2
AcDbScale
  3
ObjectDBX Classes
 90
     1153
280
     0
281
     0
  0
CLASS
  1
TABLESTYLE
  2
AcDbTableStyle
  3
ObjectDBX Classes
 90
     4095
280
     0
281
     0
  0
CLASS
  1
MLEADERSTYLE
  2
AcDbMLeaderStyle
  3
ACDB_MLEADERSTYLE_CLASS
 90
     4095
280
     0
281
     0
  0
CLASS
  1
SUN
  2
AcDbSun
  3
SCENEOE
 90
     1153
280
     0
281
     0
  0
CLASS
  1
SORTENTSTABLE
  2
AcDbSortentsTable
  3
ObjectDBX Classes
 90
        0
280
     0
281
     0
  0
CLASS
  1
DICTIONARYVAR
  2
AcDbDictionaryVar
  3
ObjectDBX Classes
 90
        0
280
     0
281
     0
  0
CLASS
  1
XRECORD
  2
AcDbXrecord
  3
ObjectDBX Classes
 90
        0
280
     0
281
     0
  0
CLASS
  1
LWPOLYLINE
  2
AcDbPolyline
  3
ObjectDBX Classes
 90
        0
280
     0
281
     1
  0
CLASS
  1
HATCH
  2
AcDbHatch
  3
ObjectDBX Classes
 90
        0
280
     0
281
     1
  0
CLASS
  1
ACDBPLACEHOLDER
  2
AcDbPlaceHolder
  3
ObjectDBX Classes
 90
        0
280
     0
281
     0
  0
CLASS
  1
LAYOUT
  2
AcDbLayout
  3
ObjectDBX Classes
 90
        0
280
     0
281
     0
  0
ENDSEC
  0
SECTION
  2
TABLES
  0
TABLE
  2
VPORT
  5
8
102
{ACAD_XDICTIONARY
360
10000151
102
}
330
0
100
AcDbSymbolTable
 70
     1
  0
VPORT
  5
29
330
8
100
AcDbSymbolTableRecord
100
AcDbViewportTableRecord
  2
*ACTIVE
 70
     0
 10
0.0
 20
0.0
 11
1.0
 21
1.0
 12
10.42990654205607
 22
4.5
 13
0.0
 23
0.0
 14
0.5
 24
0.5
 15
0.5
 25
0.5
 16
0.0
 26
0.0
 36
1.0
 17
0.0
 27
0.0
 37
0.0
 40
9.0
 41
1.972972972850329
 42
50.0
 43
0.0
 44
0.0
 50
0.0
 51
0.0
 71
     0
 72
   100
 73
     1
 74
     3
 75
     0
 76
     0
 77
     0
 78
     0
  0
ENDTAB
  0
TABLE
  2
LTYPE
  5
5
330
0
100
AcDbSymbolTable
 70
     7
  0
LTYPE
  5
14
330
5
100
AcDbSymbolTableRecord
100
AcDbLinetypeTableRecord
  2
BYBLOCK
 70
     0
  3

 72
    65
 73
     0
 40
0.0
  0
LTYPE
  5
15
330
5
100
AcDbSymbolTableRecord
100
AcDbLinetypeTableRecord
  2
BYLAYER
 70
     0
  3

 72
    65
 73
     0
 40
0.0
  0
LTYPE
  5
16
330
5
100
AcDbSymbolTableRecord
100
AcDbLinetypeTableRecord
  2
CONTINUOUS
 70
     0
  3
Solid line
 72
    65
 73
     0
 40
0.0
  0
LTYPE
  5
10000024
330
5
100
AcDbSymbolTableRecord
100
AcDbLinetypeTableRecord
  2
ONS_PHANTOM
 70
     0
  3
Onshape Phantom line ______ __ __ ______
 72
    65
 73
     6
 40
0.4999999999999999
 49
0.25
 74
     0
 49
-0.05
 74
     0
 49
0.05
 74
     0
 49
-0.05
 74
     0
 49
0.05
 74
     0
 49
-0.05
 74
     0
  0
LTYPE
  5
10000025
330
5
100
AcDbSymbolTableRecord
100
AcDbLinetypeTableRecord
  2
CENTER
 70
     0
  3
Center line ____ _ ____ _ ____ _
 72
    65
 73
     4
 40
0.7199999999999999
 49
0.45
 74
     0
 49
-0.09
 74
     0
 49
0.09
 74
     0
 49
-0.09
 74
     0
  0
LTYPE
  5
10000026
330
5
100
AcDbSymbolTableRecord
100
AcDbLinetypeTableRecord
  2
DASHED
 70
     0
  3
Dashed line __ __ __ __ __
 72
    65
 73
     2
 40
0.75
 49
0.5
 74
     0
 49
-0.25
 74
     0
  0
LTYPE
  5
10000027
330
5
100
AcDbSymbolTableRecord
100
AcDbLinetypeTableRecord
  2
ONS_DASHDOT
 70
     0
  3
Onshape Dashed with Dot _ . ____ . ____
 72
    65
 73
     4
 40
0.71
 49
0.5
 74
     0
 49
-0.1
 74
     0
 49
0.01
 74
     0
 49
-0.1
 74
     0
  0
LTYPE
  5
10000028
330
5
100
AcDbSymbolTableRecord
100
AcDbLinetypeTableRecord
  2
ONS_DOTTED
 70
     0
  3
Onshape Dotted line . . . . . . .
 72
    65
 73
     2
 40
0.11
 49
0.01
 74
     0
 49
-0.1
 74
     0
  0
LTYPE
  5
10000029
330
5
100
AcDbSymbolTableRecord
100
AcDbLinetypeTableRecord
  2
HIDDEN
 70
     0
  3
Hidden line ____ ____ ____ ____ 
 72
    65
 73
     2
 40
0.15
 49
0.1
 74
     0
 49
-0.05
 74
     0
  0
ENDTAB
  0
TABLE
  2
LAYER
  5
2
330
0
100
AcDbSymbolTable
 70
    34
  0
LAYER
  5
10
330
2
100
AcDbSymbolTableRecord
100
AcDbLayerTableRecord
  2
0
 70
     0
 62
     7
  6
CONTINUOUS
  0
LAYER
  5
1000002A
330
2
100
AcDbSymbolTableRecord
100
AcDbLayerTableRecord
  2
SECTION_CUTTING_LINE
 70
     0
 62
     7
  6
ONS_PHANTOM
  0
LAYER
  5
1000002B
330
2
100
AcDbSymbolTableRecord
100
AcDbLayerTableRecord
  2
DETAIL_VIEW_BORDER
 70
     0
 62
     7
  6
CONTINUOUS
  0
LAYER
  5
1000002C
330
2
100
AcDbSymbolTableRecord
100
AcDbLayerTableRecord
  2
DETAIL_VIEW_PARENT_BORDER
 70
     0
 62
     7
  6
ONS_PHANTOM
  0
LAYER
  5
1000002D
330
2
100
AcDbSymbolTableRecord
100
AcDbLayerTableRecord
  2
TEXT
 70
     0
 62
     7
  6
CONTINUOUS
  0
LAYER
  5
1000002E
330
2
100
AcDbSymbolTableRecord
100
AcDbLayerTableRecord
  2
SKETCHED_GEOMETRY
 70
     0
 62
    -7
  6
CONTINUOUS
  0
LAYER
  5
1000002F
330
2
100
AcDbSymbolTableRecord
100
AcDbLayerTableRecord
  2
CENTERLINES
 70
     0
 62
    -7
  6
CENTER
  0
LAYER
  5
10000030
330
2
100
AcDbSymbolTableRecord
100
AcDbLayerTableRecord
  2
CENTERMARKS
 70
     0
 62
    -7
  6
CONTINUOUS
  0
LAYER
  5
10000031
330
2
100
AcDbSymbolTableRecord
100
AcDbLayerTableRecord
  2
TABLES
 70
     0
 62
     7
  6
CONTINUOUS
  0
LAYER
  5
10000032
330
2
100
AcDbSymbolTableRecord
100
AcDbLayerTableRecord
  2
IMAGES
 70
     0
 62
    -7
  6
CONTINUOUS
  0
LAYER
  5
10000033
330
2
100
AcDbSymbolTableRecord
100
AcDbLayerTableRecord
  2
ANNOTATION_LINES
 70
     0
 62
    -7
  6
CONTINUOUS
  0
LAYER
  5
10000034
330
2
100
AcDbSymbolTableRecord
100
AcDbLayerTableRecord
  2
ANNOTATION_TEXT
 70
     0
 62
    -7
  6
CONTINUOUS
  0
LAYER
  5
10000035
330
2
100
AcDbSymbolTableRecord
100
AcDbLayerTableRecord
  2
SIDE_THREAD_SYMBOLS
 70
     0
 62
     7
  6
HIDDEN
  0
LAYER
  5
10000036
330
2
100
AcDbSymbolTableRecord
100
AcDbLayerTableRecord
  2
SIDE_THREAD_SYMBOLS_HIDDEN
 70
     0
 62
    -7
  6
HIDDEN
  0
LAYER
  5
10000037
330
2
100
AcDbSymbolTableRecord
100
AcDbLayerTableRecord
  2
SURFACE_THREAD_SYMBOLS
 70
     0
 62
     7
  6
HIDDEN
  0
LAYER
  5
10000038
330
2
100
AcDbSymbolTableRecord
100
AcDbLayerTableRecord
  2
SURFACE_THREAD_SYMBOLS_ON_
 70
     0
 62
     7
  6
HIDDEN
  0
LAYER
  5
10000039
330
2
100
AcDbSymbolTableRecord
100
AcDbLayerTableRecord
  2
SURFACE_THREAD_SYMBOLS_HID
 70
     0
 62
    -7
  6
HIDDEN
  0
LAYER
  5
1000003A
330
2
100
AcDbSymbolTableRecord
100
AcDbLayerTableRecord
  2
BLIND_THREAD_SYMBOLS
 70
     0
 62
     7
  6
CONTINUOUS
  0
LAYER
  5
1000003B
330
2
100
AcDbSymbolTableRecord
100
AcDbLayerTableRecord
  2
BLIND_THREAD_SYMBOLS_HIDDE
 70
     0
 62
    -7
  6
HIDDEN
  0
LAYER
  5
1000003C
330
2
100
AcDbSymbolTableRecord
100
AcDbLayerTableRecord
  2
EXPLODE_LINES
 70
     0
 62
     7
  6
CONTINUOUS
  0
LAYER
  5
1000003D
330
2
100
AcDbSymbolTableRecord
100
AcDbLayerTableRecord
  2
BREAK_LINES
 70
     0
 62
    -7
  6
CONTINUOUS
  0
LAYER
  5
1000003E
330
2
100
AcDbSymbolTableRecord
100
AcDbLayerTableRecord
  2
SHEETMETAL_BEND_LINES_UP
 70
     0
 62
    -7
  6
CENTER
  0
LAYER
  5
1000003F
330
2
100
AcDbSymbolTableRecord
100
AcDbLayerTableRecord
  2
SHEETMETAL_BEND_LINES_DOWN
 70
     0
 62
    -7
  6
CENTER
  0
LAYER
  5
10000040
330
2
100
AcDbSymbolTableRecord
100
AcDbLayerTableRecord
  2
SHEETMETAL_BEND_TANGENT_LI
 70
     0
 62
    -7
  6
CONTINUOUS
  0
LAYER
  5
10000041
330
2
100
AcDbSymbolTableRecord
100
AcDbLayerTableRecord
  2
SHEETMETAL_CUT_LINES
 70
     0
 62
     7
  6
CONTINUOUS
  0
LAYER
  5
10000042
330
2
100
AcDbSymbolTableRecord
100
AcDbLayerTableRecord
  2
HIDDEN
 70
     0
 62
    -7
  6
HIDDEN
  0
LAYER
  5
10000043
330
2
100
AcDbSymbolTableRecord
100
AcDbLayerTableRecord
  2
VISIBLE
 70
     0
 62
     7
  6
CONTINUOUS
  0
LAYER
  5
10000044
330
2
100
AcDbSymbolTableRecord
100
AcDbLayerTableRecord
  2
MODELSKETCH_VISIBLE
 70
     0
 62
     7
  6
CONTINUOUS
  0
LAYER
  5
10000045
330
2
100
AcDbSymbolTableRecord
100
AcDbLayerTableRecord
  2
MODELSKETCH_CONSTRUCTION
 70
     0
 62
    -7
  6
CENTER
  0
LAYER
  5
10000046
330
2
100
AcDbSymbolTableRecord
100
AcDbLayerTableRecord
  2
TANGENT_LINES
 70
     0
 62
    -7
  6
CONTINUOUS
  0
LAYER
  5
10000047
330
2
100
AcDbSymbolTableRecord
100
AcDbLayerTableRecord
  2
TANGENT_HIDDEN
 70
     0
 62
    -7
  6
HIDDEN
  0
LAYER
  5
10000048
330
2
100
AcDbSymbolTableRecord
100
AcDbLayerTableRecord
  2
INVISIBLE_LINES
 70
     0
 62
    -7
  6
CONTINUOUS
  0
LAYER
  5
10000049
330
2
100
AcDbSymbolTableRecord
100
AcDbLayerTableRecord
  2
VIEW_HATCHES
 70
     0
 62
    -7
  6
CONTINUOUS
  0
LAYER
  5
1000004A
330
2
100
AcDbSymbolTableRecord
100
AcDbLayerTableRecord
  2
SECTION_JOG_LINES
 70
     0
 62
    -7
  6
CONTINUOUS
  0
ENDTAB
  0
TABLE
  2
STYLE
  5
3
330
0
100
AcDbSymbolTable
 70
     2
  0
STYLE
  5
11
330
3
100
AcDbSymbolTableRecord
100
AcDbTextStyleTableRecord
  2
STANDARD
 70
     0
 40
0.0
 41
1.0
 50
0.0
 71
     0
 42
0.2
  3
txt
  4

  0
STYLE
  5
10000004
330
3
100
AcDbSymbolTableRecord
100
AcDbTextStyleTableRecord
  2
TTFSTYLE
 70
     0
 40
0.0
 41
1.0
 50
0.0
 71
     0
 42
0.2
  3
Verdana.ttf
  4

1001
ACAD
1000
Verdana
1071
       34
  0
ENDTAB
  0
TABLE
  2
VIEW
  5
6
330
0
100
AcDbSymbolTable
 70
     0
  0
ENDTAB
  0
TABLE
  2
UCS
  5
7
330
0
100
AcDbSymbolTable
 70
     0
  0
ENDTAB
  0
TABLE
  2
APPID
  5
9
330
0
100
AcDbSymbolTable
 70
     2
  0
APPID
  5
12
330
9
100
AcDbSymbolTableRecord
100
AcDbRegAppTableRecord
  2
ACAD
 70
     0
  0
APPID
  5
1000015B
330
9
100
AcDbSymbolTableRecord
100
AcDbRegAppTableRecord
  2
ACAD_MLEADERVER
 70
     0
  0
ENDTAB
  0
TABLE
  2
DIMSTYLE
  5
A
330
0
100
AcDbSymbolTable
 70
     1
  0
DIMSTYLE
105
27
330
A
100
AcDbSymbolTableRecord
100
AcDbDimStyleTableRecord
  2
STANDARD
 70
     0
  3

  4

  5

  6

  7

 40
1.0
 41
0.18
 42
0.0625
 43
0.38
 44
0.18
 45
0.0
 46
0.0
 47
0.0
 48
0.0
140
0.18
141
0.09
142
0.0
143
25.4
144
1.0
145
0.0
146
1.0
147
0.09
 71
     0
 72
     0
 73
     1
 74
     1
 75
     0
 76
     0
 77
     0
 78
     0
170
     0
171
     2
172
     0
173
     0
174
     0
175
     0
176
     0
177
     0
178
     0
270
     2
271
     4
272
     4
273
     2
274
     2
340
11
275
     0
280
     0
281
     0
282
     0
283
     1
284
     0
285
     0
286
     0
287
     3
288
     0
  0
ENDTAB
  0
TABLE
  2
BLOCK_RECORD
  5
1
330
0
100
AcDbSymbolTable
 70
     0
  0
BLOCK_RECORD
  5
1F
102
{ACAD_XDICTIONARY
360
10000126
102
}
330
1
100
AcDbSymbolTableRecord
100
AcDbBlockTableRecord
  2
*MODEL_SPACE
  0
BLOCK_RECORD
  5
1B
330
1
100
AcDbSymbolTableRecord
100
AcDbBlockTableRecord
  2
*PAPER_SPACE
  0
ENDTAB
  0
ENDSEC
  0
SECTION
  2
BLOCKS
  0
BLOCK
  5
20
330
1F
100
AcDbEntity
  8
0
100
AcDbBlockBegin
  2
*MODEL_SPACE
 70
     0
 10
0.0
 20
0.0
 30
0.0
  3
*MODEL_SPACE
  1

  0
ENDBLK
  5
21
330
1F
100
AcDbEntity
  8
0
100
AcDbBlockEnd
  0
BLOCK
  5
1C
330
1B
100
AcDbEntity
 67
     1
  8
0
100
AcDbBlockBegin
  2
*PAPER_SPACE
 70
     0
 10
0.0
 20
0.0
 30
0.0
  3
*PAPER_SPACE
  1

  0
ENDBLK
  5
1D
330
1B
100
AcDbEntity
 67
     1
  8
0
100
AcDbBlockEnd
  0
ENDSEC
  0
SECTION
  2
ENTITIES
  0
CIRCLE
  5
1000004B
102
{ACAD_XDICTIONARY
360
1000004C
102
}
330
1F
100
AcDbEntity
  8
VISIBLE
100
AcDbCircle
 10
50.0
 20
-25.0
 30
0.0
 40
1.5
  0
ARC
  5
1000004E
102
{ACAD_XDICTIONARY
360
1000004F
102
}
330
1F
100
AcDbEntity
  8
VISIBLE
100
AcDbCircle
 10
46.18565294131724
 20
-30.35596226921716
 30
0.0
 40
0.5274886014169765
100
AcDbArc
 50
329.124869040016
 51
54.54273182189635
  0
SPLINE
  5
10000051
102
{ACAD_XDICTIONARY
360
10000052
102
}
330
1F
100
AcDbEntity
  8
VISIBLE
100
AcDbSpline
210
0.0
220
0.0
230
1.0
 70
     8
 71
     3
 72
    44
 73
    40
 74
     0
 42
0.000000001
 43
0.00000001
 40
0.037457381669253
 40
0.037457381669253
 40
0.037457381669253
 40
0.037457381669253
 40
0.1173270388283835
 40
0.1245633749097423
 40
0.1339054427745937
 40
0.1449591259385427
 40
0.157492824253456
 40
0.1713493489450594
 40
0.1864129793246034
 40
0.2025939139161439
 40
0.2198198341683088
 40
0.2380308751317533
 40
0.2571764150177157
 40
0.2772129162632481
 40
0.2981024128312289
 40
0.3198114144576317
 40
0.3423100907832792
 40
0.365571649656865
 40
0.3895718539492971
 40
0.414288639560484
 40
0.439701808899202
 40
0.4657927816818096
 40
0.4925443899635605
 40
0.5199407077925867
 40
0.5479669083115218
 40
0.5766091428695077
 40
0.6058544379685357
 40
0.635690606797499
 40
0.6661061728017248
 40
0.6970903032611988
 40
0.728632751252859
 40
0.7607238046834919
 40
0.793354241322811
 40
0.8265152889579642
 40
0.8601985899430571
 40
0.8943961695393764
 40
0.9291004075405692
 40
0.9643040127571182
 40
0.9924917445858313
 40
0.9924917445858313
 40
0.9924917445858313
 40
0.9924917445858313
 10
46.6383899333803
 20
-30.62665294257427
 30
0.0
 10
46.46566262521465
 20
-30.91554373063219
 30
0.0
 10
46.31924435876144
 20
-31.16063015377236
 30
0.0
 10
46.31582825525031
 20
-31.16731267443071
 30
0.0
 10
46.31192128798248
 20
-31.17456873259107
 30
0.0
 10
46.30757381030105
 20
-31.1832105106988
 30
0.0
 10
46.30190990668744
 20
-31.19495789260027
 30
0.0
 10
46.29536699394716
 20
-31.20929030019355
 30
0.0
 10
46.28794678032094
 20
-31.22642943074215
 30
0.0
 10
46.27979031140887
 20
-31.2463583225004
 30
0.0
 10
46.27099736161034
 20
-31.26912919612919
 30
0.0
 10
46.26168153455728
 20
-31.29476929988124
 30
0.0
 10
46.2519536667668
 20
-31.32330903537725
 30
0.0
 10
46.24192662086121
 20
-31.35477360509609
 30
0.0
 10
46.23171377579348
 20
-31.38918541089958
 30
0.0
 10
46.221429350767
 20
-31.42656332648895
 30
0.0
 10
46.21118819782171
 20
-31.46692287737865
 30
0.0
 10
46.20110574575954
 20
-31.51027616416431
 30
0.0
 10
46.19129790006165
 20
-31.55663186233673
 30
0.0
 10
46.18188095463333
 20
-31.60599520350655
 30
0.0
 10
46.17297149966237
 20
-31.65836796493787
 30
0.0
 10
46.16468633012872
 20
-31.71374845974852
 30
0.0
 10
46.15714235377548
 20
-31.77213152990672
 30
0.0
 10
46.1504564989522
 20
-31.83350854141438
 30
0.0
 10
46.14474562230443
 20
-31.89786738184745
 30
0.0
 10
46.14012641634252
 20
-31.96519246018316
 30
0.0
 10
46.13671531714007
 20
-32.03546470900913
 30
0.0
 10
46.13462841144693
 20
-32.10866158878914
 30
0.0
 10
46.13398134624638
 20
-32.18475709541612
 30
0.0
 10
46.13488922938657
 20
-32.2637217663175
 30
0.0
 10
46.13746656519428
 20
-32.34552270326937
 30
0.0
 10
46.14182705698566
 20
-32.43012354228547
 30
0.0
 10
46.14808392061594
 20
-32.51748463729724
 30
0.0
 10
46.15634824402043
 20
-32.607562436797
 30
0.0
 10
46.16673481972158
 20
-32.7003119572061
 30
0.0
 10
46.17933942807828
 20
-32.79567743581597
 30
0.0
 10
46.19432512097578
 20
-32.89362812380944
 30
0.0
 10
46.2103649429432
 20
-32.98688403849636
 30
0.0
 10
46.22228357380482
 20
-33.04783872264393
 30
0.0
 10
46.22764794204677
 20
-33.07497169818294
 30
0.0
  0
ARC
  5
10000054
102
{ACAD_XDICTIONARY
360
10000055
102
}
330
1F
100
AcDbEntity
  8
VISIBLE
100
AcDbCircle
 10
50.0
 20
-25.0
 30
0.0
 40
8.912676813146138
100
AcDbArc
 50
244.9596186495995
 51
250.0403813504005
  0
SPLINE
  5
10000057
102
{ACAD_XDICTIONARY
360
10000058
102
}
330
1F
100
AcDbEntity
  8
VISIBLE
100
AcDbSpline
210
0.0
220
0.0
230
1.0
 70
     8
 71
     3
 72
    44
 73
    40
 74
     0
 42
0.000000001
 43
0.00000001
 40
0.0374573816692536
 40
0.0374573816692536
 40
0.0374573816692536
 40
0.0374573816692536
 40
0.1173270388283835
 40
0.1245633749097423
 40
0.1339054427745937
 40
0.1449591259385427
 40
0.157492824253456
 40
0.1713493489450594
 40
0.1864129793246034
 40
0.2025939139161439
 40
0.2198198341683088
 40
0.2380308751317533
 40
0.2571764150177157
 40
0.2772129162632481
 40
0.2981024128312289
 40
0.3198114144576317
 40
0.3423100907832792
 40
0.365571649656865
 40
0.3895718539492971
 40
0.414288639560484
 40
0.439701808899202
 40
0.4657927816818096
 40
0.4925443899635605
 40
0.5199407077925867
 40
0.5479669083115218
 40
0.5766091428695077
 40
0.6058544379685357
 40
0.635690606797499
 40
0.6661061728017248
 40
0.6970903032611988
 40
0.728632751252859
 40
0.7607238046834919
 40
0.793354241322811
 40
0.8265152889579642
 40
0.8601985899430571
 40
0.8943961695393764
 40
0.9291004075405692
 40
0.9643040127571182
 40
0.9924917445858268
 40
0.9924917445858268
 40
0.9924917445858268
 40
0.9924917445858268
 10
48.39837282273424
 20
-31.35566172488927
 30
0.0
 10
48.31623283837619
 20
-31.68207501104737
 30
0.0
 10
48.24646391569568
 20
-31.95891063192519
 30
0.0
 10
48.24415420998069
 20
-31.96605143755607
 30
0.0
 10
48.24178604509977
 20
-31.97394488853492
 30
0.0
 10
48.23874951614788
 20
-31.98312967938599
 30
0.0
 10
48.23444784739734
 20
-31.99544131744288
 30
0.0
 10
48.22893984276476
 20
-32.01020239801017
 30
0.0
 10
48.22206753070317
 20
-32.02756847681771
 30
0.0
 10
48.21374317067763
 20
-32.04742782579974
 30
0.0
 10
48.20385928595034
 20
-32.06974681938537
 30
0.0
 10
48.19231627919851
 20
-32.09446439510035
 30
0.0
 10
48.17901427997717
 20
-32.121523676884
 30
0.0
 10
48.16385566151695
 20
-32.15086267965442
 30
0.0
 10
48.14674441228305
 20
-32.18241707289354
 30
0.0
 10
48.12758642138
 20
-32.21611943715022
 30
0.0
 10
48.10628949795504
 20
-32.25189953796475
 30
0.0
 10
48.08276346510631
 20
-32.28968431126178
 30
0.0
 10
48.05692023078377
 20
-32.32939793398794
 30
0.0
 10
48.02867386347101
 20
-32.37096187324158
 30
0.0
 10
47.99794066474009
 20
-32.41429494402576
 30
0.0
 10
47.96463924087454
 20
-32.45931336701236
 30
0.0
 10
47.92869057289567
 20
-32.50593082866421
 30
0.0
 10
47.89001808513321
 20
-32.55405854299381
 30
0.0
 10
47.84854771223785
 20
-32.6036053150975
 30
0.0
 10
47.8042079646621
 20
-32.65447760639195
 30
0.0
 10
47.7569299923654
 20
-32.70657960144337
 30
0.0
 10
47.70664764747856
 20
-32.75981327666484
 30
0.0
 10
47.65329754291599
 20
-32.81407846960978
 30
0.0
 10
47.59681911832249
 20
-32.86927295355335
 30
0.0
 10
47.53715466946939
 20
-32.92529249915241
 30
0.0
 10
47.47424950919204
 20
-32.98203099279977
 30
0.0
 10
47.4080516157954
 20
-33.03938034479254
 30
0.0
 10
47.33851323381354
 20
-33.09723120853194
 30
0.0
 10
47.26558500086886
 20
-33.15547060525343
 30
0.0
 10
47.1892386202095
 20
-33.21399137782635
 30
0.0
 10
47.10938053943882
 20
-33.27265648845982
 30
0.0
 10
47.03209678289576
 20
-33.32725651123852
 30
0.0
 10
46.98056756768522
 20
-33.36193023703963
 30
0.0
 10
46.95758847552717
 20
-33.37732296687635
 30
0.0
  0
ARC
  5
1000005A
102
{ACAD_XDICTIONARY
360
1000005B
102
}
330
1F
100
AcDbEntity
  8
VISIBLE
100
AcDbCircle
 10
48.9099134306508
 20
-31.48438791133628
 30
0.0
 40
0.5274886014169765
100
AcDbArc
 50
80.45726817810299
 51
165.8751309599842
  0
ARC
  5
1000005D
102
{ACAD_XDICTIONARY
360
1000005E
102
}
330
1F
100
AcDbEntity
  8
VISIBLE
100
AcDbCircle
 10
50.0
 20
-25.0
 30
0.0
 40
6.047887837492023
100
AcDbArc
 50
260.4572681781035
 51
264.5427318218966
  0
ARC
  5
10000060
102
{ACAD_XDICTIONARY
360
10000061
102
}
330
1F
100
AcDbEntity
  8
VISIBLE
100
AcDbCircle
 10
49.37465968293886
 20
-31.54557291619438
 30
0.0
 40
0.5274886014169765
100
AcDbArc
 50
359.1248690400153
 51
84.54273182189591
  0
SPLINE
  5
10000063
102
{ACAD_XDICTIONARY
360
10000064
102
}
330
1F
100
AcDbEntity
  8
VISIBLE
100
AcDbSpline
210
0.0
220
0.0
230
1.0
 70
     8
 71
     3
 72
    44
 73
    40
 74
     0
 42
0.000000001
 43
0.00000001
 40
0.0374573816692524
 40
0.0374573816692524
 40
0.0374573816692524
 40
0.0374573816692524
 40
0.1173270388283835
 40
0.1245633749097423
 40
0.1339054427745937
 40
0.1449591259385427
 40
0.157492824253456
 40
0.1713493489450594
 40
0.1864129793246034
 40
0.2025939139161439
 40
0.2198198341683088
 40
0.2380308751317533
 40
0.2571764150177157
 40
0.2772129162632481
 40
0.2981024128312289
 40
0.3198114144576317
 40
0.3423100907832792
 40
0.365571649656865
 40
0.3895718539492971
 40
0.414288639560484
 40
0.439701808899202
 40
0.4657927816818096
 40
0.4925443899635605
 40
0.5199407077925867
 40
0.5479669083115218
 40
0.5766091428695077
 40
0.6058544379685357
 40
0.635690606797499
 40
0.6661061728017248
 40
0.6970903032611988
 40
0.728632751252859
 40
0.7607238046834919
 40
0.793354241322811
 40
0.8265152889579642
 40
0.8601985899430571
 40
0.8943961695393764
 40
0.9291004075405692
 40
0.9643040127571182
 40
0.9924917445858316
 40
0.9924917445858316
 40
0.9924917445858316
 40
0.9924917445858316
 10
49.90208675597698
 20
-31.55362941985764
 30
0.0
 10
49.89694591320718
 20
-31.89017983531792
 30
0.0
 10
49.8926871864507
 20
-32.17564003710658
 30
0.0
 10
49.89307001435728
 20
-32.18313532151357
 30
0.0
 10
49.89331451053177
 20
-32.19137273584572
 30
0.0
 10
49.89387037347113
 20
-32.20103047406159
 30
0.0
 10
49.89483898000789
 20
-32.21403595702303
 30
0.0
 10
49.8963388551567
 20
-32.22971964246634
 30
0.0
 10
49.89848232692918
 20
-32.24827267173333
 30
0.0
 10
49.90138306352527
 20
-32.26960983272126
 30
0.0
 10
49.90515358243995
 20
-32.29372646264942
 30
0.0
 10
49.90990589143077
 20
-32.32058935738088
 30
0.0
 10
49.91575117854755
 20
-32.35016942723297
 30
0.0
 10
49.92279978692783
 20
-32.38243206688143
 30
0.0
 10
49.931161106556
 20
-32.41733998743123
 30
0.0
 10
49.94094349101444
 20
-32.45485242438536
 30
0.0
 10
49.95225416784461
 20
-32.49492539721382
 30
0.0
 10
49.96519915161917
 20
-32.53751167093884
 30
0.0
 10
49.97988315717462
 20
-32.58256080601525
 30
0.0
 10
49.99640951379254
 20
-32.63001918619816
 30
0.0
 10
50.01488008016949
 20
-32.6798300555495
 30
0.0
 10
50.03539516028401
 20
-32.73193355569649
 30
0.0
 10
50.05805342019565
 20
-32.78626676578106
 30
0.0
 10
50.0829518058265
 20
-32.84276374436671
 30
0.0
 10
50.11018546178818
 20
-32.90135557346374
 30
0.0
 10
50.13984765124772
 20
-32.96197040459518
 30
0.0
 10
50.17202967709655
 20
-33.02453350686076
 30
0.0
 10
50.20682080364099
 20
-33.08896731707458
 30
0.0
 10
50.2443081820529
 20
-33.15519149152767
 30
0.0
 10
50.28457676736667
 20
-33.22312296095965
 30
0.0
 10
50.32770927412616
 20
-33.29267598250949
 30
0.0
 10
50.37378599029854
 20
-33.36376221238321
 30
0.0
 10
50.42288514065626
 20
-33.43629070815069
 30
0.0
 10
50.47508115441953
 20
-33.51016820913224
 30
0.0
 10
50.53045095303961
 20
-33.58529836214475
 30
0.0
 10
50.58904960338619
 20
-33.66158498508663
 30
0.0
 10
50.65100293812548
 20
-33.73891992275839
 30
0.0
 10
50.7115217887649
 20
-33.8116620029467
 30
0.0
 10
50.75232096794317
 20
-33.85849099246735
 30
0.0
 10
50.77053313488545
 20
-33.8793066544434
 30
0.0
  0
ARC
  5
10000066
102
{ACAD_XDICTIONARY
360
10000067
102
}
330
1F
100
AcDbEntity
  8
VISIBLE
100
AcDbCircle
 10
50.0
 20
-25.0
 30
0.0
 40
8.912676813146138
100
AcDbArc
 50
274.9596186495995
 51
280.0403813504005
  0
SPLINE
  5
10000069
102
{ACAD_XDICTIONARY
360
1000006A
102
}
330
1F
100
AcDbEntity
  8
VISIBLE
100
AcDbSpline
210
0.0
220
0.0
230
1.0
 70
     8
 71
     3
 72
    44
 73
    40
 74
     0
 42
0.000000001
 43
0.00000001
 40
0.037457381669253
 40
0.037457381669253
 40
0.037457381669253
 40
0.037457381669253
 40
0.1173270388283835
 40
0.1245633749097423
 40
0.1339054427745937
 40
0.1449591259385427
 40
0.157492824253456
 40
0.1713493489450594
 40
0.1864129793246034
 40
0.2025939139161439
 40
0.2198198341683088
 40
0.2380308751317533
 40
0.2571764150177157
 40
0.2772129162632481
 40
0.2981024128312289
 40
0.3198114144576317
 40
0.3423100907832792
 40
0.365571649656865
 40
0.3895718539492971
 40
0.414288639560484
 40
0.439701808899202
 40
0.4657927816818096
 40
0.4925443899635605
 40
0.5199407077925867
 40
0.5479669083115218
 40
0.5766091428695077
 40
0.6058544379685357
 40
0.635690606797499
 40
0.6661061728017248
 40
0.6970903032611988
 40
0.728632751252859
 40
0.7607238046834919
 40
0.793354241322811
 40
0.8265152889579642
 40
0.8601985899430571
 40
0.8943961695393764
 40
0.9291004075405692
 40
0.9643040127571182
 40
0.9924917445858246
 40
0.9924917445858246
 40
0.9924917445858246
 40
0.9924917445858246
 10
51.79078103954092
 20
-31.3049781002474
 30
0.0
 10
51.88285236949945
 20
-31.62873029037211
 30
0.0
 10
51.96084852050235
 20
-31.903361432065
 30
0.0
 10
51.96241865949336
 20
-31.91070040400233
 30
0.0
 10
51.96431449403556
 20
-31.91872041551399
 30
0.0
 10
51.96627717824943
 20
-31.92819294219541
 30
0.0
 10
51.96870764286124
 20
-31.94100596789015
 30
0.0
 10
51.97131811120892
 20
-31.95654344096502
 30
0.0
 10
51.9740495537846
 20
-31.97501906240726
 30
0.0
 10
51.97677012102326
 20
-31.99637994314109
 30
0.0
 10
51.97936992255417
 20
-32.02065070093679
 30
0.0
 10
51.98173217332852
 20
-32.04782825280185
 30
0.0
 10
51.98374194497352
 20
-32.07791327784533
 30
0.0
 10
51.98528369768592
 20
-32.11090090879631
 30
0.0
 10
51.98624211777843
 20
-32.14678343955935
 30
0.0
 10
51.98650199309926
 20
-32.18554953862476
 30
0.0
 10
51.98594836679807
 20
-32.22718447659259
 30
0.0
 10
51.9844666113493
 20
-32.27167006656841
 30
0.0
 10
51.98194252527311
 20
-32.31898468988684
 30
0.0
 10
51.97826242324245
 20
-32.36910330081824
 30
0.0
 10
51.97331322779401
 20
-32.4219974403068
 30
0.0
 10
51.96698256023755
 20
-32.47763525018428
 30
0.0
 10
51.95915883136157
 20
-32.53598149022415
 30
0.0
 10
51.94973133169653
 20
-32.5969975573409
 30
0.0
 10
51.93859032131657
 20
-32.6606415071059
 30
0.0
 10
51.92562711916582
 20
-32.72686807750348
 30
0.0
 10
51.91073419164317
 20
-32.79562871495421
 30
0.0
 10
51.89380524122006
 20
-32.86687160247624
 30
0.0
 10
51.87473529184678
 20
-32.9405416903891
 30
0.0
 10
51.85342078335488
 20
-33.01658072792976
 30
0.0
 10
51.82975962774481
 20
-33.09492730195355
 30
0.0
 10
51.80365140773918
 20
-33.17551685896331
 30
0.0
 10
51.77499702637706
 20
-33.25828180137794
 30
0.0
 10
51.74370045291241
 20
-33.34315130999808
 30
0.0
 10
51.70966244888995
 20
-33.43005222353229
 30
0.0
 10
51.67280493003841
 20
-33.51890588955922
 30
0.0
 10
51.63297835871027
 20
-33.60964040606897
 30
0.0
 10
51.59334867363344
 20
-33.69556729111404
 30
0.0
 10
51.56605992712458
 20
-33.75136022610694
 30
0.0
 10
51.55385581447818
 20
-33.77618026725816
 30
0.0
  0
ARC
  5
1000006C
102
{ACAD_XDICTIONARY
360
1000006D
102
}
330
1F
100
AcDbEntity
  8
VISIBLE
100
AcDbCircle
 10
52.29815129428751
 20
-31.16068794388453
 30
0.0
 40
0.5274886014169765
100
AcDbArc
 50
110.4572681781042
 51
195.8751309599836
  0
ARC
  5
1000006F
102
{ACAD_XDICTIONARY
360
10000070
102
}
330
1F
100
AcDbEntity
  8
VISIBLE
100
AcDbCircle
 10
50.0
 20
-25.0
 30
0.0
 40
6.047887837492023
100
AcDbArc
 50
290.4572681781035
 51
294.5427318218966
  0
ARC
  5
10000072
102
{ACAD_XDICTIONARY
360
10000073
102
}
330
1F
100
AcDbEntity
  8
VISIBLE
100
AcDbCircle
 10
52.73122585751162
 20
-30.9813025862783
 30
0.0
 40
0.5274886014169765
100
AcDbArc
 50
29.12486904001613
 51
114.5427318218959
  0
SPLINE
  5
10000075
102
{ACAD_XDICTIONARY
360
10000076
102
}
330
1F
100
AcDbEntity
  8
VISIBLE
100
AcDbSpline
210
0.0
220
0.0
230
1.0
 70
     8
 71
     3
 72
    44
 73
    40
 74
     0
 42
0.000000001
 43
0.00000001
 40
0.037457381669253
 40
0.037457381669253
 40
0.037457381669253
 40
0.037457381669253
 40
0.1173270388283835
 40
0.1245633749097423
 40
0.1339054427745937
 40
0.1449591259385427
 40
0.157492824253456
 40
0.1713493489450594
 40
0.1864129793246034
 40
0.2025939139161439
 40
0.2198198341683088
 40
0.2380308751317533
 40
0.2571764150177157
 40
0.2772129162632481
 40
0.2981024128312289
 40
0.3198114144576317
 40
0.3423100907832792
 40
0.365571649656865
 40
0.3895718539492971
 40
0.414288639560484
 40
0.439701808899202
 40
0.4657927816818096
 40
0.4925443899635605
 40
0.5199407077925867
 40
0.5479669083115218
 40
0.5766091428695077
 40
0.6058544379685357
 40
0.635690606797499
 40
0.6661061728017248
 40
0.6970903032611988
 40
0.728632751252859
 40
0.7607238046834919
 40
0.793354241322811
 40
0.8265152889579642
 40
0.8601985899430571
 40
0.8943961695393764
 40
0.9291004075405692
 40
0.9643040127571182
 40
0.9924917445858292
 40
0.9924917445858292
 40
0.9924917445858292
 40
0.9924917445858292
 10
53.19201935323795
 20
-30.72456618659729
 30
0.0
 10
53.35584246053256
 20
-31.018597817425
 30
0.0
 10
53.49488439586801
 20
-31.26794296732166
 30
0.0
 10
53.4989635767639
 20
-31.27424266007342
 30
0.0
 10
53.5032940238282
 20
-31.28125422205931
 30
0.0
 10
53.50860428436265
 20
-31.28934013722767
 30
0.0
 10
53.51594586371046
 20
-31.30011891259238
 30
0.0
 10
53.52508663641349
 20
-31.31295144503684
 30
0.0
 10
53.53621945205425
 20
-31.32794710381297
 30
0.0
 10
53.54940014413012
 20
-31.34497525897511
 30
0.0
 10
53.56472382425977
 20
-31.36397561368923
 30
0.0
 10
53.58227089193819
 20
-31.38486340845047
 30
0.0
 10
53.60212309399977
 20
-31.40755785682969
 30
0.0
 10
53.62435868774264
 20
-31.43197381816827
 30
0.0
 10
53.64905376322469
 20
-31.45802430434358
 30
0.0
 10
53.67628177515236
 20
-31.48561983547452
 30
0.0
 10
53.70611359503552
 20
-31.51466870953402
 30
0.0
 10
53.73861741669839
 20
-31.54507701254514
 30
0.0
 10
53.7738587060769
 20
-31.57674870516211
 30
0.0
 10
53.81190014083148
 20
-31.609585689714
 30
0.0
 10
53.85280155521188
 20
-31.64348788476838
 30
0.0
 10
53.89661988582522
 20
-31.67835329946451
 30
0.0
 10
53.94340911955653
 20
-31.71407810971107
 30
0.0
 10
53.9932202433189
 20
-31.75055673558788
 30
0.0
 10
54.04610119576817
 20
-31.78768192005927
 30
0.0
 10
54.10209682093771
 20
-31.82534480893544
 30
0.0
 10
54.16124882400082
 20
-31.86343503191258
 30
0.0
 10
54.2235957285215
 20
-31.90184078514816
 30
0.0
 10
54.28917283777404
 20
-31.94044891336322
 30
0.0
 10
54.35801219034622
 20
-31.97914499895084
 30
0.0
 10
54.43014254770376
 20
-32.0178134291432
 30
0.0
 10
54.50558926936887
 20
-32.05633755198693
 30
0.0
 10
54.58437462876662
 20
-32.09459949664097
 30
0.0
 10
54.66651645315267
 20
-32.13248128237748
 30
0.0
 10
54.75203318186634
 20
-32.16986100416649
 30
0.0
 10
54.84092441316491
 20
-32.20662783242978
 30
0.0
 10
54.93324504373417
 20
-32.24262518568396
 30
0.0
 10
55.02202694588991
 20
-32.27536224973146
 30
0.0
 10
55.08077456627216
 20
-32.29551775470075
 30
0.0
 10
55.10695459649017
 20
-32.30443856329747
 30
0.0
  0
ARC
  5
10000078
102
{ACAD_XDICTIONARY
360
10000079
102
}
330
1F
100
AcDbEntity
  8
VISIBLE
100
AcDbCircle
 10
50.0
 20
-25.0
 30
0.0
 40
8.912676813146138
100
AcDbArc
 50
304.9596186495995
 51
310.0403813504005
  0
SPLINE
  5
1000007B
102
{ACAD_XDICTIONARY
360
1000007C
102
}
330
1F
100
AcDbEntity
  8
VISIBLE
100
AcDbSpline
210
0.0
220
0.0
230
1.0
 70
     8
 71
     3
 72
    44
 73
    40
 74
     0
 42
0.000000001
 43
0.00000001
 40
0.0374573816692526
 40
0.0374573816692526
 40
0.0374573816692526
 40
0.0374573816692526
 40
0.1173270388283835
 40
0.1245633749097423
 40
0.1339054427745937
 40
0.1449591259385427
 40
0.157492824253456
 40
0.1713493489450594
 40
0.1864129793246034
 40
0.2025939139161439
 40
0.2198198341683088
 40
0.2380308751317533
 40
0.2571764150177157
 40
0.2772129162632481
 40
0.2981024128312289
 40
0.3198114144576317
 40
0.3423100907832792
 40
0.365571649656865
 40
0.3895718539492971
 40
0.414288639560484
 40
0.439701808899202
 40
0.4657927816818096
 40
0.4925443899635605
 40
0.5199407077925867
 40
0.5479669083115218
 40
0.5766091428695077
 40
0.6058544379685357
 40
0.635690606797499
 40
0.6661061728017248
 40
0.6970903032611988
 40
0.728632751252859
 40
0.7607238046834919
 40
0.793354241322811
 40
0.8265152889579642
 40
0.8601985899430571
 40
0.8943961695393764
 40
0.9291004075405692
 40
0.9643040127571182
 40
0.9924917445858282
 40
0.9924917445858282
 40
0.9924917445858282
 40
0.9924917445858282
 10
54.70335092298164
 20
-29.56488068534834
 30
0.0
 10
54.94496312874831
 20
-29.79922264154791
 30
0.0
 10
55.14982534776068
 20
-29.99806211142283
 30
0.0
 10
55.15485461398302
 20
-30.00363277806272
 30
0.0
 10
55.16050646061376
 20
-30.00963039449936
 30
0.0
 10
55.16694245834329
 20
-30.01685250113656
 30
0.0
 10
55.17545381528749
 20
-30.02673367458164
 30
0.0
 10
55.18548328372979
 20
-30.03888428680127
 30
0.0
 10
55.19708659311043
 20
-30.05351892303311
 30
0.0
 10
55.21012311381873
 20
-30.07065770477648
 30
0.0
 10
55.22450998688715
 20
-30.09037689683121
 30
0.0
 10
55.24014453200036
 20
-30.11273222177183
 30
0.0
 10
55.25692755782249
 20
-30.13778173191047
 30
0.0
 10
55.27475657031327
 20
-30.16557898196849
 30
0.0
 10
55.29352785184241
 20
-30.19617495511512
 30
0.0
 10
55.31313596000476
 20
-30.22961744405096
 30
0.0
 10
55.33347397454764
 20
-30.2659511711667
 30
0.0
 10
55.35443353167473
 20
-30.30521769991247
 30
0.0
 10
55.37590492067062
 20
-30.34745540871482
 30
0.0
 10
55.39777716428924
 20
-30.39269944999914
 30
0.0
 10
55.41993810504687
 20
-30.44098171623175
 30
0.0
 10
55.44227449105881
 20
-30.49233080677481
 30
0.0
 10
55.46467206311983
 20
-30.54677199730264
 30
0.0
 10
55.48701564247411
 20
-30.60432721129729
 30
0.0
 10
55.50918921934375
 20
-30.66501499378093
 30
0.0
 10
55.53107604216559
 20
-30.72885048722613
 30
0.0
 10
55.55255870731962
 20
-30.79584540980021
 30
0.0
 10
55.5735192499548
 20
-30.86600803544478
 30
0.0
 10
55.59383923330509
 20
-30.939343177763
 30
0.0
 10
55.61339984625227
 20
-31.01585217019849
 30
0.0
 10
55.63208197142294
 20
-31.0955328714076
 30
0.0
 10
55.64976636815534
 20
-31.17837958506059
 30
0.0
 10
55.66633341717335
 20
-31.26438331841548
 30
0.0
 10
55.68166454381161
 20
-31.35353075561956
 30
0.0
 10
55.69563722440115
 20
-31.44580815636348
 30
0.0
 10
55.70814450976872
 20
-31.54118644778794
 30
0.0
 10
55.71902094550779
 20
-31.63967812974956
 30
0.0
 10
55.72766407400982
 20
-31.73390783760508
 30
0.0
 10
55.73192779379217
 20
-31.79587030991504
 30
0.0
 10
55.73376874278534
 20
-31.8234671523982
 30
0.0
  0
ARC
  5
1000007E
102
{ACAD_XDICTIONARY
360
1000007F
102
}
330
1F
100
AcDbEntity
  8
VISIBLE
100
AcDbCircle
 10
55.07060137453534
 20
-29.18623661704877
 30
0.0
 40
0.5274886014169765
100
AcDbArc
 50
140.4572681781042
 51
225.8751309599844
  0
ARC
  5
10000081
102
{ACAD_XDICTIONARY
360
10000082
102
}
330
1F
100
AcDbEntity
  8
VISIBLE
100
AcDbCircle
 10
50.0
 20
-25.0
 30
0.0
 40
6.047887837492023
100
AcDbArc
 50
320.4572681781036
 51
324.5427318218966
  0
ARC
  5
10000084
102
{ACAD_XDICTIONARY
360
10000085
102
}
330
1F
100
AcDbEntity
  8
VISIBLE
100
AcDbCircle
 10
55.35596226921716
 20
-28.81434705868276
 30
0.0
 40
0.5274886014169765
100
AcDbArc
 50
59.12486904001654
 51
144.5427318218964
  0
SPLINE
  5
10000087
102
{ACAD_XDICTIONARY
360
10000088
102
}
330
1F
100
AcDbEntity
  8
VISIBLE
100
AcDbSpline
210
0.0
220
0.0
230
1.0
 70
     8
 71
     3
 72
    44
 73
    40
 74
     0
 42
0.000000001
 43
0.00000001
 40
0.037457381669253
 40
0.037457381669253
 40
0.037457381669253
 40
0.037457381669253
 40
0.1173270388283835
 40
0.1245633749097423
 40
0.1339054427745937
 40
0.1449591259385427
 40
0.157492824253456
 40
0.1713493489450594
 40
0.1864129793246034
 40
0.2025939139161439
 40
0.2198198341683088
 40
0.2380308751317533
 40
0.2571764150177157
 40
0.2772129162632481
 40
0.2981024128312289
 40
0.3198114144576317
 40
0.3423100907832792
 40
0.365571649656865
 40
0.3895718539492971
 40
0.414288639560484
 40
0.439701808899202
 40
0.4657927816818096
 40
0.4925443899635605
 40
0.5199407077925867
 40
0.5479669083115218
 40
0.5766091428695077
 40
0.6058544379685357
 40
0.635690606797499
 40
0.6661061728017248
 40
0.6970903032611988
 40
0.728632751252859
 40
0.7607238046834919
 40
0.793354241322811
 40
0.8265152889579642
 40
0.8601985899430571
 40
0.8943961695393764
 40
0.9291004075405692
 40
0.9643040127571182
 40
0.9924917445858351
 40
0.9924917445858351
 40
0.9924917445858351
 40
0.9924917445858351
 10
55.62665294257428
 20
-28.36161006661969
 30
0.0
 10
55.91554373063219
 20
-28.53433737478534
 30
0.0
 10
56.16063015377236
 20
-28.68075564123857
 30
0.0
 10
56.16731267443071
 20
-28.68417174474968
 30
0.0
 10
56.17456873259108
 20
-28.68807871201753
 30
0.0
 10
56.1832105106988
 20
-28.69242618969895
 30
0.0
 10
56.19495789260027
 20
-28.69809009331256
 30
0.0
 10
56.20929030019354
 20
-28.70463300605283
 30
0.0
 10
56.22642943074216
 20
-28.71205321967907
 30
0.0
 10
56.2463583225004
 20
-28.72020968859114
 30
0.0
 10
56.2691291961292
 20
-28.72900263838966
 30
0.0
 10
56.29476929988124
 20
-28.73831846544271
 30
0.0
 10
56.32330903537725
 20
-28.74804633323321
 30
0.0
 10
56.35477360509609
 20
-28.75807337913879
 30
0.0
 10
56.38918541089959
 20
-28.76828622420653
 30
0.0
 10
56.42656332648896
 20
-28.778570649233
 30
0.0
 10
56.46692287737864
 20
-28.78881180217829
 30
0.0
 10
56.51027616416432
 20
-28.79889425424046
 30
0.0
 10
56.55663186233673
 20
-28.80870209993835
 30
0.0
 10
56.60599520350656
 20
-28.81811904536668
 30
0.0
 10
56.65836796493788
 20
-28.82702850033763
 30
0.0
 10
56.71374845974852
 20
-28.83531366987128
 30
0.0
 10
56.77213152990672
 20
-28.84285764622452
 30
0.0
 10
56.83350854141439
 20
-28.8495435010478
 30
0.0
 10
56.89786738184745
 20
-28.85525437769558
 30
0.0
 10
56.96519246018317
 20
-28.85987358365748
 30
0.0
 10
57.03546470900913
 20
-28.86328468285993
 30
0.0
 10
57.10866158878915
 20
-28.86537158855308
 30
0.0
 10
57.18475709541611
 20
-28.86601865375362
 30
0.0
 10
57.26372176631752
 20
-28.86511077061344
 30
0.0
 10
57.34552270326938
 20
-28.86253343480573
 30
0.0
 10
57.43012354228546
 20
-28.85817294301434
 30
0.0
 10
57.51748463729724
 20
-28.85191607938406
 30
0.0
 10
57.607562436797
 20
-28.84365175597957
 30
0.0
 10
57.7003119572061
 20
-28.83326518027842
 30
0.0
 10
57.79567743581597
 20
-28.82066057192172
 30
0.0
 10
57.89362812380945
 20
-28.80567487902421
 30
0.0
 10
57.98688403849637
 20
-28.78963505705681
 30
0.0
 10
58.04783872264394
 20
-28.77771642619518
 30
0.0
 10
58.07497169818294
 20
-28.77235205795323
 30
0.0
  0
ARC
  5
1000008A
102
{ACAD_XDICTIONARY
360
1000008B
102
}
330
1F
100
AcDbEntity
  8
VISIBLE
100
AcDbCircle
 10
50.0
 20
-25.0
 30
0.0
 40
8.912676813146138
100
AcDbArc
 50
334.9596186495995
 51
340.0403813504005
  0
SPLINE
  5
1000008D
102
{ACAD_XDICTIONARY
360
1000008E
102
}
330
1F
100
AcDbEntity
  8
VISIBLE
100
AcDbSpline
210
0.0
220
0.0
230
1.0
 70
     8
 71
     3
 72
    44
 73
    40
 74
     0
 42
0.000000001
 43
0.00000001
 40
0.0374573816692529
 40
0.0374573816692529
 40
0.0374573816692529
 40
0.0374573816692529
 40
0.1173270388283835
 40
0.1245633749097423
 40
0.1339054427745937
 40
0.1449591259385427
 40
0.157492824253456
 40
0.1713493489450594
 40
0.1864129793246034
 40
0.2025939139161439
 40
0.2198198341683088
 40
0.2380308751317533
 40
0.2571764150177157
 40
0.2772129162632481
 40
0.2981024128312289
 40
0.3198114144576317
 40
0.3423100907832792
 40
0.365571649656865
 40
0.3895718539492971
 40
0.414288639560484
 40
0.439701808899202
 40
0.4657927816818096
 40
0.4925443899635605
 40
0.5199407077925867
 40
0.5479669083115218
 40
0.5766091428695077
 40
0.6058544379685357
 40
0.635690606797499
 40
0.6661061728017248
 40
0.6970903032611988
 40
0.728632751252859
 40
0.7607238046834919
 40
0.793354241322811
 40
0.8265152889579642
 40
0.8601985899430571
 40
0.8943961695393764
 40
0.9291004075405692
 40
0.9643040127571182
 40
0.9924917445858292
 40
0.9924917445858292
 40
0.9924917445858292
 40
0.9924917445858292
 10
56.35566172488926
 20
-26.60162717726576
 30
0.0
 10
56.68207501104738
 20
-26.68376716162381
 30
0.0
 10
56.95891063192519
 20
-26.75353608430433
 30
0.0
 10
56.96605143755608
 20
-26.75584579001931
 30
0.0
 10
56.97394488853492
 20
-26.75821395490023
 30
0.0
 10
56.98312967938598
 20
-26.76125048385212
 30
0.0
 10
56.99544131744288
 20
-26.76555215260266
 30
0.0
 10
57.01020239801018
 20
-26.77106015723524
 30
0.0
 10
57.0275684768177
 20
-26.77793246929684
 30
0.0
 10
57.04742782579974
 20
-26.78625682932237
 30
0.0
 10
57.06974681938539
 20
-26.79614071404966
 30
0.0
 10
57.09446439510035
 20
-26.80768372080149
 30
0.0
 10
57.121523676884
 20
-26.82098572002284
 30
0.0
 10
57.15086267965441
 20
-26.83614433848305
 30
0.0
 10
57.18241707289354
 20
-26.85325558771696
 30
0.0
 10
57.21611943715023
 20
-26.87241357862
 30
0.0
 10
57.25189953796477
 20
-26.89371050204496
 30
0.0
 10
57.28968431126177
 20
-26.91723653489369
 30
0.0
 10
57.32939793398795
 20
-26.94307976921623
 30
0.0
 10
57.37096187324158
 20
-26.971326136529
 30
0.0
 10
57.41429494402576
 20
-27.00205933525992
 30
0.0
 10
57.45931336701236
 20
-27.03536075912546
 30
0.0
 10
57.50593082866421
 20
-27.07130942710433
 30
0.0
 10
57.55405854299381
 20
-27.1099819148668
 30
0.0
 10
57.6036053150975
 20
-27.15145228776216
 30
0.0
 10
57.65447760639196
 20
-27.1957920353379
 30
0.0
 10
57.70657960144337
 20
-27.24307000763461
 30
0.0
 10
57.75981327666485
 20
-27.29335235252143
 30
0.0
 10
57.81407846960978
 20
-27.34670245708402
 30
0.0
 10
57.86927295355336
 20
-27.40318088167751
 30
0.0
 10
57.92529249915242
 20
-27.46284533053061
 30
0.0
 10
57.98203099279978
 20
-27.52575049080796
 30
0.0
 10
58.03938034479254
 20
-27.5919483842046
 30
0.0
 10
58.09723120853195
 20
-27.66148676618647
 30
0.0
 10
58.15547060525343
 20
-27.73441499913114
 30
0.0
 10
58.21399137782636
 20
-27.8107613797905
 30
0.0
 10
58.27265648845982
 20
-27.89061946056119
 30
0.0
 10
58.32725651123852
 20
-27.96790321710424
 30
0.0
 10
58.36193023703963
 20
-28.01943243231478
 30
0.0
 10
58.37732296687636
 20
-28.04241152447284
 30
0.0
  0
ARC
  5
10000090
102
{ACAD_XDICTIONARY
360
10000091
102
}
330
1F
100
AcDbEntity
  8
VISIBLE
100
AcDbCircle
 10
56.48438791133629
 20
-26.0900865693492
 30
0.0
 40
0.5274886014169765
100
AcDbArc
 50
170.4572681781035
 51
255.8751309599834
  0
ARC
  5
10000093
102
{ACAD_XDICTIONARY
360
10000094
102
}
330
1F
100
AcDbEntity
  8
VISIBLE
100
AcDbCircle
 10
50.0
 20
-25.0
 30
0.0
 40
6.047887837492023
100
AcDbArc
 50
350.4572681781036
 51
354.5427318218966
  0
ARC
  5
10000096
102
{ACAD_XDICTIONARY
360
10000097
102
}
330
1F
100
AcDbEntity
  8
VISIBLE
100
AcDbCircle
 10
56.54557291619439
 20
-25.62534031706114
 30
0.0
 40
0.5274886014169765
100
AcDbArc
 50
89.1248690400164
 51
174.5427318218963
  0
SPLINE
  5
10000099
102
{ACAD_XDICTIONARY
360
1000009A
102
}
330
1F
100
AcDbEntity
  8
VISIBLE
100
AcDbSpline
210
0.0
220
0.0
230
1.0
 70
     8
 71
     3
 72
    44
 73
    40
 74
     0
 42
0.000000001
 43
0.00000001
 40
0.037457381669254
 40
0.037457381669254
 40
0.037457381669254
 40
0.037457381669254
 40
0.1173270388283835
 40
0.1245633749097423
 40
0.1339054427745937
 40
0.1449591259385427
 40
0.157492824253456
 40
0.1713493489450594
 40
0.1864129793246034
 40
0.2025939139161439
 40
0.2198198341683088
 40
0.2380308751317533
 40
0.2571764150177157
 40
0.2772129162632481
 40
0.2981024128312289
 40
0.3198114144576317
 40
0.3423100907832792
 40
0.365571649656865
 40
0.3895718539492971
 40
0.414288639560484
 40
0.439701808899202
 40
0.4657927816818096
 40
0.4925443899635605
 40
0.5199407077925867
 40
0.5479669083115218
 40
0.5766091428695077
 40
0.6058544379685357
 40
0.635690606797499
 40
0.6661061728017248
 40
0.6970903032611988
 40
0.728632751252859
 40
0.7607238046834919
 40
0.793354241322811
 40
0.8265152889579642
 40
0.8601985899430571
 40
0.8943961695393764
 40
0.9291004075405692
 40
0.9643040127571182
 40
0.992491744585827
 40
0.992491744585827
 40
0.992491744585827
 40
0.992491744585827
 10
56.55362941985765
 20
-25.09791324402302
 30
0.0
 10
56.89017983531793
 20
-25.10305408679282
 30
0.0
 10
57.17564003710659
 20
-25.1073128135493
 30
0.0
 10
57.18313532151359
 20
-25.10692998564272
 30
0.0
 10
57.19137273584573
 20
-25.10668548946824
 30
0.0
 10
57.2010304740616
 20
-25.10612962652888
 30
0.0
 10
57.21403595702303
 20
-25.10516101999212
 30
0.0
 10
57.22971964246633
 20
-25.1036611448433
 30
0.0
 10
57.24827267173333
 20
-25.10151767307082
 30
0.0
 10
57.26960983272127
 20
-25.09861693647472
 30
0.0
 10
57.29372646264942
 20
-25.09484641756005
 30
0.0
 10
57.3205893573809
 20
-25.09009410856923
 30
0.0
 10
57.35016942723298
 20
-25.08424882145245
 30
0.0
 10
57.38243206688144
 20
-25.07720021307217
 30
0.0
 10
57.41733998743122
 20
-25.06883889344401
 30
0.0
 10
57.45485242438536
 20
-25.05905650898557
 30
0.0
 10
57.49492539721382
 20
-25.04774583215539
 30
0.0
 10
57.53751167093883
 20
-25.03480084838082
 30
0.0
 10
57.58256080601526
 20
-25.0201168428254
 30
0.0
 10
57.63001918619818
 20
-25.00359048620746
 30
0.0
 10
57.67983005554951
 20
-24.98511991983052
 30
0.0
 10
57.7319335556965
 20
-24.964604839716
 30
0.0
 10
57.78626676578106
 20
-24.94194657980436
 30
0.0
 10
57.84276374436671
 20
-24.9170481941735
 30
0.0
 10
57.90135557346375
 20
-24.88981453821182
 30
0.0
 10
57.96197040459519
 20
-24.86015234875228
 30
0.0
 10
58.02453350686076
 20
-24.82797032290346
 30
0.0
 10
58.08896731707459
 20
-24.79317919635901
 30
0.0
 10
58.15519149152766
 20
-24.7556918179471
 30
0.0
 10
58.22312296095965
 20
-24.71542323263334
 30
0.0
 10
58.29267598250949
 20
-24.67229072587384
 30
0.0
 10
58.36376221238322
 20
-24.62621400970147
 30
0.0
 10
58.43629070815069
 20
-24.57711485934374
 30
0.0
 10
58.51016820913224
 20
-24.52491884558048
 30
0.0
 10
58.58529836214477
 20
-24.46954904696041
 30
0.0
 10
58.66158498508663
 20
-24.41095039661382
 30
0.0
 10
58.73891992275838
 20
-24.34899706187452
 30
0.0
 10
58.8116620029467
 20
-24.28847821123511
 30
0.0
 10
58.85849099246735
 20
-24.24767903205683
 30
0.0
 10
58.8793066544434
 20
-24.22946686511455
 30
0.0
  0
ARC
  5
1000009C
102
{ACAD_XDICTIONARY
360
1000009D
102
}
330
1F
100
AcDbEntity
  8
VISIBLE
100
AcDbCircle
 10
50.0
 20
-25.0
 30
0.0
 40
8.912676813146138
100
AcDbArc
 50
4.959618649599504
 51
10.04038135040053
  0
SPLINE
  5
1000009F
102
{ACAD_XDICTIONARY
360
100000A0
102
}
330
1F
100
AcDbEntity
  8
VISIBLE
100
AcDbSpline
210
0.0
220
0.0
230
1.0
 70
     8
 71
     3
 72
    44
 73
    40
 74
     0
 42
0.000000001
 43
0.00000001
 40
0.037457381669254
 40
0.037457381669254
 40
0.037457381669254
 40
0.037457381669254
 40
0.1173270388283835
 40
0.1245633749097423
 40
0.1339054427745937
 40
0.1449591259385427
 40
0.157492824253456
 40
0.1713493489450594
 40
0.1864129793246034
 40
0.2025939139161439
 40
0.2198198341683088
 40
0.2380308751317533
 40
0.2571764150177157
 40
0.2772129162632481
 40
0.2981024128312289
 40
0.3198114144576317
 40
0.3423100907832792
 40
0.365571649656865
 40
0.3895718539492971
 40
0.414288639560484
 40
0.439701808899202
 40
0.4657927816818096
 40
0.4925443899635605
 40
0.5199407077925867
 40
0.5479669083115218
 40
0.5766091428695077
 40
0.6058544379685357
 40
0.635690606797499
 40
0.6661061728017248
 40
0.6970903032611988
 40
0.728632751252859
 40
0.7607238046834919
 40
0.793354241322811
 40
0.8265152889579642
 40
0.8601985899430571
 40
0.8943961695393764
 40
0.9291004075405692
 40
0.9643040127571182
 40
0.9924917445858276
 40
0.9924917445858276
 40
0.9924917445858276
 40
0.9924917445858276
 10
56.30497810024741
 20
-23.20921896045907
 30
0.0
 10
56.6287302903721
 20
-23.11714763050055
 30
0.0
 10
56.903361432065
 20
-23.03915147949765
 30
0.0
 10
56.91070040400233
 20
-23.03758134050664
 30
0.0
 10
56.91872041551399
 20
-23.03568550596444
 30
0.0
 10
56.92819294219541
 20
-23.03372282175057
 30
0.0
 10
56.94100596789015
 20
-23.03129235713876
 30
0.0
 10
56.95654344096503
 20
-23.02868188879109
 30
0.0
 10
56.97501906240726
 20
-23.0259504462154
 30
0.0
 10
56.99637994314109
 20
-23.02322987897674
 30
0.0
 10
57.0206507009368
 20
-23.02063007744583
 30
0.0
 10
57.04782825280184
 20
-23.01826782667149
 30
0.0
 10
57.07791327784533
 20
-23.01625805502648
 30
0.0
 10
57.11090090879632
 20
-23.01471630231408
 30
0.0
 10
57.14678343955936
 20
-23.01375788222158
 30
0.0
 10
57.18554953862476
 20
-23.01349800690073
 30
0.0
 10
57.2271844765926
 20
-23.01405163320194
 30
0.0
 10
57.27167006656841
 20
-23.0155333886507
 30
0.0
 10
57.31898468988685
 20
-23.01805747472688
 30
0.0
 10
57.36910330081824
 20
-23.02173757675756
 30
0.0
 10
57.4219974403068
 20
-23.02668677220599
 30
0.0
 10
57.47763525018428
 20
-23.03301743976245
 30
0.0
 10
57.53598149022415
 20
-23.04084116863844
 30
0.0
 10
57.59699755734091
 20
-23.05026866830347
 30
0.0
 10
57.6606415071059
 20
-23.06140967868342
 30
0.0
 10
57.72686807750348
 20
-23.07437288083418
 30
0.0
 10
57.79562871495422
 20
-23.08926580835683
 30
0.0
 10
57.86687160247624
 20
-23.10619475877995
 30
0.0
 10
57.9405416903891
 20
-23.12526470815323
 30
0.0
 10
58.01658072792977
 20
-23.14657921664512
 30
0.0
 10
58.09492730195356
 20
-23.17024037225519
 30
0.0
 10
58.1755168589633
 20
-23.19634859226082
 30
0.0
 10
58.25828180137795
 20
-23.22500297362294
 30
0.0
 10
58.34315130999808
 20
-23.2562995470876
 30
0.0
 10
58.43005222353229
 20
-23.29033755111006
 30
0.0
 10
58.51890588955921
 20
-23.32719506996159
 30
0.0
 10
58.60964040606896
 20
-23.36702164128975
 30
0.0
 10
58.69556729111404
 20
-23.40665132636657
 30
0.0
 10
58.75136022610695
 20
-23.43394007287542
 30
0.0
 10
58.77618026725816
 20
-23.44614418552183
 30
0.0
  0
ARC
  5
100000A2
102
{ACAD_XDICTIONARY
360
100000A3
102
}
330
1F
100
AcDbEntity
  8
VISIBLE
100
AcDbCircle
 10
56.16068794388454
 20
-22.70184870571249
 30
0.0
 40
0.5274886014169765
100
AcDbArc
 50
200.4572681781032
 51
285.8751309599848
  0
ARC
  5
100000A5
102
{ACAD_XDICTIONARY
360
100000A6
102
}
330
1F
100
AcDbEntity
  8
VISIBLE
100
AcDbCircle
 10
50.0
 20
-25.0
 30
0.0
 40
6.047887837492023
100
AcDbArc
 50
20.45726817810352
 51
24.54273182189648
  0
ARC
  5
100000A8
102
{ACAD_XDICTIONARY
360
100000A9
102
}
330
1F
100
AcDbEntity
  8
VISIBLE
100
AcDbCircle
 10
55.9813025862783
 20
-22.26877414248837
 30
0.0
 40
0.5274886014169765
100
AcDbArc
 50
119.1248690400162
 51
204.5427318218963
  0
SPLINE
  5
100000AB
102
{ACAD_XDICTIONARY
360
100000AC
102
}
330
1F
100
AcDbEntity
  8
VISIBLE
100
AcDbSpline
210
0.0
220
0.0
230
1.0
 70
     8
 71
     3
 72
    44
 73
    40
 74
     0
 42
0.000000001
 43
0.00000001
 40
0.0374573816692534
 40
0.0374573816692534
 40
0.0374573816692534
 40
0.0374573816692534
 40
0.1173270388283835
 40
0.1245633749097423
 40
0.1339054427745937
 40
0.1449591259385427
 40
0.157492824253456
 40
0.1713493489450594
 40
0.1864129793246034
 40
0.2025939139161439
 40
0.2198198341683088
 40
0.2380308751317533
 40
0.2571764150177157
 40
0.2772129162632481
 40
0.2981024128312289
 40
0.3198114144576317
 40
0.3423100907832792
 40
0.365571649656865
 40
0.3895718539492971
 40
0.414288639560484
 40
0.439701808899202
 40
0.4657927816818096
 40
0.4925443899635605
 40
0.5199407077925867
 40
0.5479669083115218
 40
0.5766091428695077
 40
0.6058544379685357
 40
0.635690606797499
 40
0.6661061728017248
 40
0.6970903032611988
 40
0.728632751252859
 40
0.7607238046834919
 40
0.793354241322811
 40
0.8265152889579642
 40
0.8601985899430571
 40
0.8943961695393764
 40
0.9291004075405692
 40
0.9643040127571182
 40
0.9924917445858296
 40
0.9924917445858296
 40
0.9924917445858296
 40
0.9924917445858296
 10
55.7245661865973
 20
-21.80798064676206
 30
0.0
 10
56.01859781742502
 20
-21.64415753946743
 30
0.0
 10
56.26794296732165
 20
-21.50511560413199
 30
0.0
 10
56.27424266007342
 20
-21.50103642323611
 30
0.0
 10
56.2812542220593
 20
-21.49670597617181
 30
0.0
 10
56.28934013722767
 20
-21.49139571563737
 30
0.0
 10
56.30011891259239
 20
-21.48405413628954
 30
0.0
 10
56.31295144503684
 20
-21.47491336358651
 30
0.0
 10
56.32794710381297
 20
-21.46378054794575
 30
0.0
 10
56.34497525897511
 20
-21.45059985586988
 30
0.0
 10
56.36397561368923
 20
-21.43527617574024
 30
0.0
 10
56.38486340845047
 20
-21.41772910806182
 30
0.0
 10
56.4075578568297
 20
-21.39787690600023
 30
0.0
 10
56.43197381816827
 20
-21.37564131225736
 30
0.0
 10
56.45802430434359
 20
-21.35094623677531
 30
0.0
 10
56.48561983547452
 20
-21.32371822484764
 30
0.0
 10
56.51466870953403
 20
-21.29388640496448
 30
0.0
 10
56.54507701254514
 20
-21.26138258330162
 30
0.0
 10
56.57674870516212
 20
-21.2261412939231
 30
0.0
 10
56.60958568971401
 20
-21.18809985916851
 30
0.0
 10
56.64348788476838
 20
-21.14719844478812
 30
0.0
 10
56.67835329946451
 20
-21.10338011417478
 30
0.0
 10
56.71407810971107
 20
-21.05659088044347
 30
0.0
 10
56.75055673558788
 20
-21.00677975668109
 30
0.0
 10
56.78768192005927
 20
-20.95389880423184
 30
0.0
 10
56.82534480893545
 20
-20.89790317906229
 30
0.0
 10
56.86343503191257
 20
-20.83875117599917
 30
0.0
 10
56.90184078514815
 20
-20.7764042714785
 30
0.0
 10
56.94044891336322
 20
-20.71082716222597
 30
0.0
 10
56.97914499895084
 20
-20.64198780965378
 30
0.0
 10
57.01781342914321
 20
-20.56985745229624
 30
0.0
 10
57.05633755198693
 20
-20.49441073063114
 30
0.0
 10
57.09459949664097
 20
-20.41562537123338
 30
0.0
 10
57.13248128237747
 20
-20.33348354684734
 30
0.0
 10
57.16986100416649
 20
-20.24796681813366
 30
0.0
 10
57.20662783242979
 20
-20.1590755868351
 30
0.0
 10
57.24262518568398
 20
-20.06675495626583
 30
0.0
 10
57.27536224973147
 20
-19.97797305411011
 30
0.0
 10
57.29551775470077
 20
-19.91922543372784
 30
0.0
 10
57.30443856329747
 20
-19.89304540350983
 30
0.0
  0
ARC
  5
100000AE
102
{ACAD_XDICTIONARY
360
100000AF
102
}
330
1F
100
AcDbEntity
  8
VISIBLE
100
AcDbCircle
 10
50.0
 20
-25.0
 30
0.0
 40
8.912676813146138
100
AcDbArc
 50
34.95961864959952
 51
40.04038135040049
  0
SPLINE
  5
100000B1
102
{ACAD_XDICTIONARY
360
100000B2
102
}
330
1F
100
AcDbEntity
  8
VISIBLE
100
AcDbSpline
210
0.0
220
0.0
230
1.0
 70
     8
 71
     3
 72
    44
 73
    40
 74
     0
 42
0.000000001
 43
0.00000001
 40
0.0374573816692544
 40
0.0374573816692544
 40
0.0374573816692544
 40
0.0374573816692544
 40
0.1173270388283835
 40
0.1245633749097423
 40
0.1339054427745937
 40
0.1449591259385427
 40
0.157492824253456
 40
0.1713493489450594
 40
0.1864129793246034
 40
0.2025939139161439
 40
0.2198198341683088
 40
0.2380308751317533
 40
0.2571764150177157
 40
0.2772129162632481
 40
0.2981024128312289
 40
0.3198114144576317
 40
0.3423100907832792
 40
0.365571649656865
 40
0.3895718539492971
 40
0.414288639560484
 40
0.439701808899202
 40
0.4657927816818096
 40
0.4925443899635605
 40
0.5199407077925867
 40
0.5479669083115218
 40
0.5766091428695077
 40
0.6058544379685357
 40
0.635690606797499
 40
0.6661061728017248
 40
0.6970903032611988
 40
0.728632751252859
 40
0.7607238046834919
 40
0.793354241322811
 40
0.8265152889579642
 40
0.8601985899430571
 40
0.8943961695393764
 40
0.9291004075405692
 40
0.9643040127571182
 40
0.9924917445858348
 40
0.9924917445858348
 40
0.9924917445858348
 40
0.9924917445858348
 10
54.56488068534834
 20
-20.29664907701834
 30
0.0
 10
54.79922264154793
 20
-20.05503687125169
 30
0.0
 10
54.99806211142284
 20
-19.85017465223933
 30
0.0
 10
55.00363277806272
 20
-19.84514538601699
 30
0.0
 10
55.00963039449937
 20
-19.83949353938624
 30
0.0
 10
55.01685250113656
 20
-19.83305754165671
 30
0.0
 10
55.02673367458165
 20
-19.82454618471251
 30
0.0
 10
55.03888428680126
 20
-19.81451671627021
 30
0.0
 10
55.0535189230331
 20
-19.80291340688958
 30
0.0
 10
55.07065770477649
 20
-19.78987688618128
 30
0.0
 10
55.09037689683122
 20
-19.77549001311286
 30
0.0
 10
55.11273222177185
 20
-19.75985546799964
 30
0.0
 10
55.13778173191049
 20
-19.74307244217752
 30
0.0
 10
55.16557898196851
 20
-19.72524342968673
 30
0.0
 10
55.19617495511513
 20
-19.70647214815761
 30
0.0
 10
55.22961744405097
 20
-19.68686403999525
 30
0.0
 10
55.2659511711667
 20
-19.66652602545237
 30
0.0
 10
55.30521769991248
 20
-19.64556646832528
 30
0.0
 10
55.34745540871483
 20
-19.62409507932938
 30
0.0
 10
55.39269944999914
 20
-19.60222283571076
 30
0.0
 10
55.44098171623176
 20
-19.58006189495313
 30
0.0
 10
55.49233080677482
 20
-19.55772550894119
 30
0.0
 10
55.54677199730264
 20
-19.53532793688018
 30
0.0
 10
55.60432721129729
 20
-19.51298435752589
 30
0.0
 10
55.66501499378093
 20
-19.49081078065626
 30
0.0
 10
55.72885048722614
 20
-19.46892395783442
 30
0.0
 10
55.79584540980022
 20
-19.44744129268038
 30
0.0
 10
55.86600803544479
 20
-19.4264807500452
 30
0.0
 10
55.93934317776301
 20
-19.40616076669491
 30
0.0
 10
56.01585217019849
 20
-19.38660015374774
 30
0.0
 10
56.0955328714076
 20
-19.36791802857705
 30
0.0
 10
56.1783795850606
 20
-19.35023363184466
 30
0.0
 10
56.26438331841548
 20
-19.33366658282666
 30
0.0
 10
56.35353075561956
 20
-19.31833545618839
 30
0.0
 10
56.44580815636348
 20
-19.30436277559885
 30
0.0
 10
56.54118644778795
 20
-19.29185549023128
 30
0.0
 10
56.63967812974957
 20
-19.28097905449221
 30
0.0
 10
56.73390783760508
 20
-19.27233592599018
 30
0.0
 10
56.79587030991507
 20
-19.26807220620784
 30
0.0
 10
56.82346715239822
 20
-19.26623125721467
 30
0.0
  0
ARC
  5
100000B4
102
{ACAD_XDICTIONARY
360
100000B5
102
}
330
1F
100
AcDbEntity
  8
VISIBLE
100
AcDbCircle
 10
54.18623661704877
 20
-19.92939862546466
 30
0.0
 40
0.5274886014169765
100
AcDbArc
 50
230.4572681781034
 51
315.8751309599845
  0
ARC
  5
100000B7
102
{ACAD_XDICTIONARY
360
100000B8
102
}
330
1F
100
AcDbEntity
  8
VISIBLE
100
AcDbCircle
 10
50.0
 20
-25.0
 30
0.0
 40
6.047887837492023
100
AcDbArc
 50
50.45726817810353
 51
54.5427318218965
  0
ARC
  5
100000BA
102
{ACAD_XDICTIONARY
360
100000BB
102
}
330
1F
100
AcDbEntity
  8
VISIBLE
100
AcDbCircle
 10
53.81434705868276
 20
-19.64403773078284
 30
0.0
 40
0.5274886014169765
100
AcDbArc
 50
149.1248690400164
 51
234.5427318218956
  0
SPLINE
  5
100000BD
102
{ACAD_XDICTIONARY
360
100000BE
102
}
330
1F
100
AcDbEntity
  8
VISIBLE
100
AcDbSpline
210
0.0
220
0.0
230
1.0
 70
     8
 71
     3
 72
    44
 73
    40
 74
     0
 42
0.000000001
 43
0.00000001
 40
0.0374573816692533
 40
0.0374573816692533
 40
0.0374573816692533
 40
0.0374573816692533
 40
0.1173270388283835
 40
0.1245633749097423
 40
0.1339054427745937
 40
0.1449591259385427
 40
0.157492824253456
 40
0.1713493489450594
 40
0.1864129793246034
 40
0.2025939139161439
 40
0.2198198341683088
 40
0.2380308751317533
 40
0.2571764150177157
 40
0.2772129162632481
 40
0.2981024128312289
 40
0.3198114144576317
 40
0.3423100907832792
 40
0.365571649656865
 40
0.3895718539492971
 40
0.414288639560484
 40
0.439701808899202
 40
0.4657927816818096
 40
0.4925443899635605
 40
0.5199407077925867
 40
0.5479669083115218
 40
0.5766091428695077
 40
0.6058544379685357
 40
0.635690606797499
 40
0.6661061728017248
 40
0.6970903032611988
 40
0.728632751252859
 40
0.7607238046834919
 40
0.793354241322811
 40
0.8265152889579642
 40
0.8601985899430571
 40
0.8943961695393764
 40
0.9291004075405692
 40
0.9643040127571182
 40
0.9924917445858302
 40
0.9924917445858302
 40
0.9924917445858302
 40
0.9924917445858302
 10
53.36161006661971
 20
-19.37334705742573
 30
0.0
 10
53.53433737478536
 20
-19.08445626936781
 30
0.0
 10
53.68075564123857
 20
-18.83936984622764
 30
0.0
 10
53.68417174474969
 20
-18.83268732556929
 30
0.0
 10
53.68807871201753
 20
-18.82543126740892
 30
0.0
 10
53.69242618969895
 20
-18.81678948930121
 30
0.0
 10
53.69809009331257
 20
-18.80504210739973
 30
0.0
 10
53.70463300605284
 20
-18.79070969980645
 30
0.0
 10
53.71205321967908
 20
-18.77357056925785
 30
0.0
 10
53.72020968859115
 20
-18.7536416774996
 30
0.0
 10
53.72900263838967
 20
-18.73087080387081
 30
0.0
 10
53.73831846544272
 20
-18.70523070011876
 30
0.0
 10
53.74804633323321
 20
-18.67669096462275
 30
0.0
 10
53.75807337913879
 20
-18.6452263949039
 30
0.0
 10
53.76828622420653
 20
-18.61081458910042
 30
0.0
 10
53.77857064923301
 20
-18.57343667351105
 30
0.0
 10
53.7888118021783
 20
-18.53307712262135
 30
0.0
 10
53.79889425424046
 20
-18.48972383583569
 30
0.0
 10
53.80870209993836
 20
-18.44336813766327
 30
0.0
 10
53.81811904536668
 20
-18.39400479649345
 30
0.0
 10
53.82702850033763
 20
-18.34163203506213
 30
0.0
 10
53.83531366987128
 20
-18.28625154025148
 30
0.0
 10
53.84285764622452
 20
-18.22786847009328
 30
0.0
 10
53.8495435010478
 20
-18.16649145858561
 30
0.0
 10
53.85525437769559
 20
-18.10213261815254
 30
0.0
 10
53.85987358365749
 20
-18.03480753981684
 30
0.0
 10
53.86328468285993
 20
-17.96453529099088
 30
0.0
 10
53.86537158855308
 20
-17.89133841121086
 30
0.0
 10
53.86601865375363
 20
-17.81524290458389
 30
0.0
 10
53.86511077061344
 20
-17.73627823368249
 30
0.0
 10
53.86253343480573
 20
-17.65447729673063
 30
0.0
 10
53.85817294301435
 20
-17.56987645771453
 30
0.0
 10
53.85191607938406
 20
-17.48251536270276
 30
0.0
 10
53.84365175597958
 20
-17.392437563203
 30
0.0
 10
53.83326518027842
 20
-17.29968804279391
 30
0.0
 10
53.82066057192174
 20
-17.20432256418403
 30
0.0
 10
53.80567487902422
 20
-17.10637187619055
 30
0.0
 10
53.78963505705681
 20
-17.01311596150364
 30
0.0
 10
53.77771642619518
 20
-16.95216127735607
 30
0.0
 10
53.77235205795323
 20
-16.92502830181707
 30
0.0
  0
ARC
  5
100000C0
102
{ACAD_XDICTIONARY
360
100000C1
102
}
330
1F
100
AcDbEntity
  8
VISIBLE
100
AcDbCircle
 10
50.0
 20
-25.0
 30
0.0
 40
8.912676813146138
100
AcDbArc
 50
64.95961864959953
 51
70.04038135040051
  0
SPLINE
  5
100000C3
102
{ACAD_XDICTIONARY
360
100000C4
102
}
330
1F
100
AcDbEntity
  8
VISIBLE
100
AcDbSpline
210
0.0
220
0.0
230
1.0
 70
     8
 71
     3
 72
    44
 73
    40
 74
     0
 42
0.000000001
 43
0.00000001
 40
0.0374573816692539
 40
0.0374573816692539
 40
0.0374573816692539
 40
0.0374573816692539
 40
0.1173270388283835
 40
0.1245633749097423
 40
0.1339054427745937
 40
0.1449591259385427
 40
0.157492824253456
 40
0.1713493489450594
 40
0.1864129793246034
 40
0.2025939139161439
 40
0.2198198341683088
 40
0.2380308751317533
 40
0.2571764150177157
 40
0.2772129162632481
 40
0.2981024128312289
 40
0.3198114144576317
 40
0.3423100907832792
 40
0.365571649656865
 40
0.3895718539492971
 40
0.414288639560484
 40
0.439701808899202
 40
0.4657927816818096
 40
0.4925443899635605
 40
0.5199407077925867
 40
0.5479669083115218
 40
0.5766091428695077
 40
0.6058544379685357
 40
0.635690606797499
 40
0.6661061728017248
 40
0.6970903032611988
 40
0.728632751252859
 40
0.7607238046834919
 40
0.793354241322811
 40
0.8265152889579642
 40
0.8601985899430571
 40
0.8943961695393764
 40
0.9291004075405692
 40
0.9643040127571182
 40
0.9924917445858317
 40
0.9924917445858317
 40
0.9924917445858317
 40
0.9924917445858317
 10
51.60162717726575
 20
-18.64433827511073
 30
0.0
 10
51.68376716162381
 20
-18.31792498895263
 30
0.0
 10
51.75353608430432
 20
-18.04108936807481
 30
0.0
 10
51.75584579001931
 20
-18.03394856244393
 30
0.0
 10
51.75821395490023
 20
-18.02605511146508
 30
0.0
 10
51.76125048385212
 20
-18.01687032061401
 30
0.0
 10
51.76555215260267
 20
-18.00455868255712
 30
0.0
 10
51.77106015723525
 20
-17.98979760198982
 30
0.0
 10
51.77793246929684
 20
-17.9724315231823
 30
0.0
 10
51.78625682932236
 20
-17.95257217420026
 30
0.0
 10
51.79614071404966
 20
-17.93025318061462
 30
0.0
 10
51.80768372080148
 20
-17.90553560489965
 30
0.0
 10
51.82098572002284
 20
-17.878476323116
 30
0.0
 10
51.83614433848305
 20
-17.84913732034559
 30
0.0
 10
51.85325558771696
 20
-17.81758292710646
 30
0.0
 10
51.87241357862001
 20
-17.78388056284978
 30
0.0
 10
51.89371050204495
 20
-17.74810046203525
 30
0.0
 10
51.91723653489369
 20
-17.71031568873823
 30
0.0
 10
51.94307976921622
 20
-17.67060206601207
 30
0.0
 10
51.971326136529
 20
-17.62903812675842
 30
0.0
 10
52.00205933525992
 20
-17.58570505597423
 30
0.0
 10
52.03536075912547
 20
-17.54068663298764
 30
0.0
 10
52.07130942710433
 20
-17.49406917133579
 30
0.0
 10
52.1099819148668
 20
-17.44594145700619
 30
0.0
 10
52.15145228776215
 20
-17.3963946849025
 30
0.0
 10
52.1957920353379
 20
-17.34552239360805
 30
0.0
 10
52.24307000763461
 20
-17.29342039855663
 30
0.0
 10
52.29335235252143
 20
-17.24018672333516
 30
0.0
 10
52.34670245708401
 20
-17.18592153039022
 30
0.0
 10
52.40318088167751
 20
-17.13072704644664
 30
0.0
 10
52.46284533053062
 20
-17.07470750084759
 30
0.0
 10
52.52575049080796
 20
-17.01796900720023
 30
0.0
 10
52.5919483842046
 20
-16.96061965520746
 30
0.0
 10
52.66148676618647
 20
-16.90276879146804
 30
0.0
 10
52.73441499913114
 20
-16.84452939474658
 30
0.0
 10
52.8107613797905
 20
-16.78600862217364
 30
0.0
 10
52.89061946056118
 20
-16.72734351154018
 30
0.0
 10
52.96790321710424
 20
-16.67274348876149
 30
0.0
 10
53.01943243231478
 20
-16.63806976296037
 30
0.0
 10
53.04241152447285
 20
-16.62267703312364
 30
0.0
  0
ARC
  5
100000C6
102
{ACAD_XDICTIONARY
360
100000C7
102
}
330
1F
100
AcDbEntity
  8
VISIBLE
100
AcDbCircle
 10
51.0900865693492
 20
-18.51561208866372
 30
0.0
 40
0.5274886014169765
100
AcDbArc
 50
260.4572681781038
 51
345.8751309599846
  0
ARC
  5
100000C9
102
{ACAD_XDICTIONARY
360
100000CA
102
}
330
1F
100
AcDbEntity
  8
VISIBLE
100
AcDbCircle
 10
50.0
 20
-25.0
 30
0.0
 40
6.047887837492023
100
AcDbArc
 50
80.45726817810349
 51
84.54273182189652
  0
ARC
  5
100000CC
102
{ACAD_XDICTIONARY
360
100000CD
102
}
330
1F
100
AcDbEntity
  8
VISIBLE
100
AcDbCircle
 10
50.62534031706114
 20
-18.45442708380562
 30
0.0
 40
0.5274886014169765
100
AcDbArc
 50
179.1248690400157
 51
264.5427318218959
  0
SPLINE
  5
100000CF
102
{ACAD_XDICTIONARY
360
100000D0
102
}
330
1F
100
AcDbEntity
  8
VISIBLE
100
AcDbSpline
210
0.0
220
0.0
230
1.0
 70
     8
 71
     3
 72
    44
 73
    40
 74
     0
 42
0.000000001
 43
0.00000001
 40
0.037457381669253
 40
0.037457381669253
 40
0.037457381669253
 40
0.037457381669253
 40
0.1173270388283835
 40
0.1245633749097423
 40
0.1339054427745937
 40
0.1449591259385427
 40
0.157492824253456
 40
0.1713493489450594
 40
0.1864129793246034
 40
0.2025939139161439
 40
0.2198198341683088
 40
0.2380308751317533
 40
0.2571764150177157
 40
0.2772129162632481
 40
0.2981024128312289
 40
0.3198114144576317
 40
0.3423100907832792
 40
0.365571649656865
 40
0.3895718539492971
 40
0.414288639560484
 40
0.439701808899202
 40
0.4657927816818096
 40
0.4925443899635605
 40
0.5199407077925867
 40
0.5479669083115218
 40
0.5766091428695077
 40
0.6058544379685357
 40
0.635690606797499
 40
0.6661061728017248
 40
0.6970903032611988
 40
0.728632751252859
 40
0.7607238046834919
 40
0.793354241322811
 40
0.8265152889579642
 40
0.8601985899430571
 40
0.8943961695393764
 40
0.9291004075405692
 40
0.9643040127571182
 40
0.992491744585829
 40
0.992491744585829
 40
0.992491744585829
 40
0.992491744585829
 10
50.09791324402303
 20
-18.44637058014237
 30
0.0
 10
50.10305408679283
 20
-18.10982016468208
 30
0.0
 10
50.10731281354931
 20
-17.82435996289342
 30
0.0
 10
50.10692998564272
 20
-17.81686467848642
 30
0.0
 10
50.10668548946823
 20
-17.80862726415428
 30
0.0
 10
50.10612962652887
 20
-17.79896952593841
 30
0.0
 10
50.10516101999212
 20
-17.78596404297697
 30
0.0
 10
50.10366114484331
 20
-17.77028035753366
 30
0.0
 10
50.10151767307082
 20
-17.75172732826668
 30
0.0
 10
50.09861693647473
 20
-17.73039016727874
 30
0.0
 10
50.09484641756006
 20
-17.70627353735058
 30
0.0
 10
50.09009410856923
 20
-17.67941064261911
 30
0.0
 10
50.08424882145246
 20
-17.64983057276703
 30
0.0
 10
50.07720021307218
 20
-17.61756793311856
 30
0.0
 10
50.06883889344401
 20
-17.58266001256878
 30
0.0
 10
50.05905650898556
 20
-17.54514757561464
 30
0.0
 10
50.04774583215539
 20
-17.50507460278618
 30
0.0
 10
50.03480084838083
 20
-17.46248832906116
 30
0.0
 10
50.02011684282539
 20
-17.41743919398474
 30
0.0
 10
50.00359048620746
 20
-17.36998081380184
 30
0.0
 10
49.98511991983051
 20
-17.32016994445049
 30
0.0
 10
49.964604839716
 20
-17.2680664443035
 30
0.0
 10
49.94194657980437
 20
-17.21373323421895
 30
0.0
 10
49.9170481941735
 20
-17.1572362556333
 30
0.0
 10
49.88981453821182
 20
-17.09864442653626
 30
0.0
 10
49.86015234875227
 20
-17.03802959540481
 30
0.0
 10
49.82797032290345
 20
-16.97546649313924
 30
0.0
 10
49.79317919635901
 20
-16.91103268292542
 30
0.0
 10
49.7556918179471
 20
-16.84480850847233
 30
0.0
 10
49.71542323263334
 20
-16.77687703904035
 30
0.0
 10
49.67229072587384
 20
-16.70732401749052
 30
0.0
 10
49.62621400970146
 20
-16.63623778761679
 30
0.0
 10
49.57711485934374
 20
-16.56370929184931
 30
0.0
 10
49.52491884558048
 20
-16.48983179086777
 30
0.0
 10
49.4695490469604
 20
-16.41470163785525
 30
0.0
 10
49.41095039661381
 20
-16.33841501491337
 30
0.0
 10
49.34899706187452
 20
-16.26108007724162
 30
0.0
 10
49.28847821123512
 20
-16.1883379970533
 30
0.0
 10
49.24767903205683
 20
-16.14150900753266
 30
0.0
 10
49.22946686511455
 20
-16.1206933455566
 30
0.0
  0
ARC
  5
100000D2
102
{ACAD_XDICTIONARY
360
100000D3
102
}
330
1F
100
AcDbEntity
  8
VISIBLE
100
AcDbCircle
 10
50.0
 20
-25.0
 30
0.0
 40
8.912676813146138
100
AcDbArc
 50
94.9596186495995
 51
100.0403813504005
  0
SPLINE
  5
100000D5
102
{ACAD_XDICTIONARY
360
100000D6
102
}
330
1F
100
AcDbEntity
  8
VISIBLE
100
AcDbSpline
210
0.0
220
0.0
230
1.0
 70
     8
 71
     3
 72
    44
 73
    40
 74
     0
 42
0.000000001
 43
0.00000001
 40
0.0374573816692537
 40
0.0374573816692537
 40
0.0374573816692537
 40
0.0374573816692537
 40
0.1173270388283835
 40
0.1245633749097423
 40
0.1339054427745937
 40
0.1449591259385427
 40
0.157492824253456
 40
0.1713493489450594
 40
0.1864129793246034
 40
0.2025939139161439
 40
0.2198198341683088
 40
0.2380308751317533
 40
0.2571764150177157
 40
0.2772129162632481
 40
0.2981024128312289
 40
0.3198114144576317
 40
0.3423100907832792
 40
0.365571649656865
 40
0.3895718539492971
 40
0.414288639560484
 40
0.439701808899202
 40
0.4657927816818096
 40
0.4925443899635605
 40
0.5199407077925867
 40
0.5479669083115218
 40
0.5766091428695077
 40
0.6058544379685357
 40
0.635690606797499
 40
0.6661061728017248
 40
0.6970903032611988
 40
0.728632751252859
 40
0.7607238046834919
 40
0.793354241322811
 40
0.8265152889579642
 40
0.8601985899430571
 40
0.8943961695393764
 40
0.9291004075405692
 40
0.9643040127571182
 40
0.9924917445858259
 40
0.9924917445858259
 40
0.9924917445858259
 40
0.9924917445858259
 10
48.20921896045906
 20
-18.69502189975258
 30
0.0
 10
48.11714763050054
 20
-18.37126970962789
 30
0.0
 10
48.03915147949764
 20
-18.096638567935
 30
0.0
 10
48.03758134050665
 20
-18.08929959599768
 30
0.0
 10
48.03568550596444
 20
-18.08127958448601
 30
0.0
 10
48.03372282175058
 20
-18.07180705780459
 30
0.0
 10
48.03129235713877
 20
-18.05899403210985
 30
0.0
 10
48.02868188879109
 20
-18.04345655903498
 30
0.0
 10
48.02595044621541
 20
-18.02498093759274
 30
0.0
 10
48.02322987897674
 20
-18.00362005685891
 30
0.0
 10
48.02063007744584
 20
-17.9793492990632
 30
0.0
 10
48.01826782667149
 20
-17.95217174719815
 30
0.0
 10
48.01625805502648
 20
-17.92208672215468
 30
0.0
 10
48.01471630231409
 20
-17.88909909120369
 30
0.0
 10
48.01375788222158
 20
-17.85321656044064
 30
0.0
 10
48.01349800690075
 20
-17.81445046137524
 30
0.0
 10
48.01405163320194
 20
-17.77281552340741
 30
0.0
 10
48.01553338865071
 20
-17.72832993343158
 30
0.0
 10
48.01805747472689
 20
-17.68101531011316
 30
0.0
 10
48.02173757675756
 20
-17.63089669918176
 30
0.0
 10
48.026686772206
 20
-17.57800255969321
 30
0.0
 10
48.03301743976246
 20
-17.52236474981573
 30
0.0
 10
48.04084116863844
 20
-17.46401850977585
 30
0.0
 10
48.05026866830347
 20
-17.4030024426591
 30
0.0
 10
48.06140967868343
 20
-17.3393584928941
 30
0.0
 10
48.07437288083418
 20
-17.27313192249652
 30
0.0
 10
48.08926580835683
 20
-17.20437128504578
 30
0.0
 10
48.10619475877995
 20
-17.13312839752377
 30
0.0
 10
48.12526470815323
 20
-17.0594583096109
 30
0.0
 10
48.14657921664512
 20
-16.98341927207023
 30
0.0
 10
48.17024037225519
 20
-16.90507269804645
 30
0.0
 10
48.19634859226083
 20
-16.8244831410367
 30
0.0
 10
48.22500297362294
 20
-16.74171819862206
 30
0.0
 10
48.2562995470876
 20
-16.65684869000192
 30
0.0
 10
48.29033755111006
 20
-16.56994777646771
 30
0.0
 10
48.3271950699616
 20
-16.48109411044078
 30
0.0
 10
48.36702164128975
 20
-16.39035959393104
 30
0.0
 10
48.40665132636657
 20
-16.30443270888595
 30
0.0
 10
48.43394007287542
 20
-16.24863977389307
 30
0.0
 10
48.44614418552184
 20
-16.22381973274184
 30
0.0
  0
ARC
  5
100000D8
102
{ACAD_XDICTIONARY
360
100000D9
102
}
330
1F
100
AcDbEntity
  8
VISIBLE
100
AcDbCircle
 10
47.70184870571249
 20
-18.83931205611547
 30
0.0
 40
0.5274886014169765
100
AcDbArc
 50
290.4572681781034
 51
15.87513095998479
  0
ARC
  5
100000DB
102
{ACAD_XDICTIONARY
360
100000DC
102
}
330
1F
100
AcDbEntity
  8
VISIBLE
100
AcDbCircle
 10
50.0
 20
-25.0
 30
0.0
 40
6.047887837492023
100
AcDbArc
 50
110.4572681781036
 51
114.5427318218965
  0
ARC
  5
100000DE
102
{ACAD_XDICTIONARY
360
100000DF
102
}
330
1F
100
AcDbEntity
  8
VISIBLE
100
AcDbCircle
 10
47.26877414248838
 20
-19.0186974137217
 30
0.0
 40
0.5274886014169765
100
AcDbArc
 50
209.1248690400154
 51
294.5427318218959
  0
SPLINE
  5
100000E1
102
{ACAD_XDICTIONARY
360
100000E2
102
}
330
1F
100
AcDbEntity
  8
VISIBLE
100
AcDbSpline
210
0.0
220
0.0
230
1.0
 70
     8
 71
     3
 72
    44
 73
    40
 74
     0
 42
0.000000001
 43
0.00000001
 40
0.037457381669253
 40
0.037457381669253
 40
0.037457381669253
 40
0.037457381669253
 40
0.1173270388283835
 40
0.1245633749097423
 40
0.1339054427745937
 40
0.1449591259385427
 40
0.157492824253456
 40
0.1713493489450594
 40
0.1864129793246034
 40
0.2025939139161439
 40
0.2198198341683088
 40
0.2380308751317533
 40
0.2571764150177157
 40
0.2772129162632481
 40
0.2981024128312289
 40
0.3198114144576317
 40
0.3423100907832792
 40
0.365571649656865
 40
0.3895718539492971
 40
0.414288639560484
 40
0.439701808899202
 40
0.4657927816818096
 40
0.4925443899635605
 40
0.5199407077925867
 40
0.5479669083115218
 40
0.5766091428695077
 40
0.6058544379685357
 40
0.635690606797499
 40
0.6661061728017248
 40
0.6970903032611988
 40
0.728632751252859
 40
0.7607238046834919
 40
0.793354241322811
 40
0.8265152889579642
 40
0.8601985899430571
 40
0.8943961695393764
 40
0.9291004075405692
 40
0.9643040127571182
 40
0.992491744585825
 40
0.992491744585825
 40
0.992491744585825
 40
0.992491744585825
 10
46.80798064676207
 20
-19.27543381340271
 30
0.0
 10
46.64415753946744
 20
-18.98140218257499
 30
0.0
 10
46.50511560413199
 20
-18.73205703267834
 30
0.0
 10
46.50103642323611
 20
-18.72575733992658
 30
0.0
 10
46.49670597617181
 20
-18.71874577794069
 30
0.0
 10
46.49139571563737
 20
-18.71065986277234
 30
0.0
 10
46.48405413628954
 20
-18.69988108740762
 30
0.0
 10
46.47491336358651
 20
-18.68704855496316
 30
0.0
 10
46.46378054794575
 20
-18.67205289618703
 30
0.0
 10
46.45059985586987
 20
-18.65502474102489
 30
0.0
 10
46.43527617574024
 20
-18.63602438631077
 30
0.0
 10
46.41772910806182
 20
-18.61513659154953
 30
0.0
 10
46.39787690600023
 20
-18.5924421431703
 30
0.0
 10
46.37564131225736
 20
-18.56802618183173
 30
0.0
 10
46.35094623677531
 20
-18.54197569565641
 30
0.0
 10
46.32371822484764
 20
-18.51438016452549
 30
0.0
 10
46.29388640496448
 20
-18.48533129046598
 30
0.0
 10
46.26138258330163
 20
-18.45492298745486
 30
0.0
 10
46.2261412939231
 20
-18.42325129483789
 30
0.0
 10
46.18809985916852
 20
-18.39041431028599
 30
0.0
 10
46.14719844478812
 20
-18.35651211523161
 30
0.0
 10
46.10338011417479
 20
-18.32164670053549
 30
0.0
 10
46.05659088044348
 20
-18.28592189028893
 30
0.0
 10
46.00677975668111
 20
-18.24944326441213
 30
0.0
 10
45.95389880423184
 20
-18.21231807994073
 30
0.0
 10
45.89790317906229
 20
-18.17465519106456
 30
0.0
 10
45.83875117599919
 20
-18.13656496808742
 30
0.0
 10
45.7764042714785
 20
-18.09815921485185
 30
0.0
 10
45.71082716222597
 20
-18.05955108663678
 30
0.0
 10
45.64198780965378
 20
-18.02085500104916
 30
0.0
 10
45.56985745229625
 20
-17.98218657085679
 30
0.0
 10
45.49441073063114
 20
-17.94366244801308
 30
0.0
 10
45.41562537123338
 20
-17.90540050335903
 30
0.0
 10
45.33348354684734
 20
-17.86751871762253
 30
0.0
 10
45.24796681813366
 20
-17.83013899583351
 30
0.0
 10
45.1590755868351
 20
-17.79337216757022
 30
0.0
 10
45.06675495626584
 20
-17.75737481431604
 30
0.0
 10
44.97797305411011
 20
-17.72463775026853
 30
0.0
 10
44.91922543372786
 20
-17.70448224529925
 30
0.0
 10
44.89304540350984
 20
-17.69556143670254
 30
0.0
  0
ARC
  5
100000E4
102
{ACAD_XDICTIONARY
360
100000E5
102
}
330
1F
100
AcDbEntity
  8
VISIBLE
100
AcDbCircle
 10
50.0
 20
-25.0
 30
0.0
 40
8.912676813146138
100
AcDbArc
 50
124.9596186495995
 51
130.0403813504005
  0
SPLINE
  5
100000E7
102
{ACAD_XDICTIONARY
360
100000E8
102
}
330
1F
100
AcDbEntity
  8
VISIBLE
100
AcDbSpline
210
0.0
220
0.0
230
1.0
 70
     8
 71
     3
 72
    44
 73
    40
 74
     0
 42
0.000000001
 43
0.00000001
 40
0.0374573816692538
 40
0.0374573816692538
 40
0.0374573816692538
 40
0.0374573816692538
 40
0.1173270388283835
 40
0.1245633749097423
 40
0.1339054427745937
 40
0.1449591259385427
 40
0.157492824253456
 40
0.1713493489450594
 40
0.1864129793246034
 40
0.2025939139161439
 40
0.2198198341683088
 40
0.2380308751317533
 40
0.2571764150177157
 40
0.2772129162632481
 40
0.2981024128312289
 40
0.3198114144576317
 40
0.3423100907832792
 40
0.365571649656865
 40
0.3895718539492971
 40
0.414288639560484
 40
0.439701808899202
 40
0.4657927816818096
 40
0.4925443899635605
 40
0.5199407077925867
 40
0.5479669083115218
 40
0.5766091428695077
 40
0.6058544379685357
 40
0.635690606797499
 40
0.6661061728017248
 40
0.6970903032611988
 40
0.728632751252859
 40
0.7607238046834919
 40
0.793354241322811
 40
0.8265152889579642
 40
0.8601985899430571
 40
0.8943961695393764
 40
0.9291004075405692
 40
0.9643040127571182
 40
0.9924917445858289
 40
0.9924917445858289
 40
0.9924917445858289
 40
0.9924917445858289
 10
45.29664907701835
 20
-20.43511931465165
 30
0.0
 10
45.0550368712517
 20
-20.20077735845208
 30
0.0
 10
44.85017465223934
 20
-20.00193788857717
 30
0.0
 10
44.84514538601699
 20
-19.99636722193728
 30
0.0
 10
44.83949353938625
 20
-19.99036960550064
 30
0.0
 10
44.83305754165671
 20
-19.98314749886343
 30
0.0
 10
44.82454618471252
 20
-19.97326632541835
 30
0.0
 10
44.81451671627022
 20
-19.96111571319873
 30
0.0
 10
44.80291340688958
 20
-19.9464810769669
 30
0.0
 10
44.78987688618128
 20
-19.92934229522351
 30
0.0
 10
44.77549001311287
 20
-19.90962310316879
 30
0.0
 10
44.75985546799965
 20
-19.88726777822817
 30
0.0
 10
44.74307244217753
 20
-19.86221826808953
 30
0.0
 10
44.72524342968673
 20
-19.83442101803151
 30
0.0
 10
44.70647214815761
 20
-19.80382504488488
 30
0.0
 10
44.68686403999524
 20
-19.77038255594904
 30
0.0
 10
44.66652602545237
 20
-19.7340488288333
 30
0.0
 10
44.64556646832528
 20
-19.69478230008752
 30
0.0
 10
44.62409507932939
 20
-19.65254459128518
 30
0.0
 10
44.60222283571077
 20
-19.60730055000087
 30
0.0
 10
44.58006189495313
 20
-19.55901828376825
 30
0.0
 10
44.5577255089412
 20
-19.50766919322519
 30
0.0
 10
44.53532793688019
 20
-19.45322800269735
 30
0.0
 10
44.51298435752589
 20
-19.39567278870272
 30
0.0
 10
44.49081078065627
 20
-19.33498500621907
 30
0.0
 10
44.46892395783442
 20
-19.27114951277387
 30
0.0
 10
44.44744129268038
 20
-19.20415459019979
 30
0.0
 10
44.4264807500452
 20
-19.13399196455522
 30
0.0
 10
44.40616076669492
 20
-19.060656822237
 30
0.0
 10
44.38660015374775
 20
-18.98414782980151
 30
0.0
 10
44.36791802857707
 20
-18.9044671285924
 30
0.0
 10
44.35023363184466
 20
-18.82162041493941
 30
0.0
 10
44.33366658282666
 20
-18.73561668158452
 30
0.0
 10
44.3183354561884
 20
-18.64646924438044
 30
0.0
 10
44.30436277559885
 20
-18.55419184363652
 30
0.0
 10
44.29185549023128
 20
-18.45881355221205
 30
0.0
 10
44.28097905449222
 20
-18.36032187025044
 30
0.0
 10
44.27233592599019
 20
-18.26609216239492
 30
0.0
 10
44.26807220620783
 20
-18.20412969008495
 30
0.0
 10
44.26623125721467
 20
-18.17653284760181
 30
0.0
  0
ARC
  5
100000EA
102
{ACAD_XDICTIONARY
360
100000EB
102
}
330
1F
100
AcDbEntity
  8
VISIBLE
100
AcDbCircle
 10
44.92939862546467
 20
-20.81376338295123
 30
0.0
 40
0.5274886014169765
100
AcDbArc
 50
320.4572681781034
 51
45.87513095998527
  0
ARC
  5
100000ED
102
{ACAD_XDICTIONARY
360
100000EE
102
}
330
1F
100
AcDbEntity
  8
VISIBLE
100
AcDbCircle
 10
50.0
 20
-25.0
 30
0.0
 40
6.047887837492023
100
AcDbArc
 50
140.4572681781035
 51
144.5427318218966
  0
ARC
  5
100000F0
102
{ACAD_XDICTIONARY
360
100000F1
102
}
330
1F
100
AcDbEntity
  8
VISIBLE
100
AcDbCircle
 10
44.64403773078285
 20
-21.18565294131724
 30
0.0
 40
0.5274886014169765
100
AcDbArc
 50
239.1248690400164
 51
324.5427318218954
  0
SPLINE
  5
100000F3
102
{ACAD_XDICTIONARY
360
100000F4
102
}
330
1F
100
AcDbEntity
  8
VISIBLE
100
AcDbSpline
210
0.0
220
0.0
230
1.0
 70
     8
 71
     3
 72
    44
 73
    40
 74
     0
 42
0.000000001
 43
0.00000001
 40
0.0374573816692533
 40
0.0374573816692533
 40
0.0374573816692533
 40
0.0374573816692533
 40
0.1173270388283835
 40
0.1245633749097423
 40
0.1339054427745937
 40
0.1449591259385427
 40
0.157492824253456
 40
0.1713493489450594
 40
0.1864129793246034
 40
0.2025939139161439
 40
0.2198198341683088
 40
0.2380308751317533
 40
0.2571764150177157
 40
0.2772129162632481
 40
0.2981024128312289
 40
0.3198114144576317
 40
0.3423100907832792
 40
0.365571649656865
 40
0.3895718539492971
 40
0.414288639560484
 40
0.439701808899202
 40
0.4657927816818096
 40
0.4925443899635605
 40
0.5199407077925867
 40
0.5479669083115218
 40
0.5766091428695077
 40
0.6058544379685357
 40
0.635690606797499
 40
0.6661061728017248
 40
0.6970903032611988
 40
0.728632751252859
 40
0.7607238046834919
 40
0.793354241322811
 40
0.8265152889579642
 40
0.8601985899430571
 40
0.8943961695393764
 40
0.9291004075405692
 40
0.9643040127571182
 40
0.9924917445858288
 40
0.9924917445858288
 40
0.9924917445858288
 40
0.9924917445858288
 10
44.37334705742573
 20
-21.6383899333803
 30
0.0
 10
44.08445626936781
 20
-21.46566262521465
 30
0.0
 10
43.83936984622765
 20
-21.31924435876143
 30
0.0
 10
43.8326873255693
 20
-21.31582825525032
 30
0.0
 10
43.82543126740892
 20
-21.31192128798247
 30
0.0
 10
43.81678948930121
 20
-21.30757381030105
 30
0.0
 10
43.80504210739974
 20
-21.30190990668743
 30
0.0
 10
43.79070969980646
 20
-21.29536699394716
 30
0.0
 10
43.77357056925786
 20
-21.28794678032093
 30
0.0
 10
43.75364167749961
 20
-21.27979031140887
 30
0.0
 10
43.73087080387082
 20
-21.27099736161034
 30
0.0
 10
43.70523070011876
 20
-21.26168153455729
 30
0.0
 10
43.67669096462275
 20
-21.25195366676679
 30
0.0
 10
43.64522639490391
 20
-21.24192662086121
 30
0.0
 10
43.61081458910043
 20
-21.23171377579347
 30
0.0
 10
43.57343667351105
 20
-21.221429350767
 30
0.0
 10
43.53307712262136
 20
-21.21118819782171
 30
0.0
 10
43.48972383583568
 20
-21.20110574575954
 30
0.0
 10
43.44336813766328
 20
-21.19129790006165
 30
0.0
 10
43.39400479649345
 20
-21.18188095463332
 30
0.0
 10
43.34163203506213
 20
-21.17297149966237
 30
0.0
 10
43.28625154025148
 20
-21.16468633012872
 30
0.0
 10
43.22786847009329
 20
-21.15714235377547
 30
0.0
 10
43.16649145858563
 20
-21.1504564989522
 30
0.0
 10
43.10213261815255
 20
-21.14474562230442
 30
0.0
 10
43.03480753981685
 20
-21.14012641634252
 30
0.0
 10
42.96453529099088
 20
-21.13671531714006
 30
0.0
 10
42.89133841121086
 20
-21.13462841144691
 30
0.0
 10
42.81524290458389
 20
-21.13398134624637
 30
0.0
 10
42.7362782336825
 20
-21.13488922938656
 30
0.0
 10
42.65447729673063
 20
-21.13746656519428
 30
0.0
 10
42.56987645771454
 20
-21.14182705698566
 30
0.0
 10
42.48251536270277
 20
-21.14808392061594
 30
0.0
 10
42.392437563203
 20
-21.15634824402042
 30
0.0
 10
42.29968804279392
 20
-21.16673481972159
 30
0.0
 10
42.20432256418403
 20
-21.17933942807827
 30
0.0
 10
42.10637187619056
 20
-21.19432512097579
 30
0.0
 10
42.01311596150364
 20
-21.21036494294319
 30
0.0
 10
41.95216127735608
 20
-21.22228357380481
 30
0.0
 10
41.92502830181707
 20
-21.22764794204677
 30
0.0
  0
ARC
  5
100000F6
102
{ACAD_XDICTIONARY
360
100000F7
102
}
330
1F
100
AcDbEntity
  8
VISIBLE
100
AcDbCircle
 10
50.0
 20
-25.0
 30
0.0
 40
8.912676813146138
100
AcDbArc
 50
154.9596186495995
 51
160.0403813504005
  0
SPLINE
  5
100000F9
102
{ACAD_XDICTIONARY
360
100000FA
102
}
330
1F
100
AcDbEntity
  8
VISIBLE
100
AcDbSpline
210
0.0
220
0.0
230
1.0
 70
     8
 71
     3
 72
    44
 73
    40
 74
     0
 42
0.000000001
 43
0.00000001
 40
0.037457381669253
 40
0.037457381669253
 40
0.037457381669253
 40
0.037457381669253
 40
0.1173270388283835
 40
0.1245633749097423
 40
0.1339054427745937
 40
0.1449591259385427
 40
0.157492824253456
 40
0.1713493489450594
 40
0.1864129793246034
 40
0.2025939139161439
 40
0.2198198341683088
 40
0.2380308751317533
 40
0.2571764150177157
 40
0.2772129162632481
 40
0.2981024128312289
 40
0.3198114144576317
 40
0.3423100907832792
 40
0.365571649656865
 40
0.3895718539492971
 40
0.414288639560484
 40
0.439701808899202
 40
0.4657927816818096
 40
0.4925443899635605
 40
0.5199407077925867
 40
0.5479669083115218
 40
0.5766091428695077
 40
0.6058544379685357
 40
0.635690606797499
 40
0.6661061728017248
 40
0.6970903032611988
 40
0.728632751252859
 40
0.7607238046834919
 40
0.793354241322811
 40
0.8265152889579642
 40
0.8601985899430571
 40
0.8943961695393764
 40
0.9291004075405692
 40
0.9643040127571182
 40
0.9924917445858299
 40
0.9924917445858299
 40
0.9924917445858299
 40
0.9924917445858299
 10
43.64433827511074
 20
-23.39837282273424
 30
0.0
 10
43.31792498895263
 20
-23.3162328383762
 30
0.0
 10
43.04108936807481
 20
-23.24646391569567
 30
0.0
 10
43.03394856244392
 20
-23.24415420998069
 30
0.0
 10
43.02605511146508
 20
-23.24178604509978
 30
0.0
 10
43.01687032061402
 20
-23.23874951614789
 30
0.0
 10
43.00455868255712
 20
-23.23444784739734
 30
0.0
 10
42.98979760198983
 20
-23.22893984276476
 30
0.0
 10
42.97243152318231
 20
-23.22206753070317
 30
0.0
 10
42.95257217420026
 20
-23.21374317067764
 30
0.0
 10
42.93025318061463
 20
-23.20385928595034
 30
0.0
 10
42.90553560489965
 20
-23.19231627919852
 30
0.0
 10
42.87847632311601
 20
-23.17901427997716
 30
0.0
 10
42.84913732034559
 20
-23.16385566151695
 30
0.0
 10
42.81758292710647
 20
-23.14674441228305
 30
0.0
 10
42.78388056284977
 20
-23.12758642138001
 30
0.0
 10
42.74810046203524
 20
-23.10628949795504
 30
0.0
 10
42.71031568873823
 20
-23.08276346510631
 30
0.0
 10
42.67060206601207
 20
-23.05692023078378
 30
0.0
 10
42.62903812675843
 20
-23.028673863471
 30
0.0
 10
42.58570505597424
 20
-22.99794066474009
 30
0.0
 10
42.54068663298764
 20
-22.96463924087454
 30
0.0
 10
42.49406917133579
 20
-22.92869057289568
 30
0.0
 10
42.44594145700619
 20
-22.89001808513321
 30
0.0
 10
42.3963946849025
 20
-22.84854771223785
 30
0.0
 10
42.34552239360804
 20
-22.80420796466211
 30
0.0
 10
42.29342039855663
 20
-22.7569299923654
 30
0.0
 10
42.24018672333516
 20
-22.70664764747857
 30
0.0
 10
42.18592153039022
 20
-22.65329754291599
 30
0.0
 10
42.13072704644664
 20
-22.59681911832249
 30
0.0
 10
42.07470750084759
 20
-22.53715466946939
 30
0.0
 10
42.01796900720024
 20
-22.47424950919204
 30
0.0
 10
41.96061965520746
 20
-22.4080516157954
 30
0.0
 10
41.90276879146805
 20
-22.33851323381353
 30
0.0
 10
41.84452939474657
 20
-22.26558500086886
 30
0.0
 10
41.78600862217364
 20
-22.1892386202095
 30
0.0
 10
41.72734351154018
 20
-22.10938053943882
 30
0.0
 10
41.67274348876149
 20
-22.03209678289577
 30
0.0
 10
41.63806976296038
 20
-21.98056756768522
 30
0.0
 10
41.62267703312364
 20
-21.95758847552717
 30
0.0
  0
ARC
  5
100000FC
102
{ACAD_XDICTIONARY
360
100000FD
102
}
330
1F
100
AcDbEntity
  8
VISIBLE
100
AcDbCircle
 10
43.51561208866372
 20
-23.9099134306508
 30
0.0
 40
0.5274886014169765
100
AcDbArc
 50
350.4572681781036
 51
75.87513095998467
  0
ARC
  5
100000FF
102
{ACAD_XDICTIONARY
360
10000100
102
}
330
1F
100
AcDbEntity
  8
VISIBLE
100
AcDbCircle
 10
50.0
 20
-25.0
 30
0.0
 40
6.047887837492023
100
AcDbArc
 50
170.4572681781035
 51
174.5427318218965
  0
ARC
  5
10000102
102
{ACAD_XDICTIONARY
360
10000103
102
}
330
1F
100
AcDbEntity
  8
VISIBLE
100
AcDbCircle
 10
43.45442708380562
 20
-24.37465968293886
 30
0.0
 40
0.5274886014169765
100
AcDbArc
 50
269.1248690400164
 51
354.5427318218967
  0
SPLINE
  5
10000105
102
{ACAD_XDICTIONARY
360
10000106
102
}
330
1F
100
AcDbEntity
  8
VISIBLE
100
AcDbSpline
210
0.0
220
0.0
230
1.0
 70
     8
 71
     3
 72
    44
 73
    40
 74
     0
 42
0.000000001
 43
0.00000001
 40
0.0374573816692536
 40
0.0374573816692536
 40
0.0374573816692536
 40
0.0374573816692536
 40
0.1173270388283835
 40
0.1245633749097423
 40
0.1339054427745937
 40
0.1449591259385427
 40
0.157492824253456
 40
0.1713493489450594
 40
0.1864129793246034
 40
0.2025939139161439
 40
0.2198198341683088
 40
0.2380308751317533
 40
0.2571764150177157
 40
0.2772129162632481
 40
0.2981024128312289
 40
0.3198114144576317
 40
0.3423100907832792
 40
0.365571649656865
 40
0.3895718539492971
 40
0.414288639560484
 40
0.439701808899202
 40
0.4657927816818096
 40
0.4925443899635605
 40
0.5199407077925867
 40
0.5479669083115218
 40
0.5766091428695077
 40
0.6058544379685357
 40
0.635690606797499
 40
0.6661061728017248
 40
0.6970903032611988
 40
0.728632751252859
 40
0.7607238046834919
 40
0.793354241322811
 40
0.8265152889579642
 40
0.8601985899430571
 40
0.8943961695393764
 40
0.9291004075405692
 40
0.9643040127571182
 40
0.99249174458583
 40
0.99249174458583
 40
0.99249174458583
 40
0.99249174458583
 10
43.44637058014236
 20
-24.90208675597697
 30
0.0
 10
43.10982016468208
 20
-24.89694591320718
 30
0.0
 10
42.82435996289342
 20
-24.8926871864507
 30
0.0
 10
42.81686467848642
 20
-24.89307001435729
 30
0.0
 10
42.80862726415428
 20
-24.89331451053177
 30
0.0
 10
42.79896952593842
 20
-24.89387037347113
 30
0.0
 10
42.78596404297698
 20
-24.89483898000789
 30
0.0
 10
42.77028035753367
 20
-24.8963388551567
 30
0.0
 10
42.75172732826668
 20
-24.89848232692918
 30
0.0
 10
42.73039016727875
 20
-24.90138306352528
 30
0.0
 10
42.70627353735058
 20
-24.90515358243995
 30
0.0
 10
42.67941064261911
 20
-24.90990589143077
 30
0.0
 10
42.64983057276703
 20
-24.91575117854756
 30
0.0
 10
42.61756793311857
 20
-24.92279978692783
 30
0.0
 10
42.58266001256879
 20
-24.931161106556
 30
0.0
 10
42.54514757561465
 20
-24.94094349101444
 30
0.0
 10
42.50507460278619
 20
-24.95225416784462
 30
0.0
 10
42.46248832906117
 20
-24.96519915161918
 30
0.0
 10
42.41743919398475
 20
-24.97988315717461
 30
0.0
 10
42.36998081380183
 20
-24.99640951379254
 30
0.0
 10
42.3201699444505
 20
-25.01488008016949
 30
0.0
 10
42.26806644430351
 20
-25.03539516028401
 30
0.0
 10
42.21373323421895
 20
-25.05805342019564
 30
0.0
 10
42.1572362556333
 20
-25.08295180582651
 30
0.0
 10
42.09864442653625
 20
-25.11018546178819
 30
0.0
 10
42.03802959540481
 20
-25.13984765124773
 30
0.0
 10
41.97546649313924
 20
-25.17202967709655
 30
0.0
 10
41.91103268292542
 20
-25.20682080364099
 30
0.0
 10
41.84480850847234
 20
-25.2443081820529
 30
0.0
 10
41.77687703904035
 20
-25.28457676736667
 30
0.0
 10
41.70732401749051
 20
-25.32770927412617
 30
0.0
 10
41.6362377876168
 20
-25.37378599029854
 30
0.0
 10
41.56370929184932
 20
-25.42288514065627
 30
0.0
 10
41.48983179086778
 20
-25.47508115441953
 30
0.0
 10
41.41470163785525
 20
-25.5304509530396
 30
0.0
 10
41.33841501491338
 20
-25.58904960338619
 30
0.0
 10
41.26108007724162
 20
-25.65100293812548
 30
0.0
 10
41.18833799705331
 20
-25.7115217887649
 30
0.0
 10
41.14150900753266
 20
-25.75232096794318
 30
0.0
 10
41.1206933455566
 20
-25.77053313488546
 30
0.0
  0
ARC
  5
10000108
102
{ACAD_XDICTIONARY
360
10000109
102
}
330
1F
100
AcDbEntity
  8
VISIBLE
100
AcDbCircle
 10
50.0
 20
-25.0
 30
0.0
 40
8.912676813146138
100
AcDbArc
 50
184.9596186495995
 51
190.0403813504005
  0
SPLINE
  5
1000010B
102
{ACAD_XDICTIONARY
360
1000010C
102
}
330
1F
100
AcDbEntity
  8
VISIBLE
100
AcDbSpline
210
0.0
220
0.0
230
1.0
 70
     8
 71
     3
 72
    44
 73
    40
 74
     0
 42
0.000000001
 43
0.00000001
 40
0.0374573816692541
 40
0.0374573816692541
 40
0.0374573816692541
 40
0.0374573816692541
 40
0.1173270388283835
 40
0.1245633749097423
 40
0.1339054427745937
 40
0.1449591259385427
 40
0.157492824253456
 40
0.1713493489450594
 40
0.1864129793246034
 40
0.2025939139161439
 40
0.2198198341683088
 40
0.2380308751317533
 40
0.2571764150177157
 40
0.2772129162632481
 40
0.2981024128312289
 40
0.3198114144576317
 40
0.3423100907832792
 40
0.365571649656865
 40
0.3895718539492971
 40
0.414288639560484
 40
0.439701808899202
 40
0.4657927816818096
 40
0.4925443899635605
 40
0.5199407077925867
 40
0.5479669083115218
 40
0.5766091428695077
 40
0.6058544379685357
 40
0.635690606797499
 40
0.6661061728017248
 40
0.6970903032611988
 40
0.728632751252859
 40
0.7607238046834919
 40
0.793354241322811
 40
0.8265152889579642
 40
0.8601985899430571
 40
0.8943961695393764
 40
0.9291004075405692
 40
0.9643040127571182
 40
0.9924917445858298
 40
0.9924917445858298
 40
0.9924917445858298
 40
0.9924917445858298
 10
43.69502189975259
 20
-26.79078103954093
 30
0.0
 10
43.37126970962789
 20
-26.88285236949946
 30
0.0
 10
43.096638567935
 20
-26.96084852050236
 30
0.0
 10
43.08929959599768
 20
-26.96241865949335
 30
0.0
 10
43.08127958448601
 20
-26.96431449403556
 30
0.0
 10
43.0718070578046
 20
-26.96627717824943
 30
0.0
 10
43.05899403210986
 20
-26.96870764286123
 30
0.0
 10
43.04345655903498
 20
-26.97131811120891
 30
0.0
 10
43.02498093759274
 20
-26.9740495537846
 30
0.0
 10
43.00362005685891
 20
-26.97677012102326
 30
0.0
 10
42.9793492990632
 20
-26.97936992255416
 30
0.0
 10
42.95217174719816
 20
-26.98173217332851
 30
0.0
 10
42.92208672215469
 20
-26.98374194497352
 30
0.0
 10
42.88909909120369
 20
-26.98528369768592
 30
0.0
 10
42.85321656044065
 20
-26.98624211777842
 30
0.0
 10
42.81445046137524
 20
-26.98650199309926
 30
0.0
 10
42.77281552340742
 20
-26.98594836679806
 30
0.0
 10
42.7283299334316
 20
-26.9844666113493
 30
0.0
 10
42.68101531011316
 20
-26.98194252527311
 30
0.0
 10
42.63089669918177
 20
-26.97826242324244
 30
0.0
 10
42.57800255969322
 20
-26.97331322779401
 30
0.0
 10
42.52236474981573
 20
-26.96698256023755
 30
0.0
 10
42.46401850977585
 20
-26.95915883136156
 30
0.0
 10
42.4030024426591
 20
-26.94973133169653
 30
0.0
 10
42.33935849289411
 20
-26.93859032131657
 30
0.0
 10
42.27313192249652
 20
-26.92562711916582
 30
0.0
 10
42.20437128504578
 20
-26.91073419164317
 30
0.0
 10
42.13312839752377
 20
-26.89380524122006
 30
0.0
 10
42.0594583096109
 20
-26.87473529184677
 30
0.0
 10
41.98341927207024
 20
-26.85342078335487
 30
0.0
 10
41.90507269804645
 20
-26.82975962774481
 30
0.0
 10
41.8244831410367
 20
-26.80365140773918
 30
0.0
 10
41.74171819862206
 20
-26.77499702637706
 30
0.0
 10
41.65684869000194
 20
-26.7437004529124
 30
0.0
 10
41.56994777646772
 20
-26.70966244888994
 30
0.0
 10
41.48109411044078
 20
-26.67280493003841
 30
0.0
 10
41.39035959393104
 20
-26.63297835871026
 30
0.0
 10
41.30443270888596
 20
-26.59334867363343
 30
0.0
 10
41.24863977389306
 20
-26.56605992712458
 30
0.0
 10
41.22381973274184
 20
-26.55385581447816
 30
0.0
  0
ARC
  5
1000010E
102
{ACAD_XDICTIONARY
360
1000010F
102
}
330
1F
100
AcDbEntity
  8
VISIBLE
100
AcDbCircle
 10
43.83931205611547
 20
-27.29815129428751
 30
0.0
 40
0.5274886014169765
100
AcDbArc
 50
20.45726817810321
 51
105.8751309599848
  0
ARC
  5
10000111
102
{ACAD_XDICTIONARY
360
10000112
102
}
330
1F
100
AcDbEntity
  8
VISIBLE
100
AcDbCircle
 10
50.0
 20
-25.0
 30
0.0
 40
6.047887837492023
100
AcDbArc
 50
200.4572681781035
 51
204.5427318218966
  0
ARC
  5
10000114
102
{ACAD_XDICTIONARY
360
10000115
102
}
330
1F
100
AcDbEntity
  8
VISIBLE
100
AcDbCircle
 10
44.0186974137217
 20
-27.73122585751163
 30
0.0
 40
0.5274886014169765
100
AcDbArc
 50
299.124869040016
 51
24.54273182189623
  0
SPLINE
  5
10000117
102
{ACAD_XDICTIONARY
360
10000118
102
}
330
1F
100
AcDbEntity
  8
VISIBLE
100
AcDbSpline
210
0.0
220
0.0
230
1.0
 70
     8
 71
     3
 72
    44
 73
    40
 74
     0
 42
0.000000001
 43
0.00000001
 40
0.0374573816692524
 40
0.0374573816692524
 40
0.0374573816692524
 40
0.0374573816692524
 40
0.1173270388283835
 40
0.1245633749097423
 40
0.1339054427745937
 40
0.1449591259385427
 40
0.157492824253456
 40
0.1713493489450594
 40
0.1864129793246034
 40
0.2025939139161439
 40
0.2198198341683088
 40
0.2380308751317533
 40
0.2571764150177157
 40
0.2772129162632481
 40
0.2981024128312289
 40
0.3198114144576317
 40
0.3423100907832792
 40
0.365571649656865
 40
0.3895718539492971
 40
0.414288639560484
 40
0.439701808899202
 40
0.4657927816818096
 40
0.4925443899635605
 40
0.5199407077925867
 40
0.5479669083115218
 40
0.5766091428695077
 40
0.6058544379685357
 40
0.635690606797499
 40
0.6661061728017248
 40
0.6970903032611988
 40
0.728632751252859
 40
0.7607238046834919
 40
0.793354241322811
 40
0.8265152889579642
 40
0.8601985899430571
 40
0.8943961695393764
 40
0.9291004075405692
 40
0.9643040127571182
 40
0.9924917445858303
 40
0.9924917445858303
 40
0.9924917445858303
 40
0.9924917445858303
 10
44.27543381340272
 20
-28.19201935323793
 30
0.0
 10
43.981402182575
 20
-28.35584246053257
 30
0.0
 10
43.73205703267834
 20
-28.49488439586802
 30
0.0
 10
43.72575733992659
 20
-28.49896357676389
 30
0.0
 10
43.71874577794069
 20
-28.50329402382819
 30
0.0
 10
43.71065986277234
 20
-28.50860428436263
 30
0.0
 10
43.69988108740762
 20
-28.51594586371046
 30
0.0
 10
43.68704855496316
 20
-28.52508663641349
 30
0.0
 10
43.67205289618703
 20
-28.53621945205425
 30
0.0
 10
43.65502474102489
 20
-28.54940014413013
 30
0.0
 10
43.63602438631077
 20
-28.56472382425976
 30
0.0
 10
43.61513659154954
 20
-28.58227089193818
 30
0.0
 10
43.59244214317031
 20
-28.60212309399977
 30
0.0
 10
43.56802618183173
 20
-28.62435868774264
 30
0.0
 10
43.54197569565642
 20
-28.64905376322469
 30
0.0
 10
43.51438016452549
 20
-28.67628177515236
 30
0.0
 10
43.48533129046598
 20
-28.70611359503551
 30
0.0
 10
43.45492298745487
 20
-28.73861741669838
 30
0.0
 10
43.42325129483789
 20
-28.7738587060769
 30
0.0
 10
43.39041431028599
 20
-28.81190014083149
 30
0.0
 10
43.35651211523162
 20
-28.85280155521188
 30
0.0
 10
43.3216467005355
 20
-28.89661988582522
 30
0.0
 10
43.28592189028893
 20
-28.94340911955653
 30
0.0
 10
43.24944326441213
 20
-28.9932202433189
 30
0.0
 10
43.21231807994074
 20
-29.04610119576816
 30
0.0
 10
43.17465519106457
 20
-29.10209682093771
 30
0.0
 10
43.13656496808743
 20
-29.16124882400083
 30
0.0
 10
43.09815921485185
 20
-29.22359572852151
 30
0.0
 10
43.05955108663678
 20
-29.28917283777404
 30
0.0
 10
43.02085500104916
 20
-29.35801219034621
 30
0.0
 10
42.9821865708568
 20
-29.43014254770376
 30
0.0
 10
42.94366244801307
 20
-29.50558926936886
 30
0.0
 10
42.90540050335903
 20
-29.58437462876662
 30
0.0
 10
42.86751871762253
 20
-29.66651645315266
 30
0.0
 10
42.83013899583352
 20
-29.75203318186634
 30
0.0
 10
42.79337216757022
 20
-29.8409244131649
 30
0.0
 10
42.75737481431604
 20
-29.93324504373417
 30
0.0
 10
42.72463775026853
 20
-30.0220269458899
 30
0.0
 10
42.70448224529925
 20
-30.08077456627216
 30
0.0
 10
42.69556143670253
 20
-30.10695459649017
 30
0.0
  0
ARC
  5
1000011A
102
{ACAD_XDICTIONARY
360
1000011B
102
}
330
1F
100
AcDbEntity
  8
VISIBLE
100
AcDbCircle
 10
50.0
 20
-25.0
 30
0.0
 40
8.912676813146138
100
AcDbArc
 50
214.9596186495995
 51
220.0403813504005
  0
SPLINE
  5
1000011D
102
{ACAD_XDICTIONARY
360
1000011E
102
}
330
1F
100
AcDbEntity
  8
VISIBLE
100
AcDbSpline
210
0.0
220
0.0
230
1.0
 70
     8
 71
     3
 72
    44
 73
    40
 74
     0
 42
0.000000001
 43
0.00000001
 40
0.0374573816692538
 40
0.0374573816692538
 40
0.0374573816692538
 40
0.0374573816692538
 40
0.1173270388283835
 40
0.1245633749097423
 40
0.1339054427745937
 40
0.1449591259385427
 40
0.157492824253456
 40
0.1713493489450594
 40
0.1864129793246034
 40
0.2025939139161439
 40
0.2198198341683088
 40
0.2380308751317533
 40
0.2571764150177157
 40
0.2772129162632481
 40
0.2981024128312289
 40
0.3198114144576317
 40
0.3423100907832792
 40
0.365571649656865
 40
0.3895718539492971
 40
0.414288639560484
 40
0.439701808899202
 40
0.4657927816818096
 40
0.4925443899635605
 40
0.5199407077925867
 40
0.5479669083115218
 40
0.5766091428695077
 40
0.6058544379685357
 40
0.635690606797499
 40
0.6661061728017248
 40
0.6970903032611988
 40
0.728632751252859
 40
0.7607238046834919
 40
0.793354241322811
 40
0.8265152889579642
 40
0.8601985899430571
 40
0.8943961695393764
 40
0.9291004075405692
 40
0.9643040127571182
 40
0.9924917445858279
 40
0.9924917445858279
 40
0.9924917445858279
 40
0.9924917445858279
 10
45.43511931465166
 20
-29.70335092298165
 30
0.0
 10
45.20077735845209
 20
-29.94496312874831
 30
0.0
 10
45.00193788857717
 20
-30.14982534776067
 30
0.0
 10
44.99636722193728
 20
-30.15485461398301
 30
0.0
 10
44.99036960550064
 20
-30.16050646061377
 30
0.0
 10
44.98314749886345
 20
-30.16694245834329
 30
0.0
 10
44.97326632541836
 20
-30.17545381528749
 30
0.0
 10
44.96111571319874
 20
-30.18548328372978
 30
0.0
 10
44.9464810769669
 20
-30.19708659311043
 30
0.0
 10
44.92934229522352
 20
-30.21012311381873
 30
0.0
 10
44.90962310316879
 20
-30.22450998688714
 30
0.0
 10
44.88726777822817
 20
-30.24014453200036
 30
0.0
 10
44.86221826808953
 20
-30.25692755782248
 30
0.0
 10
44.83442101803151
 20
-30.27475657031327
 30
0.0
 10
44.80382504488489
 20
-30.29352785184239
 30
0.0
 10
44.77038255594905
 20
-30.31313596000476
 30
0.0
 10
44.73404882883331
 20
-30.33347397454764
 30
0.0
 10
44.69478230008753
 20
-30.35443353167472
 30
0.0
 10
44.65254459128518
 20
-30.37590492067062
 30
0.0
 10
44.60730055000086
 20
-30.39777716428924
 30
0.0
 10
44.55901828376825
 20
-30.41993810504687
 30
0.0
 10
44.5076691932252
 20
-30.44227449105881
 30
0.0
 10
44.45322800269736
 20
-30.46467206311982
 30
0.0
 10
44.39567278870272
 20
-30.48701564247411
 30
0.0
 10
44.33498500621907
 20
-30.50918921934374
 30
0.0
 10
44.27114951277387
 20
-30.53107604216559
 30
0.0
 10
44.20415459019978
 20
-30.55255870731962
 30
0.0
 10
44.13399196455521
 20
-30.5735192499548
 30
0.0
 10
44.060656822237
 20
-30.59383923330509
 30
0.0
 10
43.98414782980152
 20
-30.61339984625226
 30
0.0
 10
43.90446712859241
 20
-30.63208197142295
 30
0.0
 10
43.82162041493942
 20
-30.64976636815535
 30
0.0
 10
43.73561668158452
 20
-30.66633341717334
 30
0.0
 10
43.64646924438046
 20
-30.68166454381161
 30
0.0
 10
43.55419184363652
 20
-30.69563722440115
 30
0.0
 10
43.45881355221205
 20
-30.70814450976872
 30
0.0
 10
43.36032187025044
 20
-30.71902094550778
 30
0.0
 10
43.26609216239493
 20
-30.72766407400981
 30
0.0
 10
43.20412969008496
 20
-30.73192779379216
 30
0.0
 10
43.17653284760181
 20
-30.73376874278533
 30
0.0
  0
ARC
  5
10000120
102
{ACAD_XDICTIONARY
360
10000121
102
}
330
1F
100
AcDbEntity
  8
VISIBLE
100
AcDbCircle
 10
45.81376338295124
 20
-30.07060137453534
 30
0.0
 40
0.5274886014169765
100
AcDbArc
 50
50.45726817810343
 51
135.8751309599845
  0
ARC
  5
10000123
102
{ACAD_XDICTIONARY
360
10000124
102
}
330
1F
100
AcDbEntity
  8
VISIBLE
100
AcDbCircle
 10
50.0
 20
-25.0
 30
0.0
 40
6.047887837492023
100
AcDbArc
 50
230.4572681781036
 51
234.5427318218965
  0
ENDSEC
  0
SECTION
  2
OBJECTS
  0
DICTIONARY
  5
C
330
0
100
AcDbDictionary
  3
ACAD_GROUP
350
D
  3
ACAD_LAYOUT
350
1A
  3
ACAD_MATERIAL
350
43
  3
ACAD_MLEADERSTYLE
350
6B
  3
ACAD_MLINESTYLE
350
17
  3
ACAD_PLOTSETTINGS
350
19
  3
ACAD_SCALELIST
350
47
  3
ACAD_VISUALSTYLE
350
2A
  3
ACDBHEADERROUNDTRIPXREC
350
10000128
  3
ACDBVARIABLEDICTIONARY
350
10000149
  3
DWGPROPS
350
10000150
  3
ONSHAPE_DATA
350
10000001
  0
DICTIONARY
  5
10000151
330
8
100
AcDbDictionary
280
     1
  3
ACAD_XREC_ROUNDTRIP
360
10000152
  0
DICTIONARY
  5
10000126
330
1F
100
AcDbDictionary
280
     1
  3
ACAD_SORTENTS
360
10000127
  0
DICTIONARY
  5
1000004C
330
1000004B
100
AcDbDictionary
280
     1
  3
BTDETID
360
1000004D
  0
DICTIONARY
  5
1000004F
330
1000004E
100
AcDbDictionary
280
     1
  3
BTDETID
360
10000050
  0
DICTIONARY
  5
10000052
330
10000051
100
AcDbDictionary
280
     1
  3
BTDETID
360
10000053
  0
DICTIONARY
  5
10000055
330
10000054
100
AcDbDictionary
280
     1
  3
BTDETID
360
10000056
  0
DICTIONARY
  5
10000058
330
10000057
100
AcDbDictionary
280
     1
  3
BTDETID
360
10000059
  0
DICTIONARY
  5
1000005B
330
1000005A
100
AcDbDictionary
280
     1
  3
BTDETID
360
1000005C
  0
DICTIONARY
  5
1000005E
330
1000005D
100
AcDbDictionary
280
     1
  3
BTDETID
360
1000005F
  0
DICTIONARY
  5
10000061
330
10000060
100
AcDbDictionary
280
     1
  3
BTDETID
360
10000062
  0
DICTIONARY
  5
10000064
330
10000063
100
AcDbDictionary
280
     1
  3
BTDETID
360
10000065
  0
DICTIONARY
  5
10000067
330
10000066
100
AcDbDictionary
280
     1
  3
BTDETID
360
10000068
  0
DICTIONARY
  5
1000006A
330
10000069
100
AcDbDictionary
280
     1
  3
BTDETID
360
1000006B
  0
DICTIONARY
  5
1000006D
330
1000006C
100
AcDbDictionary
280
     1
  3
BTDETID
360
1000006E
  0
DICTIONARY
  5
10000070
330
1000006F
100
AcDbDictionary
280
     1
  3
BTDETID
360
10000071
  0
DICTIONARY
  5
10000073
330
10000072
100
AcDbDictionary
280
     1
  3
BTDETID
360
10000074
  0
DICTIONARY
  5
10000076
330
10000075
100
AcDbDictionary
280
     1
  3
BTDETID
360
10000077
  0
DICTIONARY
  5
10000079
330
10000078
100
AcDbDictionary
280
     1
  3
BTDETID
360
1000007A
  0
DICTIONARY
  5
1000007C
330
1000007B
100
AcDbDictionary
280
     1
  3
BTDETID
360
1000007D
  0
DICTIONARY
  5
1000007F
330
1000007E
100
AcDbDictionary
280
     1
  3
BTDETID
360
10000080
  0
DICTIONARY
  5
10000082
330
10000081
100
AcDbDictionary
280
     1
  3
BTDETID
360
10000083
  0
DICTIONARY
  5
10000085
330
10000084
100
AcDbDictionary
280
     1
  3
BTDETID
360
10000086
  0
DICTIONARY
  5
10000088
330
10000087
100
AcDbDictionary
280
     1
  3
BTDETID
360
10000089
  0
DICTIONARY
  5
1000008B
330
1000008A
100
AcDbDictionary
280
     1
  3
BTDETID
360
1000008C
  0
DICTIONARY
  5
1000008E
330
1000008D
100
AcDbDictionary
280
     1
  3
BTDETID
360
1000008F
  0
DICTIONARY
  5
10000091
330
10000090
100
AcDbDictionary
280
     1
  3
BTDETID
360
10000092
  0
DICTIONARY
  5
10000094
330
10000093
100
AcDbDictionary
280
     1
  3
BTDETID
360
10000095
  0
DICTIONARY
  5
10000097
330
10000096
100
AcDbDictionary
280
     1
  3
BTDETID
360
10000098
  0
DICTIONARY
  5
1000009A
330
10000099
100
AcDbDictionary
280
     1
  3
BTDETID
360
1000009B
  0
DICTIONARY
  5
1000009D
330
1000009C
100
AcDbDictionary
280
     1
  3
BTDETID
360
1000009E
  0
DICTIONARY
  5
100000A0
330
1000009F
100
AcDbDictionary
280
     1
  3
BTDETID
360
100000A1
  0
DICTIONARY
  5
100000A3
330
100000A2
100
AcDbDictionary
280
     1
  3
BTDETID
360
100000A4
  0
DICTIONARY
  5
100000A6
330
100000A5
100
AcDbDictionary
280
     1
  3
BTDETID
360
100000A7
  0
DICTIONARY
  5
100000A9
330
100000A8
100
AcDbDictionary
280
     1
  3
BTDETID
360
100000AA
  0
DICTIONARY
  5
100000AC
330
100000AB
100
AcDbDictionary
280
     1
  3
BTDETID
360
100000AD
  0
DICTIONARY
  5
100000AF
330
100000AE
100
AcDbDictionary
280
     1
  3
BTDETID
360
100000B0
  0
DICTIONARY
  5
100000B2
330
100000B1
100
AcDbDictionary
280
     1
  3
BTDETID
360
100000B3
  0
DICTIONARY
  5
100000B5
330
100000B4
100
AcDbDictionary
280
     1
  3
BTDETID
360
100000B6
  0
DICTIONARY
  5
100000B8
330
100000B7
100
AcDbDictionary
280
     1
  3
BTDETID
360
100000B9
  0
DICTIONARY
  5
100000BB
330
100000BA
100
AcDbDictionary
280
     1
  3
BTDETID
360
100000BC
  0
DICTIONARY
  5
100000BE
330
100000BD
100
AcDbDictionary
280
     1
  3
BTDETID
360
100000BF
  0
DICTIONARY
  5
100000C1
330
100000C0
100
AcDbDictionary
280
     1
  3
BTDETID
360
100000C2
  0
DICTIONARY
  5
100000C4
330
100000C3
100
AcDbDictionary
280
     1
  3
BTDETID
360
100000C5
  0
DICTIONARY
  5
100000C7
330
100000C6
100
AcDbDictionary
280
     1
  3
BTDETID
360
100000C8
  0
DICTIONARY
  5
100000CA
330
100000C9
100
AcDbDictionary
280
     1
  3
BTDETID
360
100000CB
  0
DICTIONARY
  5
100000CD
330
100000CC
100
AcDbDictionary
280
     1
  3
BTDETID
360
100000CE
  0
DICTIONARY
  5
100000D0
330
100000CF
100
AcDbDictionary
280
     1
  3
BTDETID
360
100000D1
  0
DICTIONARY
  5
100000D3
330
100000D2
100
AcDbDictionary
280
     1
  3
BTDETID
360
100000D4
  0
DICTIONARY
  5
100000D6
330
100000D5
100
AcDbDictionary
280
     1
  3
BTDETID
360
100000D7
  0
DICTIONARY
  5
100000D9
330
100000D8
100
AcDbDictionary
280
     1
  3
BTDETID
360
100000DA
  0
DICTIONARY
  5
100000DC
330
100000DB
100
AcDbDictionary
280
     1
  3
BTDETID
360
100000DD
  0
DICTIONARY
  5
100000DF
330
100000DE
100
AcDbDictionary
280
     1
  3
BTDETID
360
100000E0
  0
DICTIONARY
  5
100000E2
330
100000E1
100
AcDbDictionary
280
     1
  3
BTDETID
360
100000E3
  0
DICTIONARY
  5
100000E5
330
100000E4
100
AcDbDictionary
280
     1
  3
BTDETID
360
100000E6
  0
DICTIONARY
  5
100000E8
330
100000E7
100
AcDbDictionary
280
     1
  3
BTDETID
360
100000E9
  0
DICTIONARY
  5
100000EB
330
100000EA
100
AcDbDictionary
280
     1
  3
BTDETID
360
100000EC
  0
DICTIONARY
  5
100000EE
330
100000ED
100
AcDbDictionary
280
     1
  3
BTDETID
360
100000EF
  0
DICTIONARY
  5
100000F1
330
100000F0
100
AcDbDictionary
280
     1
  3
BTDETID
360
100000F2
  0
DICTIONARY
  5
100000F4
330
100000F3
100
AcDbDictionary
280
     1
  3
BTDETID
360
100000F5
  0
DICTIONARY
  5
100000F7
330
100000F6
100
AcDbDictionary
280
     1
  3
BTDETID
360
100000F8
  0
DICTIONARY
  5
100000FA
330
100000F9
100
AcDbDictionary
280
     1
  3
BTDETID
360
100000FB
  0
DICTIONARY
  5
100000FD
330
100000FC
100
AcDbDictionary
280
     1
  3
BTDETID
360
100000FE
  0
DICTIONARY
  5
10000100
330
100000FF
100
AcDbDictionary
280
     1
  3
BTDETID
360
10000101
  0
DICTIONARY
  5
10000103
330
10000102
100
AcDbDictionary
280
     1
  3
BTDETID
360
10000104
  0
DICTIONARY
  5
10000106
330
10000105
100
AcDbDictionary
280
     1
  3
BTDETID
360
10000107
  0
DICTIONARY
  5
10000109
330
10000108
100
AcDbDictionary
280
     1
  3
BTDETID
360
1000010A
  0
DICTIONARY
  5
1000010C
330
1000010B
100
AcDbDictionary
280
     1
  3
BTDETID
360
1000010D
  0
DICTIONARY
  5
1000010F
330
1000010E
100
AcDbDictionary
280
     1
  3
BTDETID
360
10000110
  0
DICTIONARY
  5
10000112
330
10000111
100
AcDbDictionary
280
     1
  3
BTDETID
360
10000113
  0
DICTIONARY
  5
10000115
330
10000114
100
AcDbDictionary
280
     1
  3
BTDETID
360
10000116
  0
DICTIONARY
  5
10000118
330
10000117
100
AcDbDictionary
280
     1
  3
BTDETID
360
10000119
  0
DICTIONARY
  5
1000011B
330
1000011A
100
AcDbDictionary
280
     1
  3
BTDETID
360
1000011C
  0
DICTIONARY
  5
1000011E
330
1000011D
100
AcDbDictionary
280
     1
  3
BTDETID
360
1000011F
  0
DICTIONARY
  5
10000121
330
10000120
100
AcDbDictionary
280
     1
  3
BTDETID
360
10000122
  0
DICTIONARY
  5
10000124
330
10000123
100
AcDbDictionary
280
     1
  3
BTDETID
360
10000125
  0
DICTIONARY
  5
D
102
{ACAD_REACTORS
330
C
102
}
330
C
100
AcDbDictionary
  0
DICTIONARY
  5
1A
102
{ACAD_REACTORS
330
C
102
}
330
C
100
AcDbDictionary
  0
DICTIONARY
  5
43
102
{ACAD_REACTORS
330
C
102
}
330
C
100
AcDbDictionary
  3
BYBLOCK
350
45
  3
BYLAYER
350
44
  3
GLOBAL
350
46
  0
DICTIONARY
  5
6B
102
{ACAD_REACTORS
330
C
102
}
330
C
100
AcDbDictionary
  3
STANDARD
350
6C
  0
DICTIONARY
  5
17
102
{ACAD_REACTORS
330
C
102
}
330
C
100
AcDbDictionary
  3
STANDARD
350
18
  0
DICTIONARY
  5
19
102
{ACAD_REACTORS
330
C
102
}
330
C
100
AcDbDictionary
  0
DICTIONARY
  5
47
102
{ACAD_REACTORS
330
C
102
}
330
C
100
AcDbDictionary
  3
SCALE100_1
350
10000023
  3
SCALE10_1
350
1000001D
  3
SCALE12_1
350
1000001E
  3
SCALE16_1
350
1000001F
  3
SCALE1_1
350
10000006
  3
SCALE1_10
350
1000000D
  3
SCALE1_100
350
10000016
  3
SCALE1_12
350
1000000E
  3
SCALE1_16
350
1000000F
  3
SCALE1_2
350
10000007
  3
SCALE1_20
350
10000010
  3
SCALE1_25
350
10000011
  3
SCALE1_3
350
10000008
  3
SCALE1_32
350
10000012
  3
SCALE1_4
350
10000009
  3
SCALE1_40
350
10000013
  3
SCALE1_5
350
1000000A
  3
SCALE1_50
350
10000014
  3
SCALE1_6
350
1000000B
  3
SCALE1_8
350
1000000C
  3
SCALE1_80
350
10000015
  3
SCALE20_1
350
10000020
  3
SCALE2_1
350
10000017
  3
SCALE32_1
350
10000021
  3
SCALE3_1
350
10000018
  3
SCALE4_1
350
10000019
  3
SCALE50_1
350
10000022
  3
SCALE5_1
350
1000001A
  3
SCALE6_1
350
1000001B
  3
SCALE8_1
350
1000001C
  0
DICTIONARY
  5
2A
102
{ACAD_REACTORS
330
C
102
}
330
C
100
AcDbDictionary
  3
2DWIREFRAME
350
2F
  3
BASIC
350
32
  3
BRIGHTEN
350
36
  3
COLORCHANGE
350
3A
  3
CONCEPTUAL
350
34
  3
DIM
350
35
  3
EDGECOLOROFF
350
3D
  3
FACEPATTERN
350
39
  3
FLAT
350
2B
  3
FLATWITHEDGES
350
2C
  3
GOURAUD
350
2D
  3
GOURAUDWITHEDGES
350
2E
  3
HIDDEN
350
31
  3
JITTEROFF
350
3B
  3
LINEPATTERN
350
38
  3
OVERHANGOFF
350
3C
  3
REALISTIC
350
33
  3
SHADED
350
42
  3
SHADED_WITH_EDGES
350
41
  3
SHADES_OF_GRAY
350
3E
  3
SKETCHY
350
3F
  3
THICKEN
350
37
  3
WIREFRAME
350
30
  3
X-RAY
350
40
  0
DICTIONARY
  5
10000128
102
{ACAD_REACTORS
330
C
102
}
330
C
100
AcDbDictionary
  3
CEPSNID
350
10000132
  3
CEPSNTYPE
350
10000131
  3
DIMSTYLEDATA
350
10000148
  3
FINGERPRINTGUID
350
10000133
  3
HYPERLINKBASE
350
1000012B
  3
INSUNITS
350
10000130
  3
LAYOUTDICT
350
1000012D
  3
LWETCUNION
350
1000012F
  3
PLOTSETDICT
350
1000012E
  3
PSVPSCALE
350
10000135
  3
PUCSBASE
350
10000138
  3
PUCSORGBACK
350
1000013E
  3
PUCSORGBOTTOM
350
1000013A
  3
PUCSORGFRONT
350
1000013D
  3
PUCSORGLEFT
350
1000013B
  3
PUCSORGRIGHT
350
1000013C
  3
PUCSORGTOP
350
10000139
  3
PUCSORTHOREF
350
10000136
  3
PUCSORTHOVIEW
350
10000137
  3
STYLESHEET
350
1000012C
  3
TSTACKALIGN
350
10000129
  3
TSTACKSIZE
350
1000012A
  3
UCSBASE
350
10000141
  3
UCSORGBACK
350
10000147
  3
UCSORGBOTTOM
350
10000143
  3
UCSORGFRONT
350
10000146
  3
UCSORGLEFT
350
10000144
  3
UCSORGRIGHT
350
10000145
  3
UCSORGTOP
350
10000142
  3
UCSORTHOREF
350
1000013F
  3
UCSORTHOVIEW
350
10000140
  3
VERSIONGUID
350
10000134
  0
DICTIONARY
  5
10000149
102
{ACAD_REACTORS
330
C
102
}
330
C
100
AcDbDictionary
  3
CANNOSCALE
350
10000153
  3
CMLEADERSTYLE
350
1000014B
  3
CTABLESTYLE
350
1000014A
  3
DIMASSOC
350
1000014E
  3
HIDETEXT
350
1000014F
  3
MSLTSCALE
350
10000154
  0
XRECORD
  5
10000150
102
{ACAD_REACTORS
330
C
102
}
330
C
100
AcDbXrecord
  1
DWGPROPS COOKIE
  2

  3

  4

  6
File was created by BTDwgCreate
  7

  8

  9

300
=
301
=
302
=
303
=
304
=
305
=
306
=
307
=
308
=
309
=
 40
0.0
 41
2458359.619751377
 42
2458359.619751424
  1

 90
        0
  0
DICTIONARY
  5
10000001
102
{ACAD_REACTORS
330
C
102
}
330
C
100
AcDbDictionary
280
     1
  3
DIM_UNITS
360
10000003
  3
DWGGEN_VERSION
360
10000002
  3
FIRST_ANGLE
360
10000005
  0
XRECORD
  5
10000152
102
{ACAD_REACTORS
330
10000151
102
}
330
10000151
100
AcDbXrecord
102
VTR_0.000_0.000_1.000_1.000_VISUALSTYLE
340
2F
102
VTR_0.000_0.000_1.000_1.000_GRIDDISPLAY
 70
     3
102
VTR_0.000_0.000_1.000_1.000_GRIDMAJOR
 70
     5
102
VTR_0.000_0.000_1.000_1.000_DEFAULTLIGHTING
280
     1
102
VTR_0.000_0.000_1.000_1.000_DEFAULTLIGHTINGTYPE
 70
     1
102
VTR_0.000_0.000_1.000_1.000_BRIGHTNESS
141
0.0
102
VTR_0.000_0.000_1.000_1.000_CONTRAST
142
0.0
  0
SORTENTSTABLE
  5
10000127
102
{ACAD_REACTORS
330
10000126
102
}
330
10000126
100
AcDbSortentsTable
330
1F
  0
XRECORD
  5
1000004D
102
{ACAD_REACTORS
330
1000004C
102
}
330
1000004C
100
AcDbXrecord
1000
JdF
  0
XRECORD
  5
10000050
102
{ACAD_REACTORS
330
1000004F
102
}
330
1000004F
100
AcDbXrecord
1000
KdZH
  0
XRECORD
  5
10000053
102
{ACAD_REACTORS
330
10000052
102
}
330
10000052
100
AcDbXrecord
1000
Kd1H
  0
XRECORD
  5
10000056
102
{ACAD_REACTORS
330
10000055
102
}
330
10000055
100
AcDbXrecord
1000
KdZN
  0
XRECORD
  5
10000059
102
{ACAD_REACTORS
330
10000058
102
}
330
10000058
100
AcDbXrecord
1000
Kd9I
  0
XRECORD
  5
1000005C
102
{ACAD_REACTORS
330
1000005B
102
}
330
1000005B
100
AcDbXrecord
1000
KdlI
  0
XRECORD
  5
1000005F
102
{ACAD_REACTORS
330
1000005E
102
}
330
1000005E
100
AcDbXrecord
1000
KdFJ
  0
XRECORD
  5
10000062
102
{ACAD_REACTORS
330
10000061
102
}
330
10000061
100
AcDbXrecord
1000
KdZI
  0
XRECORD
  5
10000065
102
{ACAD_REACTORS
330
10000064
102
}
330
10000064
100
AcDbXrecord
1000
Kd1I
  0
XRECORD
  5
10000068
102
{ACAD_REACTORS
330
10000067
102
}
330
10000067
100
AcDbXrecord
1000
KddN
  0
XRECORD
  5
1000006B
102
{ACAD_REACTORS
330
1000006A
102
}
330
1000006A
100
AcDbXrecord
1000
Kd9J
  0
XRECORD
  5
1000006E
102
{ACAD_REACTORS
330
1000006D
102
}
330
1000006D
100
AcDbXrecord
1000
KdlJ
  0
XRECORD
  5
10000071
102
{ACAD_REACTORS
330
10000070
102
}
330
10000070
100
AcDbXrecord
1000
KdFK
  0
XRECORD
  5
10000074
102
{ACAD_REACTORS
330
10000073
102
}
330
10000073
100
AcDbXrecord
1000
KdZJ
  0
XRECORD
  5
10000077
102
{ACAD_REACTORS
330
10000076
102
}
330
10000076
100
AcDbXrecord
1000
Kd1J
  0
XRECORD
  5
1000007A
102
{ACAD_REACTORS
330
10000079
102
}
330
10000079
100
AcDbXrecord
1000
KdhN
  0
XRECORD
  5
1000007D
102
{ACAD_REACTORS
330
1000007C
102
}
330
1000007C
100
AcDbXrecord
1000
Kd9K
  0
XRECORD
  5
10000080
102
{ACAD_REACTORS
330
1000007F
102
}
330
1000007F
100
AcDbXrecord
1000
KdlK
  0
XRECORD
  5
10000083
102
{ACAD_REACTORS
330
10000082
102
}
330
10000082
100
AcDbXrecord
1000
KdFL
  0
XRECORD
  5
10000086
102
{ACAD_REACTORS
330
10000085
102
}
330
10000085
100
AcDbXrecord
1000
KdZK
  0
XRECORD
  5
10000089
102
{ACAD_REACTORS
330
10000088
102
}
330
10000088
100
AcDbXrecord
1000
Kd1K
  0
XRECORD
  5
1000008C
102
{ACAD_REACTORS
330
1000008B
102
}
330
1000008B
100
AcDbXrecord
1000
KdlN
  0
XRECORD
  5
1000008F
102
{ACAD_REACTORS
330
1000008E
102
}
330
1000008E
100
AcDbXrecord
1000
Kd9L
  0
XRECORD
  5
10000092
102
{ACAD_REACTORS
330
10000091
102
}
330
10000091
100
AcDbXrecord
1000
KdlL
  0
XRECORD
  5
10000095
102
{ACAD_REACTORS
330
10000094
102
}
330
10000094
100
AcDbXrecord
1000
KdFM
  0
XRECORD
  5
10000098
102
{ACAD_REACTORS
330
10000097
102
}
330
10000097
100
AcDbXrecord
1000
KdZL
  0
XRECORD
  5
1000009B
102
{ACAD_REACTORS
330
1000009A
102
}
330
1000009A
100
AcDbXrecord
1000
Kd1L
  0
XRECORD
  5
1000009E
102
{ACAD_REACTORS
330
1000009D
102
}
330
1000009D
100
AcDbXrecord
1000
Kd9M
  0
XRECORD
  5
100000A1
102
{ACAD_REACTORS
330
100000A0
102
}
330
100000A0
100
AcDbXrecord
1000
Jd9
  0
XRECORD
  5
100000A4
102
{ACAD_REACTORS
330
100000A3
102
}
330
100000A3
100
AcDbXrecord
1000
Jdl
  0
XRECORD
  5
100000A7
102
{ACAD_REACTORS
330
100000A6
102
}
330
100000A6
100
AcDbXrecord
1000
KdFB
  0
XRECORD
  5
100000AA
102
{ACAD_REACTORS
330
100000A9
102
}
330
100000A9
100
AcDbXrecord
1000
JdZ
  0
XRECORD
  5
100000AD
102
{ACAD_REACTORS
330
100000AC
102
}
330
100000AC
100
AcDbXrecord
1000
Jd1
  0
XRECORD
  5
100000B0
102
{ACAD_REACTORS
330
100000AF
102
}
330
100000AF
100
AcDbXrecord
1000
Kd5M
  0
XRECORD
  5
100000B3
102
{ACAD_REACTORS
330
100000B2
102
}
330
100000B2
100
AcDbXrecord
1000
Kd9B
  0
XRECORD
  5
100000B6
102
{ACAD_REACTORS
330
100000B5
102
}
330
100000B5
100
AcDbXrecord
1000
KdlB
  0
XRECORD
  5
100000B9
102
{ACAD_REACTORS
330
100000B8
102
}
330
100000B8
100
AcDbXrecord
1000
KdFC
  0
XRECORD
  5
100000BC
102
{ACAD_REACTORS
330
100000BB
102
}
330
100000BB
100
AcDbXrecord
1000
KdZB
  0
XRECORD
  5
100000BF
102
{ACAD_REACTORS
330
100000BE
102
}
330
100000BE
100
AcDbXrecord
1000
Kd1B
  0
XRECORD
  5
100000C2
102
{ACAD_REACTORS
330
100000C1
102
}
330
100000C1
100
AcDbXrecord
1000
KdBN
  0
XRECORD
  5
100000C5
102
{ACAD_REACTORS
330
100000C4
102
}
330
100000C4
100
AcDbXrecord
1000
Kd9C
  0
XRECORD
  5
100000C8
102
{ACAD_REACTORS
330
100000C7
102
}
330
100000C7
100
AcDbXrecord
1000
KdlC
  0
XRECORD
  5
100000CB
102
{ACAD_REACTORS
330
100000CA
102
}
330
100000CA
100
AcDbXrecord
1000
KdFD
  0
XRECORD
  5
100000CE
102
{ACAD_REACTORS
330
100000CD
102
}
330
100000CD
100
AcDbXrecord
1000
KdZC
  0
XRECORD
  5
100000D1
102
{ACAD_REACTORS
330
100000D0
102
}
330
100000D0
100
AcDbXrecord
1000
Kd1C
  0
XRECORD
  5
100000D4
102
{ACAD_REACTORS
330
100000D3
102
}
330
100000D3
100
AcDbXrecord
1000
KdFN
  0
XRECORD
  5
100000D7
102
{ACAD_REACTORS
330
100000D6
102
}
330
100000D6
100
AcDbXrecord
1000
Kd9D
  0
XRECORD
  5
100000DA
102
{ACAD_REACTORS
330
100000D9
102
}
330
100000D9
100
AcDbXrecord
1000
KdlD
  0
XRECORD
  5
100000DD
102
{ACAD_REACTORS
330
100000DC
102
}
330
100000DC
100
AcDbXrecord
1000
KdFE
  0
XRECORD
  5
100000E0
102
{ACAD_REACTORS
330
100000DF
102
}
330
100000DF
100
AcDbXrecord
1000
KdZD
  0
XRECORD
  5
100000E3
102
{ACAD_REACTORS
330
100000E2
102
}
330
100000E2
100
AcDbXrecord
1000
Kd1D
  0
XRECORD
  5
100000E6
102
{ACAD_REACTORS
330
100000E5
102
}
330
100000E5
100
AcDbXrecord
1000
KdJN
  0
XRECORD
  5
100000E9
102
{ACAD_REACTORS
330
100000E8
102
}
330
100000E8
100
AcDbXrecord
1000
Kd9E
  0
XRECORD
  5
100000EC
102
{ACAD_REACTORS
330
100000EB
102
}
330
100000EB
100
AcDbXrecord
1000
KdlE
  0
XRECORD
  5
100000EF
102
{ACAD_REACTORS
330
100000EE
102
}
330
100000EE
100
AcDbXrecord
1000
KdFF
  0
XRECORD
  5
100000F2
102
{ACAD_REACTORS
330
100000F1
102
}
330
100000F1
100
AcDbXrecord
1000
KdZE
  0
XRECORD
  5
100000F5
102
{ACAD_REACTORS
330
100000F4
102
}
330
100000F4
100
AcDbXrecord
1000
Kd1E
  0
XRECORD
  5
100000F8
102
{ACAD_REACTORS
330
100000F7
102
}
330
100000F7
100
AcDbXrecord
1000
KdNN
  0
XRECORD
  5
100000FB
102
{ACAD_REACTORS
330
100000FA
102
}
330
100000FA
100
AcDbXrecord
1000
Kd9F
  0
XRECORD
  5
100000FE
102
{ACAD_REACTORS
330
100000FD
102
}
330
100000FD
100
AcDbXrecord
1000
KdlF
  0
XRECORD
  5
10000101
102
{ACAD_REACTORS
330
10000100
102
}
330
10000100
100
AcDbXrecord
1000
KdFG
  0
XRECORD
  5
10000104
102
{ACAD_REACTORS
330
10000103
102
}
330
10000103
100
AcDbXrecord
1000
KdZF
  0
XRECORD
  5
10000107
102
{ACAD_REACTORS
330
10000106
102
}
330
10000106
100
AcDbXrecord
1000
Kd1F
  0
XRECORD
  5
1000010A
102
{ACAD_REACTORS
330
10000109
102
}
330
10000109
100
AcDbXrecord
1000
KdRN
  0
XRECORD
  5
1000010D
102
{ACAD_REACTORS
330
1000010C
102
}
330
1000010C
100
AcDbXrecord
1000
Kd9G
  0
XRECORD
  5
10000110
102
{ACAD_REACTORS
330
1000010F
102
}
330
1000010F
100
AcDbXrecord
1000
KdlG
  0
XRECORD
  5
10000113
102
{ACAD_REACTORS
330
10000112
102
}
330
10000112
100
AcDbXrecord
1000
KdFH
  0
XRECORD
  5
10000116
102
{ACAD_REACTORS
330
10000115
102
}
330
10000115
100
AcDbXrecord
1000
KdZG
  0
XRECORD
  5
10000119
102
{ACAD_REACTORS
330
10000118
102
}
330
10000118
100
AcDbXrecord
1000
Kd1G
  0
XRECORD
  5
1000011C
102
{ACAD_REACTORS
330
1000011B
102
}
330
1000011B
100
AcDbXrecord
1000
KdVN
  0
XRECORD
  5
1000011F
102
{ACAD_REACTORS
330
1000011E
102
}
330
1000011E
100
AcDbXrecord
1000
Kd9H
  0
XRECORD
  5
10000122
102
{ACAD_REACTORS
330
10000121
102
}
330
10000121
100
AcDbXrecord
1000
KdlH
  0
XRECORD
  5
10000125
102
{ACAD_REACTORS
330
10000124
102
}
330
10000124
100
AcDbXrecord
1000
KdFI
  0
MATERIAL
  5
45
102
{ACAD_REACTORS
330
43
102
}
102
{ACAD_XDICTIONARY
360
10000157
102
}
330
43
100
AcDbMaterial
  1
BYBLOCK
  0
MATERIAL
  5
44
102
{ACAD_REACTORS
330
43
102
}
102
{ACAD_XDICTIONARY
360
10000155
102
}
330
43
100
AcDbMaterial
  1
BYLAYER
  0
MATERIAL
  5
46
102
{ACAD_REACTORS
330
43
102
}
102
{ACAD_XDICTIONARY
360
10000159
102
}
330
43
100
AcDbMaterial
  1
GLOBAL
  0
ACAD_PROXY_OBJECT
  5
6C
102
{ACAD_REACTORS
330
6B
102
}
330
6B
100
AcDbProxyObject
 90
      499
 91
      505
 93
      610
310
40901902A4063FBFFFFFE056BD1B81E855B9FC0AD7A3703D0AD73F4214DD185B99185C9900AD7A3703D0AC73F90141901A02B5E8DC0F42B1CFC02B5E8DC0F42B1CFE5764000000000000300FC0
340
14
340
0
340
11
340
0
 94
        0
1001
ACAD_MLEADERVER
1070
     2
  0
MLINESTYLE
  5
18
102
{ACAD_REACTORS
330
17
102
}
330
17
100
AcDbMlineStyle
  2
Standard
 70
     0
  3

 62
   256
 51
90.0
 52
90.0
 71
     2
 49
0.5
 62
   256
  6
BYLAYER
 49
-0.5
 62
   256
  6
BYLAYER
  0
ACAD_PROXY_OBJECT
  5
10000023
102
{ACAD_REACTORS
330
47
102
}
330
47
100
AcDbProxyObject
 90
      499
 91
      503
 93
      121
310
9053130303A310000000000001650100
  0
ACAD_PROXY_OBJECT
  5
1000001D
102
{ACAD_REACTORS
330
47
102
}
330
47
100
AcDbProxyObject
 90
      499
 91
      503
 93
      113
310
90431303A310000000000000910100
  0
ACAD_PROXY_OBJECT
  5
1000001E
102
{ACAD_REACTORS
330
47
102
}
330
47
100
AcDbProxyObject
 90
      499
 91
      503
 93
      113
310
90431323A310000000000000A10100
  0
ACAD_PROXY_OBJECT
  5
1000001F
102
{ACAD_REACTORS
330
47
102
}
330
47
100
AcDbProxyObject
 90
      499
 91
      503
 93
      113
310
90431363A310000000000000C10100
  0
ACAD_PROXY_OBJECT
  5
10000006
102
{ACAD_REACTORS
330
47
102
}
330
47
100
AcDbProxyObject
 90
      499
 91
      503
 93
       41
310
903313A31500
  0
ACAD_PROXY_OBJECT
  5
1000000D
102
{ACAD_REACTORS
330
47
102
}
330
47
100
AcDbProxyObject
 90
      499
 91
      503
 93
      113
310
904313A31304000000000000244000
  0
ACAD_PROXY_OBJECT
  5
10000016
102
{ACAD_REACTORS
330
47
102
}
330
47
100
AcDbProxyObject
 90
      499
 91
      503
 93
      121
310
905313A3130304000000000000594000
  0
ACAD_PROXY_OBJECT
  5
1000000E
102
{ACAD_REACTORS
330
47
102
}
330
47
100
AcDbProxyObject
 90
      499
 91
      503
 93
      113
310
904313A31324000000000000284000
  0
ACAD_PROXY_OBJECT
  5
1000000F
102
{ACAD_REACTORS
330
47
102
}
330
47
100
AcDbProxyObject
 90
      499
 91
      503
 93
      113
310
904313A31364000000000000304000
  0
ACAD_PROXY_OBJECT
  5
10000007
102
{ACAD_REACTORS
330
47
102
}
330
47
100
AcDbProxyObject
 90
      499
 91
      503
 93
      105
310
903313A324000000000000004000
  0
ACAD_PROXY_OBJECT
  5
10000010
102
{ACAD_REACTORS
330
47
102
}
330
47
100
AcDbProxyObject
 90
      499
 91
      503
 93
      113
310
904313A32304000000000000344000
  0
ACAD_PROXY_OBJECT
  5
10000011
102
{ACAD_REACTORS
330
47
102
}
330
47
100
AcDbProxyObject
 90
      499
 91
      503
 93
      113
310
904313A32354000000000000394000
  0
ACAD_PROXY_OBJECT
  5
10000008
102
{ACAD_REACTORS
330
47
102
}
330
47
100
AcDbProxyObject
 90
      499
 91
      503
 93
      105
310
903313A334000000000000084000
  0
ACAD_PROXY_OBJECT
  5
10000012
102
{ACAD_REACTORS
330
47
102
}
330
47
100
AcDbProxyObject
 90
      499
 91
      503
 93
      113
310
904313A33324000000000000404000
  0
ACAD_PROXY_OBJECT
  5
10000009
102
{ACAD_REACTORS
330
47
102
}
330
47
100
AcDbProxyObject
 90
      499
 91
      503
 93
      105
310
903313A344000000000000104000
  0
ACAD_PROXY_OBJECT
  5
10000013
102
{ACAD_REACTORS
330
47
102
}
330
47
100
AcDbProxyObject
 90
      499
 91
      503
 93
      113
310
904313A34304000000000000444000
  0
ACAD_PROXY_OBJECT
  5
1000000A
102
{ACAD_REACTORS
330
47
102
}
330
47
100
AcDbProxyObject
 90
      499
 91
      503
 93
      105
310
903313A354000000000000144000
  0
ACAD_PROXY_OBJECT
  5
10000014
102
{ACAD_REACTORS
330
47
102
}
330
47
100
AcDbProxyObject
 90
      499
 91
      503
 93
      113
310
904313A35304000000000000494000
  0
ACAD_PROXY_OBJECT
  5
1000000B
102
{ACAD_REACTORS
330
47
102
}
330
47
100
AcDbProxyObject
 90
      499
 91
      503
 93
      105
310
903313A364000000000000184000
  0
ACAD_PROXY_OBJECT
  5
1000000C
102
{ACAD_REACTORS
330
47
102
}
330
47
100
AcDbProxyObject
 90
      499
 91
      503
 93
      105
310
903313A384000000000000204000
  0
ACAD_PROXY_OBJECT
  5
10000015
102
{ACAD_REACTORS
330
47
102
}
330
47
100
AcDbProxyObject
 90
      499
 91
      503
 93
      113
310
904313A38304000000000000544000
  0
ACAD_PROXY_OBJECT
  5
10000020
102
{ACAD_REACTORS
330
47
102
}
330
47
100
AcDbProxyObject
 90
      499
 91
      503
 93
      113
310
90432303A310000000000000D10100
  0
ACAD_PROXY_OBJECT
  5
10000017
102
{ACAD_REACTORS
330
47
102
}
330
47
100
AcDbProxyObject
 90
      499
 91
      503
 93
      105
310
903323A310000000000000010100
  0
ACAD_PROXY_OBJECT
  5
10000021
102
{ACAD_REACTORS
330
47
102
}
330
47
100
AcDbProxyObject
 90
      499
 91
      503
 93
      113
310
90433323A310000000000001010100
  0
ACAD_PROXY_OBJECT
  5
10000018
102
{ACAD_REACTORS
330
47
102
}
330
47
100
AcDbProxyObject
 90
      499
 91
      503
 93
      105
310
903333A310000000000000210100
  0
ACAD_PROXY_OBJECT
  5
10000019
102
{ACAD_REACTORS
330
47
102
}
330
47
100
AcDbProxyObject
 90
      499
 91
      503
 93
      105
310
903343A310000000000000410100
  0
ACAD_PROXY_OBJECT
  5
10000022
102
{ACAD_REACTORS
330
47
102
}
330
47
100
AcDbProxyObject
 90
      499
 91
      503
 93
      113
310
90435303A310000000000001250100
  0
ACAD_PROXY_OBJECT
  5
1000001A
102
{ACAD_REACTORS
330
47
102
}
330
47
100
AcDbProxyObject
 90
      499
 91
      503
 93
      105
310
903353A310000000000000510100
  0
ACAD_PROXY_OBJECT
  5
1000001B
102
{ACAD_REACTORS
330
47
102
}
330
47
100
AcDbProxyObject
 90
      499
 91
      503
 93
      105
310
903363A310000000000000610100
  0
ACAD_PROXY_OBJECT
  5
1000001C
102
{ACAD_REACTORS
330
47
102
}
330
47
100
AcDbProxyObject
 90
      499
 91
      503
 93
      105
310
903383A310000000000000810100
  0
ACAD_PROXY_OBJECT
  5
2F
102
{ACAD_REACTORS
330
2A
102
}
330
2A
100
AcDbProxyObject
 90
      499
 91
      501
 93
      436
310
42CC9915DA5C99599C985B595049028333333333333E33F0000000000000F90107901411070040501600405405064090741402480A0340
1001
ACAD
1000
AcDbSavedByObjectVersion
1070
     0
  0
ACAD_PROXY_OBJECT
  5
32
102
{ACAD_REACTORS
330
2A
102
}
330
2A
100
AcDbProxyObject
 90
      499
 91
      501
 93
      388
310
4150985CDA58D07406404333333333333E33F0000000000000F90107A41107004050150841D405064090741402480A0350
1001
ACAD
1000
AcDbSavedByObjectVersion
1070
     0
  0
ACAD_PROXY_OBJECT
  5
36
102
{ACAD_REACTORS
330
2A
102
}
330
2A
100
AcDbProxyObject
 90
      499
 91
      501
 93
      428
310
42109C9A59DA1D195B90C409028333333333333E33F0000000000000F9010790141107004050150841D405064090741402480A029950
1001
ACAD
1000
AcDbSavedByObjectVersion
1070
     0
  0
ACAD_PROXY_OBJECT
  5
3A
102
{ACAD_REACTORS
330
2A
102
}
330
2A
100
AcDbProxyObject
 90
      499
 91
      501
 93
      452
310
42D0DBDB1BDC90DA185B99D95104090240C333333333333E33F0000000000000F90108901411070040501508421405064090741402480A0350
1001
ACAD
1000
AcDbSavedByObjectVersion
1070
     0
  0
ACAD_PROXY_OBJECT
  5
34
102
{ACAD_REACTORS
330
2A
102
}
330
2A
100
AcDbProxyObject
 90
      499
 91
      501
 93
      500
310
4290DBDB98D95C1D1D585B10940D028333333333333E33F0000000000000F90107902409070040501000000000018199010841D405064090740C02480A0340
1001
ACAD
1000
AcDbSavedByObjectVersion
1070
     0
  0
ACAD_PROXY_OBJECT
  5
35
102
{ACAD_REACTORS
330
2A
102
}
330
2A
100
AcDbProxyObject
 90
      499
 91
      501
 93
      412
310
40D11A5B50B409028333333333333E33F0000000000000F9010790141107004050150841D405064090741402480A02677FFFFFD0
1001
ACAD
1000
AcDbSavedByObjectVersion
1070
     0
  0
ACAD_PROXY_OBJECT
  5
3D
102
{ACAD_REACTORS
330
2A
102
}
330
2A
100
AcDbProxyObject
 90
      499
 91
      501
 93
      452
310
43115919D950DBDB1BDC93D999916409028333333333333E33F0000000000000F9010790141107004050150841D405064090741402480A0350
1001
ACAD
1000
AcDbSavedByObjectVersion
1070
     0
  0
ACAD_PROXY_OBJECT
  5
39
102
{ACAD_REACTORS
330
2A
102
}
330
2A
100
AcDbProxyObject
 90
      499
 91
      501
 93
      444
310
42D19858D95C185D1D195C9B90F409028333333333333E33F0000000000000F9010790141107004050150841D405064090741402480A0350
1001
ACAD
1000
AcDbSavedByObjectVersion
1070
     0
  0
ACAD_PROXY_OBJECT
  5
2B
102
{ACAD_REACTORS
330
2A
102
}
330
2A
100
AcDbProxyObject
 90
      499
 91
      501
 93
      380
310
41119B185D240901404333333333333E33F0000000000000F9010740A907004050150841D405064090741402480A1B50
1001
ACAD
1000
AcDbSavedByObjectVersion
1070
     0
  0
ACAD_PROXY_OBJECT
  5
2C
102
{ACAD_REACTORS
330
2A
102
}
330
2A
100
AcDbProxyObject
 90
      499
 91
      501
 93
      468
310
43519B185D15DA5D1A115919D95CD0140901404333333333333E33F0000000000000F90107409019070040501600405405064090741402480A1B50
1001
ACAD
1000
AcDbSavedByObjectVersion
1070
     0
  0
ACAD_PROXY_OBJECT
  5
2D
102
{ACAD_REACTORS
330
2A
102
}
330
2A
100
AcDbProxyObject
 90
      499
 91
      501
 93
      404
310
41D1DBDD5C985D5910240902404333333333333E33F0000000000000F9010740A9070040501641D405064090741402480A1B50
1001
ACAD
1000
AcDbSavedByObjectVersion
1070
     0
  0
ACAD_PROXY_OBJECT
  5
2E
102
{ACAD_REACTORS
330
2A
102
}
330
2A
100
AcDbProxyObject
 90
      499
 91
      501
 93
      492
310
4411DBDD5C985D5915DA5D1A115919D95CD0340902404333333333333E33F0000000000000F90107409019070040501600405405064090741402480A1B50
1001
ACAD
1000
AcDbSavedByObjectVersion
1070
     0
  0
ACAD_PROXY_OBJECT
  5
31
102
{ACAD_REACTORS
330
2A
102
}
330
2A
100
AcDbProxyObject
 90
      499
 91
      501
 93
      476
310
41921A5919195B90640502408333333333333E33F0000000000000F901079024090700405020000000000001110200405405064090740C02480A0340
1001
ACAD
1000
AcDbSavedByObjectVersion
1070
     0
  0
ACAD_PROXY_OBJECT
  5
3B
102
{ACAD_REACTORS
330
2A
102
}
330
2A
100
AcDbProxyObject
 90
      499
 91
      501
 93
      428
310
42529A5D1D195C93D999914409028333333333333E33F0000000000000F9010790141107004050150A41D405064090741402480A0350
1001
ACAD
1000
AcDbSavedByObjectVersion
1070
     0
  0
ACAD_PROXY_OBJECT
  5
38
102
{ACAD_REACTORS
330
2A
102
}
330
2A
100
AcDbProxyObject
 90
      499
 91
      501
 93
      444
310
42D31A5B995C185D1D195C9B90E409028333333333333E33F0000000000000F9010790141107004050750841D405064090741402483A0350
1001
ACAD
1000
AcDbSavedByObjectVersion
1070
     0
  0
ACAD_PROXY_OBJECT
  5
3C
102
{ACAD_REACTORS
330
2A
102
}
330
2A
100
AcDbProxyObject
 90
      499
 91
      501
 93
      444
310
42D3DD995C9A185B99D3D999915409028333333333333E33F0000000000000F9010790141107004050150941D405064090741402480A0350
1001
ACAD
1000
AcDbSavedByObjectVersion
1070
     0
  0
ACAD_PROXY_OBJECT
  5
33
102
{ACAD_REACTORS
330
2A
102
}
330
2A
100
AcDbProxyObject
 90
      499
 91
      501
 93
      428
310
425499585B1A5CDD1A58D08409038333333333333E33F0000000000000F9010740A907004050150800405405064090740C02480A1B40
1001
ACAD
1000
AcDbSavedByObjectVersion
1070
     0
  0
ACAD_PROXY_OBJECT
  5
42
102
{ACAD_REACTORS
330
2A
102
}
330
2A
100
AcDbProxyObject
 90
      499
 91
      501
 93
      420
310
4194DA1859195911B40902404333333333333E33F0000000000000F9010740A41107004050150800405405064090840C02480A0B40
1001
ACAD
1000
AcDbSavedByObjectVersion
1070
     0
  0
ACAD_PROXY_OBJECT
  5
41
102
{ACAD_REACTORS
330
2A
102
}
330
2A
100
AcDbProxyObject
 90
      499
 91
      501
 93
      516
310
4454DA18591959081DDA5D1A08195919D95CD1A40902404333333333333E33F0000000000000F901074090142907004050250800405405064090740C02480A0B40
1001
ACAD
1000
AcDbSavedByObjectVersion
1070
     0
  0
ACAD_PROXY_OBJECT
  5
3E
102
{ACAD_REACTORS
330
2A
102
}
330
2A
100
AcDbProxyObject
 90
      499
 91
      501
 93
      532
310
4394DA1859195CC81BD98811DC985E5174090240C333333333333E33F0000000000000F901079024090741D01000000000000111010841D405064090740C02480A0340
1001
ACAD
1000
AcDbSavedByObjectVersion
1070
     0
  0
ACAD_PROXY_OBJECT
  5
3F
102
{ACAD_REACTORS
330
2A
102
}
330
2A
100
AcDbProxyObject
 90
      499
 91
      501
 93
      476
310
41D4DAD95D18DA1E51840502408333333333333E33F0000000000000F901079024090741D01000000000000111010B41D405064090741802480A0340
1001
ACAD
1000
AcDbSavedByObjectVersion
1070
     0
  0
ACAD_PROXY_OBJECT
  5
37
102
{ACAD_REACTORS
330
2A
102
}
330
2A
100
AcDbProxyObject
 90
      499
 91
      501
 93
      412
310
41D51A1A58DAD95B90D409028333333333333E33F0000000000000F9010790141107004050150C41D405064090741402480A0350
1001
ACAD
1000
AcDbSavedByObjectVersion
1070
     0
  0
ACAD_PROXY_OBJECT
  5
30
102
{ACAD_REACTORS
330
2A
102
}
330
2A
100
AcDbProxyObject
 90
      499
 91
      501
 93
      420
310
4255DA5C99599C985B595059028333333333333E33F0000000000000F90107901411070040501600405405064090740C02480A0340
1001
ACAD
1000
AcDbSavedByObjectVersion
1070
     0
  0
ACAD_PROXY_OBJECT
  5
40
102
{ACAD_REACTORS
330
2A
102
}
330
2A
100
AcDbProxyObject
 90
      499
 91
      501
 93
      404
310
41560B54985E51940902404000000000000E03F0000000000000F9010740501907004050150841D405064090740C02480A1B40
1001
ACAD
1000
AcDbSavedByObjectVersion
1070
     0
  0
XRECORD
  5
10000132
102
{ACAD_REACTORS
330
10000128
102
}
330
10000128
100
AcDbXrecord
340
0
  0
XRECORD
  5
10000131
102
{ACAD_REACTORS
330
10000128
102
}
330
10000128
100
AcDbXrecord
 90
        0
  0
XRECORD
  5
10000148
102
{ACAD_REACTORS
330
10000128
102
}
330
10000128
100
AcDbXrecord
1000
DSTYLE
1002
{
1070
   340
340
11
1002
}
  0
XRECORD
  5
10000133
102
{ACAD_REACTORS
330
10000128
102
}
330
10000128
100
AcDbXrecord
  1
{e4367274-7873-b065-7163-637265656273}
  0
XRECORD
  5
1000012B
102
{ACAD_REACTORS
330
10000128
102
}
330
10000128
100
AcDbXrecord
  1

  0
XRECORD
  5
10000130
102
{ACAD_REACTORS
330
10000128
102
}
330
10000128
100
AcDbXrecord
 90
        1
  0
XRECORD
  5
1000012D
102
{ACAD_REACTORS
330
10000128
102
}
330
10000128
100
AcDbXrecord
340
1A
  0
XRECORD
  5
1000012F
102
{ACAD_REACTORS
330
10000128
102
}
330
10000128
100
AcDbXrecord
 90
    10781
  0
XRECORD
  5
1000012E
102
{ACAD_REACTORS
330
10000128
102
}
330
10000128
100
AcDbXrecord
340
19
  0
XRECORD
  5
10000135
102
{ACAD_REACTORS
330
10000128
102
}
330
10000128
100
AcDbXrecord
 40
0.0
  0
XRECORD
  5
10000138
102
{ACAD_REACTORS
330
10000128
102
}
330
10000128
100
AcDbXrecord
340
0
  0
XRECORD
  5
1000013E
102
{ACAD_REACTORS
330
10000128
102
}
330
10000128
100
AcDbXrecord
 10
0.0
 20
0.0
 30
0.0
  0
XRECORD
  5
1000013A
102
{ACAD_REACTORS
330
10000128
102
}
330
10000128
100
AcDbXrecord
 10
0.0
 20
0.0
 30
0.0
  0
XRECORD
  5
1000013D
102
{ACAD_REACTORS
330
10000128
102
}
330
10000128
100
AcDbXrecord
 10
0.0
 20
0.0
 30
0.0
  0
XRECORD
  5
1000013B
102
{ACAD_REACTORS
330
10000128
102
}
330
10000128
100
AcDbXrecord
 10
0.0
 20
0.0
 30
0.0
  0
XRECORD
  5
1000013C
102
{ACAD_REACTORS
330
10000128
102
}
330
10000128
100
AcDbXrecord
 10
0.0
 20
0.0
 30
0.0
  0
XRECORD
  5
10000139
102
{ACAD_REACTORS
330
10000128
102
}
330
10000128
100
AcDbXrecord
 10
0.0
 20
0.0
 30
0.0
  0
XRECORD
  5
10000136
102
{ACAD_REACTORS
330
10000128
102
}
330
10000128
100
AcDbXrecord
340
0
  0
XRECORD
  5
10000137
102
{ACAD_REACTORS
330
10000128
102
}
330
10000128
100
AcDbXrecord
 70
     0
  0
XRECORD
  5
1000012C
102
{ACAD_REACTORS
330
10000128
102
}
330
10000128
100
AcDbXrecord
  1

  0
XRECORD
  5
10000129
102
{ACAD_REACTORS
330
10000128
102
}
330
10000128
100
AcDbXrecord
 90
        1
  0
XRECORD
  5
1000012A
102
{ACAD_REACTORS
330
10000128
102
}
330
10000128
100
AcDbXrecord
 90
       70
  0
XRECORD
  5
10000141
102
{ACAD_REACTORS
330
10000128
102
}
330
10000128
100
AcDbXrecord
340
0
  0
XRECORD
  5
10000147
102
{ACAD_REACTORS
330
10000128
102
}
330
10000128
100
AcDbXrecord
 10
0.0
 20
0.0
 30
0.0
  0
XRECORD
  5
10000143
102
{ACAD_REACTORS
330
10000128
102
}
330
10000128
100
AcDbXrecord
 10
0.0
 20
0.0
 30
0.0
  0
XRECORD
  5
10000146
102
{ACAD_REACTORS
330
10000128
102
}
330
10000128
100
AcDbXrecord
 10
0.0
 20
0.0
 30
0.0
  0
XRECORD
  5
10000144
102
{ACAD_REACTORS
330
10000128
102
}
330
10000128
100
AcDbXrecord
 10
0.0
 20
0.0
 30
0.0
  0
XRECORD
  5
10000145
102
{ACAD_REACTORS
330
10000128
102
}
330
10000128
100
AcDbXrecord
 10
0.0
 20
0.0
 30
0.0
  0
XRECORD
  5
10000142
102
{ACAD_REACTORS
330
10000128
102
}
330
10000128
100
AcDbXrecord
 10
0.0
 20
0.0
 30
0.0
  0
XRECORD
  5
1000013F
102
{ACAD_REACTORS
330
10000128
102
}
330
10000128
100
AcDbXrecord
340
0
  0
XRECORD
  5
10000140
102
{ACAD_REACTORS
330
10000128
102
}
330
10000128
100
AcDbXrecord
 70
     0
  0
XRECORD
  5
10000134
102
{ACAD_REACTORS
330
10000128
102
}
330
10000128
100
AcDbXrecord
  1
{FAEB1C32-E019-11D5-929B-00C0DF256EC4}
  0
DICTIONARYVAR
  5
10000153
102
{ACAD_REACTORS
330
10000149
102
}
330
10000149
100
DictionaryVariables
280
     0
  1
1:1
  0
DICTIONARYVAR
  5
1000014B
102
{ACAD_REACTORS
330
10000149
102
}
330
10000149
100
DictionaryVariables
280
     0
  1
Standard
  0
DICTIONARYVAR
  5
1000014A
102
{ACAD_REACTORS
330
10000149
102
}
330
10000149
100
DictionaryVariables
280
     0
  1
Standard
  0
DICTIONARYVAR
  5
1000014E
102
{ACAD_REACTORS
330
10000149
102
}
330
10000149
100
DictionaryVariables
280
     0
  1
2
  0
DICTIONARYVAR
  5
1000014F
102
{ACAD_REACTORS
330
10000149
102
}
330
10000149
100
DictionaryVariables
280
     0
  1
1
  0
DICTIONARYVAR
  5
10000154
102
{ACAD_REACTORS
330
10000149
102
}
330
10000149
100
DictionaryVariables
280
     0
  1
1
  0
XRECORD
  5
10000003
102
{ACAD_REACTORS
330
10000001
102
}
330
10000001
100
AcDbXrecord
 70
     4
  0
XRECORD
  5
10000002
102
{ACAD_REACTORS
330
10000001
102
}
330
10000001
100
AcDbXrecord
1040
86.0
  0
ACAD_PROXY_OBJECT
  5
10000005
102
{ACAD_REACTORS
330
10000001
102
}
330
10000001
100
AcDbProxyObject
 90
      499
 91
      509
 93
       34
310
40C8804000
  0
DICTIONARY
  5
10000157
330
45
100
AcDbDictionary
280
     1
  3
ACAD_XREC_ROUNDTRIP
360
10000158
  0
DICTIONARY
  5
10000155
330
44
100
AcDbDictionary
280
     1
  3
ACAD_XREC_ROUNDTRIP
360
10000156
  0
DICTIONARY
  5
10000159
330
46
100
AcDbDictionary
280
     1
  3
ACAD_XREC_ROUNDTRIP
360
1000015A
  0
XRECORD
  5
10000158
102
{ACAD_REACTORS
330
10000157
102
}
330
10000157
100
AcDbXrecord
102
MATERIAL
148
0.0
149
0.0
149
0.0
 93
        0
 94
      127
282
     0
 72
     1
 77
     1
171
     1
175
     1
179
     1
273
     0
  0
XRECORD
  5
10000156
102
{ACAD_REACTORS
330
10000155
102
}
330
10000155
100
AcDbXrecord
102
MATERIAL
148
0.0
149
0.0
149
0.0
 93
        0
 94
      127
282
     0
 72
     1
 77
     1
171
     1
175
     1
179
     1
273
     0
  0
XRECORD
  5
1000015A
102
{ACAD_REACTORS
330
10000159
102
}
330
10000159
100
AcDbXrecord
102
MATERIAL
148
0.0
149
0.0
149
0.0
 93
        0
 94
      127
282
     0
 72
     1
 77
     1
171
     1
175
     1
179
     1
273
     0
  0
ENDSEC
  0
EOF
