  0
SECTION
  2
HEADER
  9
$ACADVER
  1
AC1014
  9
$ACADMAINTVER
 70
     9
  9
$DWGCODEPAGE
  3
ANSI_1252
  9
$INSBASE
 10
0.0
 20
0.0
 30
0.0
  9
$EXTMIN
 10
1.000000000000000E+20
 20
1.000000000000000E+20
 30
1.000000000000000E+20
  9
$EXTMAX
 10
-1.000000000000000E+20
 20
-1.000000000000000E+20
 30
-1.000000000000000E+20
  9
$LIMMIN
 10
0.0
 20
0.0
  9
$LIMMAX
 10
12.0
 20
9.0
  9
$ORTHOMODE
 70
     0
  9
$REGENMODE
 70
     1
  9
$FILLMODE
 70
     1
  9
$QTEXTMODE
 70
     0
  9
$MIRRTEXT
 70
     1
  9
$DRAGMODE
 70
     2
  9
$LTSCALE
 40
1.0
  9
$OSMODE
 70
    37
  9
$ATTMODE
 70
     1
  9
$TEXTSIZE
 40
0.2
  9
$TRACEWID
 40
0.05
  9
$TEXTSTYLE
  7
STANDARD
  9
$CLAYER
  8
0
  9
$CELTYPE
  6
BYLAYER
  9
$CECOLOR
 62
   256
  9
$CELTSCALE
 40
1.0
  9
$DELOBJ
 70
     1
  9
$DISPSILH
 70
     0
  9
$DIMSCALE
 40
1.0
  9
$DIMASZ
 40
0.18
  9
$DIMEXO
 40
0.0625
  9
$DIMDLI
 40
0.38
  9
$DIMRND
 40
0.0
  9
$DIMDLE
 40
0.0
  9
$DIMEXE
 40
0.18
  9
$DIMTP
 40
0.0
  9
$DIMTM
 40
0.0
  9
$DIMTXT
 40
0.18
  9
$DIMCEN
 40
0.09
  9
$DIMTSZ
 40
0.0
  9
$DIMTOL
 70
     0
  9
$DIMLIM
 70
     0
  9
$DIMTIH
 70
     1
  9
$DIMTOH
 70
     1
  9
$DIMSE1
 70
     0
  9
$DIMSE2
 70
     0
  9
$DIMTAD
 70
     0
  9
$DIMZIN
 70
     0
  9
$DIMBLK
  1

  9
$DIMASO
 70
     1
  9
$DIMSHO
 70
     1
  9
$DIMPOST
  1

  9
$DIMAPOST
  1

  9
$DIMALT
 70
     0
  9
$DIMALTD
 70
     2
  9
$DIMALTF
 40
25.4
  9
$DIMLFAC
 40
1.0
  9
$DIMTOFL
 70
     0
  9
$DIMTVP
 40
0.0
  9
$DIMTIX
 70
     0
  9
$DIMSOXD
 70
     0
  9
$DIMSAH
 70
     0
  9
$DIMBLK1
  1

  9
$DIMBLK2
  1

  9
$DIMSTYLE
  2
STANDARD
  9
$DIMCLRD
 70
     0
  9
$DIMCLRE
 70
     0
  9
$DIMCLRT
 70
     0
  9
$DIMTFAC
 40
1.0
  9
$DIMGAP
 40
0.09
  9
$DIMJUST
 70
     0
  9
$DIMSD1
 70
     0
  9
$DIMSD2
 70
     0
  9
$DIMTOLJ
 70
     1
  9
$DIMTZIN
 70
     0
  9
$DIMALTZ
 70
     0
  9
$DIMALTTZ
 70
     0
  9
$DIMFIT
 70
     3
  9
$DIMUPT
 70
     0
  9
$DIMUNIT
 70
     2
  9
$DIMDEC
 70
     4
  9
$DIMTDEC
 70
     4
  9
$DIMALTU
 70
     2
  9
$DIMALTTD
 70
     2
  9
$DIMTXSTY
  7
STANDARD
  9
$DIMAUNIT
 70
     0
  9
$LUNITS
 70
     2
  9
$LUPREC
 70
     4
  9
$SKETCHINC
 40
0.1
  9
$FILLETRAD
 40
0.5
  9
$AUNITS
 70
     0
  9
$AUPREC
 70
     0
  9
$MENU
  1
.
  9
$ELEVATION
 40
0.0
  9
$PELEVATION
 40
0.0
  9
$THICKNESS
 40
0.0
  9
$LIMCHECK
 70
     0
  9
$CHAMFERA
 40
0.0
  9
$CHAMFERB
 40
0.0
  9
$CHAMFERC
 40
0.0
  9
$CHAMFERD
 40
0.0
  9
$SKPOLY
 70
     0
  9
$TDCREATE
 40
2458352.600001736
  9
$TDUPDATE
 40
2458352.600001782
  9
$TDINDWG
 40
0.0000000116
  9
$TDUSRTIMER
 40
0.0000000116
  9
$USRTIMER
 70
     1
  9
$ANGBASE
 50
0.0
  9
$ANGDIR
 70
     0
  9
$PDMODE
 70
     0
  9
$PDSIZE
 40
0.0
  9
$PLINEWID
 40
0.0
  9
$COORDS
 70
     1
  9
$SPLFRAME
 70
     0
  9
$SPLINETYPE
 70
     6
  9
$SPLINESEGS
 70
     8
  9
$ATTDIA
 70
     0
  9
$ATTREQ
 70
     1
  9
$HANDLING
 70
     1
  9
$HANDSEED
  5
1000015C
  9
$SURFTAB1
 70
     6
  9
$SURFTAB2
 70
     6
  9
$SURFTYPE
 70
     6
  9
$SURFU
 70
     6
  9
$SURFV
 70
     6
  9
$UCSNAME
  2

  9
$UCSORG
 10
0.0
 20
0.0
 30
0.0
  9
$UCSXDIR
 10
1.0
 20
0.0
 30
0.0
  9
$UCSYDIR
 10
0.0
 20
1.0
 30
0.0
  9
$PUCSNAME
  2

  9
$PUCSORG
 10
0.0
 20
0.0
 30
0.0
  9
$PUCSXDIR
 10
1.0
 20
0.0
 30
0.0
  9
$PUCSYDIR
 10
0.0
 20
1.0
 30
0.0
  9
$USERI1
 70
     0
  9
$USERI2
 70
     0
  9
$USERI3
 70
     0
  9
$USERI4
 70
     0
  9
$USERI5
 70
     0
  9
$USERR1
 40
0.0
  9
$USERR2
 40
0.0
  9
$USERR3
 40
0.0
  9
$USERR4
 40
0.0
  9
$USERR5
 40
0.0
  9
$WORLDVIEW
 70
     1
  9
$SHADEDGE
 70
     3
  9
$SHADEDIF
 70
    70
  9
$TILEMODE
 70
     1
  9
$MAXACTVP
 70
    64
  9
$PINSBASE
 10
0.0
 20
0.0
 30
0.0
  9
$PLIMCHECK
 70
     0
  9
$PEXTMIN
 10
1.000000000000000E+20
 20
1.000000000000000E+20
 30
1.000000000000000E+20
  9
$PEXTMAX
 10
-1.000000000000000E+20
 20
-1.000000000000000E+20
 30
-1.000000000000000E+20
  9
$PLIMMIN
 10
0.0
 20
0.0
  9
$PLIMMAX
 10
12.0
 20
9.0
  9
$UNITMODE
 70
     0
  9
$VISRETAIN
 70
     1
  9
$PLINEGEN
 70
     0
  9
$PSLTSCALE
 70
     1
  9
$TREEDEPTH
 70
  3020
  9
$PICKSTYLE
 70
     1
  9
$CMLSTYLE
  2
STANDARD
  9
$CMLJUST
 70
     0
  9
$CMLSCALE
 40
1.0
  9
$PROXYGRAPHICS
 70
     1
  9
$MEASUREMENT
 70
     0
  0
ENDSEC
  0
SECTION
  2
CLASSES
  0
CLASS
  1
ACDBDICTIONARYWDFLT
  2
AcDbDictionaryWithDefault
  3
ObjectDBX Classes
 90
        0
280
     0
281
     0
  0
CLASS
  1
VISUALSTYLE
  2
AcDbVisualStyle
  3
ObjectDBX Classes
 90
     4095
280
     0
281
     0
  0
CLASS
  1
MATERIAL
  2
AcDbMaterial
  3
ObjectDBX Classes
 90
     1153
280
     0
281
     0
  0
CLASS
  1
SCALE
  2
AcDbScale
  3
ObjectDBX Classes
 90
     1153
280
     0
281
     0
  0
CLASS
  1
TABLESTYLE
  2
AcDbTableStyle
  3
ObjectDBX Classes
 90
     4095
280
     0
281
     0
  0
CLASS
  1
MLEADERSTYLE
  2
AcDbMLeaderStyle
  3
ACDB_MLEADERSTYLE_CLASS
 90
     4095
280
     0
281
     0
  0
CLASS
  1
SUN
  2
AcDbSun
  3
SCENEOE
 90
     1153
280
     0
281
     0
  0
CLASS
  1
SORTENTSTABLE
  2
AcDbSortentsTable
  3
ObjectDBX Classes
 90
        0
280
     0
281
     0
  0
CLASS
  1
DICTIONARYVAR
  2
AcDbDictionaryVar
  3
ObjectDBX Classes
 90
        0
280
     0
281
     0
  0
CLASS
  1
XRECORD
  2
AcDbXrecord
  3
ObjectDBX Classes
 90
        0
280
     0
281
     0
  0
CLASS
  1
LWPOLYLINE
  2
AcDbPolyline
  3
ObjectDBX Classes
 90
        0
280
     0
281
     1
  0
CLASS
  1
HATCH
  2
AcDbHatch
  3
ObjectDBX Classes
 90
        0
280
     0
281
     1
  0
CLASS
  1
ACDBPLACEHOLDER
  2
AcDbPlaceHolder
  3
ObjectDBX Classes
 90
        0
280
     0
281
     0
  0
CLASS
  1
LAYOUT
  2
AcDbLayout
  3
ObjectDBX Classes
 90
        0
280
     0
281
     0
  0
ENDSEC
  0
SECTION
  2
TABLES
  0
TABLE
  2
VPORT
  5
8
102
{ACAD_XDICTIONARY
360
10000151
102
}
330
0
100
AcDbSymbolTable
 70
     1
  0
VPORT
  5
29
330
8
100
AcDbSymbolTableRecord
100
AcDbViewportTableRecord
  2
*ACTIVE
 70
     0
 10
0.0
 20
0.0
 11
1.0
 21
1.0
 12
10.42990654205607
 22
4.5
 13
0.0
 23
0.0
 14
0.5
 24
0.5
 15
0.5
 25
0.5
 16
0.0
 26
0.0
 36
1.0
 17
0.0
 27
0.0
 37
0.0
 40
9.0
 41
1.972972972850329
 42
50.0
 43
0.0
 44
0.0
 50
0.0
 51
0.0
 71
     0
 72
   100
 73
     1
 74
     3
 75
     0
 76
     0
 77
     0
 78
     0
  0
ENDTAB
  0
TABLE
  2
LTYPE
  5
5
330
0
100
AcDbSymbolTable
 70
     7
  0
LTYPE
  5
14
330
5
100
AcDbSymbolTableRecord
100
AcDbLinetypeTableRecord
  2
BYBLOCK
 70
     0
  3

 72
    65
 73
     0
 40
0.0
  0
LTYPE
  5
15
330
5
100
AcDbSymbolTableRecord
100
AcDbLinetypeTableRecord
  2
BYLAYER
 70
     0
  3

 72
    65
 73
     0
 40
0.0
  0
LTYPE
  5
16
330
5
100
AcDbSymbolTableRecord
100
AcDbLinetypeTableRecord
  2
CONTINUOUS
 70
     0
  3
Solid line
 72
    65
 73
     0
 40
0.0
  0
LTYPE
  5
10000024
330
5
100
AcDbSymbolTableRecord
100
AcDbLinetypeTableRecord
  2
ONS_PHANTOM
 70
     0
  3
Onshape Phantom line ______ __ __ ______
 72
    65
 73
     6
 40
0.4999999999999999
 49
0.25
 74
     0
 49
-0.05
 74
     0
 49
0.05
 74
     0
 49
-0.05
 74
     0
 49
0.05
 74
     0
 49
-0.05
 74
     0
  0
LTYPE
  5
10000025
330
5
100
AcDbSymbolTableRecord
100
AcDbLinetypeTableRecord
  2
CENTER
 70
     0
  3
Center line ____ _ ____ _ ____ _
 72
    65
 73
     4
 40
0.7199999999999999
 49
0.45
 74
     0
 49
-0.09
 74
     0
 49
0.09
 74
     0
 49
-0.09
 74
     0
  0
LTYPE
  5
10000026
330
5
100
AcDbSymbolTableRecord
100
AcDbLinetypeTableRecord
  2
DASHED
 70
     0
  3
Dashed line __ __ __ __ __
 72
    65
 73
     2
 40
0.75
 49
0.5
 74
     0
 49
-0.25
 74
     0
  0
LTYPE
  5
10000027
330
5
100
AcDbSymbolTableRecord
100
AcDbLinetypeTableRecord
  2
ONS_DASHDOT
 70
     0
  3
Onshape Dashed with Dot _ . ____ . ____
 72
    65
 73
     4
 40
0.71
 49
0.5
 74
     0
 49
-0.1
 74
     0
 49
0.01
 74
     0
 49
-0.1
 74
     0
  0
LTYPE
  5
10000028
330
5
100
AcDbSymbolTableRecord
100
AcDbLinetypeTableRecord
  2
ONS_DOTTED
 70
     0
  3
Onshape Dotted line . . . . . . .
 72
    65
 73
     2
 40
0.11
 49
0.01
 74
     0
 49
-0.1
 74
     0
  0
LTYPE
  5
10000029
330
5
100
AcDbSymbolTableRecord
100
AcDbLinetypeTableRecord
  2
HIDDEN
 70
     0
  3
Hidden line ____ ____ ____ ____ 
 72
    65
 73
     2
 40
0.15
 49
0.1
 74
     0
 49
-0.05
 74
     0
  0
ENDTAB
  0
TABLE
  2
LAYER
  5
2
330
0
100
AcDbSymbolTable
 70
    34
  0
LAYER
  5
10
330
2
100
AcDbSymbolTableRecord
100
AcDbLayerTableRecord
  2
0
 70
     0
 62
     7
  6
CONTINUOUS
  0
LAYER
  5
1000002A
330
2
100
AcDbSymbolTableRecord
100
AcDbLayerTableRecord
  2
SECTION_CUTTING_LINE
 70
     0
 62
     7
  6
ONS_PHANTOM
  0
LAYER
  5
1000002B
330
2
100
AcDbSymbolTableRecord
100
AcDbLayerTableRecord
  2
DETAIL_VIEW_BORDER
 70
     0
 62
     7
  6
CONTINUOUS
  0
LAYER
  5
1000002C
330
2
100
AcDbSymbolTableRecord
100
AcDbLayerTableRecord
  2
DETAIL_VIEW_PARENT_BORDER
 70
     0
 62
     7
  6
ONS_PHANTOM
  0
LAYER
  5
1000002D
330
2
100
AcDbSymbolTableRecord
100
AcDbLayerTableRecord
  2
TEXT
 70
     0
 62
     7
  6
CONTINUOUS
  0
LAYER
  5
1000002E
330
2
100
AcDbSymbolTableRecord
100
AcDbLayerTableRecord
  2
SKETCHED_GEOMETRY
 70
     0
 62
    -7
  6
CONTINUOUS
  0
LAYER
  5
1000002F
330
2
100
AcDbSymbolTableRecord
100
AcDbLayerTableRecord
  2
CENTERLINES
 70
     0
 62
    -7
  6
CENTER
  0
LAYER
  5
10000030
330
2
100
AcDbSymbolTableRecord
100
AcDbLayerTableRecord
  2
CENTERMARKS
 70
     0
 62
    -7
  6
CONTINUOUS
  0
LAYER
  5
10000031
330
2
100
AcDbSymbolTableRecord
100
AcDbLayerTableRecord
  2
TABLES
 70
     0
 62
     7
  6
CONTINUOUS
  0
LAYER
  5
10000032
330
2
100
AcDbSymbolTableRecord
100
AcDbLayerTableRecord
  2
IMAGES
 70
     0
 62
    -7
  6
CONTINUOUS
  0
LAYER
  5
10000033
330
2
100
AcDbSymbolTableRecord
100
AcDbLayerTableRecord
  2
ANNOTATION_LINES
 70
     0
 62
    -7
  6
CONTINUOUS
  0
LAYER
  5
10000034
330
2
100
AcDbSymbolTableRecord
100
AcDbLayerTableRecord
  2
ANNOTATION_TEXT
 70
     0
 62
    -7
  6
CONTINUOUS
  0
LAYER
  5
10000035
330
2
100
AcDbSymbolTableRecord
100
AcDbLayerTableRecord
  2
SIDE_THREAD_SYMBOLS
 70
     0
 62
     7
  6
HIDDEN
  0
LAYER
  5
10000036
330
2
100
AcDbSymbolTableRecord
100
AcDbLayerTableRecord
  2
SIDE_THREAD_SYMBOLS_HIDDEN
 70
     0
 62
    -7
  6
HIDDEN
  0
LAYER
  5
10000037
330
2
100
AcDbSymbolTableRecord
100
AcDbLayerTableRecord
  2
SURFACE_THREAD_SYMBOLS
 70
     0
 62
     7
  6
HIDDEN
  0
LAYER
  5
10000038
330
2
100
AcDbSymbolTableRecord
100
AcDbLayerTableRecord
  2
SURFACE_THREAD_SYMBOLS_ON_
 70
     0
 62
     7
  6
HIDDEN
  0
LAYER
  5
10000039
330
2
100
AcDbSymbolTableRecord
100
AcDbLayerTableRecord
  2
SURFACE_THREAD_SYMBOLS_HID
 70
     0
 62
    -7
  6
HIDDEN
  0
LAYER
  5
1000003A
330
2
100
AcDbSymbolTableRecord
100
AcDbLayerTableRecord
  2
BLIND_THREAD_SYMBOLS
 70
     0
 62
     7
  6
CONTINUOUS
  0
LAYER
  5
1000003B
330
2
100
AcDbSymbolTableRecord
100
AcDbLayerTableRecord
  2
BLIND_THREAD_SYMBOLS_HIDDE
 70
     0
 62
    -7
  6
HIDDEN
  0
LAYER
  5
1000003C
330
2
100
AcDbSymbolTableRecord
100
AcDbLayerTableRecord
  2
EXPLODE_LINES
 70
     0
 62
     7
  6
CONTINUOUS
  0
LAYER
  5
1000003D
330
2
100
AcDbSymbolTableRecord
100
AcDbLayerTableRecord
  2
BREAK_LINES
 70
     0
 62
    -7
  6
CONTINUOUS
  0
LAYER
  5
1000003E
330
2
100
AcDbSymbolTableRecord
100
AcDbLayerTableRecord
  2
SHEETMETAL_BEND_LINES_UP
 70
     0
 62
    -7
  6
CENTER
  0
LAYER
  5
1000003F
330
2
100
AcDbSymbolTableRecord
100
AcDbLayerTableRecord
  2
SHEETMETAL_BEND_LINES_DOWN
 70
     0
 62
    -7
  6
CENTER
  0
LAYER
  5
10000040
330
2
100
AcDbSymbolTableRecord
100
AcDbLayerTableRecord
  2
SHEETMETAL_BEND_TANGENT_LI
 70
     0
 62
    -7
  6
CONTINUOUS
  0
LAYER
  5
10000041
330
2
100
AcDbSymbolTableRecord
100
AcDbLayerTableRecord
  2
SHEETMETAL_CUT_LINES
 70
     0
 62
     7
  6
CONTINUOUS
  0
LAYER
  5
10000042
330
2
100
AcDbSymbolTableRecord
100
AcDbLayerTableRecord
  2
HIDDEN
 70
     0
 62
    -7
  6
HIDDEN
  0
LAYER
  5
10000043
330
2
100
AcDbSymbolTableRecord
100
AcDbLayerTableRecord
  2
VISIBLE
 70
     0
 62
     7
  6
CONTINUOUS
  0
LAYER
  5
10000044
330
2
100
AcDbSymbolTableRecord
100
AcDbLayerTableRecord
  2
MODELSKETCH_VISIBLE
 70
     0
 62
     7
  6
CONTINUOUS
  0
LAYER
  5
10000045
330
2
100
AcDbSymbolTableRecord
100
AcDbLayerTableRecord
  2
MODELSKETCH_CONSTRUCTION
 70
     0
 62
    -7
  6
CENTER
  0
LAYER
  5
10000046
330
2
100
AcDbSymbolTableRecord
100
AcDbLayerTableRecord
  2
TANGENT_LINES
 70
     0
 62
    -7
  6
CONTINUOUS
  0
LAYER
  5
10000047
330
2
100
AcDbSymbolTableRecord
100
AcDbLayerTableRecord
  2
TANGENT_HIDDEN
 70
     0
 62
    -7
  6
HIDDEN
  0
LAYER
  5
10000048
330
2
100
AcDbSymbolTableRecord
100
AcDbLayerTableRecord
  2
INVISIBLE_LINES
 70
     0
 62
    -7
  6
CONTINUOUS
  0
LAYER
  5
10000049
330
2
100
AcDbSymbolTableRecord
100
AcDbLayerTableRecord
  2
VIEW_HATCHES
 70
     0
 62
    -7
  6
CONTINUOUS
  0
LAYER
  5
1000004A
330
2
100
AcDbSymbolTableRecord
100
AcDbLayerTableRecord
  2
SECTION_JOG_LINES
 70
     0
 62
    -7
  6
CONTINUOUS
  0
ENDTAB
  0
TABLE
  2
STYLE
  5
3
330
0
100
AcDbSymbolTable
 70
     2
  0
STYLE
  5
11
330
3
100
AcDbSymbolTableRecord
100
AcDbTextStyleTableRecord
  2
STANDARD
 70
     0
 40
0.0
 41
1.0
 50
0.0
 71
     0
 42
0.2
  3
txt
  4

  0
STYLE
  5
10000004
330
3
100
AcDbSymbolTableRecord
100
AcDbTextStyleTableRecord
  2
TTFSTYLE
 70
     0
 40
0.0
 41
1.0
 50
0.0
 71
     0
 42
0.2
  3
Verdana.ttf
  4

1001
ACAD
1000
Verdana
1071
       34
  0
ENDTAB
  0
TABLE
  2
VIEW
  5
6
330
0
100
AcDbSymbolTable
 70
     0
  0
ENDTAB
  0
TABLE
  2
UCS
  5
7
330
0
100
AcDbSymbolTable
 70
     0
  0
ENDTAB
  0
TABLE
  2
APPID
  5
9
330
0
100
AcDbSymbolTable
 70
     2
  0
APPID
  5
12
330
9
100
AcDbSymbolTableRecord
100
AcDbRegAppTableRecord
  2
ACAD
 70
     0
  0
APPID
  5
1000015B
330
9
100
AcDbSymbolTableRecord
100
AcDbRegAppTableRecord
  2
ACAD_MLEADERVER
 70
     0
  0
ENDTAB
  0
TABLE
  2
DIMSTYLE
  5
A
330
0
100
AcDbSymbolTable
 70
     1
  0
DIMSTYLE
105
27
330
A
100
AcDbSymbolTableRecord
100
AcDbDimStyleTableRecord
  2
STANDARD
 70
     0
  3

  4

  5

  6

  7

 40
1.0
 41
0.18
 42
0.0625
 43
0.38
 44
0.18
 45
0.0
 46
0.0
 47
0.0
 48
0.0
140
0.18
141
0.09
142
0.0
143
25.4
144
1.0
145
0.0
146
1.0
147
0.09
 71
     0
 72
     0
 73
     1
 74
     1
 75
     0
 76
     0
 77
     0
 78
     0
170
     0
171
     2
172
     0
173
     0
174
     0
175
     0
176
     0
177
     0
178
     0
270
     2
271
     4
272
     4
273
     2
274
     2
340
11
275
     0
280
     0
281
     0
282
     0
283
     1
284
     0
285
     0
286
     0
287
     3
288
     0
  0
ENDTAB
  0
TABLE
  2
BLOCK_RECORD
  5
1
330
0
100
AcDbSymbolTable
 70
     0
  0
BLOCK_RECORD
  5
1F
102
{ACAD_XDICTIONARY
360
10000126
102
}
330
1
100
AcDbSymbolTableRecord
100
AcDbBlockTableRecord
  2
*MODEL_SPACE
  0
BLOCK_RECORD
  5
1B
330
1
100
AcDbSymbolTableRecord
100
AcDbBlockTableRecord
  2
*PAPER_SPACE
  0
ENDTAB
  0
ENDSEC
  0
SECTION
  2
BLOCKS
  0
BLOCK
  5
20
330
1F
100
AcDbEntity
  8
0
100
AcDbBlockBegin
  2
*MODEL_SPACE
 70
     0
 10
0.0
 20
0.0
 30
0.0
  3
*MODEL_SPACE
  1

  0
ENDBLK
  5
21
330
1F
100
AcDbEntity
  8
0
100
AcDbBlockEnd
  0
BLOCK
  5
1C
330
1B
100
AcDbEntity
 67
     1
  8
0
100
AcDbBlockBegin
  2
*PAPER_SPACE
 70
     0
 10
0.0
 20
0.0
 30
0.0
  3
*PAPER_SPACE
  1

  0
ENDBLK
  5
1D
330
1B
100
AcDbEntity
 67
     1
  8
0
100
AcDbBlockEnd
  0
ENDSEC
  0
SECTION
  2
ENTITIES
  0
CIRCLE
  5
1000004B
102
{ACAD_XDICTIONARY
360
1000004C
102
}
330
1F
100
AcDbEntity
  8
VISIBLE
100
AcDbCircle
 10
50.0
 20
-40.0
 30
0.0
 40
1.5
  0
ARC
  5
1000004E
102
{ACAD_XDICTIONARY
360
1000004F
102
}
330
1F
100
AcDbEntity
  8
VISIBLE
100
AcDbCircle
 10
45.81977359833983
 20
-42.61643236958803
 30
0.0
 40
0.3956164510627324
100
AcDbArc
 50
306.6248690400163
 51
32.04273182189678
  0
SPLINE
  5
10000051
102
{ACAD_XDICTIONARY
360
10000052
102
}
330
1F
100
AcDbEntity
  8
VISIBLE
100
AcDbSpline
210
0.0
220
0.0
230
1.0
 70
     8
 71
     3
 72
    44
 73
    40
 74
     0
 42
0.000000001
 43
0.00000001
 40
0.0374573816692526
 40
0.0374573816692526
 40
0.0374573816692526
 40
0.0374573816692526
 40
0.1173270388283835
 40
0.1245633749097421
 40
0.1339054427745929
 40
0.1449591259385422
 40
0.157492824253456
 40
0.1713493489450592
 40
0.186412979324603
 40
0.2025939139161435
 40
0.2198198341683084
 40
0.2380308751317531
 40
0.2571764150177153
 40
0.2772129162632477
 40
0.2981024128312286
 40
0.3198114144576313
 40
0.3423100907832787
 40
0.3655716496568647
 40
0.3895718539492967
 40
0.4142886395604836
 40
0.4397018088992017
 40
0.4657927816818093
 40
0.4925443899635603
 40
0.5199407077925865
 40
0.5479669083115218
 40
0.5766091428695075
 40
0.6058544379685353
 40
0.6356906067974987
 40
0.6661061728017248
 40
0.6970903032611986
 40
0.7286327512528589
 40
0.7607238046834918
 40
0.7933542413228106
 40
0.8265152889579642
 40
0.860198589943057
 40
0.8943961695393764
 40
0.9291004075405692
 40
0.9643040127571182
 40
0.9924917445823648
 40
0.9924917445823648
 40
0.9924917445823648
 40
0.9924917445823648
 10
46.05578780178102
 20
-42.93393775871628
 30
0.0
 10
45.85318809447652
 20
-43.08453806401559
 30
0.0
 10
45.68139057958007
 20
-43.21233692796685
 30
0.0
 10
45.67710556103713
 20
-43.21598684635052
 30
0.0
 10
45.67231580578573
 20
-43.21989329033317
 30
0.0
 10
45.66682309756879
 20
-43.2246334810109
 30
0.0
 10
45.65952687778123
 20
-43.23114774372884
 30
0.0
 10
45.65087964920952
 20
-43.23920090902029
 30
0.0
 10
45.64081896560785
 20
-43.24894708334492
 30
0.0
 10
45.62944742706783
 20
-43.2604149956063
 30
0.0
 10
45.61681918024722
 20
-43.27366946651144
 30
0.0
 10
45.60300512160765
 20
-43.28876198230844
 30
0.0
 10
45.58807332519388
 20
-43.30574542004774
 30
0.0
 10
45.57209476117767
 20
-43.32466963576191
 30
0.0
 10
45.55514156131351
 20
-43.3455826931023
 30
0.0
 10
45.53728745220001
 20
-43.36853045218624
 30
0.0
 10
45.51860755990602
 20
-43.39355663477213
 30
0.0
 10
45.49917839313911
 20
-43.42070275499706
 30
0.0
 10
45.47907777395066
 20
-43.45000809052279
 30
0.0
 10
45.45838478197174
 20
-43.481509644196
 30
0.0
 10
45.43717969357139
 20
-43.51524211035003
 30
0.0
 10
45.41554392127459
 20
-43.55123784175581
 30
0.0
 10
45.39355995200459
 20
-43.58952681835565
 30
0.0
 10
45.37131128460911
 20
-43.63013661747559
 30
0.0
 10
45.34888236660345
 20
-43.67309238562675
 30
0.0
 10
45.32635853017364
 20
-43.71841681185683
 30
0.0
 10
45.30382592758571
 20
-43.76613010278901
 30
0.0
 10
45.2813714655991
 20
-43.81624995891809
 30
0.0
 10
45.25908274063019
 20
-43.86879155388572
 30
0.0
 10
45.23704796814645
 20
-43.92376751019088
 30
0.0
 10
45.21535593150474
 20
-43.98118789651839
 30
0.0
 10
45.19409585375131
 20
-44.04106015019271
 30
0.0
 10
45.1733575621649
 20
-44.10338929444449
 30
0.0
 10
45.15323053047815
 20
-44.16817703564805
 30
0.0
 10
45.13380721039026
 20
-44.23542515114509
 30
0.0
 10
45.11516997363464
 20
-44.30512249258411
 30
0.0
 10
45.09744062573312
 20
-44.37729455175432
 30
0.0
 10
45.08178915300874
 20
-44.44651610549428
 30
0.0
 10
45.07255292652942
 20
-44.49217299123811
 30
0.0
 10
45.06848244389044
 20
-44.51251333294154
 30
0.0
  0
ARC
  5
10000054
102
{ACAD_XDICTIONARY
360
10000055
102
}
330
1F
100
AcDbEntity
  8
VISIBLE
100
AcDbCircle
 10
50.0
 20
-40.0
 30
0.0
 40
6.684507609859605
100
AcDbArc
 50
222.4596186495608
 51
227.5403813504392
  0
SPLINE
  5
10000057
102
{ACAD_XDICTIONARY
360
10000058
102
}
330
1F
100
AcDbEntity
  8
VISIBLE
100
AcDbSpline
210
0.0
220
0.0
230
1.0
 70
     8
 71
     3
 72
    44
 73
    40
 74
     0
 42
0.000000001
 43
0.00000001
 40
0.0374573816692522
 40
0.0374573816692522
 40
0.0374573816692522
 40
0.0374573816692522
 40
0.1173270388283835
 40
0.1245633749097421
 40
0.1339054427745929
 40
0.1449591259385422
 40
0.157492824253456
 40
0.1713493489450592
 40
0.186412979324603
 40
0.2025939139161435
 40
0.2198198341683084
 40
0.2380308751317531
 40
0.2571764150177153
 40
0.2772129162632477
 40
0.2981024128312286
 40
0.3198114144576313
 40
0.3423100907832787
 40
0.3655716496568647
 40
0.3895718539492967
 40
0.4142886395604836
 40
0.4397018088992017
 40
0.4657927816818093
 40
0.4925443899635603
 40
0.5199407077925865
 40
0.5479669083115218
 40
0.5766091428695075
 40
0.6058544379685353
 40
0.6356906067974987
 40
0.6661061728017248
 40
0.6970903032611986
 40
0.7286327512528589
 40
0.7607238046834918
 40
0.7933542413228106
 40
0.8265152889579642
 40
0.860198589943057
 40
0.8943961695393764
 40
0.9291004075405692
 40
0.9643040127571182
 40
0.9924917445823714
 40
0.9924917445823714
 40
0.9924917445823714
 40
0.9924917445823714
 10
47.06606224128372
 20
-43.94421219821897
 30
0.0
 10
46.91546193598441
 20
-44.14681190552348
 30
0.0
 10
46.78766307203315
 20
-44.31860942041993
 30
0.0
 10
46.78401315364949
 20
-44.32289443896287
 30
0.0
 10
46.78010670966682
 20
-44.32768419421428
 30
0.0
 10
46.7753665189891
 20
-44.33317690243121
 30
0.0
 10
46.76885225627117
 20
-44.34047312221878
 30
0.0
 10
46.76079909097972
 20
-44.34912035079048
 30
0.0
 10
46.75105291665507
 20
-44.35918103439215
 30
0.0
 10
46.7395850043937
 20
-44.37055257293218
 30
0.0
 10
46.72633053348856
 20
-44.38318081975278
 30
0.0
 10
46.71123801769155
 20
-44.39699487839236
 30
0.0
 10
46.69425457995226
 20
-44.41192667480612
 30
0.0
 10
46.6753303642381
 20
-44.42790523882233
 30
0.0
 10
46.65441730689771
 20
-44.4448584386865
 30
0.0
 10
46.63146954781376
 20
-44.46271254779999
 30
0.0
 10
46.60644336522787
 20
-44.48139244009398
 30
0.0
 10
46.57929724500295
 20
-44.50082160686088
 30
0.0
 10
46.54999190947721
 20
-44.52092222604935
 30
0.0
 10
46.518490355804
 20
-44.54161521802826
 30
0.0
 10
46.48475788964997
 20
-44.56282030642861
 30
0.0
 10
46.44876215824419
 20
-44.58445607872542
 30
0.0
 10
46.41047318164436
 20
-44.60644004799542
 30
0.0
 10
46.36986338252442
 20
-44.62868871539089
 30
0.0
 10
46.32690761437325
 20
-44.65111763339655
 30
0.0
 10
46.28158318814317
 20
-44.67364146982636
 30
0.0
 10
46.23386989721099
 20
-44.69617407241429
 30
0.0
 10
46.18375004108191
 20
-44.7186285344009
 30
0.0
 10
46.13120844611429
 20
-44.74091725936982
 30
0.0
 10
46.07623248980912
 20
-44.76295203185356
 30
0.0
 10
46.01881210348161
 20
-44.78464406849525
 30
0.0
 10
45.95893984980729
 20
-44.80590414624869
 30
0.0
 10
45.89661070555552
 20
-44.8266424378351
 30
0.0
 10
45.83182296435196
 20
-44.84676946952185
 30
0.0
 10
45.76457484885492
 20
-44.86619278960974
 30
0.0
 10
45.6948775074159
 20
-44.88483002636537
 30
0.0
 10
45.62270544824568
 20
-44.90255937426689
 30
0.0
 10
45.55348389450571
 20
-44.91821084699127
 30
0.0
 10
45.50782700876186
 20
-44.9274470734706
 30
0.0
 10
45.48748666705844
 20
-44.93151755610958
 30
0.0
  0
ARC
  5
1000005A
102
{ACAD_XDICTIONARY
360
1000005B
102
}
330
1F
100
AcDbEntity
  8
VISIBLE
100
AcDbCircle
 10
47.38356763041197
 20
-44.18022640166017
 30
0.0
 40
0.3956164510627324
100
AcDbArc
 50
57.95726817810321
 51
143.3751309599836
  0
ARC
  5
1000005D
102
{ACAD_XDICTIONARY
360
1000005E
102
}
330
1F
100
AcDbEntity
  8
VISIBLE
100
AcDbCircle
 10
50.0
 20
-40.0
 30
0.0
 40
4.535915878119019
100
AcDbArc
 50
237.9572681781035
 51
242.0427318218965
  0
ARC
  5
10000060
102
{ACAD_XDICTIONARY
360
10000061
102
}
330
1F
100
AcDbEntity
  8
VISIBLE
100
AcDbCircle
 10
47.68803392738589
 20
-44.35601010017723
 30
0.0
 40
0.3956164510627324
100
AcDbArc
 50
336.6248690400159
 51
62.04273182189558
  0
SPLINE
  5
10000063
102
{ACAD_XDICTIONARY
360
10000064
102
}
330
1F
100
AcDbEntity
  8
VISIBLE
100
AcDbSpline
210
0.0
220
0.0
230
1.0
 70
     8
 71
     3
 72
    44
 73
    40
 74
     0
 42
0.000000001
 43
0.00000001
 40
0.0374573816692528
 40
0.0374573816692528
 40
0.0374573816692528
 40
0.0374573816692528
 40
0.1173270388283835
 40
0.1245633749097421
 40
0.1339054427745929
 40
0.1449591259385422
 40
0.157492824253456
 40
0.1713493489450592
 40
0.186412979324603
 40
0.2025939139161435
 40
0.2198198341683084
 40
0.2380308751317531
 40
0.2571764150177153
 40
0.2772129162632477
 40
0.2981024128312286
 40
0.3198114144576313
 40
0.3423100907832787
 40
0.3655716496568647
 40
0.3895718539492967
 40
0.4142886395604836
 40
0.4397018088992017
 40
0.4657927816818093
 40
0.4925443899635603
 40
0.5199407077925865
 40
0.5479669083115218
 40
0.5766091428695075
 40
0.6058544379685353
 40
0.6356906067974987
 40
0.6661061728017248
 40
0.6970903032611986
 40
0.7286327512528589
 40
0.7607238046834918
 40
0.7933542413228106
 40
0.8265152889579642
 40
0.860198589943057
 40
0.8943961695393764
 40
0.9291004075405692
 40
0.9643040127571182
 40
0.992491744582373
 40
0.992491744582373
 40
0.992491744582373
 40
0.992491744582373
 10
48.05118091778405
 20
-44.51297073128018
 30
0.0
 10
47.95102457710871
 20
-44.74469427513932
 30
0.0
 10
47.86614299687697
 20
-44.94127009534412
 30
0.0
 10
47.86425702115493
 20
-44.94657352665758
 30
0.0
 10
47.86206219342063
 20
-44.95235148401073
 30
0.0
 10
47.85967546390805
 20
-44.95920296366489
 30
0.0
 10
47.8566138835794
 20
-44.96849259055934
 30
0.0
 10
47.8531517466097
 20
-44.97979045056845
 30
0.0
 10
47.84931202619353
 20
-44.99326122692414
 30
0.0
 10
47.84519794106844
 20
-45.00887849954087
 30
0.0
 10
47.84088879396911
 20
-45.02667133146875
 30
0.0
 10
47.83647172615638
 20
-45.04664886287576
 30
0.0
 10
47.83203213000757
 20
-45.06882284960846
 30
0.0
 10
47.82765639551062
 20
-45.09320098317173
 30
0.0
 10
47.82343102242301
 20
-45.1197888220314
 30
0.0
 10
47.81944278991075
 20
-45.14858921891476
 30
0.0
 10
47.81577861993714
 20
-45.17960247494089
 30
0.0
 10
47.8125255280551
 20
-45.21282628805331
 30
0.0
 10
47.80977054896897
 20
-45.24825576267926
 30
0.0
 10
47.80760066907152
 20
-45.28588340440838
 30
0.0
 10
47.80610275690434
 20
-45.32569912123024
 30
0.0
 10
47.80536349416769
 20
-45.36769022520386
 30
0.0
 10
47.80546930660378
 20
-45.41184143625923
 30
0.0
 10
47.80650629499892
 20
-45.45813488763741
 30
0.0
 10
47.8085601663022
 20
-45.50655013309823
 30
0.0
 10
47.81171616487834
 20
-45.55706415584034
 30
0.0
 10
47.8160590040899
 20
-45.60965137917973
 30
0.0
 10
47.82167279764573
 20
-45.66428367881484
 30
0.0
 10
47.8286409930885
 20
-45.72093039729661
 30
0.0
 10
47.83704629850355
 20
-45.7795583582961
 30
0.0
 10
47.84697063687576
 20
-45.84013188987169
 30
0.0
 10
47.85849499629203
 20
-45.90261282141219
 30
0.0
 10
47.871699681073
 20
-45.96696058952358
 30
0.0
 10
47.88666303093127
 20
-46.03313193510305
 30
0.0
 10
47.90346600005784
 20
-46.10108217152406
 30
0.0
 10
47.92217435029063
 20
-46.1707604581643
 30
0.0
 10
47.9429063142005
 20
-46.2421279687999
 30
0.0
 10
47.96396251808452
 20
-46.30990132919034
 30
0.0
 10
47.97879215419024
 20
-46.35405946534185
 30
0.0
 10
47.98543718367094
 20
-46.37370995929816
 30
0.0
  0
ARC
  5
10000066
102
{ACAD_XDICTIONARY
360
10000067
102
}
330
1F
100
AcDbEntity
  8
VISIBLE
100
AcDbCircle
 10
50.0
 20
-40.0
 30
0.0
 40
6.684507609859605
100
AcDbArc
 50
252.4596186495608
 51
257.5403813504392
  0
SPLINE
  5
10000069
102
{ACAD_XDICTIONARY
360
1000006A
102
}
330
1F
100
AcDbEntity
  8
VISIBLE
100
AcDbSpline
210
0.0
220
0.0
230
1.0
 70
     8
 71
     3
 72
    44
 73
    40
 74
     0
 42
0.000000001
 43
0.00000001
 40
0.0374573816692534
 40
0.0374573816692534
 40
0.0374573816692534
 40
0.0374573816692534
 40
0.1173270388283835
 40
0.1245633749097421
 40
0.1339054427745929
 40
0.1449591259385422
 40
0.157492824253456
 40
0.1713493489450592
 40
0.186412979324603
 40
0.2025939139161435
 40
0.2198198341683084
 40
0.2380308751317531
 40
0.2571764150177153
 40
0.2772129162632477
 40
0.2981024128312286
 40
0.3198114144576313
 40
0.3423100907832787
 40
0.3655716496568647
 40
0.3895718539492967
 40
0.4142886395604836
 40
0.4397018088992017
 40
0.4657927816818093
 40
0.4925443899635603
 40
0.5199407077925865
 40
0.5479669083115218
 40
0.5766091428695075
 40
0.6058544379685353
 40
0.6356906067974987
 40
0.6661061728017248
 40
0.6970903032611986
 40
0.7286327512528589
 40
0.7607238046834918
 40
0.7933542413228106
 40
0.8265152889579642
 40
0.860198589943057
 40
0.8943961695393764
 40
0.9291004075405692
 40
0.9643040127571182
 40
0.9924917445823672
 40
0.9924917445823672
 40
0.9924917445823672
 40
0.9924917445823672
 10
49.43124146693881
 20
-44.88275684093224
 30
0.0
 10
49.40211763038416
 20
-45.13351348690689
 30
0.0
 10
49.37733932507582
 20
-45.34619393108988
 30
0.0
 10
49.3763209123053
 20
-45.35172982519558
 30
0.0
 10
49.37533271020355
 20
-45.35783109691253
 30
0.0
 10
49.37397393876633
 20
-45.36495801710284
 30
0.0
 10
49.37198053165945
 20
-45.37453386014945
 30
0.0
 10
49.36932990022203
 20
-45.38604916241059
 30
0.0
 10
49.36591980746802
 20
-45.39963505715139
 30
0.0
 10
49.36167407339131
 20
-45.41521705453786
 30
0.0
 10
49.35650948828403
 20
-45.43278067254234
 30
0.0
 10
49.35034601551659
 20
-45.45229025615207
 30
0.0
 10
49.34310382519766
 20
-45.47371329004017
 30
0.0
 10
49.33470425565061
 20
-45.49701324025128
 30
0.0
 10
49.3250696166551
 20
-45.52215167067929
 30
0.0
 10
49.31412332888523
 20
-45.54908766227549
 30
0.0
 10
49.3017899651531
 20
-45.57777801483499
 30
0.0
 10
49.28799531880758
 20
-45.60817722694195
 30
0.0
 10
49.27266646337009
 20
-45.64023754155383
 30
0.0
 10
49.25573181361987
 20
-45.67390897512448
 30
0.0
 10
49.23712118519837
 20
-45.70913935344569
 30
0.0
 10
49.21676585352157
 20
-45.74587434758811
 30
0.0
 10
49.19459861173619
 20
-45.78405751175187
 30
0.0
 10
49.17055382775348
 20
-45.82363032247666
 30
0.0
 10
49.14456750029833
 20
-45.86453221932454
 30
0.0
 10
49.11657731398603
 20
-45.90670064697848
 30
0.0
 10
49.08652269323457
 20
-45.95007109869911
 30
0.0
 10
49.05434485558606
 20
-45.99457716127237
 30
0.0
 10
49.0199868620732
 20
-46.04015056079722
 30
0.0
 10
48.98339367355746
 20
-46.08672121168733
 30
0.0
 10
48.94451217862358
 20
-46.13421725964262
 30
0.0
 10
48.9032913248365
 20
-46.18256515390068
 30
0.0
 10
48.85968184831152
 20
-46.23168961337149
 30
0.0
 10
48.8136375344188
 20
-46.28151400471677
 30
0.0
 10
48.76511061808569
 20
-46.33195915108724
 30
0.0
 10
48.71406956820107
 20
-46.38294814229348
 30
0.0
 10
48.66043140546698
 20
-46.43438823755383
 30
0.0
 10
48.60830951780094
 20
-46.48255358740977
 30
0.0
 10
48.57338760812875
 20
-46.51338083704789
 30
0.0
 10
48.55780759681142
 20
-46.52707614927061
 30
0.0
  0
ARC
  5
1000006C
102
{ACAD_XDICTIONARY
360
1000006D
102
}
330
1F
100
AcDbEntity
  8
VISIBLE
100
AcDbCircle
 10
49.82421630148295
 20
-44.92839844220214
 30
0.0
 40
0.3956164510627324
100
AcDbArc
 50
87.95726817810431
 51
173.3751309599838
  0
ARC
  5
1000006F
102
{ACAD_XDICTIONARY
360
10000070
102
}
330
1F
100
AcDbEntity
  8
VISIBLE
100
AcDbCircle
 10
50.0
 20
-40.0
 30
0.0
 40
4.535915878119019
100
AcDbArc
 50
267.9572681781035
 51
272.0427318218965
  0
ARC
  5
10000072
102
{ACAD_XDICTIONARY
360
10000073
102
}
330
1F
100
AcDbEntity
  8
VISIBLE
100
AcDbCircle
 10
50.17578369851706
 20
-44.92839844220214
 30
0.0
 40
0.3956164510627324
100
AcDbArc
 50
6.624869040016198
 51
92.04273182189677
  0
SPLINE
  5
10000075
102
{ACAD_XDICTIONARY
360
10000076
102
}
330
1F
100
AcDbEntity
  8
VISIBLE
100
AcDbSpline
210
0.0
220
0.0
230
1.0
 70
     8
 71
     3
 72
    44
 73
    40
 74
     0
 42
0.000000001
 43
0.00000001
 40
0.0374573816692522
 40
0.0374573816692522
 40
0.0374573816692522
 40
0.0374573816692522
 40
0.1173270388283835
 40
0.1245633749097421
 40
0.1339054427745929
 40
0.1449591259385422
 40
0.157492824253456
 40
0.1713493489450592
 40
0.186412979324603
 40
0.2025939139161435
 40
0.2198198341683084
 40
0.2380308751317531
 40
0.2571764150177153
 40
0.2772129162632477
 40
0.2981024128312286
 40
0.3198114144576313
 40
0.3423100907832787
 40
0.3655716496568647
 40
0.3895718539492967
 40
0.4142886395604836
 40
0.4397018088992017
 40
0.4657927816818093
 40
0.4925443899635603
 40
0.5199407077925865
 40
0.5479669083115218
 40
0.5766091428695075
 40
0.6058544379685353
 40
0.6356906067974987
 40
0.6661061728017248
 40
0.6970903032611986
 40
0.7286327512528589
 40
0.7607238046834918
 40
0.7933542413228106
 40
0.8265152889579642
 40
0.860198589943057
 40
0.8943961695393764
 40
0.9291004075405692
 40
0.9643040127571182
 40
0.9924917445823767
 40
0.9924917445823767
 40
0.9924917445823767
 40
0.9924917445823767
 10
50.56875853306119
 20
-44.88275684093223
 30
0.0
 10
50.59788236961583
 20
-45.13351348690688
 30
0.0
 10
50.62266067492418
 20
-45.34619393108988
 30
0.0
 10
50.62367908769471
 20
-45.35172982519558
 30
0.0
 10
50.62466728979646
 20
-45.35783109691253
 30
0.0
 10
50.62602606123368
 20
-45.36495801710284
 30
0.0
 10
50.62801946834055
 20
-45.37453386014945
 30
0.0
 10
50.63067009977797
 20
-45.38604916241059
 30
0.0
 10
50.63408019253199
 20
-45.39963505715139
 30
0.0
 10
50.6383259266087
 20
-45.41521705453786
 30
0.0
 10
50.64349051171597
 20
-45.43278067254234
 30
0.0
 10
50.64965398448341
 20
-45.45229025615207
 30
0.0
 10
50.65689617480235
 20
-45.47371329004017
 30
0.0
 10
50.6652957443494
 20
-45.49701324025128
 30
0.0
 10
50.67493038334491
 20
-45.52215167067929
 30
0.0
 10
50.68587667111477
 20
-45.54908766227549
 30
0.0
 10
50.6982100348469
 20
-45.57777801483499
 30
0.0
 10
50.71200468119243
 20
-45.60817722694195
 30
0.0
 10
50.72733353662991
 20
-45.64023754155383
 30
0.0
 10
50.74426818638012
 20
-45.67390897512448
 30
0.0
 10
50.76287881480164
 20
-45.70913935344569
 30
0.0
 10
50.78323414647844
 20
-45.74587434758811
 30
0.0
 10
50.80540138826382
 20
-45.78405751175187
 30
0.0
 10
50.82944617224652
 20
-45.82363032247666
 30
0.0
 10
50.85543249970168
 20
-45.86453221932454
 30
0.0
 10
50.88342268601398
 20
-45.90670064697848
 30
0.0
 10
50.91347730676544
 20
-45.95007109869911
 30
0.0
 10
50.94565514441394
 20
-45.99457716127237
 30
0.0
 10
50.98001313792679
 20
-46.04015056079722
 30
0.0
 10
51.01660632644255
 20
-46.08672121168733
 30
0.0
 10
51.05548782137642
 20
-46.13421725964262
 30
0.0
 10
51.09670867516351
 20
-46.18256515390068
 30
0.0
 10
51.14031815168848
 20
-46.23168961337149
 30
0.0
 10
51.1863624655812
 20
-46.28151400471677
 30
0.0
 10
51.23488938191432
 20
-46.33195915108724
 30
0.0
 10
51.28593043179894
 20
-46.38294814229348
 30
0.0
 10
51.33956859453302
 20
-46.43438823755383
 30
0.0
 10
51.39169048219907
 20
-46.48255358740977
 30
0.0
 10
51.42661239187126
 20
-46.51338083704789
 30
0.0
 10
51.44219240318861
 20
-46.52707614927063
 30
0.0
  0
ARC
  5
10000078
102
{ACAD_XDICTIONARY
360
10000079
102
}
330
1F
100
AcDbEntity
  8
VISIBLE
100
AcDbCircle
 10
50.0
 20
-40.0
 30
0.0
 40
6.684507609859605
100
AcDbArc
 50
282.4596186495609
 51
287.5403813504392
  0
SPLINE
  5
1000007B
102
{ACAD_XDICTIONARY
360
1000007C
102
}
330
1F
100
AcDbEntity
  8
VISIBLE
100
AcDbSpline
210
0.0
220
0.0
230
1.0
 70
     8
 71
     3
 72
    44
 73
    40
 74
     0
 42
0.000000001
 43
0.00000001
 40
0.0374573816692519
 40
0.0374573816692519
 40
0.0374573816692519
 40
0.0374573816692519
 40
0.1173270388283835
 40
0.1245633749097421
 40
0.1339054427745929
 40
0.1449591259385422
 40
0.157492824253456
 40
0.1713493489450592
 40
0.186412979324603
 40
0.2025939139161435
 40
0.2198198341683084
 40
0.2380308751317531
 40
0.2571764150177153
 40
0.2772129162632477
 40
0.2981024128312286
 40
0.3198114144576313
 40
0.3423100907832787
 40
0.3655716496568647
 40
0.3895718539492967
 40
0.4142886395604836
 40
0.4397018088992017
 40
0.4657927816818093
 40
0.4925443899635603
 40
0.5199407077925865
 40
0.5479669083115218
 40
0.5766091428695075
 40
0.6058544379685353
 40
0.6356906067974987
 40
0.6661061728017248
 40
0.6970903032611986
 40
0.7286327512528589
 40
0.7607238046834918
 40
0.7933542413228106
 40
0.8265152889579642
 40
0.860198589943057
 40
0.8943961695393764
 40
0.9291004075405692
 40
0.9643040127571182
 40
0.9924917445823711
 40
0.9924917445823711
 40
0.9924917445823711
 40
0.9924917445823711
 10
51.94881908221596
 20
-44.51297073128016
 30
0.0
 10
52.0489754228913
 20
-44.74469427513932
 30
0.0
 10
52.13385700312303
 20
-44.94127009534412
 30
0.0
 10
52.13574297884507
 20
-44.94657352665758
 30
0.0
 10
52.13793780657937
 20
-44.95235148401073
 30
0.0
 10
52.14032453609195
 20
-44.95920296366489
 30
0.0
 10
52.14338611642061
 20
-44.96849259055934
 30
0.0
 10
52.1468482533903
 20
-44.97979045056845
 30
0.0
 10
52.15068797380648
 20
-44.99326122692414
 30
0.0
 10
52.15480205893156
 20
-45.00887849954087
 30
0.0
 10
52.15911120603089
 20
-45.02667133146875
 30
0.0
 10
52.16352827384362
 20
-45.04664886287576
 30
0.0
 10
52.16796786999244
 20
-45.06882284960846
 30
0.0
 10
52.17234360448939
 20
-45.09320098317173
 30
0.0
 10
52.176568977577
 20
-45.1197888220314
 30
0.0
 10
52.18055721008925
 20
-45.14858921891476
 30
0.0
 10
52.18422138006286
 20
-45.17960247494089
 30
0.0
 10
52.1874744719449
 20
-45.21282628805331
 30
0.0
 10
52.19022945103104
 20
-45.24825576267926
 30
0.0
 10
52.19239933092849
 20
-45.28588340440839
 30
0.0
 10
52.19389724309566
 20
-45.32569912123025
 30
0.0
 10
52.1946365058323
 20
-45.36769022520386
 30
0.0
 10
52.19453069339622
 20
-45.41184143625923
 30
0.0
 10
52.19349370500109
 20
-45.45813488763741
 30
0.0
 10
52.19143983369781
 20
-45.50655013309823
 30
0.0
 10
52.18828383512165
 20
-45.55706415584034
 30
0.0
 10
52.1839409959101
 20
-45.60965137917973
 30
0.0
 10
52.17832720235427
 20
-45.66428367881484
 30
0.0
 10
52.17135900691151
 20
-45.72093039729661
 30
0.0
 10
52.16295370149645
 20
-45.7795583582961
 30
0.0
 10
52.15302936312424
 20
-45.84013188987169
 30
0.0
 10
52.14150500370798
 20
-45.90261282141219
 30
0.0
 10
52.12830031892701
 20
-45.96696058952358
 30
0.0
 10
52.11333696906873
 20
-46.03313193510305
 30
0.0
 10
52.09653399994217
 20
-46.10108217152406
 30
0.0
 10
52.07782564970937
 20
-46.1707604581643
 30
0.0
 10
52.05709368579951
 20
-46.2421279687999
 30
0.0
 10
52.03603748191548
 20
-46.30990132919033
 30
0.0
 10
52.02120784580976
 20
-46.35405946534184
 30
0.0
 10
52.01456281632907
 20
-46.37370995929815
 30
0.0
  0
ARC
  5
1000007E
102
{ACAD_XDICTIONARY
360
1000007F
102
}
330
1F
100
AcDbEntity
  8
VISIBLE
100
AcDbCircle
 10
52.31196607261412
 20
-44.35601010017724
 30
0.0
 40
0.3956164510627324
100
AcDbArc
 50
117.9572681781039
 51
203.3751309599832
  0
ARC
  5
10000081
102
{ACAD_XDICTIONARY
360
10000082
102
}
330
1F
100
AcDbEntity
  8
VISIBLE
100
AcDbCircle
 10
50.0
 20
-40.0
 30
0.0
 40
4.535915878119019
100
AcDbArc
 50
297.9572681781036
 51
302.0427318218964
  0
ARC
  5
10000084
102
{ACAD_XDICTIONARY
360
10000085
102
}
330
1F
100
AcDbEntity
  8
VISIBLE
100
AcDbCircle
 10
52.61643236958803
 20
-44.18022640166017
 30
0.0
 40
0.3956164510627324
100
AcDbArc
 50
36.62486904001636
 51
122.0427318218973
  0
SPLINE
  5
10000087
102
{ACAD_XDICTIONARY
360
10000088
102
}
330
1F
100
AcDbEntity
  8
VISIBLE
100
AcDbSpline
210
0.0
220
0.0
230
1.0
 70
     8
 71
     3
 72
    44
 73
    40
 74
     0
 42
0.000000001
 43
0.00000001
 40
0.0374573816692545
 40
0.0374573816692545
 40
0.0374573816692545
 40
0.0374573816692545
 40
0.1173270388283835
 40
0.1245633749097421
 40
0.1339054427745929
 40
0.1449591259385422
 40
0.157492824253456
 40
0.1713493489450592
 40
0.186412979324603
 40
0.2025939139161435
 40
0.2198198341683084
 40
0.2380308751317531
 40
0.2571764150177153
 40
0.2772129162632477
 40
0.2981024128312286
 40
0.3198114144576313
 40
0.3423100907832787
 40
0.3655716496568647
 40
0.3895718539492967
 40
0.4142886395604836
 40
0.4397018088992017
 40
0.4657927816818093
 40
0.4925443899635603
 40
0.5199407077925865
 40
0.5479669083115218
 40
0.5766091428695075
 40
0.6058544379685353
 40
0.6356906067974987
 40
0.6661061728017248
 40
0.6970903032611986
 40
0.7286327512528589
 40
0.7607238046834918
 40
0.7933542413228106
 40
0.8265152889579642
 40
0.860198589943057
 40
0.8943961695393764
 40
0.9291004075405692
 40
0.9643040127571182
 40
0.9924917445823681
 40
0.9924917445823681
 40
0.9924917445823681
 40
0.9924917445823681
 10
52.93393775871628
 20
-43.94421219821898
 30
0.0
 10
53.0845380640156
 20
-44.14681190552349
 30
0.0
 10
53.21233692796685
 20
-44.31860942041993
 30
0.0
 10
53.21598684635052
 20
-44.32289443896288
 30
0.0
 10
53.21989329033317
 20
-44.32768419421428
 30
0.0
 10
53.2246334810109
 20
-44.33317690243121
 30
0.0
 10
53.23114774372884
 20
-44.34047312221878
 30
0.0
 10
53.23920090902029
 20
-44.34912035079048
 30
0.0
 10
53.24894708334493
 20
-44.35918103439215
 30
0.0
 10
53.2604149956063
 20
-44.37055257293218
 30
0.0
 10
53.27366946651145
 20
-44.38318081975278
 30
0.0
 10
53.28876198230844
 20
-44.39699487839236
 30
0.0
 10
53.30574542004774
 20
-44.41192667480612
 30
0.0
 10
53.32466963576191
 20
-44.42790523882233
 30
0.0
 10
53.3455826931023
 20
-44.4448584386865
 30
0.0
 10
53.36853045218624
 20
-44.4627125478
 30
0.0
 10
53.39355663477213
 20
-44.48139244009398
 30
0.0
 10
53.42070275499706
 20
-44.50082160686089
 30
0.0
 10
53.4500080905228
 20
-44.52092222604935
 30
0.0
 10
53.481509644196
 20
-44.54161521802826
 30
0.0
 10
53.51524211035003
 20
-44.56282030642861
 30
0.0
 10
53.55123784175581
 20
-44.58445607872542
 30
0.0
 10
53.58952681835565
 20
-44.60644004799542
 30
0.0
 10
53.63013661747559
 20
-44.62868871539089
 30
0.0
 10
53.67309238562675
 20
-44.65111763339655
 30
0.0
 10
53.71841681185683
 20
-44.67364146982636
 30
0.0
 10
53.76613010278901
 20
-44.69617407241429
 30
0.0
 10
53.81624995891809
 20
-44.7186285344009
 30
0.0
 10
53.86879155388571
 20
-44.74091725936982
 30
0.0
 10
53.92376751019088
 20
-44.76295203185356
 30
0.0
 10
53.98118789651839
 20
-44.78464406849526
 30
0.0
 10
54.04106015019271
 20
-44.80590414624869
 30
0.0
 10
54.10338929444449
 20
-44.8266424378351
 30
0.0
 10
54.16817703564805
 20
-44.84676946952185
 30
0.0
 10
54.23542515114509
 20
-44.86619278960975
 30
0.0
 10
54.30512249258411
 20
-44.88483002636537
 30
0.0
 10
54.37729455175433
 20
-44.90255937426689
 30
0.0
 10
54.44651610549429
 20
-44.91821084699128
 30
0.0
 10
54.49217299123814
 20
-44.9274470734706
 30
0.0
 10
54.51251333294155
 20
-44.93151755610957
 30
0.0
  0
ARC
  5
1000008A
102
{ACAD_XDICTIONARY
360
1000008B
102
}
330
1F
100
AcDbEntity
  8
VISIBLE
100
AcDbCircle
 10
50.0
 20
-40.0
 30
0.0
 40
6.684507609859605
100
AcDbArc
 50
312.4596186495609
 51
317.5403813504391
  0
SPLINE
  5
1000008D
102
{ACAD_XDICTIONARY
360
1000008E
102
}
330
1F
100
AcDbEntity
  8
VISIBLE
100
AcDbSpline
210
0.0
220
0.0
230
1.0
 70
     8
 71
     3
 72
    44
 73
    40
 74
     0
 42
0.000000001
 43
0.00000001
 40
0.037457381669252
 40
0.037457381669252
 40
0.037457381669252
 40
0.037457381669252
 40
0.1173270388283835
 40
0.1245633749097421
 40
0.1339054427745929
 40
0.1449591259385422
 40
0.157492824253456
 40
0.1713493489450592
 40
0.186412979324603
 40
0.2025939139161435
 40
0.2198198341683084
 40
0.2380308751317531
 40
0.2571764150177153
 40
0.2772129162632477
 40
0.2981024128312286
 40
0.3198114144576313
 40
0.3423100907832787
 40
0.3655716496568647
 40
0.3895718539492967
 40
0.4142886395604836
 40
0.4397018088992017
 40
0.4657927816818093
 40
0.4925443899635603
 40
0.5199407077925865
 40
0.5479669083115218
 40
0.5766091428695075
 40
0.6058544379685353
 40
0.6356906067974987
 40
0.6661061728017248
 40
0.6970903032611986
 40
0.7286327512528589
 40
0.7607238046834918
 40
0.7933542413228106
 40
0.8265152889579642
 40
0.860198589943057
 40
0.8943961695393764
 40
0.9291004075405692
 40
0.9643040127571182
 40
0.992491744582374
 40
0.992491744582374
 40
0.992491744582374
 40
0.992491744582374
 10
53.94421219821898
 20
-42.93393775871628
 30
0.0
 10
54.14681190552347
 20
-43.08453806401559
 30
0.0
 10
54.31860942041993
 20
-43.21233692796685
 30
0.0
 10
54.32289443896288
 20
-43.21598684635052
 30
0.0
 10
54.32768419421428
 20
-43.21989329033318
 30
0.0
 10
54.33317690243121
 20
-43.2246334810109
 30
0.0
 10
54.34047312221878
 20
-43.23114774372884
 30
0.0
 10
54.34912035079048
 20
-43.23920090902029
 30
0.0
 10
54.35918103439216
 20
-43.24894708334493
 30
0.0
 10
54.37055257293218
 20
-43.2604149956063
 30
0.0
 10
54.38318081975278
 20
-43.27366946651145
 30
0.0
 10
54.39699487839235
 20
-43.28876198230845
 30
0.0
 10
54.41192667480612
 20
-43.30574542004775
 30
0.0
 10
54.42790523882233
 20
-43.32466963576191
 30
0.0
 10
54.4448584386865
 20
-43.3455826931023
 30
0.0
 10
54.4627125478
 20
-43.36853045218624
 30
0.0
 10
54.48139244009398
 20
-43.39355663477214
 30
0.0
 10
54.50082160686089
 20
-43.42070275499706
 30
0.0
 10
54.52092222604935
 20
-43.45000809052279
 30
0.0
 10
54.54161521802826
 20
-43.481509644196
 30
0.0
 10
54.56282030642861
 20
-43.51524211035003
 30
0.0
 10
54.58445607872542
 20
-43.55123784175581
 30
0.0
 10
54.60644004799542
 20
-43.58952681835565
 30
0.0
 10
54.62868871539089
 20
-43.63013661747559
 30
0.0
 10
54.65111763339656
 20
-43.67309238562675
 30
0.0
 10
54.67364146982635
 20
-43.71841681185683
 30
0.0
 10
54.69617407241429
 20
-43.76613010278901
 30
0.0
 10
54.71862853440091
 20
-43.8162499589181
 30
0.0
 10
54.74091725936982
 20
-43.86879155388572
 30
0.0
 10
54.76295203185356
 20
-43.92376751019088
 30
0.0
 10
54.78464406849526
 20
-43.98118789651839
 30
0.0
 10
54.80590414624869
 20
-44.04106015019272
 30
0.0
 10
54.8266424378351
 20
-44.10338929444449
 30
0.0
 10
54.84676946952185
 20
-44.16817703564805
 30
0.0
 10
54.86619278960974
 20
-44.23542515114509
 30
0.0
 10
54.88483002636537
 20
-44.30512249258411
 30
0.0
 10
54.90255937426689
 20
-44.37729455175432
 30
0.0
 10
54.91821084699127
 20
-44.44651610549428
 30
0.0
 10
54.9274470734706
 20
-44.49217299123814
 30
0.0
 10
54.93151755610958
 20
-44.51251333294157
 30
0.0
  0
ARC
  5
10000090
102
{ACAD_XDICTIONARY
360
10000091
102
}
330
1F
100
AcDbEntity
  8
VISIBLE
100
AcDbCircle
 10
54.18022640166018
 20
-42.61643236958803
 30
0.0
 40
0.3956164510627324
100
AcDbArc
 50
147.9572681781038
 51
233.3751309599836
  0
ARC
  5
10000093
102
{ACAD_XDICTIONARY
360
10000094
102
}
330
1F
100
AcDbEntity
  8
VISIBLE
100
AcDbCircle
 10
50.0
 20
-40.0
 30
0.0
 40
4.535915878119019
100
AcDbArc
 50
327.9572681781034
 51
332.0427318218964
  0
ARC
  5
10000096
102
{ACAD_XDICTIONARY
360
10000097
102
}
330
1F
100
AcDbEntity
  8
VISIBLE
100
AcDbCircle
 10
54.35601010017723
 20
-42.31196607261411
 30
0.0
 40
0.3956164510627324
100
AcDbArc
 50
66.62486904001547
 51
152.042731821897
  0
SPLINE
  5
10000099
102
{ACAD_XDICTIONARY
360
1000009A
102
}
330
1F
100
AcDbEntity
  8
VISIBLE
100
AcDbSpline
210
0.0
220
0.0
230
1.0
 70
     8
 71
     3
 72
    44
 73
    40
 74
     0
 42
0.000000001
 43
0.00000001
 40
0.0374573816692533
 40
0.0374573816692533
 40
0.0374573816692533
 40
0.0374573816692533
 40
0.1173270388283835
 40
0.1245633749097421
 40
0.1339054427745929
 40
0.1449591259385422
 40
0.157492824253456
 40
0.1713493489450592
 40
0.186412979324603
 40
0.2025939139161435
 40
0.2198198341683084
 40
0.2380308751317531
 40
0.2571764150177153
 40
0.2772129162632477
 40
0.2981024128312286
 40
0.3198114144576313
 40
0.3423100907832787
 40
0.3655716496568647
 40
0.3895718539492967
 40
0.4142886395604836
 40
0.4397018088992017
 40
0.4657927816818093
 40
0.4925443899635603
 40
0.5199407077925865
 40
0.5479669083115218
 40
0.5766091428695075
 40
0.6058544379685353
 40
0.6356906067974987
 40
0.6661061728017248
 40
0.6970903032611986
 40
0.7286327512528589
 40
0.7607238046834918
 40
0.7933542413228106
 40
0.8265152889579642
 40
0.860198589943057
 40
0.8943961695393764
 40
0.9291004075405692
 40
0.9643040127571182
 40
0.992491744582372
 40
0.992491744582372
 40
0.992491744582372
 40
0.992491744582372
 10
54.51297073128018
 20
-41.94881908221596
 30
0.0
 10
54.74469427513932
 20
-42.0489754228913
 30
0.0
 10
54.94127009534412
 20
-42.13385700312303
 30
0.0
 10
54.94657352665759
 20
-42.13574297884507
 30
0.0
 10
54.95235148401073
 20
-42.13793780657937
 30
0.0
 10
54.95920296366489
 20
-42.14032453609195
 30
0.0
 10
54.96849259055934
 20
-42.14338611642061
 30
0.0
 10
54.97979045056845
 20
-42.14684825339031
 30
0.0
 10
54.99326122692414
 20
-42.15068797380647
 30
0.0
 10
55.00887849954087
 20
-42.15480205893156
 30
0.0
 10
55.02667133146875
 20
-42.15911120603089
 30
0.0
 10
55.04664886287576
 20
-42.16352827384362
 30
0.0
 10
55.06882284960847
 20
-42.16796786999243
 30
0.0
 10
55.09320098317173
 20
-42.17234360448939
 30
0.0
 10
55.1197888220314
 20
-42.176568977577
 30
0.0
 10
55.14858921891476
 20
-42.18055721008925
 30
0.0
 10
55.17960247494089
 20
-42.18422138006287
 30
0.0
 10
55.21282628805331
 20
-42.1874744719449
 30
0.0
 10
55.24825576267926
 20
-42.19022945103104
 30
0.0
 10
55.28588340440839
 20
-42.19239933092848
 30
0.0
 10
55.32569912123025
 20
-42.19389724309566
 30
0.0
 10
55.36769022520386
 20
-42.19463650583231
 30
0.0
 10
55.41184143625923
 20
-42.19453069339622
 30
0.0
 10
55.45813488763741
 20
-42.19349370500108
 30
0.0
 10
55.50655013309823
 20
-42.1914398336978
 30
0.0
 10
55.55706415584034
 20
-42.18828383512166
 30
0.0
 10
55.60965137917973
 20
-42.18394099591009
 30
0.0
 10
55.66428367881484
 20
-42.17832720235428
 30
0.0
 10
55.72093039729661
 20
-42.1713590069115
 30
0.0
 10
55.7795583582961
 20
-42.16295370149646
 30
0.0
 10
55.84013188987169
 20
-42.15302936312424
 30
0.0
 10
55.90261282141219
 20
-42.14150500370798
 30
0.0
 10
55.96696058952358
 20
-42.12830031892701
 30
0.0
 10
56.03313193510305
 20
-42.11333696906873
 30
0.0
 10
56.10108217152406
 20
-42.09653399994216
 30
0.0
 10
56.1707604581643
 20
-42.07782564970937
 30
0.0
 10
56.24212796879991
 20
-42.0570936857995
 30
0.0
 10
56.30990132919034
 20
-42.03603748191549
 30
0.0
 10
56.35405946534185
 20
-42.02120784580976
 30
0.0
 10
56.37370995929815
 20
-42.01456281632907
 30
0.0
  0
ARC
  5
1000009C
102
{ACAD_XDICTIONARY
360
1000009D
102
}
330
1F
100
AcDbEntity
  8
VISIBLE
100
AcDbCircle
 10
50.0
 20
-40.0
 30
0.0
 40
6.684507609859605
100
AcDbArc
 50
342.4596186495608
 51
347.5403813504392
  0
SPLINE
  5
1000009F
102
{ACAD_XDICTIONARY
360
100000A0
102
}
330
1F
100
AcDbEntity
  8
VISIBLE
100
AcDbSpline
210
0.0
220
0.0
230
1.0
 70
     8
 71
     3
 72
    44
 73
    40
 74
     0
 42
0.000000001
 43
0.00000001
 40
0.0374573816692521
 40
0.0374573816692521
 40
0.0374573816692521
 40
0.0374573816692521
 40
0.1173270388283835
 40
0.1245633749097421
 40
0.1339054427745929
 40
0.1449591259385422
 40
0.157492824253456
 40
0.1713493489450592
 40
0.186412979324603
 40
0.2025939139161435
 40
0.2198198341683084
 40
0.2380308751317531
 40
0.2571764150177153
 40
0.2772129162632477
 40
0.2981024128312286
 40
0.3198114144576313
 40
0.3423100907832787
 40
0.3655716496568647
 40
0.3895718539492967
 40
0.4142886395604836
 40
0.4397018088992017
 40
0.4657927816818093
 40
0.4925443899635603
 40
0.5199407077925865
 40
0.5479669083115218
 40
0.5766091428695075
 40
0.6058544379685353
 40
0.6356906067974987
 40
0.6661061728017248
 40
0.6970903032611986
 40
0.7286327512528589
 40
0.7607238046834918
 40
0.7933542413228106
 40
0.8265152889579642
 40
0.860198589943057
 40
0.8943961695393764
 40
0.9291004075405692
 40
0.9643040127571182
 40
0.9924917445823697
 40
0.9924917445823697
 40
0.9924917445823697
 40
0.9924917445823697
 10
54.88275684093223
 20
-40.56875853306119
 30
0.0
 10
55.13351348690689
 20
-40.59788236961583
 30
0.0
 10
55.34619393108987
 20
-40.62266067492418
 30
0.0
 10
55.35172982519558
 20
-40.62367908769471
 30
0.0
 10
55.35783109691253
 20
-40.62466728979646
 30
0.0
 10
55.36495801710284
 20
-40.62602606123368
 30
0.0
 10
55.37453386014945
 20
-40.62801946834055
 30
0.0
 10
55.38604916241059
 20
-40.63067009977797
 30
0.0
 10
55.3996350571514
 20
-40.63408019253199
 30
0.0
 10
55.41521705453786
 20
-40.63832592660869
 30
0.0
 10
55.43278067254234
 20
-40.64349051171597
 30
0.0
 10
55.45229025615208
 20
-40.64965398448341
 30
0.0
 10
55.47371329004017
 20
-40.65689617480234
 30
0.0
 10
55.49701324025129
 20
-40.6652957443494
 30
0.0
 10
55.52215167067929
 20
-40.6749303833449
 30
0.0
 10
55.54908766227549
 20
-40.68587667111477
 30
0.0
 10
55.577778014835
 20
-40.6982100348469
 30
0.0
 10
55.60817722694196
 20
-40.71200468119243
 30
0.0
 10
55.64023754155383
 20
-40.72733353662991
 30
0.0
 10
55.67390897512448
 20
-40.74426818638012
 30
0.0
 10
55.70913935344569
 20
-40.76287881480164
 30
0.0
 10
55.74587434758811
 20
-40.78323414647844
 30
0.0
 10
55.78405751175187
 20
-40.80540138826382
 30
0.0
 10
55.82363032247666
 20
-40.82944617224652
 30
0.0
 10
55.86453221932454
 20
-40.85543249970167
 30
0.0
 10
55.90670064697849
 20
-40.88342268601398
 30
0.0
 10
55.95007109869911
 20
-40.91347730676544
 30
0.0
 10
55.99457716127236
 20
-40.94565514441393
 30
0.0
 10
56.04015056079722
 20
-40.98001313792679
 30
0.0
 10
56.08672121168733
 20
-41.01660632644254
 30
0.0
 10
56.13421725964262
 20
-41.05548782137642
 30
0.0
 10
56.18256515390069
 20
-41.09670867516351
 30
0.0
 10
56.23168961337149
 20
-41.14031815168848
 30
0.0
 10
56.28151400471678
 20
-41.1863624655812
 30
0.0
 10
56.33195915108724
 20
-41.23488938191431
 30
0.0
 10
56.38294814229347
 20
-41.28593043179894
 30
0.0
 10
56.43438823755383
 20
-41.33956859453302
 30
0.0
 10
56.48255358740977
 20
-41.39169048219907
 30
0.0
 10
56.5133808370479
 20
-41.42661239187125
 30
0.0
 10
56.52707614927062
 20
-41.44219240318859
 30
0.0
  0
ARC
  5
100000A2
102
{ACAD_XDICTIONARY
360
100000A3
102
}
330
1F
100
AcDbEntity
  8
VISIBLE
100
AcDbCircle
 10
54.92839844220214
 20
-40.17578369851706
 30
0.0
 40
0.3956164510627324
100
AcDbArc
 50
177.9572681781033
 51
263.3751309599837
  0
ARC
  5
100000A5
102
{ACAD_XDICTIONARY
360
100000A6
102
}
330
1F
100
AcDbEntity
  8
VISIBLE
100
AcDbCircle
 10
50.0
 20
-40.0
 30
0.0
 40
4.535915878119019
100
AcDbArc
 50
357.9572681781035
 51
2.042731821896458
  0
ARC
  5
100000A8
102
{ACAD_XDICTIONARY
360
100000A9
102
}
330
1F
100
AcDbEntity
  8
VISIBLE
100
AcDbCircle
 10
54.92839844220214
 20
-39.82421630148295
 30
0.0
 40
0.3956164510627324
100
AcDbArc
 50
96.6248690400162
 51
182.0427318218957
  0
SPLINE
  5
100000AB
102
{ACAD_XDICTIONARY
360
100000AC
102
}
330
1F
100
AcDbEntity
  8
VISIBLE
100
AcDbSpline
210
0.0
220
0.0
230
1.0
 70
     8
 71
     3
 72
    44
 73
    40
 74
     0
 42
0.000000001
 43
0.00000001
 40
0.0374573816692522
 40
0.0374573816692522
 40
0.0374573816692522
 40
0.0374573816692522
 40
0.1173270388283835
 40
0.1245633749097421
 40
0.1339054427745929
 40
0.1449591259385422
 40
0.157492824253456
 40
0.1713493489450592
 40
0.186412979324603
 40
0.2025939139161435
 40
0.2198198341683084
 40
0.2380308751317531
 40
0.2571764150177153
 40
0.2772129162632477
 40
0.2981024128312286
 40
0.3198114144576313
 40
0.3423100907832787
 40
0.3655716496568647
 40
0.3895718539492967
 40
0.4142886395604836
 40
0.4397018088992017
 40
0.4657927816818093
 40
0.4925443899635603
 40
0.5199407077925865
 40
0.5479669083115218
 40
0.5766091428695075
 40
0.6058544379685353
 40
0.6356906067974987
 40
0.6661061728017248
 40
0.6970903032611986
 40
0.7286327512528589
 40
0.7607238046834918
 40
0.7933542413228106
 40
0.8265152889579642
 40
0.860198589943057
 40
0.8943961695393764
 40
0.9291004075405692
 40
0.9643040127571182
 40
0.9924917445823697
 40
0.9924917445823697
 40
0.9924917445823697
 40
0.9924917445823697
 10
54.88275684093223
 20
-39.43124146693881
 30
0.0
 10
55.13351348690689
 20
-39.40211763038416
 30
0.0
 10
55.34619393108989
 20
-39.37733932507582
 30
0.0
 10
55.35172982519558
 20
-39.3763209123053
 30
0.0
 10
55.35783109691253
 20
-39.37533271020355
 30
0.0
 10
55.36495801710284
 20
-39.37397393876632
 30
0.0
 10
55.37453386014945
 20
-39.37198053165945
 30
0.0
 10
55.38604916241059
 20
-39.36932990022203
 30
0.0
 10
55.3996350571514
 20
-39.36591980746802
 30
0.0
 10
55.41521705453786
 20
-39.36167407339131
 30
0.0
 10
55.43278067254234
 20
-39.35650948828403
 30
0.0
 10
55.45229025615208
 20
-39.3503460155166
 30
0.0
 10
55.47371329004017
 20
-39.34310382519766
 30
0.0
 10
55.49701324025129
 20
-39.3347042556506
 30
0.0
 10
55.52215167067929
 20
-39.3250696166551
 30
0.0
 10
55.54908766227549
 20
-39.31412332888523
 30
0.0
 10
55.577778014835
 20
-39.3017899651531
 30
0.0
 10
55.60817722694196
 20
-39.28799531880757
 30
0.0
 10
55.64023754155383
 20
-39.27266646337009
 30
0.0
 10
55.67390897512448
 20
-39.25573181361988
 30
0.0
 10
55.70913935344569
 20
-39.23712118519836
 30
0.0
 10
55.74587434758811
 20
-39.21676585352156
 30
0.0
 10
55.78405751175187
 20
-39.19459861173619
 30
0.0
 10
55.82363032247666
 20
-39.17055382775348
 30
0.0
 10
55.86453221932454
 20
-39.14456750029833
 30
0.0
 10
55.90670064697849
 20
-39.11657731398603
 30
0.0
 10
55.95007109869911
 20
-39.08652269323456
 30
0.0
 10
55.99457716127236
 20
-39.05434485558607
 30
0.0
 10
56.04015056079722
 20
-39.01998686207321
 30
0.0
 10
56.08672121168733
 20
-38.98339367355746
 30
0.0
 10
56.13421725964262
 20
-38.94451217862358
 30
0.0
 10
56.18256515390069
 20
-38.90329132483649
 30
0.0
 10
56.23168961337149
 20
-38.85968184831152
 30
0.0
 10
56.28151400471678
 20
-38.8136375344188
 30
0.0
 10
56.33195915108724
 20
-38.76511061808569
 30
0.0
 10
56.38294814229347
 20
-38.71406956820107
 30
0.0
 10
56.43438823755383
 20
-38.66043140546698
 30
0.0
 10
56.48255358740977
 20
-38.60830951780094
 30
0.0
 10
56.5133808370479
 20
-38.57338760812875
 30
0.0
 10
56.52707614927062
 20
-38.55780759681141
 30
0.0
  0
ARC
  5
100000AE
102
{ACAD_XDICTIONARY
360
100000AF
102
}
330
1F
100
AcDbEntity
  8
VISIBLE
100
AcDbCircle
 10
50.0
 20
-40.0
 30
0.0
 40
6.684507609859605
100
AcDbArc
 50
12.45961864956082
 51
17.5403813504392
  0
SPLINE
  5
100000B1
102
{ACAD_XDICTIONARY
360
100000B2
102
}
330
1F
100
AcDbEntity
  8
VISIBLE
100
AcDbSpline
210
0.0
220
0.0
230
1.0
 70
     8
 71
     3
 72
    44
 73
    40
 74
     0
 42
0.000000001
 43
0.00000001
 40
0.0374573816692531
 40
0.0374573816692531
 40
0.0374573816692531
 40
0.0374573816692531
 40
0.1173270388283835
 40
0.1245633749097421
 40
0.1339054427745929
 40
0.1449591259385422
 40
0.157492824253456
 40
0.1713493489450592
 40
0.186412979324603
 40
0.2025939139161435
 40
0.2198198341683084
 40
0.2380308751317531
 40
0.2571764150177153
 40
0.2772129162632477
 40
0.2981024128312286
 40
0.3198114144576313
 40
0.3423100907832787
 40
0.3655716496568647
 40
0.3895718539492967
 40
0.4142886395604836
 40
0.4397018088992017
 40
0.4657927816818093
 40
0.4925443899635603
 40
0.5199407077925865
 40
0.5479669083115218
 40
0.5766091428695075
 40
0.6058544379685353
 40
0.6356906067974987
 40
0.6661061728017248
 40
0.6970903032611986
 40
0.7286327512528589
 40
0.7607238046834918
 40
0.7933542413228106
 40
0.8265152889579642
 40
0.860198589943057
 40
0.8943961695393764
 40
0.9291004075405692
 40
0.9643040127571182
 40
0.9924917445823721
 40
0.9924917445823721
 40
0.9924917445823721
 40
0.9924917445823721
 10
54.51297073128016
 20
-38.05118091778404
 30
0.0
 10
54.74469427513931
 20
-37.95102457710871
 30
0.0
 10
54.94127009534412
 20
-37.86614299687697
 30
0.0
 10
54.94657352665759
 20
-37.86425702115493
 30
0.0
 10
54.95235148401073
 20
-37.86206219342063
 30
0.0
 10
54.95920296366489
 20
-37.85967546390806
 30
0.0
 10
54.96849259055934
 20
-37.85661388357939
 30
0.0
 10
54.97979045056846
 20
-37.8531517466097
 30
0.0
 10
54.99326122692415
 20
-37.84931202619353
 30
0.0
 10
55.00887849954087
 20
-37.84519794106844
 30
0.0
 10
55.02667133146875
 20
-37.84088879396911
 30
0.0
 10
55.04664886287576
 20
-37.83647172615638
 30
0.0
 10
55.06882284960847
 20
-37.83203213000757
 30
0.0
 10
55.09320098317173
 20
-37.82765639551061
 30
0.0
 10
55.1197888220314
 20
-37.82343102242302
 30
0.0
 10
55.14858921891476
 20
-37.81944278991075
 30
0.0
 10
55.17960247494089
 20
-37.81577861993714
 30
0.0
 10
55.21282628805331
 20
-37.8125255280551
 30
0.0
 10
55.24825576267926
 20
-37.80977054896897
 30
0.0
 10
55.28588340440839
 20
-37.80760066907152
 30
0.0
 10
55.32569912123025
 20
-37.80610275690434
 30
0.0
 10
55.36769022520386
 20
-37.8053634941677
 30
0.0
 10
55.41184143625923
 20
-37.80546930660378
 30
0.0
 10
55.45813488763741
 20
-37.80650629499892
 30
0.0
 10
55.50655013309823
 20
-37.8085601663022
 30
0.0
 10
55.55706415584034
 20
-37.81171616487835
 30
0.0
 10
55.60965137917973
 20
-37.81605900408991
 30
0.0
 10
55.66428367881485
 20
-37.82167279764573
 30
0.0
 10
55.72093039729661
 20
-37.8286409930885
 30
0.0
 10
55.7795583582961
 20
-37.83704629850355
 30
0.0
 10
55.84013188987169
 20
-37.84697063687577
 30
0.0
 10
55.90261282141219
 20
-37.85849499629203
 30
0.0
 10
55.96696058952358
 20
-37.871699681073
 30
0.0
 10
56.03313193510305
 20
-37.88666303093128
 30
0.0
 10
56.10108217152406
 20
-37.90346600005784
 30
0.0
 10
56.1707604581643
 20
-37.92217435029063
 30
0.0
 10
56.24212796879991
 20
-37.9429063142005
 30
0.0
 10
56.30990132919034
 20
-37.96396251808452
 30
0.0
 10
56.35405946534186
 20
-37.97879215419024
 30
0.0
 10
56.37370995929817
 20
-37.98543718367094
 30
0.0
  0
ARC
  5
100000B4
102
{ACAD_XDICTIONARY
360
100000B5
102
}
330
1F
100
AcDbEntity
  8
VISIBLE
100
AcDbCircle
 10
54.35601010017724
 20
-37.68803392738589
 30
0.0
 40
0.3956164510627324
100
AcDbArc
 50
207.9572681781039
 51
293.3751309599836
  0
ARC
  5
100000B7
102
{ACAD_XDICTIONARY
360
100000B8
102
}
330
1F
100
AcDbEntity
  8
VISIBLE
100
AcDbCircle
 10
50.0
 20
-40.0
 30
0.0
 40
4.535915878119019
100
AcDbArc
 50
27.95726817810346
 51
32.04273182189642
  0
ARC
  5
100000BA
102
{ACAD_XDICTIONARY
360
100000BB
102
}
330
1F
100
AcDbEntity
  8
VISIBLE
100
AcDbCircle
 10
54.18022640166018
 20
-37.38356763041198
 30
0.0
 40
0.3956164510627324
100
AcDbArc
 50
126.6248690400158
 51
212.0427318218959
  0
SPLINE
  5
100000BD
102
{ACAD_XDICTIONARY
360
100000BE
102
}
330
1F
100
AcDbEntity
  8
VISIBLE
100
AcDbSpline
210
0.0
220
0.0
230
1.0
 70
     8
 71
     3
 72
    44
 73
    40
 74
     0
 42
0.000000001
 43
0.00000001
 40
0.0374573816692522
 40
0.0374573816692522
 40
0.0374573816692522
 40
0.0374573816692522
 40
0.1173270388283835
 40
0.1245633749097421
 40
0.1339054427745929
 40
0.1449591259385422
 40
0.157492824253456
 40
0.1713493489450592
 40
0.186412979324603
 40
0.2025939139161435
 40
0.2198198341683084
 40
0.2380308751317531
 40
0.2571764150177153
 40
0.2772129162632477
 40
0.2981024128312286
 40
0.3198114144576313
 40
0.3423100907832787
 40
0.3655716496568647
 40
0.3895718539492967
 40
0.4142886395604836
 40
0.4397018088992017
 40
0.4657927816818093
 40
0.4925443899635603
 40
0.5199407077925865
 40
0.5479669083115218
 40
0.5766091428695075
 40
0.6058544379685353
 40
0.6356906067974987
 40
0.6661061728017248
 40
0.6970903032611986
 40
0.7286327512528589
 40
0.7607238046834918
 40
0.7933542413228106
 40
0.8265152889579642
 40
0.860198589943057
 40
0.8943961695393764
 40
0.9291004075405692
 40
0.9643040127571182
 40
0.9924917445823712
 40
0.9924917445823712
 40
0.9924917445823712
 40
0.9924917445823712
 10
53.94421219821898
 20
-37.06606224128372
 30
0.0
 10
54.14681190552348
 20
-36.9154619359844
 30
0.0
 10
54.31860942041994
 20
-36.78766307203315
 30
0.0
 10
54.32289443896288
 20
-36.78401315364949
 30
0.0
 10
54.32768419421428
 20
-36.78010670966683
 30
0.0
 10
54.33317690243121
 20
-36.7753665189891
 30
0.0
 10
54.34047312221878
 20
-36.76885225627116
 30
0.0
 10
54.34912035079048
 20
-36.76079909097972
 30
0.0
 10
54.35918103439216
 20
-36.75105291665508
 30
0.0
 10
54.37055257293218
 20
-36.7395850043937
 30
0.0
 10
54.38318081975278
 20
-36.72633053348856
 30
0.0
 10
54.39699487839236
 20
-36.71123801769156
 30
0.0
 10
54.41192667480612
 20
-36.69425457995226
 30
0.0
 10
54.42790523882233
 20
-36.6753303642381
 30
0.0
 10
54.4448584386865
 20
-36.65441730689771
 30
0.0
 10
54.4627125478
 20
-36.63146954781376
 30
0.0
 10
54.48139244009398
 20
-36.60644336522787
 30
0.0
 10
54.5008216068609
 20
-36.57929724500295
 30
0.0
 10
54.52092222604935
 20
-36.54999190947721
 30
0.0
 10
54.54161521802826
 20
-36.518490355804
 30
0.0
 10
54.56282030642862
 20
-36.48475788964997
 30
0.0
 10
54.58445607872542
 20
-36.4487621582442
 30
0.0
 10
54.60644004799542
 20
-36.41047318164435
 30
0.0
 10
54.62868871539089
 20
-36.36986338252441
 30
0.0
 10
54.65111763339656
 20
-36.32690761437325
 30
0.0
 10
54.67364146982636
 20
-36.28158318814317
 30
0.0
 10
54.69617407241429
 20
-36.23386989721099
 30
0.0
 10
54.71862853440091
 20
-36.18375004108191
 30
0.0
 10
54.74091725936982
 20
-36.13120844611429
 30
0.0
 10
54.76295203185356
 20
-36.07623248980912
 30
0.0
 10
54.78464406849527
 20
-36.01881210348162
 30
0.0
 10
54.80590414624869
 20
-35.95893984980729
 30
0.0
 10
54.8266424378351
 20
-35.89661070555551
 30
0.0
 10
54.84676946952185
 20
-35.83182296435195
 30
0.0
 10
54.86619278960975
 20
-35.76457484885493
 30
0.0
 10
54.88483002636538
 20
-35.6948775074159
 30
0.0
 10
54.90255937426689
 20
-35.62270544824568
 30
0.0
 10
54.91821084699127
 20
-35.55348389450572
 30
0.0
 10
54.9274470734706
 20
-35.50782700876186
 30
0.0
 10
54.93151755610957
 20
-35.48748666705844
 30
0.0
  0
ARC
  5
100000C0
102
{ACAD_XDICTIONARY
360
100000C1
102
}
330
1F
100
AcDbEntity
  8
VISIBLE
100
AcDbCircle
 10
50.0
 20
-40.0
 30
0.0
 40
6.684507609859605
100
AcDbArc
 50
42.45961864956079
 51
47.54038135043916
  0
SPLINE
  5
100000C3
102
{ACAD_XDICTIONARY
360
100000C4
102
}
330
1F
100
AcDbEntity
  8
VISIBLE
100
AcDbSpline
210
0.0
220
0.0
230
1.0
 70
     8
 71
     3
 72
    44
 73
    40
 74
     0
 42
0.000000001
 43
0.00000001
 40
0.0374573816692535
 40
0.0374573816692535
 40
0.0374573816692535
 40
0.0374573816692535
 40
0.1173270388283835
 40
0.1245633749097421
 40
0.1339054427745929
 40
0.1449591259385422
 40
0.157492824253456
 40
0.1713493489450592
 40
0.186412979324603
 40
0.2025939139161435
 40
0.2198198341683084
 40
0.2380308751317531
 40
0.2571764150177153
 40
0.2772129162632477
 40
0.2981024128312286
 40
0.3198114144576313
 40
0.3423100907832787
 40
0.3655716496568647
 40
0.3895718539492967
 40
0.4142886395604836
 40
0.4397018088992017
 40
0.4657927816818093
 40
0.4925443899635603
 40
0.5199407077925865
 40
0.5479669083115218
 40
0.5766091428695075
 40
0.6058544379685353
 40
0.6356906067974987
 40
0.6661061728017248
 40
0.6970903032611986
 40
0.7286327512528589
 40
0.7607238046834918
 40
0.7933542413228106
 40
0.8265152889579642
 40
0.860198589943057
 40
0.8943961695393764
 40
0.9291004075405692
 40
0.9643040127571182
 40
0.9924917445823687
 40
0.9924917445823687
 40
0.9924917445823687
 40
0.9924917445823687
 10
52.93393775871629
 20
-36.05578780178102
 30
0.0
 10
53.0845380640156
 20
-35.85318809447651
 30
0.0
 10
53.21233692796685
 20
-35.68139057958007
 30
0.0
 10
53.21598684635052
 20
-35.67710556103713
 30
0.0
 10
53.21989329033317
 20
-35.67231580578573
 30
0.0
 10
53.2246334810109
 20
-35.66682309756879
 30
0.0
 10
53.23114774372884
 20
-35.65952687778122
 30
0.0
 10
53.23920090902029
 20
-35.65087964920952
 30
0.0
 10
53.24894708334493
 20
-35.64081896560785
 30
0.0
 10
53.2604149956063
 20
-35.62944742706782
 30
0.0
 10
53.27366946651145
 20
-35.61681918024722
 30
0.0
 10
53.28876198230844
 20
-35.60300512160764
 30
0.0
 10
53.30574542004774
 20
-35.58807332519388
 30
0.0
 10
53.32466963576191
 20
-35.57209476117767
 30
0.0
 10
53.3455826931023
 20
-35.5551415613135
 30
0.0
 10
53.36853045218624
 20
-35.5372874522
 30
0.0
 10
53.39355663477213
 20
-35.51860755990602
 30
0.0
 10
53.42070275499706
 20
-35.49917839313911
 30
0.0
 10
53.4500080905228
 20
-35.47907777395065
 30
0.0
 10
53.481509644196
 20
-35.45838478197174
 30
0.0
 10
53.51524211035003
 20
-35.43717969357139
 30
0.0
 10
53.55123784175581
 20
-35.41554392127458
 30
0.0
 10
53.58952681835565
 20
-35.39355995200459
 30
0.0
 10
53.63013661747559
 20
-35.37131128460911
 30
0.0
 10
53.67309238562675
 20
-35.34888236660345
 30
0.0
 10
53.71841681185683
 20
-35.32635853017364
 30
0.0
 10
53.76613010278901
 20
-35.30382592758571
 30
0.0
 10
53.81624995891809
 20
-35.2813714655991
 30
0.0
 10
53.86879155388571
 20
-35.25908274063018
 30
0.0
 10
53.92376751019088
 20
-35.23704796814645
 30
0.0
 10
53.98118789651839
 20
-35.21535593150474
 30
0.0
 10
54.04106015019271
 20
-35.19409585375131
 30
0.0
 10
54.10338929444449
 20
-35.1733575621649
 30
0.0
 10
54.16817703564805
 20
-35.15323053047815
 30
0.0
 10
54.23542515114509
 20
-35.13380721039026
 30
0.0
 10
54.30512249258411
 20
-35.11516997363464
 30
0.0
 10
54.37729455175433
 20
-35.09744062573312
 30
0.0
 10
54.4465161054943
 20
-35.08178915300874
 30
0.0
 10
54.49217299123814
 20
-35.07255292652941
 30
0.0
 10
54.51251333294155
 20
-35.06848244389043
 30
0.0
  0
ARC
  5
100000C6
102
{ACAD_XDICTIONARY
360
100000C7
102
}
330
1F
100
AcDbEntity
  8
VISIBLE
100
AcDbCircle
 10
52.61643236958803
 20
-35.81977359833983
 30
0.0
 40
0.3956164510627324
100
AcDbArc
 50
237.9572681781018
 51
323.3751309599838
  0
ARC
  5
100000C9
102
{ACAD_XDICTIONARY
360
100000CA
102
}
330
1F
100
AcDbEntity
  8
VISIBLE
100
AcDbCircle
 10
50.0
 20
-40.0
 30
0.0
 40
4.535915878119019
100
AcDbArc
 50
57.95726817810358
 51
62.04273182189644
  0
ARC
  5
100000CC
102
{ACAD_XDICTIONARY
360
100000CD
102
}
330
1F
100
AcDbEntity
  8
VISIBLE
100
AcDbCircle
 10
52.31196607261411
 20
-35.64398989982277
 30
0.0
 40
0.3956164510627324
100
AcDbArc
 50
156.6248690400164
 51
242.0427318218965
  0
SPLINE
  5
100000CF
102
{ACAD_XDICTIONARY
360
100000D0
102
}
330
1F
100
AcDbEntity
  8
VISIBLE
100
AcDbSpline
210
0.0
220
0.0
230
1.0
 70
     8
 71
     3
 72
    44
 73
    40
 74
     0
 42
0.000000001
 43
0.00000001
 40
0.0374573816692524
 40
0.0374573816692524
 40
0.0374573816692524
 40
0.0374573816692524
 40
0.1173270388283835
 40
0.1245633749097421
 40
0.1339054427745929
 40
0.1449591259385422
 40
0.157492824253456
 40
0.1713493489450592
 40
0.186412979324603
 40
0.2025939139161435
 40
0.2198198341683084
 40
0.2380308751317531
 40
0.2571764150177153
 40
0.2772129162632477
 40
0.2981024128312286
 40
0.3198114144576313
 40
0.3423100907832787
 40
0.3655716496568647
 40
0.3895718539492967
 40
0.4142886395604836
 40
0.4397018088992017
 40
0.4657927816818093
 40
0.4925443899635603
 40
0.5199407077925865
 40
0.5479669083115218
 40
0.5766091428695075
 40
0.6058544379685353
 40
0.6356906067974987
 40
0.6661061728017248
 40
0.6970903032611986
 40
0.7286327512528589
 40
0.7607238046834918
 40
0.7933542413228106
 40
0.8265152889579642
 40
0.860198589943057
 40
0.8943961695393764
 40
0.9291004075405692
 40
0.9643040127571182
 40
0.9924917445823681
 40
0.9924917445823681
 40
0.9924917445823681
 40
0.9924917445823681
 10
51.94881908221596
 20
-35.48702926871984
 30
0.0
 10
52.04897542289129
 20
-35.25530572486068
 30
0.0
 10
52.13385700312303
 20
-35.05872990465588
 30
0.0
 10
52.13574297884507
 20
-35.05342647334242
 30
0.0
 10
52.13793780657937
 20
-35.04764851598927
 30
0.0
 10
52.14032453609195
 20
-35.04079703633511
 30
0.0
 10
52.14338611642061
 20
-35.03150740944066
 30
0.0
 10
52.1468482533903
 20
-35.02020954943156
 30
0.0
 10
52.15068797380648
 20
-35.00673877307586
 30
0.0
 10
52.15480205893156
 20
-34.99112150045913
 30
0.0
 10
52.15911120603089
 20
-34.97332866853125
 30
0.0
 10
52.16352827384362
 20
-34.95335113712424
 30
0.0
 10
52.16796786999244
 20
-34.93117715039154
 30
0.0
 10
52.17234360448939
 20
-34.90679901682828
 30
0.0
 10
52.176568977577
 20
-34.8802111779686
 30
0.0
 10
52.18055721008925
 20
-34.85141078108524
 30
0.0
 10
52.18422138006286
 20
-34.82039752505911
 30
0.0
 10
52.1874744719449
 20
-34.78717371194669
 30
0.0
 10
52.19022945103104
 20
-34.75174423732074
 30
0.0
 10
52.19239933092849
 20
-34.71411659559161
 30
0.0
 10
52.19389724309566
 20
-34.67430087876975
 30
0.0
 10
52.1946365058323
 20
-34.63230977479614
 30
0.0
 10
52.19453069339622
 20
-34.58815856374077
 30
0.0
 10
52.19349370500109
 20
-34.54186511236259
 30
0.0
 10
52.19143983369781
 20
-34.49344986690178
 30
0.0
 10
52.18828383512165
 20
-34.44293584415966
 30
0.0
 10
52.1839409959101
 20
-34.39034862082027
 30
0.0
 10
52.17832720235427
 20
-34.33571632118517
 30
0.0
 10
52.17135900691151
 20
-34.27906960270339
 30
0.0
 10
52.16295370149645
 20
-34.2204416417039
 30
0.0
 10
52.15302936312424
 20
-34.15986811012832
 30
0.0
 10
52.14150500370798
 20
-34.09738717858781
 30
0.0
 10
52.12830031892701
 20
-34.03303941047643
 30
0.0
 10
52.11333696906873
 20
-33.96686806489695
 30
0.0
 10
52.09653399994217
 20
-33.89891782847594
 30
0.0
 10
52.07782564970937
 20
-33.8292395418357
 30
0.0
 10
52.05709368579951
 20
-33.7578720312001
 30
0.0
 10
52.03603748191548
 20
-33.69009867080968
 30
0.0
 10
52.02120784580977
 20
-33.64594053465816
 30
0.0
 10
52.01456281632907
 20
-33.62629004070185
 30
0.0
  0
ARC
  5
100000D2
102
{ACAD_XDICTIONARY
360
100000D3
102
}
330
1F
100
AcDbEntity
  8
VISIBLE
100
AcDbCircle
 10
50.0
 20
-40.0
 30
0.0
 40
6.684507609859605
100
AcDbArc
 50
72.45961864956075
 51
77.54038135043913
  0
SPLINE
  5
100000D5
102
{ACAD_XDICTIONARY
360
100000D6
102
}
330
1F
100
AcDbEntity
  8
VISIBLE
100
AcDbSpline
210
0.0
220
0.0
230
1.0
 70
     8
 71
     3
 72
    44
 73
    40
 74
     0
 42
0.000000001
 43
0.00000001
 40
0.0374573816692529
 40
0.0374573816692529
 40
0.0374573816692529
 40
0.0374573816692529
 40
0.1173270388283835
 40
0.1245633749097421
 40
0.1339054427745929
 40
0.1449591259385422
 40
0.157492824253456
 40
0.1713493489450592
 40
0.186412979324603
 40
0.2025939139161435
 40
0.2198198341683084
 40
0.2380308751317531
 40
0.2571764150177153
 40
0.2772129162632477
 40
0.2981024128312286
 40
0.3198114144576313
 40
0.3423100907832787
 40
0.3655716496568647
 40
0.3895718539492967
 40
0.4142886395604836
 40
0.4397018088992017
 40
0.4657927816818093
 40
0.4925443899635603
 40
0.5199407077925865
 40
0.5479669083115218
 40
0.5766091428695075
 40
0.6058544379685353
 40
0.6356906067974987
 40
0.6661061728017248
 40
0.6970903032611986
 40
0.7286327512528589
 40
0.7607238046834918
 40
0.7933542413228106
 40
0.8265152889579642
 40
0.860198589943057
 40
0.8943961695393764
 40
0.9291004075405692
 40
0.9643040127571182
 40
0.9924917445823767
 40
0.9924917445823767
 40
0.9924917445823767
 40
0.9924917445823767
 10
50.5687585330612
 20
-35.11724315906776
 30
0.0
 10
50.59788236961583
 20
-34.86648651309311
 30
0.0
 10
50.62266067492418
 20
-34.65380606891012
 30
0.0
 10
50.62367908769471
 20
-34.64827017480442
 30
0.0
 10
50.62466728979646
 20
-34.64216890308747
 30
0.0
 10
50.62602606123368
 20
-34.63504198289716
 30
0.0
 10
50.62801946834055
 20
-34.62546613985055
 30
0.0
 10
50.63067009977797
 20
-34.61395083758941
 30
0.0
 10
50.63408019253199
 20
-34.60036494284861
 30
0.0
 10
50.6383259266087
 20
-34.58478294546214
 30
0.0
 10
50.64349051171597
 20
-34.56721932745767
 30
0.0
 10
50.64965398448341
 20
-34.54770974384793
 30
0.0
 10
50.65689617480235
 20
-34.52628670995983
 30
0.0
 10
50.6652957443494
 20
-34.50298675974872
 30
0.0
 10
50.67493038334491
 20
-34.47784832932071
 30
0.0
 10
50.68587667111477
 20
-34.45091233772452
 30
0.0
 10
50.69821003484691
 20
-34.42222198516501
 30
0.0
 10
50.71200468119243
 20
-34.39182277305805
 30
0.0
 10
50.72733353662991
 20
-34.35976245844617
 30
0.0
 10
50.74426818638012
 20
-34.32609102487553
 30
0.0
 10
50.76287881480164
 20
-34.29086064655431
 30
0.0
 10
50.78323414647844
 20
-34.2541256524119
 30
0.0
 10
50.80540138826382
 20
-34.21594248824814
 30
0.0
 10
50.82944617224652
 20
-34.17636967752334
 30
0.0
 10
50.85543249970168
 20
-34.13546778067546
 30
0.0
 10
50.88342268601398
 20
-34.09329935302152
 30
0.0
 10
50.91347730676544
 20
-34.04992890130089
 30
0.0
 10
50.94565514441394
 20
-34.00542283872764
 30
0.0
 10
50.98001313792679
 20
-33.95984943920278
 30
0.0
 10
51.01660632644255
 20
-33.91327878831267
 30
0.0
 10
51.05548782137642
 20
-33.86578274035738
 30
0.0
 10
51.09670867516351
 20
-33.81743484609932
 30
0.0
 10
51.14031815168848
 20
-33.76831038662851
 30
0.0
 10
51.1863624655812
 20
-33.71848599528323
 30
0.0
 10
51.23488938191432
 20
-33.66804084891276
 30
0.0
 10
51.28593043179894
 20
-33.61705185770653
 30
0.0
 10
51.33956859453302
 20
-33.56561176244617
 30
0.0
 10
51.39169048219907
 20
-33.51744641259023
 30
0.0
 10
51.42661239187126
 20
-33.4866191629521
 30
0.0
 10
51.44219240318861
 20
-33.47292385072938
 30
0.0
  0
ARC
  5
100000D8
102
{ACAD_XDICTIONARY
360
100000D9
102
}
330
1F
100
AcDbEntity
  8
VISIBLE
100
AcDbCircle
 10
50.17578369851706
 20
-35.07160155779786
 30
0.0
 40
0.3956164510627324
100
AcDbArc
 50
267.9572681781033
 51
353.3751309599838
  0
ARC
  5
100000DB
102
{ACAD_XDICTIONARY
360
100000DC
102
}
330
1F
100
AcDbEntity
  8
VISIBLE
100
AcDbCircle
 10
50.0
 20
-40.0
 30
0.0
 40
4.535915878119019
100
AcDbArc
 50
87.95726817810353
 51
92.04273182189645
  0
ARC
  5
100000DE
102
{ACAD_XDICTIONARY
360
100000DF
102
}
330
1F
100
AcDbEntity
  8
VISIBLE
100
AcDbCircle
 10
49.82421630148295
 20
-35.07160155779786
 30
0.0
 40
0.3956164510627324
100
AcDbArc
 50
186.6248690400162
 51
272.0427318218956
  0
SPLINE
  5
100000E1
102
{ACAD_XDICTIONARY
360
100000E2
102
}
330
1F
100
AcDbEntity
  8
VISIBLE
100
AcDbSpline
210
0.0
220
0.0
230
1.0
 70
     8
 71
     3
 72
    44
 73
    40
 74
     0
 42
0.000000001
 43
0.00000001
 40
0.0374573816692524
 40
0.0374573816692524
 40
0.0374573816692524
 40
0.0374573816692524
 40
0.1173270388283835
 40
0.1245633749097421
 40
0.1339054427745929
 40
0.1449591259385422
 40
0.157492824253456
 40
0.1713493489450592
 40
0.186412979324603
 40
0.2025939139161435
 40
0.2198198341683084
 40
0.2380308751317531
 40
0.2571764150177153
 40
0.2772129162632477
 40
0.2981024128312286
 40
0.3198114144576313
 40
0.3423100907832787
 40
0.3655716496568647
 40
0.3895718539492967
 40
0.4142886395604836
 40
0.4397018088992017
 40
0.4657927816818093
 40
0.4925443899635603
 40
0.5199407077925865
 40
0.5479669083115218
 40
0.5766091428695075
 40
0.6058544379685353
 40
0.6356906067974987
 40
0.6661061728017248
 40
0.6970903032611986
 40
0.7286327512528589
 40
0.7607238046834918
 40
0.7933542413228106
 40
0.8265152889579642
 40
0.860198589943057
 40
0.8943961695393764
 40
0.9291004075405692
 40
0.9643040127571182
 40
0.9924917445823672
 40
0.9924917445823672
 40
0.9924917445823672
 40
0.9924917445823672
 10
49.43124146693881
 20
-35.11724315906776
 30
0.0
 10
49.40211763038416
 20
-34.86648651309312
 30
0.0
 10
49.37733932507582
 20
-34.65380606891012
 30
0.0
 10
49.3763209123053
 20
-34.64827017480442
 30
0.0
 10
49.37533271020355
 20
-34.64216890308747
 30
0.0
 10
49.37397393876633
 20
-34.63504198289716
 30
0.0
 10
49.37198053165945
 20
-34.62546613985055
 30
0.0
 10
49.36932990022203
 20
-34.61395083758941
 30
0.0
 10
49.36591980746802
 20
-34.60036494284861
 30
0.0
 10
49.36167407339131
 20
-34.58478294546214
 30
0.0
 10
49.35650948828403
 20
-34.56721932745767
 30
0.0
 10
49.3503460155166
 20
-34.54770974384793
 30
0.0
 10
49.34310382519766
 20
-34.52628670995983
 30
0.0
 10
49.33470425565061
 20
-34.50298675974872
 30
0.0
 10
49.3250696166551
 20
-34.47784832932071
 30
0.0
 10
49.31412332888523
 20
-34.45091233772452
 30
0.0
 10
49.30178996515311
 20
-34.42222198516501
 30
0.0
 10
49.28799531880758
 20
-34.39182277305805
 30
0.0
 10
49.27266646337009
 20
-34.35976245844617
 30
0.0
 10
49.25573181361988
 20
-34.32609102487553
 30
0.0
 10
49.23712118519837
 20
-34.29086064655431
 30
0.0
 10
49.21676585352157
 20
-34.2541256524119
 30
0.0
 10
49.19459861173619
 20
-34.21594248824814
 30
0.0
 10
49.17055382775348
 20
-34.17636967752334
 30
0.0
 10
49.14456750029833
 20
-34.13546778067546
 30
0.0
 10
49.11657731398603
 20
-34.09329935302152
 30
0.0
 10
49.08652269323457
 20
-34.04992890130089
 30
0.0
 10
49.05434485558607
 20
-34.00542283872764
 30
0.0
 10
49.01998686207321
 20
-33.95984943920278
 30
0.0
 10
48.98339367355746
 20
-33.91327878831267
 30
0.0
 10
48.94451217862358
 20
-33.86578274035738
 30
0.0
 10
48.9032913248365
 20
-33.81743484609932
 30
0.0
 10
48.85968184831152
 20
-33.76831038662851
 30
0.0
 10
48.8136375344188
 20
-33.71848599528323
 30
0.0
 10
48.76511061808569
 20
-33.66804084891276
 30
0.0
 10
48.71406956820107
 20
-33.61705185770653
 30
0.0
 10
48.66043140546698
 20
-33.56561176244617
 30
0.0
 10
48.60830951780094
 20
-33.51744641259023
 30
0.0
 10
48.57338760812875
 20
-33.48661916295212
 30
0.0
 10
48.55780759681142
 20
-33.4729238507294
 30
0.0
  0
ARC
  5
100000E4
102
{ACAD_XDICTIONARY
360
100000E5
102
}
330
1F
100
AcDbEntity
  8
VISIBLE
100
AcDbCircle
 10
50.0
 20
-40.0
 30
0.0
 40
6.684507609859605
100
AcDbArc
 50
102.4596186495608
 51
107.5403813504392
  0
SPLINE
  5
100000E7
102
{ACAD_XDICTIONARY
360
100000E8
102
}
330
1F
100
AcDbEntity
  8
VISIBLE
100
AcDbSpline
210
0.0
220
0.0
230
1.0
 70
     8
 71
     3
 72
    44
 73
    40
 74
     0
 42
0.000000001
 43
0.00000001
 40
0.0374573816692531
 40
0.0374573816692531
 40
0.0374573816692531
 40
0.0374573816692531
 40
0.1173270388283835
 40
0.1245633749097421
 40
0.1339054427745929
 40
0.1449591259385422
 40
0.157492824253456
 40
0.1713493489450592
 40
0.186412979324603
 40
0.2025939139161435
 40
0.2198198341683084
 40
0.2380308751317531
 40
0.2571764150177153
 40
0.2772129162632477
 40
0.2981024128312286
 40
0.3198114144576313
 40
0.3423100907832787
 40
0.3655716496568647
 40
0.3895718539492967
 40
0.4142886395604836
 40
0.4397018088992017
 40
0.4657927816818093
 40
0.4925443899635603
 40
0.5199407077925865
 40
0.5479669083115218
 40
0.5766091428695075
 40
0.6058544379685353
 40
0.6356906067974987
 40
0.6661061728017248
 40
0.6970903032611986
 40
0.7286327512528589
 40
0.7607238046834918
 40
0.7933542413228106
 40
0.8265152889579642
 40
0.860198589943057
 40
0.8943961695393764
 40
0.9291004075405692
 40
0.9643040127571182
 40
0.9924917445823691
 40
0.9924917445823691
 40
0.9924917445823691
 40
0.9924917445823691
 10
48.05118091778405
 20
-35.48702926871983
 30
0.0
 10
47.95102457710872
 20
-35.25530572486068
 30
0.0
 10
47.86614299687697
 20
-35.05872990465588
 30
0.0
 10
47.86425702115493
 20
-35.05342647334242
 30
0.0
 10
47.86206219342063
 20
-35.04764851598927
 30
0.0
 10
47.85967546390806
 20
-35.04079703633511
 30
0.0
 10
47.8566138835794
 20
-35.03150740944066
 30
0.0
 10
47.8531517466097
 20
-35.02020954943155
 30
0.0
 10
47.84931202619354
 20
-35.00673877307586
 30
0.0
 10
47.84519794106845
 20
-34.99112150045913
 30
0.0
 10
47.84088879396912
 20
-34.97332866853125
 30
0.0
 10
47.83647172615638
 20
-34.95335113712424
 30
0.0
 10
47.83203213000757
 20
-34.93117715039154
 30
0.0
 10
47.82765639551062
 20
-34.90679901682827
 30
0.0
 10
47.82343102242302
 20
-34.8802111779686
 30
0.0
 10
47.81944278991076
 20
-34.85141078108524
 30
0.0
 10
47.81577861993715
 20
-34.82039752505911
 30
0.0
 10
47.81252552805511
 20
-34.78717371194669
 30
0.0
 10
47.80977054896897
 20
-34.75174423732074
 30
0.0
 10
47.80760066907153
 20
-34.71411659559161
 30
0.0
 10
47.80610275690434
 20
-34.67430087876975
 30
0.0
 10
47.8053634941677
 20
-34.63230977479614
 30
0.0
 10
47.80546930660379
 20
-34.58815856374077
 30
0.0
 10
47.80650629499893
 20
-34.54186511236259
 30
0.0
 10
47.80856016630221
 20
-34.49344986690178
 30
0.0
 10
47.81171616487835
 20
-34.44293584415966
 30
0.0
 10
47.81605900408991
 20
-34.39034862082027
 30
0.0
 10
47.82167279764574
 20
-34.33571632118517
 30
0.0
 10
47.8286409930885
 20
-34.27906960270339
 30
0.0
 10
47.83704629850356
 20
-34.2204416417039
 30
0.0
 10
47.84697063687577
 20
-34.15986811012832
 30
0.0
 10
47.85849499629204
 20
-34.09738717858781
 30
0.0
 10
47.871699681073
 20
-34.03303941047643
 30
0.0
 10
47.88666303093128
 20
-33.96686806489695
 30
0.0
 10
47.90346600005784
 20
-33.89891782847594
 30
0.0
 10
47.92217435029063
 20
-33.8292395418357
 30
0.0
 10
47.9429063142005
 20
-33.7578720312001
 30
0.0
 10
47.96396251808452
 20
-33.69009867080967
 30
0.0
 10
47.97879215419024
 20
-33.64594053465816
 30
0.0
 10
47.98543718367095
 20
-33.62629004070185
 30
0.0
  0
ARC
  5
100000EA
102
{ACAD_XDICTIONARY
360
100000EB
102
}
330
1F
100
AcDbEntity
  8
VISIBLE
100
AcDbCircle
 10
47.6880339273859
 20
-35.64398989982276
 30
0.0
 40
0.3956164510627324
100
AcDbArc
 50
297.957268178103
 51
23.3751309599826
  0
ARC
  5
100000ED
102
{ACAD_XDICTIONARY
360
100000EE
102
}
330
1F
100
AcDbEntity
  8
VISIBLE
100
AcDbCircle
 10
50.0
 20
-40.0
 30
0.0
 40
4.535915878119019
100
AcDbArc
 50
117.9572681781035
 51
122.0427318218964
  0
ARC
  5
100000F0
102
{ACAD_XDICTIONARY
360
100000F1
102
}
330
1F
100
AcDbEntity
  8
VISIBLE
100
AcDbCircle
 10
47.38356763041198
 20
-35.81977359833983
 30
0.0
 40
0.3956164510627324
100
AcDbArc
 50
216.6248690400155
 51
302.0427318218964
  0
SPLINE
  5
100000F3
102
{ACAD_XDICTIONARY
360
100000F4
102
}
330
1F
100
AcDbEntity
  8
VISIBLE
100
AcDbSpline
210
0.0
220
0.0
230
1.0
 70
     8
 71
     3
 72
    44
 73
    40
 74
     0
 42
0.000000001
 43
0.00000001
 40
0.0374573816692534
 40
0.0374573816692534
 40
0.0374573816692534
 40
0.0374573816692534
 40
0.1173270388283835
 40
0.1245633749097421
 40
0.1339054427745929
 40
0.1449591259385422
 40
0.157492824253456
 40
0.1713493489450592
 40
0.186412979324603
 40
0.2025939139161435
 40
0.2198198341683084
 40
0.2380308751317531
 40
0.2571764150177153
 40
0.2772129162632477
 40
0.2981024128312286
 40
0.3198114144576313
 40
0.3423100907832787
 40
0.3655716496568647
 40
0.3895718539492967
 40
0.4142886395604836
 40
0.4397018088992017
 40
0.4657927816818093
 40
0.4925443899635603
 40
0.5199407077925865
 40
0.5479669083115218
 40
0.5766091428695075
 40
0.6058544379685353
 40
0.6356906067974987
 40
0.6661061728017248
 40
0.6970903032611986
 40
0.7286327512528589
 40
0.7607238046834918
 40
0.7933542413228106
 40
0.8265152889579642
 40
0.860198589943057
 40
0.8943961695393764
 40
0.9291004075405692
 40
0.9643040127571182
 40
0.9924917445823713
 40
0.9924917445823713
 40
0.9924917445823713
 40
0.9924917445823713
 10
47.06606224128372
 20
-36.05578780178102
 30
0.0
 10
46.9154619359844
 20
-35.85318809447651
 30
0.0
 10
46.78766307203315
 20
-35.68139057958007
 30
0.0
 10
46.7840131536495
 20
-35.67710556103713
 30
0.0
 10
46.78010670966683
 20
-35.67231580578573
 30
0.0
 10
46.77536651898911
 20
-35.66682309756879
 30
0.0
 10
46.76885225627117
 20
-35.65952687778122
 30
0.0
 10
46.76079909097972
 20
-35.65087964920952
 30
0.0
 10
46.75105291665508
 20
-35.64081896560785
 30
0.0
 10
46.73958500439371
 20
-35.62944742706782
 30
0.0
 10
46.72633053348856
 20
-35.61681918024722
 30
0.0
 10
46.71123801769156
 20
-35.60300512160764
 30
0.0
 10
46.69425457995226
 20
-35.58807332519388
 30
0.0
 10
46.6753303642381
 20
-35.57209476117767
 30
0.0
 10
46.65441730689771
 20
-35.5551415613135
 30
0.0
 10
46.63146954781376
 20
-35.5372874522
 30
0.0
 10
46.60644336522788
 20
-35.51860755990602
 30
0.0
 10
46.57929724500295
 20
-35.49917839313911
 30
0.0
 10
46.54999190947721
 20
-35.47907777395065
 30
0.0
 10
46.518490355804
 20
-35.45838478197174
 30
0.0
 10
46.48475788964998
 20
-35.43717969357139
 30
0.0
 10
46.4487621582442
 20
-35.41554392127458
 30
0.0
 10
46.41047318164436
 20
-35.39355995200458
 30
0.0
 10
46.36986338252443
 20
-35.37131128460911
 30
0.0
 10
46.32690761437325
 20
-35.34888236660345
 30
0.0
 10
46.28158318814317
 20
-35.32635853017364
 30
0.0
 10
46.23386989721099
 20
-35.30382592758571
 30
0.0
 10
46.18375004108191
 20
-35.2813714655991
 30
0.0
 10
46.13120844611429
 20
-35.25908274063018
 30
0.0
 10
46.07623248980912
 20
-35.23704796814645
 30
0.0
 10
46.01881210348162
 20
-35.21535593150474
 30
0.0
 10
45.95893984980729
 20
-35.19409585375131
 30
0.0
 10
45.89661070555552
 20
-35.1733575621649
 30
0.0
 10
45.83182296435196
 20
-35.15323053047815
 30
0.0
 10
45.76457484885493
 20
-35.13380721039026
 30
0.0
 10
45.6948775074159
 20
-35.11516997363464
 30
0.0
 10
45.62270544824568
 20
-35.09744062573311
 30
0.0
 10
45.55348389450572
 20
-35.08178915300874
 30
0.0
 10
45.50782700876188
 20
-35.0725529265294
 30
0.0
 10
45.48748666705845
 20
-35.06848244389043
 30
0.0
  0
ARC
  5
100000F6
102
{ACAD_XDICTIONARY
360
100000F7
102
}
330
1F
100
AcDbEntity
  8
VISIBLE
100
AcDbCircle
 10
50.0
 20
-40.0
 30
0.0
 40
6.684507609859605
100
AcDbArc
 50
132.4596186495608
 51
137.5403813504392
  0
SPLINE
  5
100000F9
102
{ACAD_XDICTIONARY
360
100000FA
102
}
330
1F
100
AcDbEntity
  8
VISIBLE
100
AcDbSpline
210
0.0
220
0.0
230
1.0
 70
     8
 71
     3
 72
    44
 73
    40
 74
     0
 42
0.000000001
 43
0.00000001
 40
0.0374573816692524
 40
0.0374573816692524
 40
0.0374573816692524
 40
0.0374573816692524
 40
0.1173270388283835
 40
0.1245633749097421
 40
0.1339054427745929
 40
0.1449591259385422
 40
0.157492824253456
 40
0.1713493489450592
 40
0.186412979324603
 40
0.2025939139161435
 40
0.2198198341683084
 40
0.2380308751317531
 40
0.2571764150177153
 40
0.2772129162632477
 40
0.2981024128312286
 40
0.3198114144576313
 40
0.3423100907832787
 40
0.3655716496568647
 40
0.3895718539492967
 40
0.4142886395604836
 40
0.4397018088992017
 40
0.4657927816818093
 40
0.4925443899635603
 40
0.5199407077925865
 40
0.5479669083115218
 40
0.5766091428695075
 40
0.6058544379685353
 40
0.6356906067974987
 40
0.6661061728017248
 40
0.6970903032611986
 40
0.7286327512528589
 40
0.7607238046834918
 40
0.7933542413228106
 40
0.8265152889579642
 40
0.860198589943057
 40
0.8943961695393764
 40
0.9291004075405692
 40
0.9643040127571182
 40
0.9924917445823718
 40
0.9924917445823718
 40
0.9924917445823718
 40
0.9924917445823718
 10
46.05578780178103
 20
-37.06606224128372
 30
0.0
 10
45.85318809447651
 20
-36.9154619359844
 30
0.0
 10
45.68139057958007
 20
-36.78766307203315
 30
0.0
 10
45.67710556103713
 20
-36.78401315364949
 30
0.0
 10
45.67231580578573
 20
-36.78010670966683
 30
0.0
 10
45.66682309756879
 20
-36.7753665189891
 30
0.0
 10
45.65952687778123
 20
-36.76885225627116
 30
0.0
 10
45.65087964920952
 20
-36.76079909097972
 30
0.0
 10
45.64081896560785
 20
-36.75105291665508
 30
0.0
 10
45.62944742706783
 20
-36.7395850043937
 30
0.0
 10
45.61681918024722
 20
-36.72633053348856
 30
0.0
 10
45.60300512160765
 20
-36.71123801769156
 30
0.0
 10
45.58807332519388
 20
-36.69425457995226
 30
0.0
 10
45.57209476117767
 20
-36.6753303642381
 30
0.0
 10
45.55514156131351
 20
-36.65441730689771
 30
0.0
 10
45.53728745220001
 20
-36.63146954781376
 30
0.0
 10
45.51860755990602
 20
-36.60644336522787
 30
0.0
 10
45.49917839313911
 20
-36.57929724500295
 30
0.0
 10
45.47907777395066
 20
-36.54999190947721
 30
0.0
 10
45.45838478197174
 20
-36.518490355804
 30
0.0
 10
45.43717969357139
 20
-36.48475788964997
 30
0.0
 10
45.41554392127459
 20
-36.4487621582442
 30
0.0
 10
45.39355995200459
 20
-36.41047318164435
 30
0.0
 10
45.37131128460911
 20
-36.36986338252441
 30
0.0
 10
45.34888236660345
 20
-36.32690761437325
 30
0.0
 10
45.32635853017364
 20
-36.28158318814317
 30
0.0
 10
45.30382592758571
 20
-36.23386989721099
 30
0.0
 10
45.2813714655991
 20
-36.18375004108191
 30
0.0
 10
45.25908274063019
 20
-36.13120844611429
 30
0.0
 10
45.23704796814645
 20
-36.07623248980912
 30
0.0
 10
45.21535593150474
 20
-36.01881210348162
 30
0.0
 10
45.19409585375131
 20
-35.95893984980729
 30
0.0
 10
45.1733575621649
 20
-35.89661070555551
 30
0.0
 10
45.15323053047815
 20
-35.83182296435195
 30
0.0
 10
45.13380721039026
 20
-35.76457484885493
 30
0.0
 10
45.11516997363463
 20
-35.6948775074159
 30
0.0
 10
45.09744062573312
 20
-35.62270544824568
 30
0.0
 10
45.08178915300874
 20
-35.55348389450572
 30
0.0
 10
45.07255292652941
 20
-35.50782700876188
 30
0.0
 10
45.06848244389044
 20
-35.48748666705845
 30
0.0
  0
ARC
  5
100000FC
102
{ACAD_XDICTIONARY
360
100000FD
102
}
330
1F
100
AcDbEntity
  8
VISIBLE
100
AcDbCircle
 10
45.81977359833983
 20
-37.38356763041198
 30
0.0
 40
0.3956164510627324
100
AcDbArc
 50
327.9572681781041
 51
53.37513095998425
  0
ARC
  5
100000FF
102
{ACAD_XDICTIONARY
360
10000100
102
}
330
1F
100
AcDbEntity
  8
VISIBLE
100
AcDbCircle
 10
50.0
 20
-40.0
 30
0.0
 40
4.535915878119019
100
AcDbArc
 50
147.9572681781035
 51
152.0427318218965
  0
ARC
  5
10000102
102
{ACAD_XDICTIONARY
360
10000103
102
}
330
1F
100
AcDbEntity
  8
VISIBLE
100
AcDbCircle
 10
45.64398989982278
 20
-37.6880339273859
 30
0.0
 40
0.3956164510627324
100
AcDbArc
 50
246.6248690400151
 51
332.0427318218965
  0
SPLINE
  5
10000105
102
{ACAD_XDICTIONARY
360
10000106
102
}
330
1F
100
AcDbEntity
  8
VISIBLE
100
AcDbSpline
210
0.0
220
0.0
230
1.0
 70
     8
 71
     3
 72
    44
 73
    40
 74
     0
 42
0.000000001
 43
0.00000001
 40
0.0374573816692534
 40
0.0374573816692534
 40
0.0374573816692534
 40
0.0374573816692534
 40
0.1173270388283835
 40
0.1245633749097421
 40
0.1339054427745929
 40
0.1449591259385422
 40
0.157492824253456
 40
0.1713493489450592
 40
0.186412979324603
 40
0.2025939139161435
 40
0.2198198341683084
 40
0.2380308751317531
 40
0.2571764150177153
 40
0.2772129162632477
 40
0.2981024128312286
 40
0.3198114144576313
 40
0.3423100907832787
 40
0.3655716496568647
 40
0.3895718539492967
 40
0.4142886395604836
 40
0.4397018088992017
 40
0.4657927816818093
 40
0.4925443899635603
 40
0.5199407077925865
 40
0.5479669083115218
 40
0.5766091428695075
 40
0.6058544379685353
 40
0.6356906067974987
 40
0.6661061728017248
 40
0.6970903032611986
 40
0.7286327512528589
 40
0.7607238046834918
 40
0.7933542413228106
 40
0.8265152889579642
 40
0.860198589943057
 40
0.8943961695393764
 40
0.9291004075405692
 40
0.9643040127571182
 40
0.9924917445823721
 40
0.9924917445823721
 40
0.9924917445823721
 40
0.9924917445823721
 10
45.48702926871983
 20
-38.05118091778404
 30
0.0
 10
45.25530572486068
 20
-37.95102457710871
 30
0.0
 10
45.05872990465588
 20
-37.86614299687697
 30
0.0
 10
45.05342647334242
 20
-37.86425702115493
 30
0.0
 10
45.04764851598927
 20
-37.86206219342063
 30
0.0
 10
45.04079703633511
 20
-37.85967546390806
 30
0.0
 10
45.03150740944066
 20
-37.85661388357939
 30
0.0
 10
45.02020954943155
 20
-37.8531517466097
 30
0.0
 10
45.00673877307586
 20
-37.84931202619353
 30
0.0
 10
44.99112150045914
 20
-37.84519794106844
 30
0.0
 10
44.97332866853125
 20
-37.84088879396911
 30
0.0
 10
44.95335113712424
 20
-37.83647172615638
 30
0.0
 10
44.93117715039154
 20
-37.83203213000757
 30
0.0
 10
44.90679901682827
 20
-37.82765639551061
 30
0.0
 10
44.88021117796861
 20
-37.82343102242302
 30
0.0
 10
44.85141078108524
 20
-37.81944278991075
 30
0.0
 10
44.82039752505911
 20
-37.81577861993714
 30
0.0
 10
44.78717371194669
 20
-37.8125255280551
 30
0.0
 10
44.75174423732074
 20
-37.80977054896897
 30
0.0
 10
44.71411659559162
 20
-37.80760066907152
 30
0.0
 10
44.67430087876975
 20
-37.80610275690434
 30
0.0
 10
44.63230977479615
 20
-37.8053634941677
 30
0.0
 10
44.58815856374077
 20
-37.80546930660378
 30
0.0
 10
44.54186511236259
 20
-37.80650629499892
 30
0.0
 10
44.49344986690178
 20
-37.8085601663022
 30
0.0
 10
44.44293584415967
 20
-37.81171616487835
 30
0.0
 10
44.39034862082028
 20
-37.81605900408991
 30
0.0
 10
44.33571632118516
 20
-37.82167279764573
 30
0.0
 10
44.27906960270339
 20
-37.8286409930885
 30
0.0
 10
44.22044164170391
 20
-37.83704629850355
 30
0.0
 10
44.15986811012832
 20
-37.84697063687577
 30
0.0
 10
44.09738717858782
 20
-37.85849499629203
 30
0.0
 10
44.03303941047643
 20
-37.871699681073
 30
0.0
 10
43.96686806489696
 20
-37.88666303093128
 30
0.0
 10
43.89891782847595
 20
-37.90346600005784
 30
0.0
 10
43.8292395418357
 20
-37.92217435029063
 30
0.0
 10
43.7578720312001
 20
-37.9429063142005
 30
0.0
 10
43.69009867080967
 20
-37.96396251808452
 30
0.0
 10
43.64594053465816
 20
-37.97879215419024
 30
0.0
 10
43.62629004070185
 20
-37.98543718367094
 30
0.0
  0
ARC
  5
10000108
102
{ACAD_XDICTIONARY
360
10000109
102
}
330
1F
100
AcDbEntity
  8
VISIBLE
100
AcDbCircle
 10
50.0
 20
-40.0
 30
0.0
 40
6.684507609859605
100
AcDbArc
 50
162.4596186495608
 51
167.5403813504392
  0
SPLINE
  5
1000010B
102
{ACAD_XDICTIONARY
360
1000010C
102
}
330
1F
100
AcDbEntity
  8
VISIBLE
100
AcDbSpline
210
0.0
220
0.0
230
1.0
 70
     8
 71
     3
 72
    44
 73
    40
 74
     0
 42
0.000000001
 43
0.00000001
 40
0.0374573816692533
 40
0.0374573816692533
 40
0.0374573816692533
 40
0.0374573816692533
 40
0.1173270388283835
 40
0.1245633749097421
 40
0.1339054427745929
 40
0.1449591259385422
 40
0.157492824253456
 40
0.1713493489450592
 40
0.186412979324603
 40
0.2025939139161435
 40
0.2198198341683084
 40
0.2380308751317531
 40
0.2571764150177153
 40
0.2772129162632477
 40
0.2981024128312286
 40
0.3198114144576313
 40
0.3423100907832787
 40
0.3655716496568647
 40
0.3895718539492967
 40
0.4142886395604836
 40
0.4397018088992017
 40
0.4657927816818093
 40
0.4925443899635603
 40
0.5199407077925865
 40
0.5479669083115218
 40
0.5766091428695075
 40
0.6058544379685353
 40
0.6356906067974987
 40
0.6661061728017248
 40
0.6970903032611986
 40
0.7286327512528589
 40
0.7607238046834918
 40
0.7933542413228106
 40
0.8265152889579642
 40
0.860198589943057
 40
0.8943961695393764
 40
0.9291004075405692
 40
0.9643040127571182
 40
0.9924917445823676
 40
0.9924917445823676
 40
0.9924917445823676
 40
0.9924917445823676
 10
45.11724315906777
 20
-39.43124146693881
 30
0.0
 10
44.86648651309312
 20
-39.40211763038417
 30
0.0
 10
44.65380606891013
 20
-39.37733932507582
 30
0.0
 10
44.64827017480442
 20
-39.3763209123053
 30
0.0
 10
44.64216890308747
 20
-39.37533271020355
 30
0.0
 10
44.63504198289716
 20
-39.37397393876632
 30
0.0
 10
44.62546613985056
 20
-39.37198053165945
 30
0.0
 10
44.61395083758941
 20
-39.36932990022203
 30
0.0
 10
44.60036494284861
 20
-39.36591980746802
 30
0.0
 10
44.58478294546215
 20
-39.36167407339131
 30
0.0
 10
44.56721932745767
 20
-39.35650948828403
 30
0.0
 10
44.54770974384793
 20
-39.3503460155166
 30
0.0
 10
44.52628670995983
 20
-39.34310382519766
 30
0.0
 10
44.50298675974872
 20
-39.3347042556506
 30
0.0
 10
44.47784832932071
 20
-39.3250696166551
 30
0.0
 10
44.45091233772452
 20
-39.31412332888523
 30
0.0
 10
44.42222198516501
 20
-39.30178996515309
 30
0.0
 10
44.39182277305805
 20
-39.28799531880757
 30
0.0
 10
44.35976245844618
 20
-39.27266646337009
 30
0.0
 10
44.32609102487553
 20
-39.25573181361988
 30
0.0
 10
44.29086064655432
 20
-39.23712118519836
 30
0.0
 10
44.2541256524119
 20
-39.21676585352156
 30
0.0
 10
44.21594248824814
 20
-39.19459861173619
 30
0.0
 10
44.17636967752334
 20
-39.17055382775348
 30
0.0
 10
44.13546778067546
 20
-39.14456750029833
 30
0.0
 10
44.09329935302151
 20
-39.11657731398603
 30
0.0
 10
44.04992890130089
 20
-39.08652269323456
 30
0.0
 10
44.00542283872765
 20
-39.05434485558607
 30
0.0
 10
43.95984943920278
 20
-39.01998686207321
 30
0.0
 10
43.91327878831267
 20
-38.98339367355746
 30
0.0
 10
43.86578274035739
 20
-38.94451217862358
 30
0.0
 10
43.81743484609932
 20
-38.90329132483649
 30
0.0
 10
43.76831038662851
 20
-38.85968184831152
 30
0.0
 10
43.71848599528323
 20
-38.8136375344188
 30
0.0
 10
43.66804084891277
 20
-38.76511061808569
 30
0.0
 10
43.61705185770654
 20
-38.71406956820107
 30
0.0
 10
43.56561176244618
 20
-38.66043140546698
 30
0.0
 10
43.51744641259024
 20
-38.60830951780094
 30
0.0
 10
43.48661916295212
 20
-38.57338760812875
 30
0.0
 10
43.47292385072939
 20
-38.55780759681141
 30
0.0
  0
ARC
  5
1000010E
102
{ACAD_XDICTIONARY
360
1000010F
102
}
330
1F
100
AcDbEntity
  8
VISIBLE
100
AcDbCircle
 10
45.07160155779787
 20
-39.82421630148295
 30
0.0
 40
0.3956164510627324
100
AcDbArc
 50
357.9572681781043
 51
83.3751309599838
  0
ARC
  5
10000111
102
{ACAD_XDICTIONARY
360
10000112
102
}
330
1F
100
AcDbEntity
  8
VISIBLE
100
AcDbCircle
 10
50.0
 20
-40.0
 30
0.0
 40
4.535915878119019
100
AcDbArc
 50
177.9572681781036
 51
182.0427318218965
  0
ARC
  5
10000114
102
{ACAD_XDICTIONARY
360
10000115
102
}
330
1F
100
AcDbEntity
  8
VISIBLE
100
AcDbCircle
 10
45.07160155779787
 20
-40.17578369851706
 30
0.0
 40
0.3956164510627324
100
AcDbArc
 50
276.6248690400163
 51
2.042731821896764
  0
SPLINE
  5
10000117
102
{ACAD_XDICTIONARY
360
10000118
102
}
330
1F
100
AcDbEntity
  8
VISIBLE
100
AcDbSpline
210
0.0
220
0.0
230
1.0
 70
     8
 71
     3
 72
    44
 73
    40
 74
     0
 42
0.000000001
 43
0.00000001
 40
0.0374573816692533
 40
0.0374573816692533
 40
0.0374573816692533
 40
0.0374573816692533
 40
0.1173270388283835
 40
0.1245633749097421
 40
0.1339054427745929
 40
0.1449591259385422
 40
0.157492824253456
 40
0.1713493489450592
 40
0.186412979324603
 40
0.2025939139161435
 40
0.2198198341683084
 40
0.2380308751317531
 40
0.2571764150177153
 40
0.2772129162632477
 40
0.2981024128312286
 40
0.3198114144576313
 40
0.3423100907832787
 40
0.3655716496568647
 40
0.3895718539492967
 40
0.4142886395604836
 40
0.4397018088992017
 40
0.4657927816818093
 40
0.4925443899635603
 40
0.5199407077925865
 40
0.5479669083115218
 40
0.5766091428695075
 40
0.6058544379685353
 40
0.6356906067974987
 40
0.6661061728017248
 40
0.6970903032611986
 40
0.7286327512528589
 40
0.7607238046834918
 40
0.7933542413228106
 40
0.8265152889579642
 40
0.860198589943057
 40
0.8943961695393764
 40
0.9291004075405692
 40
0.9643040127571182
 40
0.9924917445823676
 40
0.9924917445823676
 40
0.9924917445823676
 40
0.9924917445823676
 10
45.11724315906777
 20
-40.56875853306119
 30
0.0
 10
44.86648651309311
 20
-40.59788236961584
 30
0.0
 10
44.65380606891012
 20
-40.62266067492419
 30
0.0
 10
44.64827017480442
 20
-40.62367908769471
 30
0.0
 10
44.64216890308747
 20
-40.62466728979646
 30
0.0
 10
44.63504198289716
 20
-40.62602606123368
 30
0.0
 10
44.62546613985056
 20
-40.62801946834055
 30
0.0
 10
44.61395083758941
 20
-40.63067009977797
 30
0.0
 10
44.60036494284861
 20
-40.63408019253199
 30
0.0
 10
44.58478294546215
 20
-40.63832592660869
 30
0.0
 10
44.56721932745767
 20
-40.64349051171597
 30
0.0
 10
44.54770974384793
 20
-40.64965398448341
 30
0.0
 10
44.52628670995983
 20
-40.65689617480234
 30
0.0
 10
44.50298675974872
 20
-40.6652957443494
 30
0.0
 10
44.47784832932071
 20
-40.6749303833449
 30
0.0
 10
44.45091233772452
 20
-40.68587667111477
 30
0.0
 10
44.42222198516501
 20
-40.6982100348469
 30
0.0
 10
44.39182277305805
 20
-40.71200468119243
 30
0.0
 10
44.35976245844618
 20
-40.72733353662991
 30
0.0
 10
44.32609102487553
 20
-40.74426818638012
 30
0.0
 10
44.29086064655432
 20
-40.76287881480164
 30
0.0
 10
44.2541256524119
 20
-40.78323414647844
 30
0.0
 10
44.21594248824814
 20
-40.80540138826382
 30
0.0
 10
44.17636967752334
 20
-40.82944617224652
 30
0.0
 10
44.13546778067546
 20
-40.85543249970167
 30
0.0
 10
44.09329935302151
 20
-40.88342268601398
 30
0.0
 10
44.04992890130089
 20
-40.91347730676544
 30
0.0
 10
44.00542283872765
 20
-40.94565514441393
 30
0.0
 10
43.95984943920278
 20
-40.98001313792679
 30
0.0
 10
43.91327878831267
 20
-41.01660632644254
 30
0.0
 10
43.86578274035739
 20
-41.05548782137642
 30
0.0
 10
43.81743484609932
 20
-41.09670867516351
 30
0.0
 10
43.76831038662851
 20
-41.14031815168848
 30
0.0
 10
43.71848599528323
 20
-41.1863624655812
 30
0.0
 10
43.66804084891277
 20
-41.23488938191431
 30
0.0
 10
43.61705185770654
 20
-41.28593043179894
 30
0.0
 10
43.56561176244618
 20
-41.33956859453302
 30
0.0
 10
43.51744641259024
 20
-41.39169048219906
 30
0.0
 10
43.48661916295212
 20
-41.42661239187125
 30
0.0
 10
43.47292385072939
 20
-41.44219240318859
 30
0.0
  0
ARC
  5
1000011A
102
{ACAD_XDICTIONARY
360
1000011B
102
}
330
1F
100
AcDbEntity
  8
VISIBLE
100
AcDbCircle
 10
50.0
 20
-40.0
 30
0.0
 40
6.684507609859605
100
AcDbArc
 50
192.4596186495608
 51
197.5403813504392
  0
SPLINE
  5
1000011D
102
{ACAD_XDICTIONARY
360
1000011E
102
}
330
1F
100
AcDbEntity
  8
VISIBLE
100
AcDbSpline
210
0.0
220
0.0
230
1.0
 70
     8
 71
     3
 72
    44
 73
    40
 74
     0
 42
0.000000001
 43
0.00000001
 40
0.0374573816692528
 40
0.0374573816692528
 40
0.0374573816692528
 40
0.0374573816692528
 40
0.1173270388283835
 40
0.1245633749097421
 40
0.1339054427745929
 40
0.1449591259385422
 40
0.157492824253456
 40
0.1713493489450592
 40
0.186412979324603
 40
0.2025939139161435
 40
0.2198198341683084
 40
0.2380308751317531
 40
0.2571764150177153
 40
0.2772129162632477
 40
0.2981024128312286
 40
0.3198114144576313
 40
0.3423100907832787
 40
0.3655716496568647
 40
0.3895718539492967
 40
0.4142886395604836
 40
0.4397018088992017
 40
0.4657927816818093
 40
0.4925443899635603
 40
0.5199407077925865
 40
0.5479669083115218
 40
0.5766091428695075
 40
0.6058544379685353
 40
0.6356906067974987
 40
0.6661061728017248
 40
0.6970903032611986
 40
0.7286327512528589
 40
0.7607238046834918
 40
0.7933542413228106
 40
0.8265152889579642
 40
0.860198589943057
 40
0.8943961695393764
 40
0.9291004075405692
 40
0.9643040127571182
 40
0.9924917445823711
 40
0.9924917445823711
 40
0.9924917445823711
 40
0.9924917445823711
 10
45.48702926871984
 20
-41.94881908221596
 30
0.0
 10
45.2553057248607
 20
-42.0489754228913
 30
0.0
 10
45.05872990465588
 20
-42.13385700312303
 30
0.0
 10
45.05342647334242
 20
-42.13574297884507
 30
0.0
 10
45.04764851598927
 20
-42.13793780657937
 30
0.0
 10
45.04079703633511
 20
-42.14032453609194
 30
0.0
 10
45.03150740944066
 20
-42.14338611642061
 30
0.0
 10
45.02020954943155
 20
-42.1468482533903
 30
0.0
 10
45.00673877307587
 20
-42.15068797380647
 30
0.0
 10
44.99112150045914
 20
-42.15480205893156
 30
0.0
 10
44.97332866853125
 20
-42.15911120603089
 30
0.0
 10
44.95335113712424
 20
-42.16352827384362
 30
0.0
 10
44.93117715039154
 20
-42.16796786999243
 30
0.0
 10
44.90679901682827
 20
-42.17234360448939
 30
0.0
 10
44.88021117796861
 20
-42.176568977577
 30
0.0
 10
44.85141078108524
 20
-42.18055721008925
 30
0.0
 10
44.82039752505911
 20
-42.18422138006286
 30
0.0
 10
44.78717371194669
 20
-42.1874744719449
 30
0.0
 10
44.75174423732074
 20
-42.19022945103104
 30
0.0
 10
44.71411659559162
 20
-42.19239933092848
 30
0.0
 10
44.67430087876975
 20
-42.19389724309566
 30
0.0
 10
44.63230977479615
 20
-42.1946365058323
 30
0.0
 10
44.58815856374077
 20
-42.19453069339622
 30
0.0
 10
44.54186511236259
 20
-42.19349370500108
 30
0.0
 10
44.49344986690178
 20
-42.1914398336978
 30
0.0
 10
44.44293584415967
 20
-42.18828383512165
 30
0.0
 10
44.39034862082028
 20
-42.18394099591009
 30
0.0
 10
44.33571632118517
 20
-42.17832720235427
 30
0.0
 10
44.27906960270339
 20
-42.1713590069115
 30
0.0
 10
44.22044164170391
 20
-42.16295370149645
 30
0.0
 10
44.15986811012832
 20
-42.15302936312424
 30
0.0
 10
44.09738717858782
 20
-42.14150500370798
 30
0.0
 10
44.03303941047643
 20
-42.12830031892701
 30
0.0
 10
43.96686806489696
 20
-42.11333696906872
 30
0.0
 10
43.89891782847595
 20
-42.09653399994216
 30
0.0
 10
43.8292395418357
 20
-42.07782564970937
 30
0.0
 10
43.7578720312001
 20
-42.0570936857995
 30
0.0
 10
43.69009867080967
 20
-42.03603748191549
 30
0.0
 10
43.64594053465816
 20
-42.02120784580976
 30
0.0
 10
43.62629004070185
 20
-42.01456281632906
 30
0.0
  0
ARC
  5
10000120
102
{ACAD_XDICTIONARY
360
10000121
102
}
330
1F
100
AcDbEntity
  8
VISIBLE
100
AcDbCircle
 10
45.64398989982277
 20
-42.31196607261411
 30
0.0
 40
0.3956164510627324
100
AcDbArc
 50
27.957268178103
 51
113.3751309599836
  0
ARC
  5
10000123
102
{ACAD_XDICTIONARY
360
10000124
102
}
330
1F
100
AcDbEntity
  8
VISIBLE
100
AcDbCircle
 10
50.0
 20
-40.0
 30
0.0
 40
4.535915878119019
100
AcDbArc
 50
207.9572681781036
 51
212.0427318218965
  0
ENDSEC
  0
SECTION
  2
OBJECTS
  0
DICTIONARY
  5
C
330
0
100
AcDbDictionary
  3
ACAD_GROUP
350
D
  3
ACAD_LAYOUT
350
1A
  3
ACAD_MATERIAL
350
43
  3
ACAD_MLEADERSTYLE
350
6B
  3
ACAD_MLINESTYLE
350
17
  3
ACAD_PLOTSETTINGS
350
19
  3
ACAD_SCALELIST
350
47
  3
ACAD_VISUALSTYLE
350
2A
  3
ACDBHEADERROUNDTRIPXREC
350
10000128
  3
ACDBVARIABLEDICTIONARY
350
10000149
  3
DWGPROPS
350
10000150
  3
ONSHAPE_DATA
350
10000001
  0
DICTIONARY
  5
10000151
330
8
100
AcDbDictionary
280
     1
  3
ACAD_XREC_ROUNDTRIP
360
10000152
  0
DICTIONARY
  5
10000126
330
1F
100
AcDbDictionary
280
     1
  3
ACAD_SORTENTS
360
10000127
  0
DICTIONARY
  5
1000004C
330
1000004B
100
AcDbDictionary
280
     1
  3
BTDETID
360
1000004D
  0
DICTIONARY
  5
1000004F
330
1000004E
100
AcDbDictionary
280
     1
  3
BTDETID
360
10000050
  0
DICTIONARY
  5
10000052
330
10000051
100
AcDbDictionary
280
     1
  3
BTDETID
360
10000053
  0
DICTIONARY
  5
10000055
330
10000054
100
AcDbDictionary
280
     1
  3
BTDETID
360
10000056
  0
DICTIONARY
  5
10000058
330
10000057
100
AcDbDictionary
280
     1
  3
BTDETID
360
10000059
  0
DICTIONARY
  5
1000005B
330
1000005A
100
AcDbDictionary
280
     1
  3
BTDETID
360
1000005C
  0
DICTIONARY
  5
1000005E
330
1000005D
100
AcDbDictionary
280
     1
  3
BTDETID
360
1000005F
  0
DICTIONARY
  5
10000061
330
10000060
100
AcDbDictionary
280
     1
  3
BTDETID
360
10000062
  0
DICTIONARY
  5
10000064
330
10000063
100
AcDbDictionary
280
     1
  3
BTDETID
360
10000065
  0
DICTIONARY
  5
10000067
330
10000066
100
AcDbDictionary
280
     1
  3
BTDETID
360
10000068
  0
DICTIONARY
  5
1000006A
330
10000069
100
AcDbDictionary
280
     1
  3
BTDETID
360
1000006B
  0
DICTIONARY
  5
1000006D
330
1000006C
100
AcDbDictionary
280
     1
  3
BTDETID
360
1000006E
  0
DICTIONARY
  5
10000070
330
1000006F
100
AcDbDictionary
280
     1
  3
BTDETID
360
10000071
  0
DICTIONARY
  5
10000073
330
10000072
100
AcDbDictionary
280
     1
  3
BTDETID
360
10000074
  0
DICTIONARY
  5
10000076
330
10000075
100
AcDbDictionary
280
     1
  3
BTDETID
360
10000077
  0
DICTIONARY
  5
10000079
330
10000078
100
AcDbDictionary
280
     1
  3
BTDETID
360
1000007A
  0
DICTIONARY
  5
1000007C
330
1000007B
100
AcDbDictionary
280
     1
  3
BTDETID
360
1000007D
  0
DICTIONARY
  5
1000007F
330
1000007E
100
AcDbDictionary
280
     1
  3
BTDETID
360
10000080
  0
DICTIONARY
  5
10000082
330
10000081
100
AcDbDictionary
280
     1
  3
BTDETID
360
10000083
  0
DICTIONARY
  5
10000085
330
10000084
100
AcDbDictionary
280
     1
  3
BTDETID
360
10000086
  0
DICTIONARY
  5
10000088
330
10000087
100
AcDbDictionary
280
     1
  3
BTDETID
360
10000089
  0
DICTIONARY
  5
1000008B
330
1000008A
100
AcDbDictionary
280
     1
  3
BTDETID
360
1000008C
  0
DICTIONARY
  5
1000008E
330
1000008D
100
AcDbDictionary
280
     1
  3
BTDETID
360
1000008F
  0
DICTIONARY
  5
10000091
330
10000090
100
AcDbDictionary
280
     1
  3
BTDETID
360
10000092
  0
DICTIONARY
  5
10000094
330
10000093
100
AcDbDictionary
280
     1
  3
BTDETID
360
10000095
  0
DICTIONARY
  5
10000097
330
10000096
100
AcDbDictionary
280
     1
  3
BTDETID
360
10000098
  0
DICTIONARY
  5
1000009A
330
10000099
100
AcDbDictionary
280
     1
  3
BTDETID
360
1000009B
  0
DICTIONARY
  5
1000009D
330
1000009C
100
AcDbDictionary
280
     1
  3
BTDETID
360
1000009E
  0
DICTIONARY
  5
100000A0
330
1000009F
100
AcDbDictionary
280
     1
  3
BTDETID
360
100000A1
  0
DICTIONARY
  5
100000A3
330
100000A2
100
AcDbDictionary
280
     1
  3
BTDETID
360
100000A4
  0
DICTIONARY
  5
100000A6
330
100000A5
100
AcDbDictionary
280
     1
  3
BTDETID
360
100000A7
  0
DICTIONARY
  5
100000A9
330
100000A8
100
AcDbDictionary
280
     1
  3
BTDETID
360
100000AA
  0
DICTIONARY
  5
100000AC
330
100000AB
100
AcDbDictionary
280
     1
  3
BTDETID
360
100000AD
  0
DICTIONARY
  5
100000AF
330
100000AE
100
AcDbDictionary
280
     1
  3
BTDETID
360
100000B0
  0
DICTIONARY
  5
100000B2
330
100000B1
100
AcDbDictionary
280
     1
  3
BTDETID
360
100000B3
  0
DICTIONARY
  5
100000B5
330
100000B4
100
AcDbDictionary
280
     1
  3
BTDETID
360
100000B6
  0
DICTIONARY
  5
100000B8
330
100000B7
100
AcDbDictionary
280
     1
  3
BTDETID
360
100000B9
  0
DICTIONARY
  5
100000BB
330
100000BA
100
AcDbDictionary
280
     1
  3
BTDETID
360
100000BC
  0
DICTIONARY
  5
100000BE
330
100000BD
100
AcDbDictionary
280
     1
  3
BTDETID
360
100000BF
  0
DICTIONARY
  5
100000C1
330
100000C0
100
AcDbDictionary
280
     1
  3
BTDETID
360
100000C2
  0
DICTIONARY
  5
100000C4
330
100000C3
100
AcDbDictionary
280
     1
  3
BTDETID
360
100000C5
  0
DICTIONARY
  5
100000C7
330
100000C6
100
AcDbDictionary
280
     1
  3
BTDETID
360
100000C8
  0
DICTIONARY
  5
100000CA
330
100000C9
100
AcDbDictionary
280
     1
  3
BTDETID
360
100000CB
  0
DICTIONARY
  5
100000CD
330
100000CC
100
AcDbDictionary
280
     1
  3
BTDETID
360
100000CE
  0
DICTIONARY
  5
100000D0
330
100000CF
100
AcDbDictionary
280
     1
  3
BTDETID
360
100000D1
  0
DICTIONARY
  5
100000D3
330
100000D2
100
AcDbDictionary
280
     1
  3
BTDETID
360
100000D4
  0
DICTIONARY
  5
100000D6
330
100000D5
100
AcDbDictionary
280
     1
  3
BTDETID
360
100000D7
  0
DICTIONARY
  5
100000D9
330
100000D8
100
AcDbDictionary
280
     1
  3
BTDETID
360
100000DA
  0
DICTIONARY
  5
100000DC
330
100000DB
100
AcDbDictionary
280
     1
  3
BTDETID
360
100000DD
  0
DICTIONARY
  5
100000DF
330
100000DE
100
AcDbDictionary
280
     1
  3
BTDETID
360
100000E0
  0
DICTIONARY
  5
100000E2
330
100000E1
100
AcDbDictionary
280
     1
  3
BTDETID
360
100000E3
  0
DICTIONARY
  5
100000E5
330
100000E4
100
AcDbDictionary
280
     1
  3
BTDETID
360
100000E6
  0
DICTIONARY
  5
100000E8
330
100000E7
100
AcDbDictionary
280
     1
  3
BTDETID
360
100000E9
  0
DICTIONARY
  5
100000EB
330
100000EA
100
AcDbDictionary
280
     1
  3
BTDETID
360
100000EC
  0
DICTIONARY
  5
100000EE
330
100000ED
100
AcDbDictionary
280
     1
  3
BTDETID
360
100000EF
  0
DICTIONARY
  5
100000F1
330
100000F0
100
AcDbDictionary
280
     1
  3
BTDETID
360
100000F2
  0
DICTIONARY
  5
100000F4
330
100000F3
100
AcDbDictionary
280
     1
  3
BTDETID
360
100000F5
  0
DICTIONARY
  5
100000F7
330
100000F6
100
AcDbDictionary
280
     1
  3
BTDETID
360
100000F8
  0
DICTIONARY
  5
100000FA
330
100000F9
100
AcDbDictionary
280
     1
  3
BTDETID
360
100000FB
  0
DICTIONARY
  5
100000FD
330
100000FC
100
AcDbDictionary
280
     1
  3
BTDETID
360
100000FE
  0
DICTIONARY
  5
10000100
330
100000FF
100
AcDbDictionary
280
     1
  3
BTDETID
360
10000101
  0
DICTIONARY
  5
10000103
330
10000102
100
AcDbDictionary
280
     1
  3
BTDETID
360
10000104
  0
DICTIONARY
  5
10000106
330
10000105
100
AcDbDictionary
280
     1
  3
BTDETID
360
10000107
  0
DICTIONARY
  5
10000109
330
10000108
100
AcDbDictionary
280
     1
  3
BTDETID
360
1000010A
  0
DICTIONARY
  5
1000010C
330
1000010B
100
AcDbDictionary
280
     1
  3
BTDETID
360
1000010D
  0
DICTIONARY
  5
1000010F
330
1000010E
100
AcDbDictionary
280
     1
  3
BTDETID
360
10000110
  0
DICTIONARY
  5
10000112
330
10000111
100
AcDbDictionary
280
     1
  3
BTDETID
360
10000113
  0
DICTIONARY
  5
10000115
330
10000114
100
AcDbDictionary
280
     1
  3
BTDETID
360
10000116
  0
DICTIONARY
  5
10000118
330
10000117
100
AcDbDictionary
280
     1
  3
BTDETID
360
10000119
  0
DICTIONARY
  5
1000011B
330
1000011A
100
AcDbDictionary
280
     1
  3
BTDETID
360
1000011C
  0
DICTIONARY
  5
1000011E
330
1000011D
100
AcDbDictionary
280
     1
  3
BTDETID
360
1000011F
  0
DICTIONARY
  5
10000121
330
10000120
100
AcDbDictionary
280
     1
  3
BTDETID
360
10000122
  0
DICTIONARY
  5
10000124
330
10000123
100
AcDbDictionary
280
     1
  3
BTDETID
360
10000125
  0
DICTIONARY
  5
D
102
{ACAD_REACTORS
330
C
102
}
330
C
100
AcDbDictionary
  0
DICTIONARY
  5
1A
102
{ACAD_REACTORS
330
C
102
}
330
C
100
AcDbDictionary
  0
DICTIONARY
  5
43
102
{ACAD_REACTORS
330
C
102
}
330
C
100
AcDbDictionary
  3
BYBLOCK
350
45
  3
BYLAYER
350
44
  3
GLOBAL
350
46
  0
DICTIONARY
  5
6B
102
{ACAD_REACTORS
330
C
102
}
330
C
100
AcDbDictionary
  3
STANDARD
350
6C
  0
DICTIONARY
  5
17
102
{ACAD_REACTORS
330
C
102
}
330
C
100
AcDbDictionary
  3
STANDARD
350
18
  0
DICTIONARY
  5
19
102
{ACAD_REACTORS
330
C
102
}
330
C
100
AcDbDictionary
  0
DICTIONARY
  5
47
102
{ACAD_REACTORS
330
C
102
}
330
C
100
AcDbDictionary
  3
SCALE100_1
350
10000023
  3
SCALE10_1
350
1000001D
  3
SCALE12_1
350
1000001E
  3
SCALE16_1
350
1000001F
  3
SCALE1_1
350
10000006
  3
SCALE1_10
350
1000000D
  3
SCALE1_100
350
10000016
  3
SCALE1_12
350
1000000E
  3
SCALE1_16
350
1000000F
  3
SCALE1_2
350
10000007
  3
SCALE1_20
350
10000010
  3
SCALE1_25
350
10000011
  3
SCALE1_3
350
10000008
  3
SCALE1_32
350
10000012
  3
SCALE1_4
350
10000009
  3
SCALE1_40
350
10000013
  3
SCALE1_5
350
1000000A
  3
SCALE1_50
350
10000014
  3
SCALE1_6
350
1000000B
  3
SCALE1_8
350
1000000C
  3
SCALE1_80
350
10000015
  3
SCALE20_1
350
10000020
  3
SCALE2_1
350
10000017
  3
SCALE32_1
350
10000021
  3
SCALE3_1
350
10000018
  3
SCALE4_1
350
10000019
  3
SCALE50_1
350
10000022
  3
SCALE5_1
350
1000001A
  3
SCALE6_1
350
1000001B
  3
SCALE8_1
350
1000001C
  0
DICTIONARY
  5
2A
102
{ACAD_REACTORS
330
C
102
}
330
C
100
AcDbDictionary
  3
2DWIREFRAME
350
2F
  3
BASIC
350
32
  3
BRIGHTEN
350
36
  3
COLORCHANGE
350
3A
  3
CONCEPTUAL
350
34
  3
DIM
350
35
  3
EDGECOLOROFF
350
3D
  3
FACEPATTERN
350
39
  3
FLAT
350
2B
  3
FLATWITHEDGES
350
2C
  3
GOURAUD
350
2D
  3
GOURAUDWITHEDGES
350
2E
  3
HIDDEN
350
31
  3
JITTEROFF
350
3B
  3
LINEPATTERN
350
38
  3
OVERHANGOFF
350
3C
  3
REALISTIC
350
33
  3
SHADED
350
42
  3
SHADED_WITH_EDGES
350
41
  3
SHADES_OF_GRAY
350
3E
  3
SKETCHY
350
3F
  3
THICKEN
350
37
  3
WIREFRAME
350
30
  3
X-RAY
350
40
  0
DICTIONARY
  5
10000128
102
{ACAD_REACTORS
330
C
102
}
330
C
100
AcDbDictionary
  3
CEPSNID
350
10000132
  3
CEPSNTYPE
350
10000131
  3
DIMSTYLEDATA
350
10000148
  3
FINGERPRINTGUID
350
10000133
  3
HYPERLINKBASE
350
1000012B
  3
INSUNITS
350
10000130
  3
LAYOUTDICT
350
1000012D
  3
LWETCUNION
350
1000012F
  3
PLOTSETDICT
350
1000012E
  3
PSVPSCALE
350
10000135
  3
PUCSBASE
350
10000138
  3
PUCSORGBACK
350
1000013E
  3
PUCSORGBOTTOM
350
1000013A
  3
PUCSORGFRONT
350
1000013D
  3
PUCSORGLEFT
350
1000013B
  3
PUCSORGRIGHT
350
1000013C
  3
PUCSORGTOP
350
10000139
  3
PUCSORTHOREF
350
10000136
  3
PUCSORTHOVIEW
350
10000137
  3
STYLESHEET
350
1000012C
  3
TSTACKALIGN
350
10000129
  3
TSTACKSIZE
350
1000012A
  3
UCSBASE
350
10000141
  3
UCSORGBACK
350
10000147
  3
UCSORGBOTTOM
350
10000143
  3
UCSORGFRONT
350
10000146
  3
UCSORGLEFT
350
10000144
  3
UCSORGRIGHT
350
10000145
  3
UCSORGTOP
350
10000142
  3
UCSORTHOREF
350
1000013F
  3
UCSORTHOVIEW
350
10000140
  3
VERSIONGUID
350
10000134
  0
DICTIONARY
  5
10000149
102
{ACAD_REACTORS
330
C
102
}
330
C
100
AcDbDictionary
  3
CANNOSCALE
350
10000153
  3
CMLEADERSTYLE
350
1000014B
  3
CTABLESTYLE
350
1000014A
  3
DIMASSOC
350
1000014E
  3
HIDETEXT
350
1000014F
  3
MSLTSCALE
350
10000154
  0
XRECORD
  5
10000150
102
{ACAD_REACTORS
330
C
102
}
330
C
100
AcDbXrecord
  1
DWGPROPS COOKIE
  2

  3

  4

  6
File was created by BTDwgCreate
  7

  8

  9

300
=
301
=
302
=
303
=
304
=
305
=
306
=
307
=
308
=
309
=
 40
0.0
 41
2458352.600001736
 42
2458352.600001782
  1

 90
        0
  0
DICTIONARY
  5
10000001
102
{ACAD_REACTORS
330
C
102
}
330
C
100
AcDbDictionary
280
     1
  3
DIM_UNITS
360
10000003
  3
DWGGEN_VERSION
360
10000002
  3
FIRST_ANGLE
360
10000005
  0
XRECORD
  5
10000152
102
{ACAD_REACTORS
330
10000151
102
}
330
10000151
100
AcDbXrecord
102
VTR_0.000_0.000_1.000_1.000_VISUALSTYLE
340
2F
102
VTR_0.000_0.000_1.000_1.000_GRIDDISPLAY
 70
     3
102
VTR_0.000_0.000_1.000_1.000_GRIDMAJOR
 70
     5
102
VTR_0.000_0.000_1.000_1.000_DEFAULTLIGHTING
280
     1
102
VTR_0.000_0.000_1.000_1.000_DEFAULTLIGHTINGTYPE
 70
     1
102
VTR_0.000_0.000_1.000_1.000_BRIGHTNESS
141
0.0
102
VTR_0.000_0.000_1.000_1.000_CONTRAST
142
0.0
  0
SORTENTSTABLE
  5
10000127
102
{ACAD_REACTORS
330
10000126
102
}
330
10000126
100
AcDbSortentsTable
330
1F
  0
XRECORD
  5
1000004D
102
{ACAD_REACTORS
330
1000004C
102
}
330
1000004C
100
AcDbXrecord
1000
RMBF
  0
XRECORD
  5
10000050
102
{ACAD_REACTORS
330
1000004F
102
}
330
1000004F
100
AcDbXrecord
1000
SMBZH
  0
XRECORD
  5
10000053
102
{ACAD_REACTORS
330
10000052
102
}
330
10000052
100
AcDbXrecord
1000
SMB1H
  0
XRECORD
  5
10000056
102
{ACAD_REACTORS
330
10000055
102
}
330
10000055
100
AcDbXrecord
1000
SMBZN
  0
XRECORD
  5
10000059
102
{ACAD_REACTORS
330
10000058
102
}
330
10000058
100
AcDbXrecord
1000
SMB9I
  0
XRECORD
  5
1000005C
102
{ACAD_REACTORS
330
1000005B
102
}
330
1000005B
100
AcDbXrecord
1000
SMBlI
  0
XRECORD
  5
1000005F
102
{ACAD_REACTORS
330
1000005E
102
}
330
1000005E
100
AcDbXrecord
1000
SMBFJ
  0
XRECORD
  5
10000062
102
{ACAD_REACTORS
330
10000061
102
}
330
10000061
100
AcDbXrecord
1000
SMBZI
  0
XRECORD
  5
10000065
102
{ACAD_REACTORS
330
10000064
102
}
330
10000064
100
AcDbXrecord
1000
SMB1I
  0
XRECORD
  5
10000068
102
{ACAD_REACTORS
330
10000067
102
}
330
10000067
100
AcDbXrecord
1000
SMBdN
  0
XRECORD
  5
1000006B
102
{ACAD_REACTORS
330
1000006A
102
}
330
1000006A
100
AcDbXrecord
1000
SMB9J
  0
XRECORD
  5
1000006E
102
{ACAD_REACTORS
330
1000006D
102
}
330
1000006D
100
AcDbXrecord
1000
SMBlJ
  0
XRECORD
  5
10000071
102
{ACAD_REACTORS
330
10000070
102
}
330
10000070
100
AcDbXrecord
1000
SMBFK
  0
XRECORD
  5
10000074
102
{ACAD_REACTORS
330
10000073
102
}
330
10000073
100
AcDbXrecord
1000
SMBZJ
  0
XRECORD
  5
10000077
102
{ACAD_REACTORS
330
10000076
102
}
330
10000076
100
AcDbXrecord
1000
SMB1J
  0
XRECORD
  5
1000007A
102
{ACAD_REACTORS
330
10000079
102
}
330
10000079
100
AcDbXrecord
1000
SMBhN
  0
XRECORD
  5
1000007D
102
{ACAD_REACTORS
330
1000007C
102
}
330
1000007C
100
AcDbXrecord
1000
SMB9K
  0
XRECORD
  5
10000080
102
{ACAD_REACTORS
330
1000007F
102
}
330
1000007F
100
AcDbXrecord
1000
SMBlK
  0
XRECORD
  5
10000083
102
{ACAD_REACTORS
330
10000082
102
}
330
10000082
100
AcDbXrecord
1000
SMBFL
  0
XRECORD
  5
10000086
102
{ACAD_REACTORS
330
10000085
102
}
330
10000085
100
AcDbXrecord
1000
SMBZK
  0
XRECORD
  5
10000089
102
{ACAD_REACTORS
330
10000088
102
}
330
10000088
100
AcDbXrecord
1000
SMB1K
  0
XRECORD
  5
1000008C
102
{ACAD_REACTORS
330
1000008B
102
}
330
1000008B
100
AcDbXrecord
1000
SMBlN
  0
XRECORD
  5
1000008F
102
{ACAD_REACTORS
330
1000008E
102
}
330
1000008E
100
AcDbXrecord
1000
SMB9L
  0
XRECORD
  5
10000092
102
{ACAD_REACTORS
330
10000091
102
}
330
10000091
100
AcDbXrecord
1000
SMBlL
  0
XRECORD
  5
10000095
102
{ACAD_REACTORS
330
10000094
102
}
330
10000094
100
AcDbXrecord
1000
SMBFM
  0
XRECORD
  5
10000098
102
{ACAD_REACTORS
330
10000097
102
}
330
10000097
100
AcDbXrecord
1000
SMBZL
  0
XRECORD
  5
1000009B
102
{ACAD_REACTORS
330
1000009A
102
}
330
1000009A
100
AcDbXrecord
1000
SMB1L
  0
XRECORD
  5
1000009E
102
{ACAD_REACTORS
330
1000009D
102
}
330
1000009D
100
AcDbXrecord
1000
SMB9M
  0
XRECORD
  5
100000A1
102
{ACAD_REACTORS
330
100000A0
102
}
330
100000A0
100
AcDbXrecord
1000
RMB9
  0
XRECORD
  5
100000A4
102
{ACAD_REACTORS
330
100000A3
102
}
330
100000A3
100
AcDbXrecord
1000
RMBl
  0
XRECORD
  5
100000A7
102
{ACAD_REACTORS
330
100000A6
102
}
330
100000A6
100
AcDbXrecord
1000
SMBFB
  0
XRECORD
  5
100000AA
102
{ACAD_REACTORS
330
100000A9
102
}
330
100000A9
100
AcDbXrecord
1000
RMBZ
  0
XRECORD
  5
100000AD
102
{ACAD_REACTORS
330
100000AC
102
}
330
100000AC
100
AcDbXrecord
1000
RMB1
  0
XRECORD
  5
100000B0
102
{ACAD_REACTORS
330
100000AF
102
}
330
100000AF
100
AcDbXrecord
1000
SMB5M
  0
XRECORD
  5
100000B3
102
{ACAD_REACTORS
330
100000B2
102
}
330
100000B2
100
AcDbXrecord
1000
SMB9B
  0
XRECORD
  5
100000B6
102
{ACAD_REACTORS
330
100000B5
102
}
330
100000B5
100
AcDbXrecord
1000
SMBlB
  0
XRECORD
  5
100000B9
102
{ACAD_REACTORS
330
100000B8
102
}
330
100000B8
100
AcDbXrecord
1000
SMBFC
  0
XRECORD
  5
100000BC
102
{ACAD_REACTORS
330
100000BB
102
}
330
100000BB
100
AcDbXrecord
1000
SMBZB
  0
XRECORD
  5
100000BF
102
{ACAD_REACTORS
330
100000BE
102
}
330
100000BE
100
AcDbXrecord
1000
SMB1B
  0
XRECORD
  5
100000C2
102
{ACAD_REACTORS
330
100000C1
102
}
330
100000C1
100
AcDbXrecord
1000
SMBBN
  0
XRECORD
  5
100000C5
102
{ACAD_REACTORS
330
100000C4
102
}
330
100000C4
100
AcDbXrecord
1000
SMB9C
  0
XRECORD
  5
100000C8
102
{ACAD_REACTORS
330
100000C7
102
}
330
100000C7
100
AcDbXrecord
1000
SMBlC
  0
XRECORD
  5
100000CB
102
{ACAD_REACTORS
330
100000CA
102
}
330
100000CA
100
AcDbXrecord
1000
SMBFD
  0
XRECORD
  5
100000CE
102
{ACAD_REACTORS
330
100000CD
102
}
330
100000CD
100
AcDbXrecord
1000
SMBZC
  0
XRECORD
  5
100000D1
102
{ACAD_REACTORS
330
100000D0
102
}
330
100000D0
100
AcDbXrecord
1000
SMB1C
  0
XRECORD
  5
100000D4
102
{ACAD_REACTORS
330
100000D3
102
}
330
100000D3
100
AcDbXrecord
1000
SMBFN
  0
XRECORD
  5
100000D7
102
{ACAD_REACTORS
330
100000D6
102
}
330
100000D6
100
AcDbXrecord
1000
SMB9D
  0
XRECORD
  5
100000DA
102
{ACAD_REACTORS
330
100000D9
102
}
330
100000D9
100
AcDbXrecord
1000
SMBlD
  0
XRECORD
  5
100000DD
102
{ACAD_REACTORS
330
100000DC
102
}
330
100000DC
100
AcDbXrecord
1000
SMBFE
  0
XRECORD
  5
100000E0
102
{ACAD_REACTORS
330
100000DF
102
}
330
100000DF
100
AcDbXrecord
1000
SMBZD
  0
XRECORD
  5
100000E3
102
{ACAD_REACTORS
330
100000E2
102
}
330
100000E2
100
AcDbXrecord
1000
SMB1D
  0
XRECORD
  5
100000E6
102
{ACAD_REACTORS
330
100000E5
102
}
330
100000E5
100
AcDbXrecord
1000
SMBJN
  0
XRECORD
  5
100000E9
102
{ACAD_REACTORS
330
100000E8
102
}
330
100000E8
100
AcDbXrecord
1000
SMB9E
  0
XRECORD
  5
100000EC
102
{ACAD_REACTORS
330
100000EB
102
}
330
100000EB
100
AcDbXrecord
1000
SMBlE
  0
XRECORD
  5
100000EF
102
{ACAD_REACTORS
330
100000EE
102
}
330
100000EE
100
AcDbXrecord
1000
SMBFF
  0
XRECORD
  5
100000F2
102
{ACAD_REACTORS
330
100000F1
102
}
330
100000F1
100
AcDbXrecord
1000
SMBZE
  0
XRECORD
  5
100000F5
102
{ACAD_REACTORS
330
100000F4
102
}
330
100000F4
100
AcDbXrecord
1000
SMB1E
  0
XRECORD
  5
100000F8
102
{ACAD_REACTORS
330
100000F7
102
}
330
100000F7
100
AcDbXrecord
1000
SMBNN
  0
XRECORD
  5
100000FB
102
{ACAD_REACTORS
330
100000FA
102
}
330
100000FA
100
AcDbXrecord
1000
SMB9F
  0
XRECORD
  5
100000FE
102
{ACAD_REACTORS
330
100000FD
102
}
330
100000FD
100
AcDbXrecord
1000
SMBlF
  0
XRECORD
  5
10000101
102
{ACAD_REACTORS
330
10000100
102
}
330
10000100
100
AcDbXrecord
1000
SMBFG
  0
XRECORD
  5
10000104
102
{ACAD_REACTORS
330
10000103
102
}
330
10000103
100
AcDbXrecord
1000
SMBZF
  0
XRECORD
  5
10000107
102
{ACAD_REACTORS
330
10000106
102
}
330
10000106
100
AcDbXrecord
1000
SMB1F
  0
XRECORD
  5
1000010A
102
{ACAD_REACTORS
330
10000109
102
}
330
10000109
100
AcDbXrecord
1000
SMBRN
  0
XRECORD
  5
1000010D
102
{ACAD_REACTORS
330
1000010C
102
}
330
1000010C
100
AcDbXrecord
1000
SMB9G
  0
XRECORD
  5
10000110
102
{ACAD_REACTORS
330
1000010F
102
}
330
1000010F
100
AcDbXrecord
1000
SMBlG
  0
XRECORD
  5
10000113
102
{ACAD_REACTORS
330
10000112
102
}
330
10000112
100
AcDbXrecord
1000
SMBFH
  0
XRECORD
  5
10000116
102
{ACAD_REACTORS
330
10000115
102
}
330
10000115
100
AcDbXrecord
1000
SMBZG
  0
XRECORD
  5
10000119
102
{ACAD_REACTORS
330
10000118
102
}
330
10000118
100
AcDbXrecord
1000
SMB1G
  0
XRECORD
  5
1000011C
102
{ACAD_REACTORS
330
1000011B
102
}
330
1000011B
100
AcDbXrecord
1000
SMBVN
  0
XRECORD
  5
1000011F
102
{ACAD_REACTORS
330
1000011E
102
}
330
1000011E
100
AcDbXrecord
1000
SMB9H
  0
XRECORD
  5
10000122
102
{ACAD_REACTORS
330
10000121
102
}
330
10000121
100
AcDbXrecord
1000
SMBlH
  0
XRECORD
  5
10000125
102
{ACAD_REACTORS
330
10000124
102
}
330
10000124
100
AcDbXrecord
1000
SMBFI
  0
MATERIAL
  5
45
102
{ACAD_REACTORS
330
43
102
}
102
{ACAD_XDICTIONARY
360
10000157
102
}
330
43
100
AcDbMaterial
  1
BYBLOCK
  0
MATERIAL
  5
44
102
{ACAD_REACTORS
330
43
102
}
102
{ACAD_XDICTIONARY
360
10000155
102
}
330
43
100
AcDbMaterial
  1
BYLAYER
  0
MATERIAL
  5
46
102
{ACAD_REACTORS
330
43
102
}
102
{ACAD_XDICTIONARY
360
10000159
102
}
330
43
100
AcDbMaterial
  1
GLOBAL
  0
ACAD_PROXY_OBJECT
  5
6C
102
{ACAD_REACTORS
330
6B
102
}
330
6B
100
AcDbProxyObject
 90
      499
 91
      505
 93
      610
310
40901902A4063FBFFFFFE056BD1B81E855B9FC0AD7A3703D0AD73F4214DD185B99185C9900AD7A3703D0AC73F90141901A02B5E8DC0F42B1CFC02B5E8DC0F42B1CFE5764000000000000300FC0
340
14
340
0
340
11
340
0
 94
        0
1001
ACAD_MLEADERVER
1070
     2
  0
MLINESTYLE
  5
18
102
{ACAD_REACTORS
330
17
102
}
330
17
100
AcDbMlineStyle
  2
Standard
 70
     0
  3

 62
   256
 51
90.0
 52
90.0
 71
     2
 49
0.5
 62
   256
  6
BYLAYER
 49
-0.5
 62
   256
  6
BYLAYER
  0
ACAD_PROXY_OBJECT
  5
10000023
102
{ACAD_REACTORS
330
47
102
}
330
47
100
AcDbProxyObject
 90
      499
 91
      503
 93
      121
310
9053130303A310000000000001650100
  0
ACAD_PROXY_OBJECT
  5
1000001D
102
{ACAD_REACTORS
330
47
102
}
330
47
100
AcDbProxyObject
 90
      499
 91
      503
 93
      113
310
90431303A310000000000000910100
  0
ACAD_PROXY_OBJECT
  5
1000001E
102
{ACAD_REACTORS
330
47
102
}
330
47
100
AcDbProxyObject
 90
      499
 91
      503
 93
      113
310
90431323A310000000000000A10100
  0
ACAD_PROXY_OBJECT
  5
1000001F
102
{ACAD_REACTORS
330
47
102
}
330
47
100
AcDbProxyObject
 90
      499
 91
      503
 93
      113
310
90431363A310000000000000C10100
  0
ACAD_PROXY_OBJECT
  5
10000006
102
{ACAD_REACTORS
330
47
102
}
330
47
100
AcDbProxyObject
 90
      499
 91
      503
 93
       41
310
903313A31500
  0
ACAD_PROXY_OBJECT
  5
1000000D
102
{ACAD_REACTORS
330
47
102
}
330
47
100
AcDbProxyObject
 90
      499
 91
      503
 93
      113
310
904313A31304000000000000244000
  0
ACAD_PROXY_OBJECT
  5
10000016
102
{ACAD_REACTORS
330
47
102
}
330
47
100
AcDbProxyObject
 90
      499
 91
      503
 93
      121
310
905313A3130304000000000000594000
  0
ACAD_PROXY_OBJECT
  5
1000000E
102
{ACAD_REACTORS
330
47
102
}
330
47
100
AcDbProxyObject
 90
      499
 91
      503
 93
      113
310
904313A31324000000000000284000
  0
ACAD_PROXY_OBJECT
  5
1000000F
102
{ACAD_REACTORS
330
47
102
}
330
47
100
AcDbProxyObject
 90
      499
 91
      503
 93
      113
310
904313A31364000000000000304000
  0
ACAD_PROXY_OBJECT
  5
10000007
102
{ACAD_REACTORS
330
47
102
}
330
47
100
AcDbProxyObject
 90
      499
 91
      503
 93
      105
310
903313A324000000000000004000
  0
ACAD_PROXY_OBJECT
  5
10000010
102
{ACAD_REACTORS
330
47
102
}
330
47
100
AcDbProxyObject
 90
      499
 91
      503
 93
      113
310
904313A32304000000000000344000
  0
ACAD_PROXY_OBJECT
  5
10000011
102
{ACAD_REACTORS
330
47
102
}
330
47
100
AcDbProxyObject
 90
      499
 91
      503
 93
      113
310
904313A32354000000000000394000
  0
ACAD_PROXY_OBJECT
  5
10000008
102
{ACAD_REACTORS
330
47
102
}
330
47
100
AcDbProxyObject
 90
      499
 91
      503
 93
      105
310
903313A334000000000000084000
  0
ACAD_PROXY_OBJECT
  5
10000012
102
{ACAD_REACTORS
330
47
102
}
330
47
100
AcDbProxyObject
 90
      499
 91
      503
 93
      113
310
904313A33324000000000000404000
  0
ACAD_PROXY_OBJECT
  5
10000009
102
{ACAD_REACTORS
330
47
102
}
330
47
100
AcDbProxyObject
 90
      499
 91
      503
 93
      105
310
903313A344000000000000104000
  0
ACAD_PROXY_OBJECT
  5
10000013
102
{ACAD_REACTORS
330
47
102
}
330
47
100
AcDbProxyObject
 90
      499
 91
      503
 93
      113
310
904313A34304000000000000444000
  0
ACAD_PROXY_OBJECT
  5
1000000A
102
{ACAD_REACTORS
330
47
102
}
330
47
100
AcDbProxyObject
 90
      499
 91
      503
 93
      105
310
903313A354000000000000144000
  0
ACAD_PROXY_OBJECT
  5
10000014
102
{ACAD_REACTORS
330
47
102
}
330
47
100
AcDbProxyObject
 90
      499
 91
      503
 93
      113
310
904313A35304000000000000494000
  0
ACAD_PROXY_OBJECT
  5
1000000B
102
{ACAD_REACTORS
330
47
102
}
330
47
100
AcDbProxyObject
 90
      499
 91
      503
 93
      105
310
903313A364000000000000184000
  0
ACAD_PROXY_OBJECT
  5
1000000C
102
{ACAD_REACTORS
330
47
102
}
330
47
100
AcDbProxyObject
 90
      499
 91
      503
 93
      105
310
903313A384000000000000204000
  0
ACAD_PROXY_OBJECT
  5
10000015
102
{ACAD_REACTORS
330
47
102
}
330
47
100
AcDbProxyObject
 90
      499
 91
      503
 93
      113
310
904313A38304000000000000544000
  0
ACAD_PROXY_OBJECT
  5
10000020
102
{ACAD_REACTORS
330
47
102
}
330
47
100
AcDbProxyObject
 90
      499
 91
      503
 93
      113
310
90432303A310000000000000D10100
  0
ACAD_PROXY_OBJECT
  5
10000017
102
{ACAD_REACTORS
330
47
102
}
330
47
100
AcDbProxyObject
 90
      499
 91
      503
 93
      105
310
903323A310000000000000010100
  0
ACAD_PROXY_OBJECT
  5
10000021
102
{ACAD_REACTORS
330
47
102
}
330
47
100
AcDbProxyObject
 90
      499
 91
      503
 93
      113
310
90433323A310000000000001010100
  0
ACAD_PROXY_OBJECT
  5
10000018
102
{ACAD_REACTORS
330
47
102
}
330
47
100
AcDbProxyObject
 90
      499
 91
      503
 93
      105
310
903333A310000000000000210100
  0
ACAD_PROXY_OBJECT
  5
10000019
102
{ACAD_REACTORS
330
47
102
}
330
47
100
AcDbProxyObject
 90
      499
 91
      503
 93
      105
310
903343A310000000000000410100
  0
ACAD_PROXY_OBJECT
  5
10000022
102
{ACAD_REACTORS
330
47
102
}
330
47
100
AcDbProxyObject
 90
      499
 91
      503
 93
      113
310
90435303A310000000000001250100
  0
ACAD_PROXY_OBJECT
  5
1000001A
102
{ACAD_REACTORS
330
47
102
}
330
47
100
AcDbProxyObject
 90
      499
 91
      503
 93
      105
310
903353A310000000000000510100
  0
ACAD_PROXY_OBJECT
  5
1000001B
102
{ACAD_REACTORS
330
47
102
}
330
47
100
AcDbProxyObject
 90
      499
 91
      503
 93
      105
310
903363A310000000000000610100
  0
ACAD_PROXY_OBJECT
  5
1000001C
102
{ACAD_REACTORS
330
47
102
}
330
47
100
AcDbProxyObject
 90
      499
 91
      503
 93
      105
310
903383A310000000000000810100
  0
ACAD_PROXY_OBJECT
  5
2F
102
{ACAD_REACTORS
330
2A
102
}
330
2A
100
AcDbProxyObject
 90
      499
 91
      501
 93
      436
310
42CC9915DA5C99599C985B595049028333333333333E33F0000000000000F90107901411070040501600405405064090741402480A0340
1001
ACAD
1000
AcDbSavedByObjectVersion
1070
     0
  0
ACAD_PROXY_OBJECT
  5
32
102
{ACAD_REACTORS
330
2A
102
}
330
2A
100
AcDbProxyObject
 90
      499
 91
      501
 93
      388
310
4150985CDA58D07406404333333333333E33F0000000000000F90107A41107004050150841D405064090741402480A0350
1001
ACAD
1000
AcDbSavedByObjectVersion
1070
     0
  0
ACAD_PROXY_OBJECT
  5
36
102
{ACAD_REACTORS
330
2A
102
}
330
2A
100
AcDbProxyObject
 90
      499
 91
      501
 93
      428
310
42109C9A59DA1D195B90C409028333333333333E33F0000000000000F9010790141107004050150841D405064090741402480A029950
1001
ACAD
1000
AcDbSavedByObjectVersion
1070
     0
  0
ACAD_PROXY_OBJECT
  5
3A
102
{ACAD_REACTORS
330
2A
102
}
330
2A
100
AcDbProxyObject
 90
      499
 91
      501
 93
      452
310
42D0DBDB1BDC90DA185B99D95104090240C333333333333E33F0000000000000F90108901411070040501508421405064090741402480A0350
1001
ACAD
1000
AcDbSavedByObjectVersion
1070
     0
  0
ACAD_PROXY_OBJECT
  5
34
102
{ACAD_REACTORS
330
2A
102
}
330
2A
100
AcDbProxyObject
 90
      499
 91
      501
 93
      500
310
4290DBDB98D95C1D1D585B10940D028333333333333E33F0000000000000F90107902409070040501000000000018199010841D405064090740C02480A0340
1001
ACAD
1000
AcDbSavedByObjectVersion
1070
     0
  0
ACAD_PROXY_OBJECT
  5
35
102
{ACAD_REACTORS
330
2A
102
}
330
2A
100
AcDbProxyObject
 90
      499
 91
      501
 93
      412
310
40D11A5B50B409028333333333333E33F0000000000000F9010790141107004050150841D405064090741402480A02677FFFFFD0
1001
ACAD
1000
AcDbSavedByObjectVersion
1070
     0
  0
ACAD_PROXY_OBJECT
  5
3D
102
{ACAD_REACTORS
330
2A
102
}
330
2A
100
AcDbProxyObject
 90
      499
 91
      501
 93
      452
310
43115919D950DBDB1BDC93D999916409028333333333333E33F0000000000000F9010790141107004050150841D405064090741402480A0350
1001
ACAD
1000
AcDbSavedByObjectVersion
1070
     0
  0
ACAD_PROXY_OBJECT
  5
39
102
{ACAD_REACTORS
330
2A
102
}
330
2A
100
AcDbProxyObject
 90
      499
 91
      501
 93
      444
310
42D19858D95C185D1D195C9B90F409028333333333333E33F0000000000000F9010790141107004050150841D405064090741402480A0350
1001
ACAD
1000
AcDbSavedByObjectVersion
1070
     0
  0
ACAD_PROXY_OBJECT
  5
2B
102
{ACAD_REACTORS
330
2A
102
}
330
2A
100
AcDbProxyObject
 90
      499
 91
      501
 93
      380
310
41119B185D240901404333333333333E33F0000000000000F9010740A907004050150841D405064090741402480A1B50
1001
ACAD
1000
AcDbSavedByObjectVersion
1070
     0
  0
ACAD_PROXY_OBJECT
  5
2C
102
{ACAD_REACTORS
330
2A
102
}
330
2A
100
AcDbProxyObject
 90
      499
 91
      501
 93
      468
310
43519B185D15DA5D1A115919D95CD0140901404333333333333E33F0000000000000F90107409019070040501600405405064090741402480A1B50
1001
ACAD
1000
AcDbSavedByObjectVersion
1070
     0
  0
ACAD_PROXY_OBJECT
  5
2D
102
{ACAD_REACTORS
330
2A
102
}
330
2A
100
AcDbProxyObject
 90
      499
 91
      501
 93
      404
310
41D1DBDD5C985D5910240902404333333333333E33F0000000000000F9010740A9070040501641D405064090741402480A1B50
1001
ACAD
1000
AcDbSavedByObjectVersion
1070
     0
  0
ACAD_PROXY_OBJECT
  5
2E
102
{ACAD_REACTORS
330
2A
102
}
330
2A
100
AcDbProxyObject
 90
      499
 91
      501
 93
      492
310
4411DBDD5C985D5915DA5D1A115919D95CD0340902404333333333333E33F0000000000000F90107409019070040501600405405064090741402480A1B50
1001
ACAD
1000
AcDbSavedByObjectVersion
1070
     0
  0
ACAD_PROXY_OBJECT
  5
31
102
{ACAD_REACTORS
330
2A
102
}
330
2A
100
AcDbProxyObject
 90
      499
 91
      501
 93
      476
310
41921A5919195B90640502408333333333333E33F0000000000000F901079024090700405020000000000001110200405405064090740C02480A0340
1001
ACAD
1000
AcDbSavedByObjectVersion
1070
     0
  0
ACAD_PROXY_OBJECT
  5
3B
102
{ACAD_REACTORS
330
2A
102
}
330
2A
100
AcDbProxyObject
 90
      499
 91
      501
 93
      428
310
42529A5D1D195C93D999914409028333333333333E33F0000000000000F9010790141107004050150A41D405064090741402480A0350
1001
ACAD
1000
AcDbSavedByObjectVersion
1070
     0
  0
ACAD_PROXY_OBJECT
  5
38
102
{ACAD_REACTORS
330
2A
102
}
330
2A
100
AcDbProxyObject
 90
      499
 91
      501
 93
      444
310
42D31A5B995C185D1D195C9B90E409028333333333333E33F0000000000000F9010790141107004050750841D405064090741402483A0350
1001
ACAD
1000
AcDbSavedByObjectVersion
1070
     0
  0
ACAD_PROXY_OBJECT
  5
3C
102
{ACAD_REACTORS
330
2A
102
}
330
2A
100
AcDbProxyObject
 90
      499
 91
      501
 93
      444
310
42D3DD995C9A185B99D3D999915409028333333333333E33F0000000000000F9010790141107004050150941D405064090741402480A0350
1001
ACAD
1000
AcDbSavedByObjectVersion
1070
     0
  0
ACAD_PROXY_OBJECT
  5
33
102
{ACAD_REACTORS
330
2A
102
}
330
2A
100
AcDbProxyObject
 90
      499
 91
      501
 93
      428
310
425499585B1A5CDD1A58D08409038333333333333E33F0000000000000F9010740A907004050150800405405064090740C02480A1B40
1001
ACAD
1000
AcDbSavedByObjectVersion
1070
     0
  0
ACAD_PROXY_OBJECT
  5
42
102
{ACAD_REACTORS
330
2A
102
}
330
2A
100
AcDbProxyObject
 90
      499
 91
      501
 93
      420
310
4194DA1859195911B40902404333333333333E33F0000000000000F9010740A41107004050150800405405064090840C02480A0B40
1001
ACAD
1000
AcDbSavedByObjectVersion
1070
     0
  0
ACAD_PROXY_OBJECT
  5
41
102
{ACAD_REACTORS
330
2A
102
}
330
2A
100
AcDbProxyObject
 90
      499
 91
      501
 93
      516
310
4454DA18591959081DDA5D1A08195919D95CD1A40902404333333333333E33F0000000000000F901074090142907004050250800405405064090740C02480A0B40
1001
ACAD
1000
AcDbSavedByObjectVersion
1070
     0
  0
ACAD_PROXY_OBJECT
  5
3E
102
{ACAD_REACTORS
330
2A
102
}
330
2A
100
AcDbProxyObject
 90
      499
 91
      501
 93
      532
310
4394DA1859195CC81BD98811DC985E5174090240C333333333333E33F0000000000000F901079024090741D01000000000000111010841D405064090740C02480A0340
1001
ACAD
1000
AcDbSavedByObjectVersion
1070
     0
  0
ACAD_PROXY_OBJECT
  5
3F
102
{ACAD_REACTORS
330
2A
102
}
330
2A
100
AcDbProxyObject
 90
      499
 91
      501
 93
      476
310
41D4DAD95D18DA1E51840502408333333333333E33F0000000000000F901079024090741D01000000000000111010B41D405064090741802480A0340
1001
ACAD
1000
AcDbSavedByObjectVersion
1070
     0
  0
ACAD_PROXY_OBJECT
  5
37
102
{ACAD_REACTORS
330
2A
102
}
330
2A
100
AcDbProxyObject
 90
      499
 91
      501
 93
      412
310
41D51A1A58DAD95B90D409028333333333333E33F0000000000000F9010790141107004050150C41D405064090741402480A0350
1001
ACAD
1000
AcDbSavedByObjectVersion
1070
     0
  0
ACAD_PROXY_OBJECT
  5
30
102
{ACAD_REACTORS
330
2A
102
}
330
2A
100
AcDbProxyObject
 90
      499
 91
      501
 93
      420
310
4255DA5C99599C985B595059028333333333333E33F0000000000000F90107901411070040501600405405064090740C02480A0340
1001
ACAD
1000
AcDbSavedByObjectVersion
1070
     0
  0
ACAD_PROXY_OBJECT
  5
40
102
{ACAD_REACTORS
330
2A
102
}
330
2A
100
AcDbProxyObject
 90
      499
 91
      501
 93
      404
310
41560B54985E51940902404000000000000E03F0000000000000F9010740501907004050150841D405064090740C02480A1B40
1001
ACAD
1000
AcDbSavedByObjectVersion
1070
     0
  0
XRECORD
  5
10000132
102
{ACAD_REACTORS
330
10000128
102
}
330
10000128
100
AcDbXrecord
340
0
  0
XRECORD
  5
10000131
102
{ACAD_REACTORS
330
10000128
102
}
330
10000128
100
AcDbXrecord
 90
        0
  0
XRECORD
  5
10000148
102
{ACAD_REACTORS
330
10000128
102
}
330
10000128
100
AcDbXrecord
1000
DSTYLE
1002
{
1070
   340
340
11
1002
}
  0
XRECORD
  5
10000133
102
{ACAD_REACTORS
330
10000128
102
}
330
10000128
100
AcDbXrecord
  1
{66763074-7239-3179-3272-e6f33037b973}
  0
XRECORD
  5
1000012B
102
{ACAD_REACTORS
330
10000128
102
}
330
10000128
100
AcDbXrecord
  1

  0
XRECORD
  5
10000130
102
{ACAD_REACTORS
330
10000128
102
}
330
10000128
100
AcDbXrecord
 90
        1
  0
XRECORD
  5
1000012D
102
{ACAD_REACTORS
330
10000128
102
}
330
10000128
100
AcDbXrecord
340
1A
  0
XRECORD
  5
1000012F
102
{ACAD_REACTORS
330
10000128
102
}
330
10000128
100
AcDbXrecord
 90
    10781
  0
XRECORD
  5
1000012E
102
{ACAD_REACTORS
330
10000128
102
}
330
10000128
100
AcDbXrecord
340
19
  0
XRECORD
  5
10000135
102
{ACAD_REACTORS
330
10000128
102
}
330
10000128
100
AcDbXrecord
 40
0.0
  0
XRECORD
  5
10000138
102
{ACAD_REACTORS
330
10000128
102
}
330
10000128
100
AcDbXrecord
340
0
  0
XRECORD
  5
1000013E
102
{ACAD_REACTORS
330
10000128
102
}
330
10000128
100
AcDbXrecord
 10
0.0
 20
0.0
 30
0.0
  0
XRECORD
  5
1000013A
102
{ACAD_REACTORS
330
10000128
102
}
330
10000128
100
AcDbXrecord
 10
0.0
 20
0.0
 30
0.0
  0
XRECORD
  5
1000013D
102
{ACAD_REACTORS
330
10000128
102
}
330
10000128
100
AcDbXrecord
 10
0.0
 20
0.0
 30
0.0
  0
XRECORD
  5
1000013B
102
{ACAD_REACTORS
330
10000128
102
}
330
10000128
100
AcDbXrecord
 10
0.0
 20
0.0
 30
0.0
  0
XRECORD
  5
1000013C
102
{ACAD_REACTORS
330
10000128
102
}
330
10000128
100
AcDbXrecord
 10
0.0
 20
0.0
 30
0.0
  0
XRECORD
  5
10000139
102
{ACAD_REACTORS
330
10000128
102
}
330
10000128
100
AcDbXrecord
 10
0.0
 20
0.0
 30
0.0
  0
XRECORD
  5
10000136
102
{ACAD_REACTORS
330
10000128
102
}
330
10000128
100
AcDbXrecord
340
0
  0
XRECORD
  5
10000137
102
{ACAD_REACTORS
330
10000128
102
}
330
10000128
100
AcDbXrecord
 70
     0
  0
XRECORD
  5
1000012C
102
{ACAD_REACTORS
330
10000128
102
}
330
10000128
100
AcDbXrecord
  1

  0
XRECORD
  5
10000129
102
{ACAD_REACTORS
330
10000128
102
}
330
10000128
100
AcDbXrecord
 90
        1
  0
XRECORD
  5
1000012A
102
{ACAD_REACTORS
330
10000128
102
}
330
10000128
100
AcDbXrecord
 90
       70
  0
XRECORD
  5
10000141
102
{ACAD_REACTORS
330
10000128
102
}
330
10000128
100
AcDbXrecord
340
0
  0
XRECORD
  5
10000147
102
{ACAD_REACTORS
330
10000128
102
}
330
10000128
100
AcDbXrecord
 10
0.0
 20
0.0
 30
0.0
  0
XRECORD
  5
10000143
102
{ACAD_REACTORS
330
10000128
102
}
330
10000128
100
AcDbXrecord
 10
0.0
 20
0.0
 30
0.0
  0
XRECORD
  5
10000146
102
{ACAD_REACTORS
330
10000128
102
}
330
10000128
100
AcDbXrecord
 10
0.0
 20
0.0
 30
0.0
  0
XRECORD
  5
10000144
102
{ACAD_REACTORS
330
10000128
102
}
330
10000128
100
AcDbXrecord
 10
0.0
 20
0.0
 30
0.0
  0
XRECORD
  5
10000145
102
{ACAD_REACTORS
330
10000128
102
}
330
10000128
100
AcDbXrecord
 10
0.0
 20
0.0
 30
0.0
  0
XRECORD
  5
10000142
102
{ACAD_REACTORS
330
10000128
102
}
330
10000128
100
AcDbXrecord
 10
0.0
 20
0.0
 30
0.0
  0
XRECORD
  5
1000013F
102
{ACAD_REACTORS
330
10000128
102
}
330
10000128
100
AcDbXrecord
340
0
  0
XRECORD
  5
10000140
102
{ACAD_REACTORS
330
10000128
102
}
330
10000128
100
AcDbXrecord
 70
     0
  0
XRECORD
  5
10000134
102
{ACAD_REACTORS
330
10000128
102
}
330
10000128
100
AcDbXrecord
  1
{FAEB1C32-E019-11D5-929B-00C0DF256EC4}
  0
DICTIONARYVAR
  5
10000153
102
{ACAD_REACTORS
330
10000149
102
}
330
10000149
100
DictionaryVariables
280
     0
  1
1:1
  0
DICTIONARYVAR
  5
1000014B
102
{ACAD_REACTORS
330
10000149
102
}
330
10000149
100
DictionaryVariables
280
     0
  1
Standard
  0
DICTIONARYVAR
  5
1000014A
102
{ACAD_REACTORS
330
10000149
102
}
330
10000149
100
DictionaryVariables
280
     0
  1
Standard
  0
DICTIONARYVAR
  5
1000014E
102
{ACAD_REACTORS
330
10000149
102
}
330
10000149
100
DictionaryVariables
280
     0
  1
2
  0
DICTIONARYVAR
  5
1000014F
102
{ACAD_REACTORS
330
10000149
102
}
330
10000149
100
DictionaryVariables
280
     0
  1
1
  0
DICTIONARYVAR
  5
10000154
102
{ACAD_REACTORS
330
10000149
102
}
330
10000149
100
DictionaryVariables
280
     0
  1
1
  0
XRECORD
  5
10000003
102
{ACAD_REACTORS
330
10000001
102
}
330
10000001
100
AcDbXrecord
 70
     4
  0
XRECORD
  5
10000002
102
{ACAD_REACTORS
330
10000001
102
}
330
10000001
100
AcDbXrecord
1040
86.0
  0
ACAD_PROXY_OBJECT
  5
10000005
102
{ACAD_REACTORS
330
10000001
102
}
330
10000001
100
AcDbProxyObject
 90
      499
 91
      509
 93
       34
310
40C8804000
  0
DICTIONARY
  5
10000157
330
45
100
AcDbDictionary
280
     1
  3
ACAD_XREC_ROUNDTRIP
360
10000158
  0
DICTIONARY
  5
10000155
330
44
100
AcDbDictionary
280
     1
  3
ACAD_XREC_ROUNDTRIP
360
10000156
  0
DICTIONARY
  5
10000159
330
46
100
AcDbDictionary
280
     1
  3
ACAD_XREC_ROUNDTRIP
360
1000015A
  0
XRECORD
  5
10000158
102
{ACAD_REACTORS
330
10000157
102
}
330
10000157
100
AcDbXrecord
102
MATERIAL
148
0.0
149
0.0
149
0.0
 93
        0
 94
      127
282
     0
 72
     1
 77
     1
171
     1
175
     1
179
     1
273
     0
  0
XRECORD
  5
10000156
102
{ACAD_REACTORS
330
10000155
102
}
330
10000155
100
AcDbXrecord
102
MATERIAL
148
0.0
149
0.0
149
0.0
 93
        0
 94
      127
282
     0
 72
     1
 77
     1
171
     1
175
     1
179
     1
273
     0
  0
XRECORD
  5
1000015A
102
{ACAD_REACTORS
330
10000159
102
}
330
10000159
100
AcDbXrecord
102
MATERIAL
148
0.0
149
0.0
149
0.0
 93
        0
 94
      127
282
     0
 72
     1
 77
     1
171
     1
175
     1
179
     1
273
     0
  0
ENDSEC
  0
EOF
